<svg xmlns="http://www.w3.org/2000/svg" viewBox="0 0 128 160" x="0px" y="0px"><g><path d="M72.494,88.848c0,.583-10.79,5.3-11.894,5.7-3.738,1.324-7.529,3.087-11.449,3.783A28.326,28.326,0,0,0,50,101.56c7.778-2.853,15.813-4.971,23.312-8.535C73.015,91.625,72.736,90.24,72.494,88.848ZM121.523,56.5a1.489,1.489,0,0,1-.734,1.263,2.992,2.992,0,0,1-.7.318,3.743,3.743,0,0,1-.559.151,7.328,7.328,0,0,0-1.8.515.287.287,0,0,0-.174.257.632.632,0,0,0,.023.136c.045.144.083.28.143.447.152.348.3.7.446,1.044a13.232,13.232,0,0,1-1.717.643,4.092,4.092,0,0,1-.416.129l-.28.068c-.174.053-.355.1-.537.144a4.571,4.571,0,0,0-1.763.771l-.053.046a3.853,3.853,0,0,0-.916,1.2,10.619,10.619,0,0,1-1.142,1.891,8.94,8.94,0,0,1-4.252,2.369c-1.521.469-3.11.794-4.706,1.135-.8.181-1.605.355-2.391.59-.81.234-1.673.477-2.52.734a47.751,47.751,0,0,1-5.523,1.49,19.518,19.518,0,0,1-6.341.106,66.569,66.569,0,0,1-12.371-3.057c.053,6.379.114,12.629,1.294,18.954.968,5.183,2.86,9.851,4.26,14.868,2.481,8.86-8.149,14.974-15.133,17.523-6.431,2.353-16.351,5.766-22.948,2.27a1.056,1.056,0,0,1-.614-.363.646.646,0,0,1-.166-.159,8.992,8.992,0,0,1-5.062-1.914c-7.256,7.233-9.08-8.6-9.867-13.43a21.858,21.858,0,0,1-4.789.484,11.25,11.25,0,0,1-3.73-.651,7.354,7.354,0,0,1-3.375-2.482A9.068,9.068,0,0,1,11.441,100c-.053-.363-.113-.719-.174-1.082s-.038-.719-.061-1.09c0-.363-.037-.733-.015-1.1l.069-1.089c.211-2.921.923-5.751.809-8.671-.031-2.906-.953-6.023-1.5-9.451a25.254,25.254,0,0,1-.4-5.44c.045-.416.068-.832.144-1.248a3.725,3.725,0,0,1-3.208-1.37,1.16,1.16,0,0,1-.712-.688,3.367,3.367,0,0,1-.189-2.716c.007-.235.015-.477.038-.727A15.253,15.253,0,0,1,14.1,53.7a6.2,6.2,0,0,1,2.988-.583c2.86-3.238,6.893-4.812,10.26-7.384a1.144,1.144,0,0,1,.386-.19c.182-4.676,2.134-9,6.522-10.721a6.215,6.215,0,0,1-1.1-4.071c-1.983,1.2-4.056,1.354-6.03-.635a1.2,1.2,0,0,1-.2-.288,1.064,1.064,0,0,1-.348-1.468A26.2,26.2,0,0,0,29.1,21.19a1.043,1.043,0,0,1,.22-.923c.394-1.725.583-4.085,1.521-5.614A14.648,14.648,0,0,0,32.4,12.088a7.449,7.449,0,0,1,1.044-2.5,13.239,13.239,0,0,1,4.449-3.518A22.042,22.042,0,0,1,49.25,4.06c3.624.242,7.786,1.029,10.555,3.609,2.073,1.937,2.792,4.252,3.7,6.863,1.5,4.305,7.468,9.844,2.254,13.687a1.106,1.106,0,0,1-.378.174,8.419,8.419,0,0,1-3.594,6.068,1.333,1.333,0,0,1-.2.107,12.6,12.6,0,0,1-1.052,3.911c-.2.432-.416.863-.65,1.287,6.514,1.127,16,3.9,16.676,11.379.03.348.052.727.06,1.12a28.575,28.575,0,0,0,11.062,5.153,36.807,36.807,0,0,0,10.669.885,33.506,33.506,0,0,0,4.532-.56,14.536,14.536,0,0,0,3.723-1.2,22.828,22.828,0,0,0,3.048-1.793c.478-.318.931-.62,1.37-.916.22-.151.439-.3.651-.446.234-.151.461-.295.688-.424a11.966,11.966,0,0,1,5.07-1.642,3.953,3.953,0,0,1,2.141.5,3.277,3.277,0,0,1,.432.333c.113.143.219.287.325.431a1.16,1.16,0,0,1,.219.431c.053.144.106.28.152.409.06.272.09.529.128.749-.007.045.053.128-.015.144l-.167.068c-.045.023-.09.038-.143.06a4.217,4.217,0,0,1,.613.749c.045.076.09.144.136.235.053.113.1.227.144.34A2.169,2.169,0,0,1,121.523,56.5ZM120,56.29a.588.588,0,0,0-.03-.158l-.023-.076-.084-.159a1.414,1.414,0,0,0-.181-.272c-.068-.076-.106-.182-.2-.242a2.893,2.893,0,0,0-2.322-.568,10.031,10.031,0,0,0-2.2.545c-2.557.953-3.488,1.74-3.617,1.574-.1-.091.643-1.173,3.239-2.475a9.557,9.557,0,0,1,2.405-.824c.243-.038.507-.061.773-.091a6.606,6.606,0,0,1,.854.03,3.823,3.823,0,0,1,1.166.363l.037-.037c.045-.031.1-.061.045-.137-.052-.121-.105-.249-.158-.386a1.331,1.331,0,0,0-.666-.612,2.9,2.9,0,0,0-1.513-.175,11.476,11.476,0,0,0-4.321,1.748c-.2.121-.385.258-.575.394-.2.151-.416.31-.628.469-.431.318-.878.643-1.339.991-.583.416-1.2.855-1.884,1.279a6.663,6.663,0,0,1,1.808,4.54,5.845,5.845,0,0,1-.219,1.482,7.618,7.618,0,0,1,1.891-2.549c.008-.008.016-.016.023-.016a6.246,6.246,0,0,1,2.49-1.074c.317-.068.628-.144.93-.212.068-.023.2-.03.219-.075-.014-.046-.022-.084-.037-.137l-.015-.128a4.116,4.116,0,0,1-.008-.454,2.037,2.037,0,0,1,.333-.931,2.12,2.12,0,0,1,.7-.612,4.224,4.224,0,0,1,1.263-.432c.356-.061.7-.121,1.037-.189a3.882,3.882,0,0,0,.424-.091.668.668,0,0,0,.2-.06A.278.278,0,0,0,120,56.29Zm-12.129,8.429a4.868,4.868,0,0,0,.621-2.663,5.153,5.153,0,0,0-1.8-3.465,15.318,15.318,0,0,1-3.4,1.112,33.823,33.823,0,0,1-4.79.688,37.48,37.48,0,0,1-11.327-.8,30.957,30.957,0,0,1-10.736-4.623c-.425,2.876-1.665,5.645-4.276,5.713a25.334,25.334,0,0,1,1.03,5.8A67.513,67.513,0,0,0,85.9,69.713a17.486,17.486,0,0,0,5.66-.053,49.383,49.383,0,0,0,5.288-1.384c.871-.258,1.7-.485,2.558-.719.87-.25,1.717-.424,2.535-.6,1.634-.326,3.162-.62,4.554-1.022.25-.083.5-.151.749-.234C107.42,65.438,107.639,65.12,107.866,64.719ZM76.231,108.46c1.877-3.828-.666-7.279-1.74-10.933-.22-.757-.424-1.521-.62-2.277a126.161,126.161,0,0,1-13.052,4.993c-1.052.356-12.152,3.761-12.152,4.169-.355-1.816-3.087-5.758-1.317-7.468.757-.726,9.973-3.177,9.973-3.42a5.493,5.493,0,0,1-.424-1.672c-.241.113-.484.235-.734.341-.492.166-.976.333-1.46.491-.469.122-.931.235-1.384.348a12,12,0,0,0-2.263.75,28.184,28.184,0,0,1-4.328,2.549,36.351,36.351,0,0,1-3.087,2.989,13.517,13.517,0,0,1-1.377,1.029,10.727,10.727,0,0,1-1.634.976,9.207,9.207,0,0,1-.908.462c-.326.121-.651.242-.991.37s-.673.258-1.022.386l-.181.068c1.46,5.985,2.58,12.046,4.365,17.948a10.829,10.829,0,0,0,4.479,1.044,84.563,84.563,0,0,0-2.609-8.444,43.477,43.477,0,0,1-1.643-5.94,19.715,19.715,0,0,1-.287-1.967c-.023-.552-.031-1-.015-1.339.03-.7.128-1,.287-1.014s.348.25.591.885c.121.31.249.719.393,1.226s.371,1.1.59,1.816c.446,1.415,1.142,3.246,2.05,5.622a59.686,59.686,0,0,1,2.966,9.094,37.676,37.676,0,0,0,4.987-.825,54.951,54.951,0,0,0,11.228-3.435C68.937,115.4,74.173,112.652,76.231,108.46ZM71.389,58.341c3.541,1.021,3.533-7.854,2.133-9.776-1.778-2.444-4.683-4.01-7.793-5.062,1.324,2.172,1.74,4.76,2.747,7.43C69.452,53.536,70.511,55.92,71.389,58.341Zm.741,28.177a130.406,130.406,0,0,1-1.165-17.546,30.115,30.115,0,0,0-1.513-9.163.794.794,0,0,1-.136-.447c-.583-1.77-1.294-3.548-2.088-5.455-1.438-3.443-1.771-8.194-4.7-10.737.03.076.045.159.068.235a9.734,9.734,0,0,1,.189,3.185c-.355,3.527-1.513,4.691-1.763,4.48-.129-.1-.084-.394-.007-1.1a24.278,24.278,0,0,0,.166-3.42,9.827,9.827,0,0,0-.393-2.618,2.2,2.2,0,0,0-.621-1.037.769.769,0,0,0-.371-.151,1.517,1.517,0,0,0-.257.008,1.285,1.285,0,0,0-.234.045c-.039.046.007-.038-.121.227a5.092,5.092,0,0,0-.25.885c-.152.7-.257,1.521-.4,2.4a16.264,16.264,0,0,1-.7,2.853,7.241,7.241,0,0,1-.621,1.27,7.635,7.635,0,0,1,3.958,2.883,14.833,14.833,0,0,1,1.475,2.8c.454-.061.893-.189,1.483-.265a3.258,3.258,0,0,1,1.937.31,4.533,4.533,0,0,1,1.226,1.022,1.284,1.284,0,0,1-.106-.1A3.826,3.826,0,0,1,68.2,58.886a11.3,11.3,0,0,1,.287,1.362,17.291,17.291,0,0,1,.159,1.891c.023.938-.03,1.309-.25,1.415-.2.106-.605-.219-.983-1.142-.2-.447-.394-1.045-.628-1.756-.122-.363-.258-.741-.416-1.127a2.418,2.418,0,0,0-.538-.848l-.106-.1a2.261,2.261,0,0,0-.643-.484,1.108,1.108,0,0,0-.666-.046c-.272.053-.635.144-1.059.22a11.557,11.557,0,0,1,.3,5.274c2.966-.023,6.393,3.813,3.813,6.514a9.439,9.439,0,0,1-3.344,2.1c.03.106.069.22.1.333.052.288.068.606.09.893a5.226,5.226,0,0,1-.143.916c-.054.128-.1.257-.144.386.053.083.113.159.167.242a5.989,5.989,0,0,1,.317.65,5.079,5.079,0,0,1,.174.727,4.725,4.725,0,0,1-.007.726,3.39,3.39,0,0,1-.447,1.249,5.246,5.246,0,0,1,.3,2.353,4.321,4.321,0,0,1-.31,1.2,5.494,5.494,0,0,1-.416,4.025,9.3,9.3,0,0,1-1.657,2.315,14.3,14.3,0,0,1,.181,2.989c0,.046-.007.083-.007.129C65.616,89.726,68.862,88.023,72.13,86.518ZM65.419,25.337c1.112-2.232-2.149-5.41-2.913-7.173-.2-.454-.371-.923-.537-1.393a1.562,1.562,0,0,1-.386-.09c-5.244-2.24-11.849-3.556-17.425-1.877-4.714,1.43-8.641,4.283-12.8,6.8a35.274,35.274,0,0,1-2.413,7.1c3.767,3.117,9.82-8.118,11.969-10.131,3.4-3.185,8.18-3.193,12.575-2.626,4.313.553,10.427,2.777,11.6,7.559A13.36,13.36,0,0,1,65.419,25.337Zm-.741,44c1.845-1.045.7-3.753-1.385-3.511a.965.965,0,0,1-.621-.113,4.487,4.487,0,0,1-.469.537c-2.527,2.391-7.642,3.352-11.25,2.535a1.208,1.208,0,0,1-.334.067c-2.126.107-.355,4.139,1.665,3.943a30.236,30.236,0,0,0,5.826-1.309c1.355-.416,2.716-.8,4.063-1.219A13.42,13.42,0,0,0,64.678,69.335Zm-3-37.771a8.061,8.061,0,0,0,1.226-7.453,7.014,7.014,0,0,0-2.429-3.2C60.645,24.361,61.53,28.015,61.681,31.564Zm.78,45.224a.857.857,0,0,0-.046-.326c-.242.144-.477.265-.689.371a13.874,13.874,0,0,1-3.041.915c-1.476.265-2.043.28-2.2-.007-.151-.265.288-.84,1.688-1.521.68-.34,1.619-.711,2.595-1.248a3.194,3.194,0,0,0,1.127-.992c.076-.09.061-.2.113-.279.023-.106.016-.22.038-.326-.022-.136-.022-.265-.045-.416a.361.361,0,0,0-.023-.06c-1.642.476-3.321.817-4.729,1.195a22.052,22.052,0,0,1-4.547.923c-.689,1.5-1.317,3.049-2.156,4.509a11.959,11.959,0,0,1-1.952,2.618c-.091.1-.182.2-.28.3l-.326.257c-.211.166-.431.333-.643.5a4.147,4.147,0,0,1-.635.431l-.614.379c-.068.038-.136.068-.2.106a18.055,18.055,0,0,1,1.007,1.9c.34.734.635,1.4.915,2,.091.2.174.386.265.576a4.45,4.45,0,0,1,.976,1.573,4.314,4.314,0,0,1,.144.5c.355.568.651.946.84,1.211a13.058,13.058,0,0,1,2.754-.968c.431-.114.862-.227,1.309-.348.4-.137.809-.28,1.225-.424,2.823-.969,6.031-2.8,6.659-5.97-.258.046-.492.152-.749.189a2.627,2.627,0,0,1-1.521-.106c-.3-.136-.4-.287-.393-.446.007-.348.529-.5,1.4-.968a3.3,3.3,0,0,0,1.264-1.264,2.871,2.871,0,0,0,.325-1.514,6.524,6.524,0,0,1-.938.417c-1.226.393-1.77.2-1.861-.076-.106-.31.249-.673,1.1-1.347a9.458,9.458,0,0,0,1.46-1.377A1.779,1.779,0,0,0,62.461,76.788ZM60.115,65.052c2.655-1.944,1.044-7.422-.341-9.715-1.959-3.246-7.384-4.57-9.639-.726-2.058,3.518-.583,8.141.666,11.78C53.548,67.224,57.883,66.694,60.115,65.052Zm.915-51.035c-.908-1.165-.892-2.262-2.459-2.867a28.646,28.646,0,0,0-4.1-.719,18.443,18.443,0,0,0-9.389-.015c-3.829,1.127-7.544,2.6-11.4,3.639a30.6,30.6,0,0,0-1.5,4.389c4.321-2.679,8.521-5.35,13.673-6.326C51.134,11.127,56.037,12.527,61.03,14.017ZM60.009,91.943a16.7,16.7,0,0,0,.053-1.96c-.31.227-.628.447-.938.651a4.187,4.187,0,0,0,.287,2l.522-.228A2.917,2.917,0,0,0,60.009,91.943Zm-7.816-46.8c4.275-2.974,7.491-7.854,7.181-13.211-.243-4.116-1.233-8.119-1.188-12.258,0-.037.007-.06.007-.1a15.76,15.76,0,0,0-2.777-.93c-4.237-1-10.222-1.627-13.384,2.065-1,1.165-2.407,3.292-4.041,5.357a1.047,1.047,0,0,1,.333.794A33.679,33.679,0,0,0,40.1,38.714C41.941,43.443,46.738,48.936,52.193,45.138Zm4.146.779c.1-.522.182-1.029.28-1.544a15.282,15.282,0,0,1-3.412,2.77c-.007.068-.007.121-.015.2a8.9,8.9,0,0,1-.348,1.521,7.378,7.378,0,0,1-.726,1.6,8.068,8.068,0,0,1,2.345-.416,3.145,3.145,0,0,0,1.249-1.7A15.18,15.18,0,0,0,56.339,45.917Zm-4.54,2.5q.206-.4.364-.726a11.235,11.235,0,0,1-2.951.908c-4.464.7-8.588-3.215-10.328-6.991-.326.484-.635.93-.9,1.384a3.26,3.26,0,0,0-.688,2.4l.015.038.008.045a2.612,2.612,0,0,0,.56.832,8.275,8.275,0,0,0,.968.886,21.518,21.518,0,0,0,2.164,1.475c.734.439,1.445.825,2.134,1.173.348.174.688.333,1,.469.332.121.65.242.968.356a7.623,7.623,0,0,0,3.367.469,3.533,3.533,0,0,0,2.156-1.09A6.988,6.988,0,0,0,51.8,48.421ZM47.177,7.578a21.324,21.324,0,0,1,9.972.954c-4.4-2.951-11.342-2.716-15.98-1.324a10.875,10.875,0,0,0-5.788,3.934C39.293,9.841,43.128,8.207,47.177,7.578ZM48.584,78.4c.636-1.112,1.173-2.383,1.778-3.73A4.548,4.548,0,0,1,48,72.308c-.961-1.937-.787-4.086.682-5.114-.228-.651-.455-1.347-.667-2.074-1.331.552-2.557.991-3.707,1.468a25.3,25.3,0,0,0-3.647,1.748,4.108,4.108,0,0,0-1.128.93.972.972,0,0,0-.075.091.262.262,0,0,1-.015.084.3.3,0,0,1-.038.083c-.008.038-.015.106-.022.151a4.609,4.609,0,0,0-.046.7c.007.537.046,1.089.03,1.687a5.068,5.068,0,0,1-.3,1.824l-.03.075a8.27,8.27,0,0,1-1.62,2.474c-.575.651-1.119,1.188-1.6,1.658l-.083.083-.038.022-.06.054-.13.105c-.007.091.061.159.1.28a5.876,5.876,0,0,1,.484,1.536c.227,1.831-.249,2.512-.408,2.482-.25-.023-.2-.749-.7-2.2a5.679,5.679,0,0,0-.583-1.127c-.105-.159-.257-.378-.393-.56-.076-.1-.144-.2-.219-.3l-.114-.151-.053-.076c-.015-.023.03-.046.046-.068.3-.371.635-.765.976-1.173.439-.53.923-1.082,1.4-1.71A6.94,6.94,0,0,0,37.2,73.269l.03-.075a3.763,3.763,0,0,0,.107-1.128c-.008-.469-.068-1.021-.091-1.642a5.642,5.642,0,0,1,.037-1.051,2.477,2.477,0,0,1,.038-.3l.106-.348.122-.348c.052-.105.12-.2.181-.294a5.964,5.964,0,0,1,1.74-1.6,25.058,25.058,0,0,1,3.98-1.99c1.256-.53,2.648-1.037,3.972-1.6A22.083,22.083,0,0,1,47,60.565c-4.872,1.378-10.948,1.272-14.837-2.345-2.678-2.489-4.933-6.008-4.835-9.692-2.512,1.7-5.281,3.033-7.529,5.069a27.349,27.349,0,0,1,6.364,3.11c3.692,2.322,8.512,5.576,10.018,9.919,1,2.883,1.429,7-2.126,8.278a9.543,9.543,0,0,1-3.133.514c-.015.242-.03.469-.045.7.779,3.541,1.8,7.029,2.489,10.593v.023a21.663,21.663,0,0,0,2.679-.613,41.237,41.237,0,0,0,8.9-4.025l.574-.356a4.43,4.43,0,0,0,.538-.371l.476-.378.25-.189c.076-.076.144-.159.212-.235A10.3,10.3,0,0,0,48.584,78.4Zm-.855,15a3.288,3.288,0,0,0-3.67-4.547,2.211,2.211,0,0,0-1.52,1.77,3.69,3.69,0,0,0,.643,2.921,2.507,2.507,0,0,0,1.24.893,2.019,2.019,0,0,0,1.536-.061A8.5,8.5,0,0,0,47.729,93.4Zm.87-40.54a9.194,9.194,0,0,1-4.063-.318c-.371-.121-.741-.242-1.128-.371-.393-.151-.764-.31-1.142-.484-.757-.34-1.528-.734-2.323-1.18a20.987,20.987,0,0,1-2.444-1.6,10.154,10.154,0,0,1-1.241-1.089,4.568,4.568,0,0,1-1.074-1.718.073.073,0,0,1-.015-.038,3.884,3.884,0,0,1,0-2.315,8.482,8.482,0,0,1,.862-1.907c.591-1.013,1.31-1.959,1.831-2.86-.28-.817-.521-1.642-.726-2.482a1.221,1.221,0,0,1-.106.2c-1.46,2.149-3.442,4.366-3.306,7.15.083,1.574.393,3.095.529,4.661a11.549,11.549,0,0,1-.015,2.618,1.166,1.166,0,0,1,.537.273c3.383,2.988,7.529,3.4,11.872,3.261a.986.986,0,0,1,.771.28A7.215,7.215,0,0,1,48.6,52.863Zm-1.74,5.38a11.517,11.517,0,0,1,.1-1.362,1.027,1.027,0,0,1-.31.053c-4.835.166-9.352-.492-13.127-3.64a4.509,4.509,0,0,1-1.536,1.529,11.369,11.369,0,0,0,1.785,1.785C37.507,59.582,42.5,59.574,46.859,58.243ZM44.937,87.07A.65.65,0,0,0,44.9,87c-.3-.583-.643-1.2-1.014-1.779-.825.424-1.642.81-2.444,1.166a8.391,8.391,0,0,1,.689,1.5c.166-.121.348-.235.514-.356a5.158,5.158,0,0,1,1-.378A4.76,4.76,0,0,1,44.937,87.07Zm-.015,9.556a3.138,3.138,0,0,1-1.188-.257,4.471,4.471,0,0,1-2.157-1.626,5.56,5.56,0,0,1-.877-4.555c.068-.22.144-.432.227-.644-.015-.022-.038-.038-.06-.068-.379-.431-.826-1.15-1.552-2.232-.907.333-1.8.636-2.686.885a21.932,21.932,0,0,1-4.388.765c-1.362.128-2.641.181-3.814.249a29.715,29.715,0,0,0-5.992.787,8.484,8.484,0,0,0-5.463,4.215c-.1.166-.189.318-.28.461-.068.144-.129.288-.189.409-.114.257-.22.461-.31.628-.175.318-.3.461-.379.446s-.1-.2-.06-.575c.023-.189.06-.431.113-.719.031-.151.053-.31.1-.484s.128-.34.2-.537a5.785,5.785,0,0,1,.59-1.294c.144-.235.295-.477.454-.741a6.1,6.1,0,0,1,.62-.742,9.7,9.7,0,0,1,4.124-2.6,26.047,26.047,0,0,1,5.758-1.074,33.49,33.49,0,0,0-8.663-.56c-.636.045-1.165.091-1.612.121a9.194,9.194,0,0,1-1.082.129c-.575.03-.87-.046-.923-.19s.129-.363.658-.658a10.483,10.483,0,0,1,1.052-.514c.446-.167,1-.3,1.664-.477,3.163-.832,7.461-.885,10.42.454-.046-.023-.462-1.937-.523-2.209a14.781,14.781,0,0,1-.272-2.936c-.008-.81.015-1.7.068-2.671.023-.484.06-1.006.1-1.536-.084-.363-.159-.719-.228-1.089a21.272,21.272,0,0,1-4.7-1.468C21.111,72.6,18.757,71,16.238,69.766c-.886-.431-1.778-.87-2.686-1.263a5.252,5.252,0,0,0-.439.763,1.065,1.065,0,0,1-.37,1.037,9.266,9.266,0,0,0-.3,1.915,23.045,23.045,0,0,0,.371,4.94c.264,1.642.605,3.254.908,4.866a26.732,26.732,0,0,1,.575,4.895c.1,3.284-.674,6.242-.871,8.89-.023.333-.045.666-.068.991s.008.644.008.961c.015.318,0,.636.037.939.053.3.1.605.144.9a6.935,6.935,0,0,0,1.234,3.125c1.233,1.748,3.427,2.33,5.493,2.4a23.591,23.591,0,0,0,6.022-.711c1.831-.431,3.526-.93,5.123-1.445l.25-.106.166-.06c.106-.038.212-.076.31-.106.2-.068.386-.137.568-.2.393-.129.749-.227,1.067-.31.824-.28,1.626-.553,2.391-.8.37-.114.726-.227,1.074-.341s.659-.219.976-.325.62-.2.923-.31.568-.258.848-.379a10.68,10.68,0,0,0,1.536-.824,12.846,12.846,0,0,0,1.331-.893C43.635,97.739,44.309,97.164,44.922,96.626ZM36.1,118.175a6.715,6.715,0,0,0,3.156,1.461c-1.513-5.357-2.558-10.836-3.874-16.245-1.029.386-2.119.794-3.284,1.2.015.007.03.022.045.03.023.023.068.068.106.1a.22.22,0,0,1,.061.06l.158.189a9.508,9.508,0,0,1,1.2,1.793,7,7,0,0,1,.787,2.452l.038.363a1.49,1.49,0,0,1,0,.189l-.015.295a5.045,5.045,0,0,1-.182,1.143,7.14,7.14,0,0,1-.393,1.013l-.189.439c.166.333.332.681.5,1.037a16.37,16.37,0,0,1,1.347,4.222A1.2,1.2,0,0,1,36.1,118.175Zm.478-84.53a43.72,43.72,0,0,1-.478-4.979C35.085,30,35.085,33.3,36.577,33.645ZM25.749,72.1c2.368.786,9.42,2.663,8.943-1.975-.476-4.593-4.366-7.945-7.99-10.366-2.883-1.922-8.641-5.993-12.2-3.731a13.3,13.3,0,0,0-4.812,5.592,18.841,18.841,0,0,1,3.828,1.052,37.662,37.662,0,0,1,4.1,1.891c2.512,1.309,4.684,2.566,6.681,3.488a16.252,16.252,0,0,0,5.387,1.665,2.6,2.6,0,0,0,.916-.121.642.642,0,0,0,.378-.333A2.044,2.044,0,0,0,30.8,67.8a8.559,8.559,0,0,0-1.823-2.558,16.078,16.078,0,0,0-1.672-1.46c-.924-.7-1.347-1.021-1.279-1.173.06-.128.605-.1,1.74.409a10.749,10.749,0,0,1,2.058,1.271,9.072,9.072,0,0,1,2.437,2.83,5.185,5.185,0,0,1,.43,1.188,2.863,2.863,0,0,1-.075,1.581,2.419,2.419,0,0,1-1.271,1.362,4.088,4.088,0,0,1-1.642.348,10.26,10.26,0,0,1-3.117-.492,31.752,31.752,0,0,1-3.148-1.135c-2.149-.93-4.381-2.179-6.84-3.427a38.318,38.318,0,0,0-3.9-1.763A16.091,16.091,0,0,0,8.9,63.811q-.147.545-.25,1.135a11.813,11.813,0,0,1,4.253.863C17.305,67.564,21.277,70.621,25.749,72.1Zm8.224-34.458c-.688,1.09-1.891,1.718-2.512,3a18.792,18.792,0,0,0-1.1,4.108,10.723,10.723,0,0,0,.719,8.058c2.762-1.785.606-6.325.734-9.049A12.049,12.049,0,0,1,33.973,37.639Zm-1.528,72.017-.015-.235a5.324,5.324,0,0,0-.492-1.816,8.906,8.906,0,0,0-.885-1.543l-.121-.167-.235-.28c-.128-.144-.242-.28-.378-.424-.984.326-2.02.636-3.118.924.455,2.731.674,5.485,1.34,8.171.37,1.521.748,3.511,1.838,4.706,1.052,1.166,2.051.349,2.936-.575a14.284,14.284,0,0,0-1.158-3.79c-.612-1.37-1.308-2.626-1.967-3.814l-1.2-2.164,2.906.87c.128.038.174.114.287.2a1.1,1.1,0,0,1,.129.091h.007l.053.053c.023.023.038-.023.053-.045a.317.317,0,0,0,.015-.038C32.437,109.731,32.445,109.693,32.445,109.656ZM10.964,68.48a7.464,7.464,0,0,1,.424-.817c-.258-.084-.507-.174-.765-.25-.771-.227-1.618-.56-2-.386C8.83,68.011,9.481,68.676,10.964,68.48Z"/><path d="M74.794,106.569a1.093,1.093,0,0,1-.273,1.021,1.2,1.2,0,0,1-.439.643c-6.749,5.017-15.2,7.158-23.349,8.626a.306.306,0,0,0-.083.007,1.028,1.028,0,0,1-1.574-.34,10.747,10.747,0,0,1-1.105-6.061,1.008,1.008,0,0,1,.03-.151.945.945,0,0,1,.8-1.135c4.79-.87,9.647-1.566,14.278-3.117a29.791,29.791,0,0,0,6.636-3.087c.847-.537,2.511-1.96,3.594-1.506a1.094,1.094,0,0,1,.5.454C74.514,103.027,74.574,105.608,74.794,106.569Zm-2.323.022c-.174-.809-.348-1.619-.507-2.429-6.257,4.434-14.331,5.721-21.768,7.067a8.575,8.575,0,0,0,.484,3.337C58.3,113.166,66.1,111.161,72.471,106.591Z"/><path d="M52.14,30.421a5.252,5.252,0,0,1,.219,1.544,2.483,2.483,0,0,1-.189.945l-.023.069c-.014.022-.052.1-.052.1l-.016.023-.052.075-.107.159a2.077,2.077,0,0,1-.348.394,2.361,2.361,0,0,1-1.966.522,8.643,8.643,0,0,1-1.506-.386,8.046,8.046,0,0,0-2.172-.522l-.409-.008-.052-.317a2.288,2.288,0,0,1,.325-1.627c.242-.3.409-.417.477-.371.158.083-.189.643-.054,1.43a7.668,7.668,0,0,1,2.21.3c1.982.507,3.049.151,2.587-2.051-.159-.816-.416-1.566-.6-2.209-.394-1.271-.545-2.149-.356-2.194.159-.038.568.651,1.188,1.869A13.66,13.66,0,0,1,52.14,30.421Z"/><path d="M35.184,46.106a.1.1,0,0,0,.008.046l-.023-.084A.073.073,0,0,0,35.184,46.106Z"/></g></svg>