<svg xmlns="http://www.w3.org/2000/svg" viewBox="0 0 128 160" x="0px" y="0px"><g><path d="M123.952,80.305a.926.926,0,0,1-.639,1.137A276.7,276.7,0,0,1,94.836,87.7c-5.022.811-10.105,1.309-15.053,2.52-4.555,1.124-9.036,2.514-13.572,3.712-5.009,1.322-10.056,2.52-15.071,3.817-4.475,1.162-9.171,1.77-13.553,3.252s-8.9,2.286-13.326,3.626c-3.8,1.156-7.579,2.287-11.58,2.373a.915.915,0,0,1-.8-.461c-1.567-3.2-1.665-6.86-1.8-10.357A108.492,108.492,0,0,0,8.323,81.215C7.5,76.6,6.571,72,5.975,67.342c-.6-4.7-.664-9.509-1.943-14.1a.927.927,0,0,1,.892-1.162c.135.006.276-.006.411,0a.8.8,0,0,1,.172-.018c.283,0,.566-.007.843-.019s.534-.043.8-.086a1.239,1.239,0,0,1,.264.012c3.491-.332,6.767-1.549,10.13-2.594,3.128-.977,6.361-1.487,9.5-2.4a5.27,5.27,0,0,1-.682-.713c-.633-.074-1.266-.055-1.906-.086a.907.907,0,0,1-.8-.774,14.186,14.186,0,0,1,.172-2.926c.006-.031.012-.055.019-.08a.762.762,0,0,0-.068-.074,17.3,17.3,0,0,0-2.987-3.147C15.5,34.47,6.811,28.237,14.174,23.093c7.677-5.36,11.543,4.278,14.279,9.926.35.72,1.444,3.971,2.342,4.082.018,0,.043-.006.061-.006a20.882,20.882,0,0,1,2.969.215.83.83,0,0,1,.787.873,1.256,1.256,0,0,1,.012.264,15.2,15.2,0,0,1-.707,2.944c.258.664.725,1.869,1.4,1.967.959.141,1.924.043,2.883.117a.82.82,0,0,1,.787.916.59.59,0,0,1,.006.3c-.012.055-.031.116-.043.172,5.618-.3,11.267-2.563,16.682-3.922,6.331-1.6,12.65-3.227,19.011-4.69,6.405-1.469,12.779-3.4,19.209-4.714,2.864-.584,5.827-.75,8.648-1.555,2.772-.787,5.476-1.77,8.31-2.336a.941.941,0,0,1,1.137.646c2.569,8.3,4.026,17.1,5.864,25.6,1.008,4.635,2.078,9.263,3.116,13.891C121.856,71.934,122.416,76.328,123.952,80.305Zm-2.47-.522c.079-.086.165-.166.245-.252-1.2-3.633-1.745-7.542-2.581-11.261-1.039-4.628-2.115-9.251-3.11-13.891-1.6-7.468-2.938-15.17-4.979-22.564.08,2.79-.215,5.741-2.305,7.542-1.531,1.315-3.9,2.108-5.729,2.931-2.348,1.064-4.714,2.078-7.05,3.172-4.923,2.311-9.779,4.77-14.684,7.118a20.942,20.942,0,0,1,4.118,2.4,36.419,36.419,0,0,0,6.233,3.3,82.716,82.716,0,0,1,13.19,7.333c4.076,2.723,8.753,4.388,12.748,7.154C119.957,74.411,120.805,77.115,121.482,79.783Zm-.824.448a12.993,12.993,0,0,0-1.764-4.769c-1.549-2.133-3.811-3.24-6.141-4.315a80.94,80.94,0,0,1-11.15-6.614,77.469,77.469,0,0,0-11.395-5.9c-3.455-1.567-6.485-4.425-10.1-5.507-3.768,1.789-7.567,3.485-11.458,5a4.215,4.215,0,0,1,2.25,4.678c-.338,1.45-1.383,1.954-1.069,3.571a3.869,3.869,0,0,1-.172,2.766c-.695,1.186-2.355,2.028-3.363,2.944a9.286,9.286,0,0,1-3.343,2.238A10.559,10.559,0,0,1,54.1,72.72a9.948,9.948,0,0,1-4.185-8.015,25.009,25.009,0,0,1-7.462,5.434.876.876,0,0,1-.535.067.762.762,0,0,1-.7-.166,14.465,14.465,0,0,1-2.446-2.655,1.433,1.433,0,0,1-.16-.393.848.848,0,0,1,.086-.935,16.557,16.557,0,0,0,1.223-1.469c-.049-.08-.092-.166-.141-.246a2.1,2.1,0,0,1-1.162-.276,1.931,1.931,0,0,1-.651-.707,2.643,2.643,0,0,0-.351.178.811.811,0,0,1-.873-.092c-4.64,7.689-9.066,15.545-13.9,23.1-3.08,4.807-10.837,12.312-8.28,18.52.056-.006.117-.006.179-.012a33.285,33.285,0,0,0,4.911-1c6.2-1.734,12.367-3.485,18.556-5.188,7.161-1.967,14.519-3.417,21.728-5.231,6.848-1.727,13.6-3.958,20.5-5.464,7.247-1.58,14.678-2.256,21.962-3.7C108.524,83.262,114.61,81.83,120.658,80.231ZM109.772,35.884a30.92,30.92,0,0,0,.234-6.171c-2.711.688-5.323,1.733-8.065,2.3-3.282.689-6.589,1-9.834,1.887-6.362,1.74-12.81,3.135-19.233,4.647-6.349,1.488-12.637,3.2-18.98,4.709-4.869,1.161-9.638,3.085-14.654,3.429.166.179.295.388.5.627.393.455,1.039.658,1.475,1.094a3.466,3.466,0,0,1,1.076,2.84A3.515,3.515,0,0,1,43.936,52.3c1.487-.184,2.932,1.8,3.264,3.215a.755.755,0,0,1-.314.848,5.773,5.773,0,0,1-.516.522,1.888,1.888,0,0,1,.357,2.158,4.961,4.961,0,0,0,1.008-.713.871.871,0,0,1,.977-.1.809.809,0,0,1,.578.35c.418.572.922,1.076,1.389,1.6a9.518,9.518,0,0,1,2.895-3.989c2.041-1.61,4.616-4.241,7.45-3.8a9.635,9.635,0,0,1,6.546,4.481,1.142,1.142,0,0,1,.159.234.754.754,0,0,1,.093.209c.024.043.043.092.061.129C76.335,54.207,84.338,50,92.488,46.1c4-1.911,8.095-3.595,12.072-5.544C106.705,39.5,109.36,38.594,109.772,35.884ZM68.4,63.408c.818-.836,1.058-3.645-1-3.743a.956.956,0,0,1-.892-.682c-.129-.314-.252-.633-.374-.953-1.144-1.856-4.026-4.672-6.528-3.75a18.21,18.21,0,0,0-5.342,3.744c-3.694,3.559-3.374,10.941,1.469,13.584,2.25,1.223,5.489,2.028,7.776.387,1.242-.891,2.237-2.065,3.467-2.975,1.727-1.278.485-3.141.879-4.9A1.752,1.752,0,0,1,68.4,63.408ZM49.867,62.117a23.045,23.045,0,0,0-1.6-1.874c-.1.061-.2.129-.3.19a18.776,18.776,0,0,1-7.308,6.411,12.743,12.743,0,0,0,1.383,1.445A26.388,26.388,0,0,0,49.867,62.117Zm-3.589-.9a.989.989,0,0,1-.344-.117,22.443,22.443,0,0,1-4.057,3.141.945.945,0,0,1-.055.879A17.931,17.931,0,0,0,46.278,61.214Zm-1.432-5.446c.381-.332.885-.418.6-1.156-.744-1.88-3.012.6-3.78,1.224-.664.54-1.316,1.106-1.986,1.641-.817.651-3.528,1.782-3.423,3.012a1.237,1.237,0,0,0,1.42,1.026c.688-.221,1.542-1.524,2.1-2.022a27.883,27.883,0,0,1,4.831-3.448A.975.975,0,0,1,44.846,55.768Zm.436,4.671c-.123-.123-.246-.246-.369-.375a.772.772,0,0,1-.2-.608.453.453,0,0,1-.025-.129,38.731,38.731,0,0,0-4.032,3.208.819.819,0,0,1,.412.4,1.324,1.324,0,0,1,.129.19c.061.123.117.234.178.338A20.524,20.524,0,0,0,45.282,60.439Zm-.442-2.452c.006-.012.018-.006.03-.012-.055-.05-.123-.117-.123-.117-.067-.056-.129-.111-.2-.16a.922.922,0,0,1-.283-.393,25.883,25.883,0,0,0-5.3,4.235.855.855,0,0,1,.3.381c.012.024.03.043.043.067.049.093.092.191.141.283.006.006.08.135.092.154C41.023,60.618,43.143,59.567,44.84,57.987Zm-2.146-4.081a1.159,1.159,0,0,1-.1-.345c-.277-.362-.885-.682-1.242-.473a.469.469,0,0,1-.215.074,41.321,41.321,0,0,1-3.847,2.95,9.846,9.846,0,0,0-1.666,1.082c-.584.559-.074,1.26.449,1.561a.256.256,0,0,1,.067-.043C38.631,57.557,40.475,55.461,42.694,53.906ZM40.426,51.3a1.7,1.7,0,0,0-.59-1.659c-1.143.965-2.151,2.1-3.374,2.962-1.045.744-2.207,1.3-3.264,2.023a2.041,2.041,0,0,0,.141.178c.351.35.732.664,1.088,1.008a21.96,21.96,0,0,1,1.979-1.328c1.328-.916,2.533-1.948,3.805-2.938a1.144,1.144,0,0,1,.209-.123A.845.845,0,0,0,40.426,51.3Zm-1.45-2.182c.221-.239-1.635-1.321-2.047-1.18-.461.16-1.4,1.26-1.813,1.623-.972.848-3.547,1.924-2.975,3.62.485,1.457,3.368-.971,4.093-1.567A27.759,27.759,0,0,0,38.976,49.117Zm-2.2-3.018c.05-.27.111-.534.179-.8a9.541,9.541,0,0,1-1.685-.043c-1.88.793-3.3,2.594-4.978,3.768-.025.572-.154,1.15-.185,1.727,2.563-.614,4.364-3.423,6.632-4.647A.1.1,0,0,1,36.781,46.1Zm-.756,16.738a4.156,4.156,0,0,1-.485-.64c-.019-.024-.031-.049-.049-.073-3.928-.246-7.905-.111-11.845-.142-3.288-.018-6.6.412-9.884.178-4.745-.338-5.249-4.622-7.535-7.744C7.6,60.4,7.616,66.733,8.673,72.776c1.137,6.5,2.563,13,3.043,19.589.233,3.2.079,6.515.676,9.675.215,1.149.3,2.372,1.124,2.839-1.843-5.765,3.639-11.439,6.6-15.864C25.791,80.551,30.764,71.565,36.025,62.837Zm-1.149-1.666a.9.9,0,0,1-.16-.351,1.053,1.053,0,0,1-.031-.633,1.735,1.735,0,0,1-.915-1.18,7.5,7.5,0,0,1-.179-1.45,1.056,1.056,0,0,1-.178-.154c-.553-.627-1.291-1.094-1.795-1.764a11.35,11.35,0,0,1-1.088-2.145,1.036,1.036,0,0,1-.08-.449.912.912,0,0,1,.056-.461c0-.006.006-.012.006-.018a5.763,5.763,0,0,1-.928.129,1.032,1.032,0,0,1-.474-.1.894.894,0,0,1-.768-.725,4.592,4.592,0,0,1-.055-1.641c.08-.547.332-1.346.037-1.869a.928.928,0,0,1-.443.289c-3.928,1.186-7.954,1.887-11.869,3.16a37.469,37.469,0,0,1-9.066,2.053,38.777,38.777,0,0,1,2.1,3.878c1.684,3.1,4.216,3.725,7.579,3.553A168.93,168.93,0,0,1,34.876,61.171ZM34.1,44.815a.242.242,0,0,1-.055-.025,6.687,6.687,0,0,1-1.887-2.827.991.991,0,0,1-.067-.283.875.875,0,0,1-.05-.406,35.171,35.171,0,0,0-4.456,3.553.369.369,0,0,1,.062.074c.725,1.125,1.954,1.709,2.483,2.993.006.031.018.062.024.086A47.951,47.951,0,0,1,34.1,44.815Zm-1.69-4.807c.1-.326.185-.651.258-.983a3.1,3.1,0,0,0-2.428.362c-.547.394-1.057.836-1.616,1.217a7.781,7.781,0,0,0-2.256,1.727,7.786,7.786,0,0,1-.793.935c-.049.362-.1.731-.111,1.094.388.012.775.024,1.162.074A32.943,32.943,0,0,1,32.411,40.008Zm-3.743-1.752c.141-.11.3-.227.467-.35-1.942-3.35-4.137-6.589-5.87-10.056-.793-1.586-1.832-4.548-3.989-4.622-2.176-.08-5.053,1.291-5.71,3.565-1.033,3.614,3.091,6.349,5.47,8.31a33.221,33.221,0,0,1,6.073,5.925,4.665,4.665,0,0,1,1.033-.995C27,39.467,27.826,38.865,28.668,38.256Z"/><path d="M118.759,78.934c.129.486.172.763.1.787-.16.068-.6-.965-1.537-2.378a10.231,10.231,0,0,0-2.083-2.1,22.588,22.588,0,0,0-3.086-2.053c-2.311-1.273-4.579-2.256-6.085-3.246-.375-.258-.713-.492-1.008-.7a5.932,5.932,0,0,1-.682-.59c-.363-.338-.541-.559-.5-.614s.3.049.737.289c.216.116.468.3.781.448s.652.332,1.033.535c.78.375,1.727.818,2.784,1.291s2.25,1,3.442,1.684a18.249,18.249,0,0,1,3.184,2.219,8.351,8.351,0,0,1,2.914,4.425Z"/><path d="M108.844,32.534a9.494,9.494,0,0,1-.024,1.543,4.589,4.589,0,0,1-.627,2.059,5.547,5.547,0,0,1-.756.928c-.16.147-.32.319-.492.461s-.344.276-.523.412a22.331,22.331,0,0,1-2.372,1.549c-.424.239-.861.491-1.3.749-.215.13-.437.259-.652.394l-.166.1-.2.111-.35.19c-.467.259-.946.523-1.426.787-.246.129-.479.271-.737.387s-.523.234-.787.351l-1.568.688c-.51.221-1.02.406-1.518.6-.989.387-1.948.762-2.864,1.118-1.82.719-3.461,1.365-4.844,1.912C84.86,47.962,83,48.257,82.985,48.14c-.043-.166,1.7-.7,4.371-1.942,1.346-.633,2.95-1.371,4.763-2.121.91-.387,1.863-.781,2.852-1.174.486-.2,1-.393,1.5-.615s.99-.436,1.5-.663l.756-.332c.252-.111.492-.258.731-.381q.729-.4,1.439-.775l.35-.184.147-.08.173-.1c.233-.135.461-.27.688-.4.449-.246.891-.486,1.321-.725a24.311,24.311,0,0,0,2.342-1.408c.172-.123.338-.24.5-.356s.283-.252.424-.369a5.209,5.209,0,0,0,.769-.83,4.4,4.4,0,0,0,.633-1.7c.111-.554.147-1.058.19-1.469a3.691,3.691,0,0,1,.2-1.285C108.715,31.243,108.789,31.7,108.844,32.534Z"/><path d="M66.6,61.773c.516,3.442-.554,8.132-4.481,9.116-3.658.915-7.886-1.2-8.784-4.973-.75-3.166,1.352-8.439,4.825-9.183A6.867,6.867,0,0,1,66.6,61.773ZM62.781,69.61c2.656-1.647,3.369-4.653,2.932-7.591-.774-3.282-5.132-6.2-8.365-3.921-2.25,1.573-3.989,5.433-2.981,8.168C55.461,69.235,59.868,71.423,62.781,69.61Z"/><path d="M64.828,62.277a5.765,5.765,0,0,1,.105,2.625,10.555,10.555,0,0,1-.351,1.414l-.135.313-.067.16-.031.08h-.006a.1.1,0,0,0-.019.043l-.006.006-.006.012-.018.025L64.257,67a4.355,4.355,0,0,1-.308.356l-.307.252a2.777,2.777,0,0,0-.473.412l-.1.105v.006l-.018.018-.031.037-.068.074-.27.3a4.181,4.181,0,0,1-.633.541,4.562,4.562,0,0,1-.762.412,4.93,4.93,0,0,1-3.19-.1,6.56,6.56,0,0,1-.72-.277,3.053,3.053,0,0,1-.688-.424,4.426,4.426,0,0,1-.559-.621c-.1-.191-.215-.381-.326-.572a6.672,6.672,0,0,1-.6-1.278c-.031-.117-.037-.209-.062-.307l-.012-.074-.006-.037a.237.237,0,0,1-.006-.092l.012-.234a1.507,1.507,0,0,1,.092-.362l.037-.117.031-.08a.919.919,0,0,0,.037-.209l-.007-.006-.012-.049-.018-.093a1.159,1.159,0,0,0-.215-.356,1.438,1.438,0,0,1-.326-.621,1.629,1.629,0,0,1-.013-.387c.013-.117.037-.172.05-.258a6,6,0,0,1,.866-1.678,7.025,7.025,0,0,1,.9-1.058c.559-.485.922-.682.965-.639s-.228.369-.682.928a8.654,8.654,0,0,0-.7,1.076,4.391,4.391,0,0,0-.356.713c-.05.129-.1.264-.154.4l-.08.209-.019.05-.006.024L55.5,63.1a1.144,1.144,0,0,0-.031.227c.012.043.006.08.019.117a.7.7,0,0,0,.19.277c.049.055.135.159.2.239a2.741,2.741,0,0,1,.178.32l.055.172.025.092.012.043.006.025.007.006v.006l.006.1c-.013.1,0,.172-.025.307a5.313,5.313,0,0,0-.135.572A.232.232,0,0,1,56,65.67v.025l.018.073c.025.093.043.2.068.289a9.076,9.076,0,0,0,.528.978c.117.184.228.368.345.559a4.058,4.058,0,0,0,.356.363,3.254,3.254,0,0,0,1.07.485,3.715,3.715,0,0,0,.663.172,3.032,3.032,0,0,0,.627.093l.32.012.314-.031a2.865,2.865,0,0,0,.6-.141,4.761,4.761,0,0,0,.547-.289,3.845,3.845,0,0,0,.479-.418l.216-.24.147-.154.123-.129a4.041,4.041,0,0,1,.608-.516l.24-.19c.062-.062.092-.117.148-.166l.018-.019.012-.012.019-.049.074-.16.135-.307a11.21,11.21,0,0,0,.313-1.168A5.225,5.225,0,0,0,64,62.486a3.221,3.221,0,0,0-.922-1.647,8.018,8.018,0,0,0-1.261-1.131,3.559,3.559,0,0,0-1.137-.5c-.676-.178-1.094-.221-1.094-.313a2.175,2.175,0,0,1,1.168-.086,3.525,3.525,0,0,1,1.359.4,7.148,7.148,0,0,1,1.469,1.1A3.878,3.878,0,0,1,64.828,62.277Z"/><path d="M63.064,68.135l-.018.018Z"/><path d="M26.639,59.536c2.109.166,3.363.633,3.326.75-.037.16-1.3-.037-3.356-.019-1.027-.006-2.256.062-3.633.092-.688.019-1.426.025-2.194,0s-1.549-.129-2.274-.11a27.379,27.379,0,0,1-4.537.08,4.631,4.631,0,0,1-1.075-.283,4.526,4.526,0,0,1-.523-.258,4.459,4.459,0,0,1-.393-.289,4.63,4.63,0,0,1-1.137-1.457,17.161,17.161,0,0,1-.928-2.317c-.185-.547-.3-.861-.234-.9s.289.2.6.713.664,1.29,1.2,2.126a4.2,4.2,0,0,0,1.02,1.144,4.072,4.072,0,0,0,.369.239c.123.049.221.1.35.142a3.946,3.946,0,0,0,.879.19,36.427,36.427,0,0,0,4.4-.172c.867-.012,1.617.111,2.354.135s1.439.056,2.127.062C24.341,59.425,25.588,59.437,26.639,59.536Z"/><path d="M26.947,36.486c.319.357.473.578.43.627s-.289-.061-.694-.326a6.262,6.262,0,0,1-.652-.645,9.112,9.112,0,0,1-.682-.971c-.461-.732-.892-1.666-1.482-2.533-.073-.11-.153-.215-.227-.325-.049-.08-.184-.2-.271-.314-.19-.215-.387-.443-.583-.67-.412-.449-.812-.971-1.217-1.494a8.872,8.872,0,0,1-1.033-1.647,7.346,7.346,0,0,0-.867-1.383,2.117,2.117,0,0,0-1.1-.664,3.521,3.521,0,0,0-1.235-.055,2.754,2.754,0,0,0-.972.264,1.809,1.809,0,0,0-.584.474,2.786,2.786,0,0,0-.307.418c-.068.092-.129.147-.16.141s-.049-.08-.037-.215a1.47,1.47,0,0,1,.166-.566,1.89,1.89,0,0,1,.615-.737,3.012,3.012,0,0,1,1.174-.5,4.009,4.009,0,0,1,1.506-.068,2.936,2.936,0,0,1,1.635.861A7.711,7.711,0,0,1,21.427,27.7a9.347,9.347,0,0,0,.984,1.537c.393.492.743.984,1.149,1.445.2.233.387.467.572.688a4.223,4.223,0,0,1,.289.369c.079.123.166.252.245.381a28.143,28.143,0,0,1,1.328,2.7c.172.381.35.7.5.984C26.676,36.068,26.824,36.3,26.947,36.486Z"/><path d="M27.051,83.256a11.7,11.7,0,0,1-1.788,2.907c-.578.879-1.26,1.93-2.016,3.092-.75,1.131-1.623,2.446-2.539,3.774-.959,1.278-1.881,2.5-2.711,3.608a10.531,10.531,0,0,0-1.739,3.073,14.816,14.816,0,0,0-.443,2.379c-.067.59-.141.916-.215.916s-.135-.332-.19-.922a9.1,9.1,0,0,1,.141-2.557,9.883,9.883,0,0,1,1.66-3.436c.8-1.168,1.708-2.379,2.661-3.676.916-1.322,1.758-2.539,2.588-3.7.817-1.131,1.536-2.152,2.2-2.975C26.037,84.11,26.941,83.163,27.051,83.256Z"/></g></svg>