<svg xmlns="http://www.w3.org/2000/svg" viewBox="0 0 128 160" x="0px" y="0px"><g><path d="M92.593,85.174c.008,0,.059-.022.11-.037a2.545,2.545,0,0,0,.359-.132,5.54,5.54,0,0,0,.69-.352,13.878,13.878,0,0,1,2.9-1.62,3.829,3.829,0,0,1,1.7-.146,9.977,9.977,0,0,1,1.445.4,26.869,26.869,0,0,1,4.573,1.993,10.527,10.527,0,0,1,.925.58,5.6,5.6,0,0,1,.813.733,4.8,4.8,0,0,1,.9,1.671c.337,1.114.388,2.016.652,2.683a3.4,3.4,0,0,0,.961,1.415,7.805,7.805,0,0,0,.806.616c.183.124.264.2.242.242s-.118.021-.337-.044a3.639,3.639,0,0,1-.975-.477,3.542,3.542,0,0,1-1.269-1.51c-.352-.755-.469-1.715-.82-2.669a4.026,4.026,0,0,0-.814-1.378,4.95,4.95,0,0,0-.668-.556c-.278-.162-.542-.36-.857-.507a28.259,28.259,0,0,0-4.45-1.825,8.7,8.7,0,0,0-1.275-.337,2.9,2.9,0,0,0-1.239.117A14.317,14.317,0,0,0,94.3,85.577a5.4,5.4,0,0,1-.821.418,4.716,4.716,0,0,1-.455.161,1.5,1.5,0,0,1-.315.051,1.338,1.338,0,0,1-.375-.051c-.38-.081-.637-.271-.8-.271h-.279v.176a.177.177,0,0,1,.014.19c-.05.11.008.286-.1.484a1.122,1.122,0,0,1-.681.528,3.8,3.8,0,0,1-1.122.095c-.418-.014-.821-.043-1.195-.051a6.784,6.784,0,0,1,.242,2.448c.109.008.22.023.33.03.227-.044.447-.037.689-.1.249-.088.469-.132.748-.249l.4-.154.154-.051.095-.066a6.659,6.659,0,0,1,1.649-.975,1.7,1.7,0,0,1,.77-.015l.249.066.2.051a1.14,1.14,0,0,0,.506.066,1.872,1.872,0,0,0,.366-.2,3.289,3.289,0,0,0,.455-.448c.3-.337.594-.791.938-1.224a4.924,4.924,0,0,1,.623-.66,2.475,2.475,0,0,1,.367-.308c.153-.088.307-.176.461-.249a1.227,1.227,0,0,1,.477-.161l.5-.1a6.35,6.35,0,0,1,.925.052,8.164,8.164,0,0,1,2.939,1.246c.213.132.417.264.616.4l.161.11a1.133,1.133,0,0,1,.19.169l.286.293c.1.095.191.191.279.293l.242.374a2.6,2.6,0,0,1,.337.858c.095.593.037,1.055.095,1.356a4.213,4.213,0,0,0,.118.462c.073.153.176.3.256.454a6.3,6.3,0,0,0,1.561,1.561c.66.462,1.3.917,1.914,1.357.323.219.638.469.938.718.3.264.594.542.843.726.257.2.506.432.762.608.272.162.543.315.807.469.279.1.55.191.821.286.184.03.359.052.535.081h.733v.051c.982,0,1.994-.146,2.947-.2a3.081,3.081,0,0,0-1.18-.755c-.191-.081-.374-.169-.557-.249l-.279-.132a.6.6,0,0,0-.117-.059c-.015,0-.022-.007-.036-.015-.081-.022-.272-.029-.484-.058a1.951,1.951,0,0,1-.932-.36c-.066-.1-.183-.175-.212-.3a.6.6,0,0,1,0-.345,1.026,1.026,0,0,1,.132-.293c-.183-.132-.382-.264-.587-.388-.337-.206-.659-.4-.967-.587s-.587-.3-.939-.55a2.044,2.044,0,0,1-.689-.938c-.425-1.173-.682-2.03-.938-2.683-.52-1.261-.99-1.642-.872-1.759.036-.044.176.015.454.22a4.144,4.144,0,0,1,1.012,1.261c.359.645.718,1.554,1.158,2.587a1.122,1.122,0,0,0,.418.543c.2.124.55.285.872.454s.653.374,1,.572a5.333,5.333,0,0,1,1.136.777.1.1,0,0,0,.022.015.555.555,0,0,1,.132.271.562.562,0,0,1-.022.271.327.327,0,0,1-.051.117l-.015.022c.169.044.36.037.645.1.074.022.154.051.235.081l.14.066.241.124c.176.074.352.147.528.228a5.106,5.106,0,0,1,.88.432c-.015-.051-.037-.1-.052-.147a14.087,14.087,0,0,0-2.389-4.053c-.836-1.049-1.547-1.884-2.061-2.566-1.04-1.363-1.341-2.06-1.26-2.111.1-.059.557.506,1.715,1.723.579.615,1.349,1.378,2.265,2.4a19.238,19.238,0,0,1,1.826,2.368c-.044-.147-.081-.286-.132-.447a14.737,14.737,0,0,0-2.911-4.5,12.848,12.848,0,0,0-2.8-2.338,2.762,2.762,0,0,0-2.668-.257,3.85,3.85,0,0,1-1.452.25h-.015a3.551,3.551,0,0,1-1.458-.352,9.072,9.072,0,0,1-1.21-.711c-.373-.257-.747-.484-1.129-.719s-.762-.5-1.172-.7a10.344,10.344,0,0,0-5.572-1.283,13.777,13.777,0,0,0-1.612.132c-.543.044-1.108.161-1.679.242-1.115.161-2.243.513-3.475.821-.454.117-.923.227-1.393.33.037.139.081.278.118.41.051.161.11.352.139.484.014.1.037.2.051.3-.388-.235-.77-.455-1.129-.667a2.884,2.884,0,0,0-.484-.272c-.4.066-.806.125-1.231.162a7.449,7.449,0,0,1-2.229-.081A3.611,3.611,0,0,1,81.473,82.8a4.105,4.105,0,0,0,.82,1.693,4.137,4.137,0,0,1,3.674.095A4.34,4.34,0,0,1,87.7,86.222a15.641,15.641,0,0,1,1.708.037,2.559,2.559,0,0,0,.785-.059h.022s0-.007.022-.022c.037-.08.088-.2.161-.366a1.231,1.231,0,0,1,.139-.272,1.158,1.158,0,0,1,.249-.3,1.858,1.858,0,0,1,.382-.235,1.293,1.293,0,0,1,.418-.044,5.483,5.483,0,0,1,.938.206c.029,0,.088.007.073,0ZM118.382,97.7c-.007.029.015.073-.007.081l-.088.007c-.447.037-.909.081-1.371.117-.953.073-1.95.257-3.108.286a19.951,19.951,0,0,0,.7,3.423,31.687,31.687,0,0,1,.821,4.3q.207,1.792.373,3.211a11.6,11.6,0,0,1,.118,1.385,10.221,10.221,0,0,1,.022,1.225c-.015.234-.029.447-.037.66a7.053,7.053,0,0,1,.212.813,3.678,3.678,0,0,1,.074,1.2,2.584,2.584,0,0,1-.161.71c-.052.125-.1.25-.162.367l-.1.147-.007.014a.026.026,0,0,0-.008.022c.008,0,.008.008.015.015l.007.015.081.146a9.7,9.7,0,0,1,.41.961,3.257,3.257,0,0,1,.11.381,2.179,2.179,0,0,1,.03.418,2.517,2.517,0,0,1-.066.7,2.259,2.259,0,0,1-.206.675,2.877,2.877,0,0,1-.308.6,5.928,5.928,0,0,1-1.818,1.766,5.357,5.357,0,0,1-1.224.594,3.344,3.344,0,0,1-1.554.154,3.543,3.543,0,0,1-1.847,1.2,8.532,8.532,0,0,1-3.093.227c-.287-.029-.587-.066-.9-.124a2.349,2.349,0,0,1-.55-.147c-.176-.066-.322-.132-.469-.19s-.272-.118-.418-.184l-.191-.073-.036-.007a.123.123,0,0,0-.147.058l-.029.044a2.56,2.56,0,0,1-.308.323,2.451,2.451,0,0,1-.389.249l-.3.132a4.449,4.449,0,0,1-1.333.389c-.25.007-.514.014-.771.007-.249-.037-.5-.1-.747-.154a3.5,3.5,0,0,1-1.224-.608,1.058,1.058,0,0,1-.271.036c-10.381.367-20.768.645-31.156.308a1.117,1.117,0,0,1-1.1-1.1c0-.8.066-1.59.139-2.382-.015-.139-.029-.279-.044-.418-.066-.792-.125-1.569-.19-2.324-.023-.359-.052-.718-.074-1.063a3.888,3.888,0,0,0-.044-.417.779.779,0,0,0-.073-.191,5.67,5.67,0,0,0-.513-.674c-.081-.1-.162-.191-.242-.294a33.556,33.556,0,0,1-4.948,2.544,13.981,13.981,0,0,1-3.174.85,5.923,5.923,0,0,1-3.512-.388,4,4,0,0,1-.835-.572c-.118-.125-.228-.257-.337-.381a2.2,2.2,0,0,1-.346-.535,5.373,5.373,0,0,1-.263-.887l-.008-.081c-.007,0-.007-.059-.014-.059h-.007l-.162.066a1.59,1.59,0,0,1-.242.059,2.3,2.3,0,0,1-.6-.066c-.19-.059-.337-.117-.5-.183a4.159,4.159,0,0,1-.784-.491,7.9,7.9,0,0,1-1.854-2.383,16.963,16.963,0,0,1-1.071-2.455,12.127,12.127,0,0,1-.381-1.254,8.982,8.982,0,0,1-.212-1.342c-.074-.865-.045-1.671-.052-2.4a9.139,9.139,0,0,0-.169-1.979c-.154-.645-.388-1.356-.579-2-.219-.755-.439-1.5-.652-2.221a10.9,10.9,0,0,1-.513-2.676.028.028,0,0,1-.007-.022c-.1-.249-.206-.491-.308-.733-.073-.257-.154-.506-.227-.763-.147-.513-.323-1-.433-1.51-.08-.513-.161-1.019-.242-1.524a8.471,8.471,0,0,1-.11-1.474q-.023-.726-.044-1.429c0-.316-.066-.741-.1-1.254a3.852,3.852,0,0,1,.241-1.715c.1-.235.206-.462.323-.682a6.553,6.553,0,0,1,.367-.557,10.662,10.662,0,0,1,.747-.953l.389-.44a3.609,3.609,0,0,1,.557-.5,4.41,4.41,0,0,1,1.239-.616,5.536,5.536,0,0,1,1.693-.279.378.378,0,0,1-.051-.058A3.44,3.44,0,0,1,47,79.69a2.239,2.239,0,0,1,.322-1.407,2.069,2.069,0,0,1,1.591-.931,3.953,3.953,0,0,1,.945.066c.081-.557.155-1.114.235-1.671-1.143.022-2.279.066-3.416.168a28.848,28.848,0,0,1-6,.257c-1.385-.183-2.089-1.591-2.918-2.522-1.576-1.781-2.947-3.892-4.963-5.226a47.67,47.67,0,0,1-4.926-3.71c-2.309-1.986-4.647-4.1-7.543-5.183a4.679,4.679,0,0,1-2.419-1.774c-2.126-3.2-2.888-7.008-4.56-10.431-2.91-5.96-9.39-13.84-4.1-20.123,2.823-3.35,4.025-7.118,6.268-10.769,1.59-2.58,3.665-4.713,6.766-5.277C32.658,9.265,42.679,5.343,53.221,4.383a64.8,64.8,0,0,1,9.016-.337c1.489.066,4.179-.154,5.542.645,1.319.77,1.715,2.272,3.431,2.866A37.164,37.164,0,0,0,76.165,8.84a57.9,57.9,0,0,1,10.857,3.277c3.526,1.459,4.266,3.848,6.312,6.795,2.455,3.556,6.319,6.092,8.474,9.86,1.649,2.881,1.583,5.938,1.026,9.163-.821,4.794-2.617,9.222-3.856,13.9-.66,2.515-.506,5.813-2.544,7.7a1.89,1.89,0,0,1-.2.154,4.292,4.292,0,0,1-3.4,3.855.85.85,0,0,1-.234.03,14.9,14.9,0,0,1-.939,3.218c.257,1.209.418,2.361.594,3.431a25.216,25.216,0,0,0,.755,3.4l.264.748a3.064,3.064,0,0,0,.286.535,3.265,3.265,0,0,0,.865.843A10.842,10.842,0,0,0,96.9,76.876a25.174,25.174,0,0,1,2.587,1c.769.345,1.488.668,2.17.968,1.356.594,2.544,1.261,3.556,1.774a7.876,7.876,0,0,1,1.407.88,9.193,9.193,0,0,1,1.041.945,14.781,14.781,0,0,1,1.231,1.511,2.147,2.147,0,0,1,.316-.044,4.092,4.092,0,0,1,.733.029,6.862,6.862,0,0,1,.659.2c.36.183.711.366,1.041.55a13.172,13.172,0,0,1,3,2.668,13.909,13.909,0,0,1,2.837,4.992,12.31,12.31,0,0,1,.345,2.617,5.156,5.156,0,0,1,.22.667c.037.132.066.264.095.4a3.417,3.417,0,0,1,.095.477c.03.227.059.454.089.682l.043.351ZM112.723,119.5a3.858,3.858,0,0,0,1.671-3.5c-.007-2.3-1.114-4.985-1.7-6.664a21.066,21.066,0,0,0-1.679-3.694c-.242-.455-.5-.8-.7-1.115s-.382-.542-.514-.74c-.264-.4-.352-.631-.271-.726s.308-.044.748.213a3.845,3.845,0,0,1,.8.572,8.118,8.118,0,0,1,1,1.041,12.592,12.592,0,0,1,1.356,1.972c-.043-.257-.088-.528-.131-.792a35.621,35.621,0,0,0-.887-3.893,21.457,21.457,0,0,1-.837-4.3c-.153-.052-.307-.1-.468-.154-.331-.184-.661-.367-1-.558-.322-.205-.608-.454-.916-.7-.33-.249-.571-.469-.828-.7-.279-.213-.557-.426-.865-.645-.616-.418-1.283-.858-1.957-1.342a7.618,7.618,0,0,1-1.95-1.935c-.125-.22-.257-.433-.367-.667a4.664,4.664,0,0,1-.22-.8c-.081-.572-.036-1.005-.095-1.3a1.009,1.009,0,0,0-.176-.388l-.117-.2-.206-.206-.2-.2-.058-.059-.133-.088c-.183-.131-.373-.249-.564-.366a6.953,6.953,0,0,0-2.382-1.019c-.837-.154-1.3.125-1.914.88-.3.381-.579.814-.982,1.282a4.681,4.681,0,0,1-.7.675,3.521,3.521,0,0,1-.461.279l-.272.139a2.154,2.154,0,0,1-.351.073,2.717,2.717,0,0,1-1.122-.11l-.352-.095c-.073,0-.015-.015-.051,0a7.276,7.276,0,0,0-1.232.792,2.442,2.442,0,0,1-.263.161l-.25.095-.411.161c-.249.1-.6.2-.9.294a8.2,8.2,0,0,1-1.049.154c-.2-.015-.4-.037-.593-.059a9.565,9.565,0,0,1-.315,1.048,13.216,13.216,0,0,0,1.319-.484,1.1,1.1,0,0,1,1.643,1.071,1.079,1.079,0,0,1,.131.55c-.029,2.287.227,4.559.249,6.846,0,.03-.007.052-.007.081a1.087,1.087,0,0,1-.8,1.158,6.039,6.039,0,0,0-.689.2,8.266,8.266,0,0,1,.689.939c.191.307.352.615.5.909a7.967,7.967,0,0,1,3.474.813c1.071.492,1.965,1.041,2.793,1.445.557.249.316.19.689.176.015-.008.132-.11.132-.11a2.449,2.449,0,0,1,.557-.382c.081-.036.169-.065.257-.095a1.8,1.8,0,0,1,.359-.037,1.393,1.393,0,0,1,.183.008h.022a.036.036,0,0,1,.023.007c.029.008.08.015.176.044a.087.087,0,0,0,.029.015l.08.029.088.037a1.953,1.953,0,0,1,.22.124c.015.008.029.022.044.029a7.039,7.039,0,0,1,.088-2.668,2.977,2.977,0,0,1,.213-.542,2.984,2.984,0,0,1,.762-1.012,1.5,1.5,0,0,1,.227-.168l.088-.03c.008,0,.088-.044.073-.058a.511.511,0,0,1-.014-.066l-.074-.11-.014-.03-.051-.1-.089-.2a4,4,0,0,1-.278-1.452,15.283,15.283,0,0,1,.11-2.126,13.394,13.394,0,0,0,.168-2.7,4.851,4.851,0,0,0-.116-.828,4.525,4.525,0,0,0-.133-.594c-.058-.323-.043-.513.052-.579s.271-.007.543.242a2.1,2.1,0,0,1,.446.542,3.693,3.693,0,0,1,.455.946,9.283,9.283,0,0,1,.33,3.072c0,.593.007,1.238.066,1.891a2.378,2.378,0,0,0,.2.8l.037.073.014.037.124.08c.162.11.323.228.491.338.536.271,1.086.542,1.643.821-.272.183-.733.454-1.166.718s-.894.535-1.356.814l-.169.11a.881.881,0,0,0-.08.058.32.32,0,0,0-.088.081.665.665,0,0,0-.139.154.723.723,0,0,0-.1.183.818.818,0,0,0-.088.249,3.874,3.874,0,0,0-.029,1.422c.029.286.081.624.125.968a1.789,1.789,0,0,1,.594.073c.154.044.308.088.446.14l.367.2a6.014,6.014,0,0,1,1.8,1.913c.1.161.2.315.286.469l.132.235c.066.11.03.051.044.08.022.059.044.11.059.162s.051.124.08.19l.044.1c.015.022.045.11.045.066a3.668,3.668,0,0,1,.131-.381,1.339,1.339,0,0,1,.279-.338,2.016,2.016,0,0,1,.586-.373,2.59,2.59,0,0,1,1.056-.22h.491a4.473,4.473,0,0,1,.462.1,2.457,2.457,0,0,1,.784.352,3.71,3.71,0,0,1,.557.491,5.8,5.8,0,0,1,.352.506,3.347,3.347,0,0,1,.433,1.5c-.008.33-.059.476-.14.491s-.2-.1-.351-.359a7.458,7.458,0,0,0-.741-1.07,1.78,1.78,0,0,0-1.722-.638,1.266,1.266,0,0,0-.543.169.55.55,0,0,0-.154.131l-.014.03c-.008.007-.008,0-.015.022l-.023.08-.043.161-.037.25c-.036.352-.073.726-.132,1.048-.044.286-.095.579-.146.872-.095.558-.176,1.056-.323,1.76a5.125,5.125,0,0,1-.367-.521c-.124-.19-.249-.388-.38-.586-.257-.389-.521-.777-.807-1.246s-.579-.983-.88-1.518c-.191-.329-.249-.41-.337-.55s-.176-.271-.271-.395a4.173,4.173,0,0,0-1.2-1.246c-.043-.03-.095-.052-.138-.081l-.118-.022c-.081-.051-.147.014-.212-.015l-.265.095-.073.059-.219.191-.463.395c-.3.257-.608.514-.916.777l-.058.052-.045-.066-.08-.132-.169-.264-.33-.542-.344-.558c-.059-.087-.11-.183-.169-.271l-.088.066a1.836,1.836,0,0,1-.645.264l-.344.052-.184.014a2.761,2.761,0,0,1-.638-.022,4.754,4.754,0,0,1-.96-.352c-1.635-.792-3.079-1.767-4.64-1.979a5.7,5.7,0,0,1,.059,1.547,16.8,16.8,0,0,1-.851,3.482,6.333,6.333,0,0,1-1.246,2.382c-.073.081-.147.169-.227.249a4.359,4.359,0,0,0,.7.682,6.234,6.234,0,0,0,1.833.968,12.937,12.937,0,0,1,1.2.513c.234.154.469.308.674.469.162.183.323.359.484.535a3.281,3.281,0,0,1,.388.536l.287.439a2.213,2.213,0,0,0,.2.257c.081.058.161.124.242.191l.066.051a3.52,3.52,0,0,0,1.012.41,4.209,4.209,0,0,1,1.642.865,5.6,5.6,0,0,1,.953,1.342,4.143,4.143,0,0,0,.527.821,1.728,1.728,0,0,0,.638.359c.14.037.264.073.4.11a2.019,2.019,0,0,1,.374.007,2.653,2.653,0,0,0,.777-.2l.2-.073c.059-.022.029-.022.059-.022.015-.022.015,0,.051-.052a3.365,3.365,0,0,1,.3-.352,1.569,1.569,0,0,1,1.613-.351c.138.029.278.1.417.146l.235.117c.147.067.285.14.425.213.125.059.242.117.359.176a.956.956,0,0,0,.279.088c.249.066.505.117.755.161a8.006,8.006,0,0,0,2.558.059,2.072,2.072,0,0,0,1.957-1.745c.074-.322.081-.579.118-.755s.081-.264.146-.278.14.051.228.212a2.263,2.263,0,0,1,.2.535A2.579,2.579,0,0,0,112.723,119.5Zm-5.747-35.1a2.749,2.749,0,0,0,.924-.154c-.316-.264-.667-.572-1.078-.894a9.153,9.153,0,0,0-1-.7,7.27,7.27,0,0,0-1.312-.638c-1.041-.418-2.163-.953-3.57-1.488-.7-.271-1.444-.564-2.229-.872a25.551,25.551,0,0,0-2.456-.844,12.565,12.565,0,0,1-3-1.3,5.564,5.564,0,0,1-.682-.528,7.086,7.086,0,0,1-.814,2.155,12.32,12.32,0,0,1-1.708,2.324,25.482,25.482,0,0,1,2.757-.608c.586-.088,1.158-.2,1.752-.249a13.8,13.8,0,0,1,1.737-.125c.286-.007.572-.022.858-.015.286.022.572.044.858.074a10.232,10.232,0,0,1,1.649.278,12.569,12.569,0,0,1,1.532.513c.491.191.931.448,1.393.667s.828.514,1.239.756.8.5,1.158.762a3.719,3.719,0,0,0,1.95.879Zm-6.26-47.048c.344-2.492.681-5.256-.807-7.463,0-.007,0-.007-.007-.007a.489.489,0,0,1-.095.073,40.405,40.405,0,0,1-7.925,4.479c-1.569.748-3.335,1.569-5.248,2.61l.212.66c.184.6.227,1.07.323,1.466.015.08.036.139.051.2.11-.132.22-.256.308-.359l.359-.4.132.381.858-1.561-.1,2.016a2.056,2.056,0,0,1,.514-.11,1.724,1.724,0,0,1,.975.19l.021.008.03.029a3.2,3.2,0,0,1,.286.264,1.862,1.862,0,0,1,.227.374,2.7,2.7,0,0,1,.095.388l.015.11a1.512,1.512,0,0,0,.014.184c.074-.015.14-.023.206-.037h.059l.014-.007H91.3l.139.007c.206.029.418.066.631.1l.77.153-.118.836c-.124.872-.11.682-.051.784a.084.084,0,0,0,.073.008c.03,0-.015-.008.088,0a3.151,3.151,0,0,1,.484.066,2.738,2.738,0,0,1,.616.242c.2.095.322.3.483.447a2.066,2.066,0,0,1,.33.476,2.987,2.987,0,0,1,.2.448,9.08,9.08,0,0,1,.439,1.671c.045.242.088.491.14.74.058.264.124.536.19.814a21.477,21.477,0,0,1,.543,3.731,12.719,12.719,0,0,1-.529,4.355l-.058-.015c.1.154.183.315.264.477.5-1.577.469-3.534.923-4.941C98.311,46.7,100.063,42.106,100.716,37.349Zm-1.158-7.741c.036-.022.065-.044.1-.066a42.24,42.24,0,0,0-4.2-4.8,26.824,26.824,0,0,1-4.025-4.721c-1.224-2.052-2.06-4.376-4.384-5.476a46.387,46.387,0,0,0-10.644-3.416c-1.151-.234-2.477-.447-3.789-.762a4.5,4.5,0,0,1-.118.7,15.63,15.63,0,0,1-1.21,3.087c-.3.6-.622,1.253-.989,1.979-.315.74-.66,1.547-1.041,2.419-.762,1.752-1.569,3.805-2.632,6.121-.483,1.173-1.144,2.368-1.8,3.651a7.4,7.4,0,0,1-.557.975,8.787,8.787,0,0,1-.682.96c-.484.616-1.026,1.195-1.575,1.774s-1.093,1.18-1.591,1.818c-.015.03-.037.051-.052.081.161-.037.315-.081.476-.117,1.049-.242,2.061-.536,3.058-.7,1-.184,1.957-.359,2.873-.521s1.789-.308,2.61-.447,1.583-.2,2.28-.278c2.8-.3,4.537-.4,4.559-.228.052.4-6.81,1.393-15.086,3.38-.521.117-1.034.242-1.532.359-.088.213-.169.432-.242.667q-.815,2.54-1.708,5.337c-.543,1.869-.946,3.9-1.481,6.011-.161.623-.33,1.261-.52,1.9a4.311,4.311,0,0,1,1.4-1.166l.477-.235.455-.146c.3-.1.593-.213.894-.286,2.4-.638,4.7-.895,6.81-1.356a38.319,38.319,0,0,0,9.127-3.248c-.088-.476-.154-.96-.242-1.429.564-.059,1.077-.25,1.642-.264.256-1.979.051-1.811,2.192-1.525.227-.814.227-1.671.447-2.493a13.937,13.937,0,0,1,2.793,1.379c.015-.389.271-.631.374-.953.183.081.931.652,1.158.623.777-.095.462-.858.894-1.422,1.012-1.312,1.093.293,1.371,1.341-.506-1.884,5.044-3.907,6.107-4.383A50.231,50.231,0,0,0,99.558,29.608Zm-2.8,91.508c-.051-.059-.1-.132-.147-.183a2.335,2.335,0,0,0-.85-.36,5.389,5.389,0,0,1-1.627-.7c-.191-.14-.374-.279-.557-.433a4.708,4.708,0,0,1-.47-.571l-.315-.47a1.446,1.446,0,0,0-.256-.344,3.532,3.532,0,0,1-.264-.3,2.256,2.256,0,0,1-.265-.176c-.249-.117-.534-.227-.937-.381a7.251,7.251,0,0,1-4.054-3.2c-.44-.087-.814-.227-1.173-.314-.278-.089-.455-.1-.792-.191-.176-.037-.345-.081-.528-.125-.175-.066-.352-.124-.535-.19a5.73,5.73,0,0,1-1.356-.807c.022.557.066,1.159.117,1.811a32.029,32.029,0,0,1,.176,4.494,9.9,9.9,0,0,1-.374,2.287c-.058.183-.131.359-.2.535C87.146,121.424,91.956,121.285,96.757,121.116ZM94.1,59.143a5.031,5.031,0,0,0-.044-1.723c-.058-.213-.454-1.312-.806-.792a1.515,1.515,0,0,1-.191.228c0,1.378-.022,2.866-.147,4.347A2.142,2.142,0,0,0,94.1,59.143Zm-.278-4.824a14.752,14.752,0,0,0-.191-6.231c-.058-.271-.11-.542-.169-.806-.051-.286-.095-.565-.139-.843a8.274,8.274,0,0,0-.286-1.3,3.366,3.366,0,0,0-.154-.359.079.079,0,0,0-.044-.037,1.1,1.1,0,0,0-.191-.036c-.124-.008-.388-.037-.579-.066a1.212,1.212,0,0,1-.285-.066.6.6,0,0,1-.257-.117L91.3,44.3c-.037-.022-.051-.073-.125-.073l-.088-.1a2.007,2.007,0,0,1-.366-1.451c0-.015.008-.03.008-.044h-.1c-.52-.029-1.018-.059-1.487-.1.043-.543.073-.976.139-1.474l.036-.227a1.042,1.042,0,0,0-.249.029,1.458,1.458,0,0,0-.462.191l-1.547,1.136.235-.982c-.029-.015-.044,0-.059.007-.292.161-.484.2-.557.139s-.036-.249.154-.579l.023-.022-.066-.073a3.01,3.01,0,0,1-.624-1.048c-.2.366-.381.74-.564,1.107-.22-.675-.579-2.009-1.291-2.31-.168.448-.388.939-.564,1.335a4.08,4.08,0,0,0-.857-1.093c-.411.47-.763,1.9-1.349,1.98-.44.058-.982-.829-1.577-.77-.088.747-.022,1.51-.138,2.258-.873-.469-1.57-1.327-2.669-1.386-.015.5,0,1.012-.015,1.511a6.325,6.325,0,0,0-.909-.2c1.012,1.363.579,2.661-.4,3.877a9.371,9.371,0,0,0-.923,1.269,6.163,6.163,0,0,0-.521,1.429,15.958,15.958,0,0,0,.257,6.422c.043-.008.088,0,.131-.008-.271-2.859-.351-6.319,1.262-8.422,2.059-2.691,4.288-1.936,7.345-1.98,2.785-.476,6.245-1.187,8.136,1.6,1.679,2.471,1.5,5.234,1.518,8.079A2.012,2.012,0,0,1,93.818,54.319ZM91.56,75.725a5.4,5.4,0,0,1-.272-.543c-.11-.286-.212-.579-.322-.872a.458.458,0,0,1-.03-.088c-1.715,1.268-3.5,2.441-5.226,3.68a13.193,13.193,0,0,1,1.6,2.925c.1.257.191.5.286.733.014.044.029.095.043.146a15.85,15.85,0,0,0,2.889-3.3A6.617,6.617,0,0,0,91.56,75.725Zm-.711-19.756c-.022-1.613.125-3.262-.022-4.868-.382-4.215-3.343-4.919-7.1-4.288h-.015a1.115,1.115,0,0,1-.279.036c-2.947.059-5.74-.535-6.319,3.321a25.846,25.846,0,0,0,.088,7.125c.469,3.578.851,11.194,5.6,11.876C90.9,70.337,90.9,61.532,90.849,55.969Zm-.579,52.487c-.045-.264-.088-.6-.176-1.034a9.771,9.771,0,0,0-.719-2.155,8.681,8.681,0,0,0-.792-1.4,6.256,6.256,0,0,0-.967-1.122H80.967a3.6,3.6,0,0,0-.081.741l.059.007a1.913,1.913,0,0,1,.388.051l.858.088c-.2.565-.476,1.3-.616,1.789l-.058.2.007.051c0,.037-.007.066-.007.1.015.044,0,.088.029.132a.467.467,0,0,0,.088.146l.037.044c.029.037-.044-.014.139.14l.381.3c.264.206.513.4.77.579.242.177.476.352.718.528-.491.264-.968.528-1.444.785l-.183.095a1.3,1.3,0,0,0-.11.081l-.066.043a.981.981,0,0,0,.168.389,2.88,2.88,0,0,0,.536.63c.066.059.256.206.4.323s.285.242.425.359a5.35,5.35,0,0,0,1.371,1.012c.116.044.234.095.344.139.125.037.242.073.367.1.242.08.645.168.916.271a9.283,9.283,0,0,0,1.364.433.755.755,0,0,0,.315,0c.029-.03.058-.008.109-.044l.176-.176a5.682,5.682,0,0,0,1.129-1.723C89.837,109.6,90.079,108.969,90.27,108.456Zm.227-35.81c-.242-1.041-.411-2.119-.587-3.2a7.461,7.461,0,0,1-5.542,2.016,7.288,7.288,0,0,1-5.857-2.639,25.391,25.391,0,0,1-.616,2.69,21.291,21.291,0,0,0,6.532,5.417C86.428,75.468,88.517,74.134,90.5,72.646ZM88.979,99.681c-.044-1.8-.19-3.592-.213-5.395-.292.095-.579.191-.864.3a27.074,27.074,0,0,0,.242,5.447C88.422,99.916,88.7,99.791,88.979,99.681ZM86.362,82.22h.015a.066.066,0,0,1-.03-.022c-.014-.03-.036-.037-.058-.066s-.015-.015-.051-.081c-.088-.2-.183-.425-.286-.645a13.161,13.161,0,0,0-1.159-2.119,18.3,18.3,0,0,1-2.265,2.39,3.3,3.3,0,0,0,2.727.711c.1-.022.221-.044.345-.058a3.1,3.1,0,0,1,.374-.03,1.862,1.862,0,0,1,.2-.015l.051-.021A1.318,1.318,0,0,1,86.362,82.22Zm-7.375,18.326H86A30.071,30.071,0,0,1,85.7,94.7a37.926,37.926,0,0,0-6.715-.029A19.52,19.52,0,0,0,78.987,100.546Zm6.562-8.371c.725-1.445,1.3-4.186-.184-5.381a2.246,2.246,0,0,0-3.387.8c-.9,1.576-.468,3.028.015,4.655.015.044.015.088.03.125a26.418,26.418,0,0,1,3.423.095A1.141,1.141,0,0,1,85.549,92.175Zm-3.856,26.419c.109-2.58-.213-5.043.014-6.971a.091.091,0,0,0-.029-.022c-.139-.11-.234-.183-.447-.36a5.07,5.07,0,0,1-.946-1.055,2.814,2.814,0,0,1-.132-2.669c-.5-.322-.953-2.272-.579-2.147a1.628,1.628,0,0,1-.909-1.576,4.686,4.686,0,0,1,.051-1.049h-.652a1.235,1.235,0,0,1-.484-.095,1.034,1.034,0,0,1-.74-1c-.045-2.7-.7-5.469.161-8.115a1.066,1.066,0,0,1,.857-.741,1.016,1.016,0,0,1,.756-.307c.381-.008.769-.015,1.151-.03-.645-2.287-.887-4.545.725-6.553a5.233,5.233,0,0,1,.521-.55,5.589,5.589,0,0,1-.843-1.554c-.22.2-.432.41-.645.616a.782.782,0,0,1-1.21-.155c-1.737-2.367-2.111-5.285-3.284-7.909-.176.125-.345.242-.52.344a16.514,16.514,0,0,1-4.6,1.643c-.719.168-1.4.322-2.031.5-.322.081-.608.168-.9.264-.294.125-.579.242-.858.359a14.383,14.383,0,0,0-5.292,3.775c-.316.367-.595.748-.88,1.1-.257.381-.5.748-.741,1.1-.417.777-.806,1.5-1.166,2.163-.088.169-.175.33-.263.491s-.147.33-.221.491c-.138.323-.27.631-.4.924-.263.6-.505,1.144-.733,1.642a16.752,16.752,0,0,1-1.3,2.405c-.088.131-.169.256-.25.373-.051.147-.095.293-.154.447l-.109-.051c-.052.074-.095.147-.14.2.022.206.045.411.059.623s.044.44.066.66l.066.587c.022.2.051.388.08.579a3.9,3.9,0,0,0,.279.916,1.6,1.6,0,0,0,.14.242.057.057,0,0,0,.029.03c.007,0,.014.007.029.007s.1,0,.176-.007a4.4,4.4,0,0,1,1.026-.037,1.611,1.611,0,0,1,1.364,1.019,1.316,1.316,0,0,1,.132.769,1.989,1.989,0,0,1-.132.433c-.029.073-.066.161-.081.2l-.036.073a.8.8,0,0,0,.029.147c.022.11.036.08.036.08.03.059.132.147.374.25a5.181,5.181,0,0,1,.909.454,6.649,6.649,0,0,1,.748.616,6.984,6.984,0,0,1,1.694,2.544,22.793,22.793,0,0,1,1.011,3.321c.183.674.213,1.011.088,1.077s-.366-.154-.792-.77c-.4-.608-.864-1.678-1.583-3.005a6.008,6.008,0,0,0-1.539-1.906,3.405,3.405,0,0,0-.536-.381,3.609,3.609,0,0,0-.659-.272,2.594,2.594,0,0,1-1.158-.747,2.876,2.876,0,0,1-.242-.389,1.807,1.807,0,0,1-.154-.352l-.074-.234-.022-.059-.007-.029-.037-.169a2.05,2.05,0,0,1,0-.359,1.054,1.054,0,0,1,.037-.2c0-.015.007-.037-.008-.052a.106.106,0,0,0-.109-.036.253.253,0,0,1-.067.022c-.109.007-.219.022-.388.029a2.324,2.324,0,0,1-.542-.058,1.97,1.97,0,0,1-.961-.55,2.949,2.949,0,0,1-.535-.756,5.566,5.566,0,0,1-.491-1.451c-.051-.234-.088-.469-.124-.7a.347.347,0,0,1-.008-.066c-.022-.037-.022-.059-.037-.03l-.014.03c.066-.059-.1.132-.191.234a3.036,3.036,0,0,1-.345.345,5.526,5.526,0,0,1-1.708,1.077,1.507,1.507,0,0,0-.19.059.818.818,0,0,0,.051.081,5.09,5.09,0,0,1,.293.667,6.983,6.983,0,0,1,.264,2.4c0,.154.007.308.007.454.008.169.016.337.03.506-.007.183-.007.367-.007.55a5.57,5.57,0,0,1-.1.645,1.921,1.921,0,0,1-.264.528c-.066.073-.124.154-.183.212l-.073.074-.022.015c-.08.043-.118.124-.191.175a.318.318,0,0,0-.073.1c.008.036.044.058.066.073a.39.39,0,0,1,.088.066.484.484,0,0,1,.03.125.54.54,0,0,1,0,.212c.007-.022.007-.044.014-.073l.007.022.022.037.044.073.008.022a.467.467,0,0,1,.007.095l.007.169a.813.813,0,0,1-.014.176,1.02,1.02,0,0,1-.095.168.868.868,0,0,1-.25.286,2.406,2.406,0,0,1-.689.33c-.059.022-.11.044-.11.044a2.24,2.24,0,0,0-.147.22.316.316,0,0,1-.036.11,2.114,2.114,0,0,0-.066.293c0,.118-.007.227,0,.344a6.015,6.015,0,0,0,.872,2.332c.7,1.18,1.121,1.649,1.019,1.752-.073.088-.674-.206-1.62-1.335a7.181,7.181,0,0,1-.733-1.04c-.037-.073-.081-.147-.117-.228.007.022.007.037.015.059a15.282,15.282,0,0,0,.96,2.133,6.01,6.01,0,0,0,1.326,1.723,1,1,0,0,0,.55.271.66.66,0,0,0,.1-.007l.175-.015a4.152,4.152,0,0,1,.667-.015l.316.059c.1.03.191.081.293.118a1.026,1.026,0,0,1,.5.373,2.774,2.774,0,0,1,.5,1.173c.044.22.118.447.125.477a1.187,1.187,0,0,1,.19.212c.118.066.2.176.344.22a3.832,3.832,0,0,0,2.229.162,11.921,11.921,0,0,0,2.669-.734,31.44,31.44,0,0,0,4.735-2.455,3.8,3.8,0,0,1-.153-1.071,2.889,2.889,0,0,1,.007-.674,2.533,2.533,0,0,1,.227-.748l.132-.271.11-.19c.051-.074.051-.147.08-.162v-.073l.015-.227c-.037-.037-.015-.008-.044-.11a6.32,6.32,0,0,0-.249-.7,6.268,6.268,0,0,1-.55-1.92,7.963,7.963,0,0,1,.63-3.468c.375-.967.748-1.774.99-2.536a5.915,5.915,0,0,0,.337-2.082c-.08-.726-.146-1.408-.212-2.038-.125-1.319-.256-2.441-.286-3.365s-.044-1.671-.037-2.25c.022-1.158.11-1.672.264-1.686s.344.461.586,1.6c.125.564.265,1.3.411,2.206s.381,1.98.6,3.255c.059.315.117.645.176.99.029.168.059.352.1.528.03.212.066.425.095.637a7.239,7.239,0,0,1-.278,2.727c-.469,1.811-1.532,3.563-1.349,5.308a4.769,4.769,0,0,0,.44,1.3,8.83,8.83,0,0,1,.359.96,4.426,4.426,0,0,1,.118.778l-.015.227v.11l-.008.029c-.007.139-.007.059-.007.095l-.007.03-.022.117a4.9,4.9,0,0,1-.448,1.063.535.535,0,0,0-.043.154,3.487,3.487,0,0,0,.432,1.642l.213.308c.074.1.212.256.315.381a8.241,8.241,0,0,1,1.488,2.668c.389,1.276-.161,2.449-.007,3.717.052.462.11.931.161,1.408,4.222.11,8.437.131,12.653.087a5.181,5.181,0,0,0,.381-.894A10.678,10.678,0,0,0,81.693,118.594ZM79.127,82.667a33.474,33.474,0,0,0,4.516-4.413,24.29,24.29,0,0,1-6.326-5.022c-.015.037-.03.073-.045.117l-.285.624-.147.315-.2.337a4.893,4.893,0,0,1-.44.631C77.36,77.66,77.77,80.365,79.127,82.667Zm-2.4-16.575.169.03q-.276-.66-.507-1.364a3.27,3.27,0,0,1-3.921-1.73c-.8-1.5-.132-3.335-1.54-4.281-.322-.2-.667-.44-1.048-.682a36.968,36.968,0,0,0-6.392-3.255c-1.4-.586-3.013-1.18-4.729-2.045-.418-.227-.85-.462-1.283-.7a5.369,5.369,0,0,1-.71-.454l-.184-.161-.095-.1a1.721,1.721,0,0,0-.183.044c-.11.037-.257.08-.352.117a2.209,2.209,0,0,0-.462.345l-.117.117a.414.414,0,0,1,.095.008,4.567,4.567,0,0,1,.6.08,1.639,1.639,0,0,1,.719.337,4.558,4.558,0,0,1,1.29,1.892,17.448,17.448,0,0,1,.645,1.928c.351,1.253.6,2.47.946,3.526.821,2.162,1.48,4.2,2.279,5.864a14.08,14.08,0,0,0,1.312,2.258c.264.308.513.609.763.894a6.545,6.545,0,0,0,.806.77A18.822,18.822,0,0,0,68.014,71.7c1.525.843,2.712,1.474,3.563,1.965,1.15-.242,2.286-.543,3.5-.755l.183-.411c.14-.374.294-.74.411-1.136A38.468,38.468,0,0,0,76.73,66.092Zm-2.7-6.026c.066,1.144.4,2.845,1.789,2.566a48.646,48.646,0,0,1-.814-5.337v-.029a.866.866,0,0,1-.183-.059C74.2,56.936,74.01,59.707,74.032,60.066Zm.191-15.475c.132-.161.257-.307.366-.447-.835.389-1.686.792-2.587,1.151-.946.337-1.906.741-2.925,1.012-1.012.3-2.053.623-3.152.85-2.178.484-4.472.748-6.745,1.364-.286.066-.557.176-.836.264l-.425.131-.344.177a3.485,3.485,0,0,0-1.209,1.077.706.706,0,0,0-.074.1,1.584,1.584,0,0,1,.271-.052.793.793,0,0,1,.631.271l.161.191.11.088a4.452,4.452,0,0,0,.542.345c.425.241.843.469,1.246.7,1.643.843,3.219,1.451,4.634,2.067.7.323,1.371.609,1.993.909.616.322,1.188.623,1.731.909s1.018.616,1.473.894a12.117,12.117,0,0,1,1.239.829c.367.278.7.535,1.019.769.051.037.11.11.161.118.051-.059.1-.11.154-.162.162-.183.316-.337.462-.483a5.309,5.309,0,0,1,.564-1.291,24.277,24.277,0,0,1-.66-4.075,14.3,14.3,0,0,1,.257-4.142,8.255,8.255,0,0,1,.763-1.98A11.253,11.253,0,0,1,74.223,44.591Zm-2.134-33.64a4.875,4.875,0,0,0,.169-.674,10.079,10.079,0,0,1-4.7-2.309C66,6.406,64.509,6.282,62.237,6.245a69.016,69.016,0,0,0-7.69.213,106.042,106.042,0,0,0-17.616,3.5c-.095.022-.19.051-.292.073a3.42,3.42,0,0,1,.292.433,7.3,7.3,0,0,1,.6,1.326c.359.961.63,2.082.989,3.277.88,2.4,1.95,5.322,3.24,8.848.572,1.8,1.2,3.753,1.862,5.872.323,1.056.712,2.163,1.012,3.3a9.667,9.667,0,0,0,1.363,3.247q.561.781,1.144,1.583a18.36,18.36,0,0,1,1.063,1.8c.162.307.323.623.477.931a7.006,7.006,0,0,0,.484.894,10.515,10.515,0,0,0,1.267,1.627c.484.536,1.005,1.107,1.5,1.73a6.263,6.263,0,0,1,1.136,2.273,10.455,10.455,0,0,1,.176,2.346,2.9,2.9,0,0,1,.074.337,11.621,11.621,0,0,1,.109,2.133c0,.007.007.022.007.029h.081a30.458,30.458,0,0,0,1.613-4.889c.528-2.089.939-4.12,1.5-6.04.615-1.892,1.2-3.68,1.752-5.389.008,0,.008-.007.008-.014-2.625.682-4.978,1.393-6.928,1.9l-.4.1-.162-.337c-.7-1.43-1.466-2.61-1.825-3.5-.388-.917-.4-1.444-.323-1.474.1-.036.3.477.792,1.232.44.733,1.188,1.657,1.98,2.969,2.074-.7,4.6-1.554,7.44-2.3a6.269,6.269,0,0,1,.645-1.048c.55-.7,1.122-1.312,1.679-1.891a14.111,14.111,0,0,0,2.7-3.482c.652-1.254,1.319-2.412,1.817-3.57,1.086-2.273,1.936-4.311,2.749-6.041.4-.872.778-1.679,1.122-2.412.389-.747.756-1.371,1.071-1.964A18.261,18.261,0,0,0,72.089,10.951ZM69.377,76.289c-.051,0-.1.007-.153.007-2.434-.051-4.853-.3-7.3-.3-3.2,0-6.422-.213-9.633-.257-.124.88-.242,1.752-.359,2.625.154.11.308.22.462.337a4.739,4.739,0,0,1,.814.835,4.227,4.227,0,0,1,.572,1.144c.256.785.337,1.51.542,2.082a2.868,2.868,0,0,0,.161.4c.088.139.169.279.257.425.117.169.227.345.345.52.124.191.256.463.381.7.095.272.169.579.242.873.043.271.043.491.065.748.052.5.03.967.037,1.466-.022.476-.044.96-.08,1.451.036-.117.073-.227.117-.352.11-.323.227-.652.352-1,.058-.176.124-.352.183-.528.081-.176.169-.352.249-.535q.506-1.079,1.1-2.331c.242-.411.5-.829.755-1.269.3-.41.6-.843.938-1.268a15.835,15.835,0,0,1,5.872-4.464q.472-.208.968-.418c.344-.124.711-.242,1.048-.337C67.992,76.634,68.688,76.465,69.377,76.289Zm-1.341-2.214a14,14,0,0,0,2.7-.242c-.806-.374-1.825-.842-3.079-1.459a18.193,18.193,0,0,1-3.4-2.169,7.517,7.517,0,0,1-.894-.807c-.279-.315-.565-.637-.858-.974a14.313,14.313,0,0,1-1.444-2.383c-.88-1.76-1.539-3.753-2.4-5.952-.389-1.173-.638-2.361-.982-3.578a17.366,17.366,0,0,0-.609-1.8,3.647,3.647,0,0,0-.945-1.452l.021-.154a.438.438,0,0,0-.1.1h-.007s0-.008-.037-.015a.674.674,0,0,0-.162-.051c-.139-.03-.293-.044-.461-.066-.264-.022-.514-.022-.836-.051,0,.021.007.044.007.065a158.659,158.659,0,0,1-1.971,20.665c2.661.015,5.322.052,8.012.052C63.088,73.8,65.55,74.024,68.036,74.075Zm-14.39,13.76c0-.44.029-.887,0-1.283-.015-.191-.015-.418-.044-.572-.044-.124-.052-.249-.088-.374a14.917,14.917,0,0,1-1.129-2.213c-.264-.887-.3-1.62-.462-2.141a3.587,3.587,0,0,0-2.713-2.331c-.073-.007-.124-.007-.19-.015a.687.687,0,0,0-.557.183,1.046,1.046,0,0,0-.235.594,3.407,3.407,0,0,0,.161,1.3,4.609,4.609,0,0,0,.162.484,5.272,5.272,0,0,1,2.118.66,4.166,4.166,0,0,1,1.657,1.708,5.8,5.8,0,0,1,.528,2.008c.03.4.213.939.322,1.51a5.591,5.591,0,0,1,.133.924,2.453,2.453,0,0,1-.03.594c-.007.029-.015.073-.022.11.08.124.176.249.272.388C53.579,88.847,53.624,88.333,53.646,87.835Zm-1.085,4.611c.894-1.554-1.048-1.386-1.136-2.8-.03-.454.63-.674.652-1.07.044-.674-.176-.381-.514-.96-.285-.5-.579-.235-.564-1,0-.33.367-.484.426-.792.388-2.191-3.3-2.631-4.788-2.126a2.586,2.586,0,0,0-.645.33,1.418,1.418,0,0,0-.242.227c-.065.074-.219.257-.33.382a9.785,9.785,0,0,0-.622.806,3.673,3.673,0,0,0-.249.389c-.052.11-.1.22-.162.329l-.03.088a1.586,1.586,0,0,0-.08.778c.022.366.11.821.118,1.407.014.432.029.865.043,1.3a7.8,7.8,0,0,0,.1,1.319c.058.33.11.66.161,1,.946-.432,2.354.2,4.289.719a1.612,1.612,0,0,0,.315.044l.41.022c.286.007.58.014.887.007a5.236,5.236,0,0,0,1.774-.3A1.072,1.072,0,0,0,52.561,92.446Zm-.4-38.647c.022-.022.271-1.364.249-1.408-.279-.6-.74-.344-1.342-.132-.41.162-.806.374-1.2.565-1.561.843-2.954,1.862-4.42,2.749-1.489.784-2.976,1.437-4.311,2.082-.674.315-1.334.63-1.972.931-.329.161-.645.315-.967.469a2.31,2.31,0,0,1-1.224.264,8.184,8.184,0,0,1-2.038-.521c-.624-.212-1.188-.432-1.76-.645-.557-.183-1.1-.41-1.627-.535-.264-.073-.521-.146-.777-.213s-.535-.088-.792-.131c-2.1-.323-3.907-.668-5.506-.821-1.6-.206-2.924-.345-4.082-.536a5.35,5.35,0,0,1-1.144-.351,9.407,9.407,0,0,0,3.343,2.521c4.391,2.507,8.188,6.121,12.242,9.12a26.837,26.837,0,0,1,3.79,4.105c.586.652,1.965,2.822,2.9,2.771.6-.03,1.2-.1,1.8-.147l.023-.022a4.287,4.287,0,0,0,.88-1.9,5.485,5.485,0,0,1,.461-1.5c.088-.125.169-.257.264-.381s.213-.22.323-.337a2.877,2.877,0,0,1,.843-.514,2.136,2.136,0,0,0,.63-.432,4.7,4.7,0,0,0,.5-.719,6.424,6.424,0,0,0,.469-.865,9.033,9.033,0,0,0,.425-.975,28.961,28.961,0,0,0,1.342-4.728c.1-.447.183-.9.271-1.363a13.6,13.6,0,0,0,.117-1.423,7.233,7.233,0,0,1,.689-3.306A5.585,5.585,0,0,1,52,53.953C52.055,53.9,52.106,53.85,52.158,53.8Zm-.023-4.142c-.007-.015-.007-.037-.014-.051l-.059-.22a1.8,1.8,0,0,1-.073-.374,5.113,5.113,0,0,1,.015-.55c-.007-.1.022-.014-.022-.066a1.047,1.047,0,0,0-.565-.176,7.208,7.208,0,0,0-.9-.029c-.615.007-1.246.066-1.869.124-.323.03-.63.059-.968.081a2.24,2.24,0,0,1-.513-.022l-.476-.044c-.624-.059-1.246-.11-1.855-.183-.6-.088-1.2-.169-1.781-.257a63.522,63.522,0,0,0-6.627-.784,10.262,10.262,0,0,1-1.664-.183,5.756,5.756,0,0,1-1.554-.645,24.426,24.426,0,0,1-2.463-1.76c-3.006-2.426-5.505-4.706-8.3-5.747-1.371-.579-2.719-1.026-3.951-1.547-.623-.234-1.209-.52-1.774-.8a15.744,15.744,0,0,1-1.583-.858c-1.994-1.173-3.548-2.309-4.89-3.2-.3-.2-.594-.388-.872-.571a4.825,4.825,0,0,0,.154,2.265c1.569,5.058,4.75,9.339,6.642,14.258.754,1.979,1.378,4.046,2.3,5.952a2.9,2.9,0,0,0,.682.616,3.214,3.214,0,0,0,1.334.418c1.085.117,2.471.213,4.069.366,1.605.11,3.452.411,5.578.7.272.036.535.066.814.125s.557.139.843.212c.579.132,1.122.352,1.708.535.565.2,1.158.418,1.745.608a7.576,7.576,0,0,0,1.774.455,1.321,1.321,0,0,0,.748-.183c.308-.154.615-.308.93-.462.645-.315,1.3-.63,1.987-.96,1.364-.675,2.778-1.3,4.215-2.06,1.371-.843,2.8-1.892,4.45-2.786a10.413,10.413,0,0,1,2.742-1.048C52.106,50.427,52.128,50.045,52.135,49.657Zm-.586-2.522a2.442,2.442,0,0,1,.374.074,9.651,9.651,0,0,0-2.309-3.321A11.943,11.943,0,0,1,48.228,42.1a10.678,10.678,0,0,1-.52-.96c-.154-.323-.308-.631-.469-.924a15.767,15.767,0,0,0-.99-1.693c-.388-.543-.763-1.07-1.136-1.6a10.587,10.587,0,0,1-1.481-3.556c-.308-1.173-.674-2.243-.982-3.3-.646-2.111-1.239-4.053-1.789-5.849-1.231-3.556-2.258-6.459-3.072-8.929-.337-1.253-.564-2.353-.872-3.291a8.089,8.089,0,0,0-.5-1.254,2.763,2.763,0,0,0-.3-.5.43.43,0,0,0-.051-.058c-2.229.594-4.465,1.2-6.708,1.722-2.4.565-5.146.748-7.44,1.591-4.6,1.694-5.469,6.744-7.668,10.542-1.349,2.331-3.995,4.537-4.743,7.162a1.03,1.03,0,0,0,.088.059q.473.274.99.593c1.371.843,2.968,1.935,4.941,3.028a14.7,14.7,0,0,0,1.553.806c.55.257,1.115.521,1.73.741,1.217.491,2.566.908,3.989,1.495a17.4,17.4,0,0,1,2.169,1.019c.7.433,1.429.872,2.126,1.393,1.407,1.019,2.785,2.214,4.274,3.379a26.726,26.726,0,0,0,2.353,1.664A4.941,4.941,0,0,0,35,45.9a10.074,10.074,0,0,0,1.473.154,62.3,62.3,0,0,1,6.737.762c.579.088,1.165.169,1.759.249s1.188.118,1.789.176l.454.044a2.053,2.053,0,0,0,.419.015c.285-.015.6-.044.916-.073.63-.059,1.275-.125,1.949-.14A7.539,7.539,0,0,1,51.549,47.135Zm-1.18,26.618a177.127,177.127,0,0,0,1.92-18.606,2.958,2.958,0,0,0-.769.836v.008l-.022.036a6.439,6.439,0,0,0-.557,2.815,13.988,13.988,0,0,1-.147,1.54c-.088.484-.183.96-.286,1.407a27.691,27.691,0,0,1-1.473,4.882,8.947,8.947,0,0,1-.477,1.027,5.924,5.924,0,0,1-.542.938,4.728,4.728,0,0,1-.645.865,3.117,3.117,0,0,1-.9.579,2.085,2.085,0,0,0-.637.345,3.557,3.557,0,0,0-.257.249c-.081.088-.132.176-.2.257a5.255,5.255,0,0,0-.44,1.268,4.831,4.831,0,0,1-.8,1.678c.11-.007.219-.022.33-.029C46.44,73.782,48.4,73.76,50.369,73.753Zm1.107,20.518c-.316.008-.616.008-.9-.007-.337-.015-.667-.052-.968-.088l-.462-.066a3.034,3.034,0,0,1-.491-.125c-1.113-.41-1.847-.821-2.477-1.077a5.676,5.676,0,0,0-.858-.308c-.051.059-.19.066-.506-.029.095.373.22.747.33,1.129.066.227.132.447.2.674.088.22.184.447.279.674.1.249.213.506.315.755l.088.1a2.839,2.839,0,0,0,2.052,1.026,2.5,2.5,0,0,0,1.167-.249C49.746,96.441,51.168,94.279,51.476,94.271Zm-2.243,8.658c-.008-.132-.015-.272-.023-.411-.014-.161-.029-.322-.05-.484-.008-.183-.023-.374-.03-.564a6,6,0,0,0-.264-1.862,2,2,0,0,0-.425-.667c-.41-.389-2.3-1.422-2.808-1.246a14.087,14.087,0,0,0,1.02,2.565c.2.675.439,1.3.637,2.06a10.775,10.775,0,0,1,.25,2.419c.014.726.014,1.408.065,2.06.015-.08.03-.169.051-.256a2.767,2.767,0,0,1,.11-.337c.037-.088.073-.147.111-.221l.058-.109a.99.99,0,0,1,.22-.257.835.835,0,0,1,.2-.132.644.644,0,0,1,.11-.066c.081-.037.132-.059.183-.088l-.058.007c-.016-.007-.016-.014-.023-.022l-.036-.043-.066-.067c-.037-.051-.074-.095-.1-.139a.622.622,0,0,1-.133-.315,1.187,1.187,0,0,1,.095-.366l.14-.206.117-.095.051-.117a1.673,1.673,0,0,1,.337-.426l.154-.146.045-.059a.691.691,0,0,0,.043-.117C49.21,103.141,49.225,103.046,49.233,102.929Z"/><path d="M111.176,114.533c.638.924.756,1.613.609,1.686-.418.191-1.547-1.686-2.243-1.642-1.063.059-.528,1.818-.631,2.7a2.742,2.742,0,0,1-.711,1.686l-.366.359-.33-.33a2.516,2.516,0,0,1-.7-2.045c.066-.513.213-.726.308-.726.117-.007.176.293.286.682a3.7,3.7,0,0,0,.3.733,3.883,3.883,0,0,0,.052-.469c.029-.477,0-1.027.007-1.642a4.173,4.173,0,0,1,.2-1.342,1.6,1.6,0,0,1,.212-.4c.059-.073.126-.132.184-.2l.029-.022c.022-.014.088-.066.088-.066l.029-.014.066-.03.118-.066a2.026,2.026,0,0,1,.249-.08,1.275,1.275,0,0,1,.454-.044,1.971,1.971,0,0,1,1.166.55A3.9,3.9,0,0,1,111.176,114.533Z"/><path d="M107.6,105.187c1.224.952,2.075,1.839,1.9,2.14-.177.286-1.415-.2-2.639-1.151-1.158-.887-2.141-1.759-1.95-2.053C105.092,103.845,106.3,104.2,107.6,105.187Z"/><path d="M98.59,114.32c.007-.124.161-.263.308-.425.337-.366.535-.769.872-1.18l.682-.843.351,1a4.227,4.227,0,0,1,.213,1.225c.015.381.015.747.008,1.114-.015.887-.052,1.737-.015,2.522a5.253,5.253,0,0,0,.146,1.085.856.856,0,0,0,.33.579c.411.219.77.029,1.085-.484a5.924,5.924,0,0,0,.609-1.628c.491-2.177.528-3.636.725-3.636.081,0,.169.352.227,1.012a13.06,13.06,0,0,1-.095,2.793,6.238,6.238,0,0,1-.571,1.957,2.227,2.227,0,0,1-.909.99,1.719,1.719,0,0,1-1.57.022,1.927,1.927,0,0,1-.967-1.276,5.75,5.75,0,0,1-.219-1.334c-.059-.88-.03-1.752-.015-2.624.007-.22.007-.44.007-.667-.059.066-.11.124-.169.183a5.753,5.753,0,0,1-.623.572,2.263,2.263,0,0,1-.447.264.952.952,0,0,1-.381.095.844.844,0,0,1-.55-.176,1.088,1.088,0,0,1-.352-.645,2.527,2.527,0,0,1-.036-.447c-.008-.1.007-.176.007-.264a9.228,9.228,0,0,1-1.129,1.327c-.681.615-1.129.748-1.18.689-.081-.081.322-.425.777-1.056.5-.652,1.012-1.7,1.869-3l1.1-1.62-.183,1.987c-.045.4-.023.828-.037,1.26C98.443,113.91,98.59,114.123,98.59,114.32Z"/><path d="M100.283,100.62l-.183.557c-.469,1.436-1.437,1.708-1.51,1.568-.066-.08.007-.293.154-.571.051-.14.124-.3.19-.477-.557.066-1.18.125-1.869.139a6,6,0,0,1-3.328-.762,2.272,2.272,0,0,1-.77-.675c-.139-.19-.2-.329-.154-.4s.206-.065.433.008a6.956,6.956,0,0,0,.894.293,9.827,9.827,0,0,0,2.911.308c.9-.022,1.788-.059,2.528-.022Z"/><path d="M85.673,58a4.149,4.149,0,0,1-.117,1.459l-.11.433-.572-.191a1.313,1.313,0,0,0-.527-.073,4.29,4.29,0,0,0-.741.154c-.286.087-.594.19-.975.278a2.482,2.482,0,0,1-.66.066,1.544,1.544,0,0,1-.828-.264,1.673,1.673,0,0,1-.374-.4l-.073-.124-.037-.059-.007-.015V59.26l-.037-.066v-.015l-.022-.066a1.909,1.909,0,0,1-.066-.271l-.008-.212a1.675,1.675,0,0,1,.038-.359,5.2,5.2,0,0,1,.329-1.122,13.06,13.06,0,0,1,.807-1.635c.52-.894.887-1.378,1.048-1.334s.059.726-.249,1.686c-.147.484-.352,1.048-.528,1.657a6.658,6.658,0,0,0-.22.916c0,.066-.015.147-.015.183v.044l.03.052.073.124c.029.03.029.015.022.008a.872.872,0,0,0,.543.014c.285-.051.608-.132.938-.2a4.017,4.017,0,0,1,1.033-.088,2.049,2.049,0,0,1,.52.11c.118-.279.2-.52.272-.711.066-.286.147-.477.235-.491S85.585,57.64,85.673,58Zm-3.944.763h.022a.071.071,0,0,0-.022-.015Z"/><path d="M72.075,108.874l-.125.791c-.124.778-.242,1.525-.359,2.236-.1.719-.315,1.356-.462,1.987-.315,1.254-.645,2.3-.909,3.189a9.94,9.94,0,0,1-.953,2.807,8.735,8.735,0,0,1,.256-2.954c.184-.909.4-2.009.653-3.262.11-.616.286-1.268.36-1.957.051-.411.1-.836.154-1.268a13.241,13.241,0,0,1-3.175,1.158l-.491.08-.169-.484a5.1,5.1,0,0,1-.242-1.905,41.75,41.75,0,0,1,1.247-6.334c.285-1.891.586-3.665.857-5.117.118-.726.227-1.385.323-1.957s.132-1.078.2-1.488c.117-.814.22-1.268.308-1.268s.139.454.176,1.29c.007.418.043.938.007,1.532s-.095,1.268-.147,2.009c-.168,1.48-.374,3.24-.6,5.189a55.324,55.324,0,0,0-1.137,6.173,5.782,5.782,0,0,0,.058.945c1.056-.293,2.1-.945,3.351-1.216Z"/><path d="M64.106,95.034a5.643,5.643,0,0,1-.022,2.25l-.154.9-.864-.6a.677.677,0,0,0-.074-.052,4.486,4.486,0,0,0-.1,1.012,17.135,17.135,0,0,1-.022,1.854l-.124,1.137-.667-.821c-.2-.249-.4-.484-.579-.711-.154-.235-.271-.469-.389-.682A9.776,9.776,0,0,1,60.6,98.2c-.227-.63-.308-1-.22-1.041s.33.242.7.8c.2.256.4.608.674.96a.966.966,0,0,1,.081.11c-.015-.147-.029-.286-.037-.448a3.632,3.632,0,0,1,.484-2.323l.3-.455.388.25a3.342,3.342,0,0,0-.088-.8,17.938,17.938,0,0,0-1.385-3.7,9.145,9.145,0,0,1-.909-3.409c.014-.257,0-.506.036-.733s.088-.447.132-.653a5.847,5.847,0,0,1,.4-.953c.315-.476.52-.7.593-.652.227.095-.535,1.158-.293,2.932a9.9,9.9,0,0,0,1.07,2.991c.271.565.587,1.151.873,1.8A9.669,9.669,0,0,1,64.106,95.034Z"/><path d="M61.7,111.425a3.387,3.387,0,0,1-.388,1.7c-.213.359-.425.476-.477.432a7.912,7.912,0,0,0,.081-2.075,5.42,5.42,0,0,0-.763-2.074,1.6,1.6,0,0,0-.77-.7.455.455,0,0,0-.337.037,1.39,1.39,0,0,0-.4.352l-.924,1.077-.146-1.393c-.037-.41-.08-.828-.132-1.238a7.963,7.963,0,0,1-2.236,1.935l-1.356.608.615-1.334a13.3,13.3,0,0,0,.968-3.46c.125-.909.242-1.444.36-1.444s.234.535.292,1.459a11.332,11.332,0,0,1-.116,2.06,5.755,5.755,0,0,1,1.656-1.5l.756-.4.124.806c.022.147.044.3.073.455.052.315.088.608.118.894a1.6,1.6,0,0,1,1.048-.007,2.574,2.574,0,0,1,1.319,1.261A5.394,5.394,0,0,1,61.7,111.425Z"/><path d="M48.214,58.564a4.754,4.754,0,0,1,.066.645c-.023.249-.045.542-.081.857a8.449,8.449,0,0,1-.272,1.034,5.93,5.93,0,0,1-.571,1.092,8.573,8.573,0,0,1-1.877,1.994c-.718.6-1.385,1.114-1.921,1.635a7.376,7.376,0,0,0-1.217,1.518,10.666,10.666,0,0,0-.593,1.224c-.14.315-.256.476-.337.461s-.125-.212-.132-.564a4.264,4.264,0,0,1,.271-1.488,6.171,6.171,0,0,1,1.18-1.935,17.768,17.768,0,0,1,1.957-1.8,7.5,7.5,0,0,0,2.669-3.387c.073-.271.161-.521.234-.741s.1-.417.147-.579c.095-.322.183-.5.271-.5S48.162,58.212,48.214,58.564Z"/><path d="M39.329,51.621l-.843.638a7.363,7.363,0,0,1-3.013,1.312,9.821,9.821,0,0,1-2.515.191c-1.407-.081-2.2-.374-2.177-.5.023-.162.836-.132,2.163-.257a12.556,12.556,0,0,0,2.287-.432,8.7,8.7,0,0,0,1.547-.624c-.491-.175-.99-.359-1.5-.542-.674-.242-1.349-.425-1.987-.638-.645-.191-1.26-.432-1.854-.579-1.2-.293-2.25-.623-3.167-.836-1.862-.373-3.006-.689-2.984-.857s1.2-.162,3.1-.015c.945.11,2.074.359,3.327.609.631.117,1.254.337,1.921.52.66.2,1.356.381,2.045.623.916.352,1.811.689,2.654,1.012Z"/><path d="M36.411,39.438c.616.095.968.183.968.264s-.352.139-1.012.183a6.778,6.778,0,0,1-2.771-.571,5.481,5.481,0,0,1-1.656-1.2,6.478,6.478,0,0,1-1.21-2.03,11.713,11.713,0,0,1-.6-3.981c-.22.095-.425.161-.542.22a2.554,2.554,0,0,0-.88.784l-.272.33-.38-.1a33.567,33.567,0,0,1-8.614-3.673c-2.038-1.275-3.027-2.309-2.954-2.419.1-.154,1.312.674,3.357,1.693A45.59,45.59,0,0,0,28,32.034a2.972,2.972,0,0,1,1.07-.836c.353-.154.55-.212.741-.315a3.332,3.332,0,0,0,.535-.41l1.151-1-.1,1.481a12.947,12.947,0,0,0,.367,4.772,6.066,6.066,0,0,0,.909,1.752,4.925,4.925,0,0,0,1.3,1.108A8.479,8.479,0,0,0,36.411,39.438Z"/></g></svg>