<svg xmlns="http://www.w3.org/2000/svg" viewBox="0 0 128 160" x="0px" y="0px"><g><path d="M30.628,100.633v.008c.033.383.3,2.854.449,3.857.374-.171.758-.35,1.158-.546a1.089,1.089,0,0,1,.261-.089c-.091-1.077-.01-2.235-.172-3.1a69.891,69.891,0,0,1-.8-7.356c-.122-1.468-.415-4.844.376-7.087-.554-.294-1.134-.62-1.7-.864a54.615,54.615,0,0,0,.032,10.952C30.334,97.811,30.457,99.23,30.628,100.633Zm8.2-89.695c-.45-.065-.442-.065,0,0Zm77.99,60.6c.139,2.8,1.281,5.228.033,7.944-.872,1.932-2.935,2.764-4.845,3.237a47.939,47.939,0,0,1,.718,10.9c-.146,4.6-.627,8.784-4,12.274a5.288,5.288,0,0,1-2.928,1.085,1.14,1.14,0,0,1-.016.432c-1.166,4.8-9,6.1-13.082,6.949-6.54,1.362-13.2,2.348-19.712,3.686a.978.978,0,0,1-.855-.2,13.089,13.089,0,0,1-4.177.783,1.117,1.117,0,0,1-.416-.082,7.365,7.365,0,0,1-6.516,4.7.848.848,0,0,1-.685-.2c-2.275,1.028-4.8.955-7.6.955H36.247c-4.258,0-9.167-.147-13.286-1.3-2.846-.783-7.307-.628-9.11-3.32-.431-.66.082-2.25.343-2.829.522-1.158-2.178-4.217-2.528-5.587a40.377,40.377,0,0,1-.873-13.791c.489-5.22.269-10.472.768-15.667.186-1.933.447-5.195,1.989-6.8,0-.016-.008-.032,0-.048.563-4.16,6.263-3.605,9.411-3.605,5.538,0,11.157-.351,16.63.668,2.65.49,5.529.033,8.244.131a49,49,0,0,1,8.287,1.411c.97.2,1.916.383,2.838.579a1.144,1.144,0,0,1,.089-.245A4.126,4.126,0,0,1,62.7,71.8c-.057-1.125-.212-1.868-.253-2.838a9.16,9.16,0,0,0-.269-3,1.027,1.027,0,0,1,.342-1.3c.026-.131.058-.261.091-.383-6.835.056-13.409.481-19.973-.718-1.257-.237-5.8.024-6.255-1.811a42.523,42.523,0,0,1-1.427-8.155c-.222-4.266.7-7.446,4.012-8.882-.138,0-.269,0-.408.009-2.3.106-2.553-1.4-2.43-3.214a7.927,7.927,0,0,1-2.293.2,23.142,23.142,0,0,1-2.389.253c-1.166-.13-3.2-.783-2.708-2.414a2.61,2.61,0,0,1,1.257-1.566c.342-.2.651-.179.921-.514.514-.628.114-1-.481-1.231a1.115,1.115,0,0,1-.44-.318H28.124c-2.544,0-5.286.464-7.748.073-1.3-.212-.751-2.2.538-2a4.4,4.4,0,0,0,1.5-.074,3.637,3.637,0,0,1,.5-2.52c.872-.864,2.837-.807,4.314-.742q-.012-.44-.024-.807a4.651,4.651,0,0,1-2.112-.522c-1.453-.905-1.33-2.194-1.257-3.76-2.2-.163-3.866-.309-3.866-.309-.032,0-.057-.009-.081-.009a.8.8,0,0,1-.905-.734c-.156-1.068-1-3.931-.008-4.8,1.313-1.166.105-3.263.105-4.983,0-3.491,2.6-8.768,6.713-9.012a.729.729,0,0,1,.122-.041c2.39-.554,4.69-.139,7.1-.139,1.981,0,3.988-.024,5.962-.179.016-.074.032-.155.049-.228.343-1.207,1.909-1.142,2.887-1.126A2.894,2.894,0,0,1,44.6,6.379a14.038,14.038,0,0,1,.178,2.1,10.091,10.091,0,0,0-.032,2.039,1.7,1.7,0,0,1,.024.277c.065.033.131.049.188.082,1.313.775.8,3.132.7,4.331-.139,1.615-.327,3.352-.343,4.958a1.124,1.124,0,0,1-.065.351V22.87a1.146,1.146,0,0,1-.643,1.085.907.907,0,0,1-.45.179c-1.043.147-2.088.31-3.131.473a.907.907,0,0,1,.073.318c.188,2.455.22,3.058-2.1,3.694-.163.049-.327.082-.481.123a12.877,12.877,0,0,1,.138,1.435c2.423-.212,4.927-.253,6.974,1.223,2.373,1.7,4.24,2.651,5.293,5.106,2.047-.685,4.616-.236,6.7-.236,4.8,0,8.89-.466,12.323,2.944,1.753-.547,3.883,0,5.619.179a1.026,1.026,0,0,1,.776.465c5.357-.6,10.741-1.3,16.082-1.966,2.724-.342,6.843-.473,8.09,2.724a96.928,96.928,0,0,1,4.454,16.107c.261,1.338,1.059,2.936.162,4.184-.62.857-1.174,1.762-1.72,2.667a7.21,7.21,0,0,1,1.354.555c.595.318,1.589.6,1.94,1.223C110.764,65.3,116.563,66.478,116.815,71.534Zm-5.26,9.191c2.17-.579,4.086-1.713,3.89-4.534a31.658,31.658,0,0,0-.839-5.2c-.824-3.3-5.27-3.654-8.051-3.605a4.3,4.3,0,0,1-.342.538,4,4,0,0,0-.383.62c1.679.244,3.726,1,4.591,2.479,1.239,2.112.285,3.833.277,6.084a.948.948,0,0,1-.13.5C110.952,78.646,111.286,79.689,111.555,80.725Zm-3.042,22.1c2.332-4.1,2.185-8.229,2.185-12.845,0-1.3-1.027-13.367-3.009-12.625-3.424,1.272-7.225,1.346-10.855,1.427-2.013.049-4.062,1.028-6.051,1.346-1.386.212-2.782.383-4.151.693a13.171,13.171,0,0,1,1.933,5.562c5.79-.571,11.385-4.412,17.305-4.322,5.139.081,3.973,6.989,4.217,10.6a14.151,14.151,0,0,1-.889,7.242c-.824,1.868-3.385,2.031-5.163,2.447-5.129,1.182-9.99,3.246-15.234,3.857a24.291,24.291,0,0,1-.742,3.5c.408-.147.815-.293,1.231-.424,2.146-.661,4.274-1.289,6.427-1.917,2.748-.8,5.513-1.517,8.253-2.3C105.993,104.5,107.2,105.119,108.513,102.827Zm.441-27.892a4.262,4.262,0,0,0-.123-2.48,3.853,3.853,0,0,0-2.749-1.818,3.529,3.529,0,0,1-.016.579,1.542,1.542,0,0,1-.97,1.346,1.265,1.265,0,0,1-.2.114,9.966,9.966,0,0,1-3.776.946,10.122,10.122,0,0,1-3.906-1.044,3.98,3.98,0,0,1-2.381-2.064,6.2,6.2,0,0,1,.031-2.421,5.757,5.757,0,0,0-1.884,2.071,1.082,1.082,0,0,1-.612.465,17.414,17.414,0,0,1-4.64,1.566c-2.217.22-4.46,1.851-6.589,1.851-1.689,0-3.156-1.175-4.878-.449.368.376.726.767,1.11,1.158,1.012,1.012,2.552,2.39,2.821,3.874,4.543-2.071,9.648-2.3,14.542-3.189,2.83-.513,5.742-.66,8.563-1.223,2.235-.448,3.785-.864,5.612.669Zm-.938,22.558a24.6,24.6,0,0,0-.034-5.847c-.138-2.17.564-7.487-3.2-7.137-1.272.123-2.5.449-3.752.6-4.24.5-8.04,2.813-12.265,3.3.163,2.471.073,4.991.22,7.283a59.7,59.7,0,0,1,.04,8.457,64.026,64.026,0,0,0,12.429-3.173C103.6,100.25,107.509,100.184,108.016,97.493ZM104.451,66.9c.091-.155.164-.31.245-.465-.326-.172-.627-.392-.97-.547-.449-.2-.979-.269-1.435-.464-.009.016-.009.024-.017.032-.04.114-.09.228-.139.334a.923.923,0,0,1-.277.367c-.008.367-.008.7.008,1.061.008.293-.187.22.269.252.22.025.441.033.661.041.44.008.865.008,1.3.057a.166.166,0,0,1,.025-.057c.04-.081.073-.163.1-.244A.873.873,0,0,1,104.451,66.9Zm-.408,3.89c0-.074,0-.155-.008-.237a8.1,8.1,0,0,0-.1-.987,4.476,4.476,0,0,0-.449-.04,13.97,13.97,0,0,1-1.663-.123c-1.362-.154-1.8-1.623-1.95-2.764a10.436,10.436,0,0,1-1.476.2,4.9,4.9,0,0,0-1.4.441.031.031,0,0,0-.025.008,8.42,8.42,0,0,1-.155,1.884c-.3,1.3,1.4,1.492,2.1,1.884a5.612,5.612,0,0,0,4.894-.114A1.2,1.2,0,0,1,104.043,70.792Zm-.382,36.5a.435.435,0,0,0-.1.016,77.936,77.936,0,0,0-11.417,3.124c-2.782,1.109-9.273,4.959-11.076.758a.148.148,0,0,1-.016-.057,1.064,1.064,0,0,1-.326-.016c-1.819-.408-4.217-1.395-4.062-3.637.083-1.151.091-2.284.115-3.418a.64.64,0,0,1-.131.017c-1.54.081-2.724.783-4.159,1.158-.457.114-.922.244-1.378.375a4.22,4.22,0,0,1,.889.9,3.057,3.057,0,0,1,.5,1.444c.065.53.277.986.368,1.5a1.007,1.007,0,0,1,.008.155,2.372,2.372,0,0,1,.342.188c1.19.8,1.2,3.058,1.085,4.306-.041.383-.081,1.011-.2,1.623,4.729-.987,9.428-2.015,14.231-2.773a61.806,61.806,0,0,0,8.433-1.884C98.906,110.42,102.7,109.669,103.661,107.3Zm-1.1-46.315c1.314-1.811.5-4.29-.129-6.37-1.281-4.208-1.746-8.538-3.557-12.6-1.663-3.744-9.15-1.925-12.2-1.533-3.238.416-6.467.938-9.7,1.337.269.2.692.269.978.457a3.649,3.649,0,0,1,1.338,1.451A22.994,22.994,0,0,1,80.679,47.5c3.391-.522,6.907-1.2,10.242-1.958,1.869-.424,6.02-1.647,7.251.661,1.386,2.6,2.9,6.72,2.128,9.615a85.846,85.846,0,0,1-3.343,9.4,4.6,4.6,0,0,1,.93-.359,10.2,10.2,0,0,0,2.039-.327,1.066,1.066,0,0,1,.538-.089C101.165,63.3,101.785,62.057,102.559,60.981Zm-5.007-3.173c.163-.832.285-1.6.367-2.332a25.913,25.913,0,0,1-2.839.147,13.038,13.038,0,0,0-3.343.179c-.024.008-.04,0-.066.008.008.228.026.457.034.685.073,1.917-2,4.037-2.847,5.619a17.079,17.079,0,0,1-1.4,2.186c.269-.008.538-.008.808.008.823.065,1.615.351,2.446.408,1.354.09,2.692.391,4.046.555A41.015,41.015,0,0,0,97.552,57.808Zm.465-4.388a13.953,13.953,0,0,0-.555-3.564c-.913-3.286-4.078-2.927-7.006-2.324a1.4,1.4,0,0,1,.091.22,30.02,30.02,0,0,1,1,6,6.893,6.893,0,0,1,1.648-.229c.628,0,1.256.066,1.883.058C96.06,53.575,97.038,53.469,98.017,53.42Zm-5.9,14.338a9.529,9.529,0,0,1,.685-.71c-.9-.138-1.794-.277-2.7-.334a29.108,29.108,0,0,0-2.92-.392,6.283,6.283,0,0,1-1.37-.081,22.279,22.279,0,0,1-6.9,4.836,4.868,4.868,0,0,1,.994.155c2.366.653,4.347-.375,6.663-.954S90.579,69.544,92.121,67.758ZM87.1,61.087c1.027-1.941,2.781-4.217,2.52-6.476a43.308,43.308,0,0,0-1.036-6.32.86.86,0,0,1-.041-.343c-.188.033-.367.073-.539.106-2.413.433-4.77,1.109-7.193,1.476l-.04.041a17.44,17.44,0,0,1,.024,4.975c-.244,1.908-.513,6.051-2.031,7.5A4.959,4.959,0,0,1,76.944,63.1a1.541,1.541,0,0,1,.047.277c.058,1.656.091,4.339.115,6.239A19.952,19.952,0,0,0,87.1,61.087Zm-.024,41.821a53.963,53.963,0,0,0-.058-6.2c-.114-1.7-.057-3.8-.114-5.937a13.922,13.922,0,0,0-4.486.75c.008.408.008.816.008,1.224,0,3.384-.382,7.046-.374,10.528.016,0,.024-.008.04-.008.815-.016,1.607-.179,2.414-.236A6.9,6.9,0,0,0,86.469,103,1.007,1.007,0,0,1,87.073,102.908Zm-.261-14.166A14.173,14.173,0,0,0,85.058,82.1c-1.028,1.346-2.431,2.586-2.562,4.315-.081.979-.1,1.965-.1,2.944A16.827,16.827,0,0,1,86.812,88.742Zm.089,16.213a8.678,8.678,0,0,1-1.689.082c-1.043.024-2.062.236-3.1.269.016.253.016.506.04.75.091,1.052.718,5.473,2.92,4.763.18-.057.358-.13.53-.188A22.927,22.927,0,0,0,86.9,104.955ZM83.15,81.386c.4-.343,2.062-.775,1.949-1.493a.514.514,0,0,0-.457-.424c-.954-.187-3.074.84-3.507,1.012-3.5,1.386-2.92,6.369-2.552,9.33.22,1.761.611,3.5.807,5.252.277,2.512-.457,4.779-.75,7.266a10.8,10.8,0,0,0,0,4.07c.244.889,1.6,1.876,1.712,2.422a11.55,11.55,0,0,1-.164-4.257c.645-3.328.2-7.063.2-10.431,0-2.757-.562-6.19.172-8.873A8.87,8.87,0,0,1,83.15,81.386Zm-4.836-1.762c.007-.008.023-.016.031-.024a1.178,1.178,0,0,1-.1-.318c-.138-1.052-1.354-2.113-2.072-2.838-.75-.751-1.623-2.284-2.789-2.4a1.107,1.107,0,0,1-.3-.073,14.959,14.959,0,0,1-3.85.366c-1.428-.024-6.778-.872-8.156.025a15.378,15.378,0,0,1,6.5,3.376A9.354,9.354,0,0,1,70,82.756a3.34,3.34,0,0,1,2.814-.653c2.782.783,2.912,2.79,3.352,5.318.408,2.365,2,6.524.408,8.816-1.378,1.99-3.645,2.479-6.044,2.545a1.044,1.044,0,0,1-.326-.041c-.147,1.729-.333,3.466-.555,5.2a22.253,22.253,0,0,0,3.255-1.036,10.351,10.351,0,0,1,3.743-.856,1.809,1.809,0,0,1,.212.008,17.968,17.968,0,0,1,.661-4.151c.857-2.912.31-5.521-.228-8.425a22.371,22.371,0,0,1-.71-4.216C76.641,83.629,76.674,80.611,78.314,79.624Zm-.335-21c.946-4.543,1.117-8.319-.269-12.609-2.324.229-4.706.661-6.974,1.02-.424.065-1.255.138-2.177.277v.032c.35,4.894,0,9.812.342,14.7a1.066,1.066,0,0,1,.172.253c.677-.074,1.2-.131,1.321-.147C72.735,61.845,77.391,61.454,77.979,58.624Zm-2.953,36c.287-1.729-.293-3.082-.555-4.73a34.884,34.884,0,0,0-.619-3.564c-.057-.424-.115-.848-.171-1.272-1.379-1.223-2.325-1.24-2.846-.065a.862.862,0,0,1-.416.628c.163,1.778.179,3.507.179,4.844,0,2.112-.09,4.208-.236,6.3a1.242,1.242,0,0,1,.17-.024C71.821,96.71,74.766,96.213,75.026,94.622Zm.057-23.594c0-1.541-.016-2.9-.04-4.208a2.685,2.685,0,0,1-1.248.571c-1.02.1-2.087,0-3.116,0-2.12,0-4.183,0-6.271-.2.024.432.041.864.057,1.272.041.987.17,2.732.245,3.613A16.7,16.7,0,0,0,75.083,71.028Zm-.17-6.63a.362.362,0,0,1,.065-.033c-.008-.253-.017-.5-.025-.758-1.133.2-2.291.285-3.237.416-2.243.293-4.78,1-7.128.807-.107.057-.123.188-.115.343a58.347,58.347,0,0,0,6.206.179c.841,0,1.8.131,2.627.049C73.771,65.352,74.553,64.634,74.913,64.4ZM70.19,45.069c1.534-.244,3.066-.505,4.608-.734a30.171,30.171,0,0,0-5.57-1.362c-1.3.171-2.748.058-4,.155-1.916.163-3.686.718-5.594.857-.016.2-.033.391-.049.587a47.244,47.244,0,0,1,4.958,1.248,1.043,1.043,0,0,1,.293.138A31.9,31.9,0,0,1,70.19,45.069Zm1.981,69.42c.149-.416.3-3.246-.415-3.042-.824.229-1.624.628-2.447.889a.948.948,0,0,1-.358.049,26.19,26.19,0,0,1-.727,4.192,9.972,9.972,0,0,0,3.613-.767.8.8,0,0,0,.025-.106,2.315,2.315,0,0,1,.188-.513C72.189,114.987,72.1,114.709,72.171,114.489Zm-1.37-4.877a2.492,2.492,0,0,1-.17-.612,5.365,5.365,0,0,0-.2-1.141,2.752,2.752,0,0,0-.987-.922.352.352,0,0,1-.1-.024c-.073,1.068-.138,2.185-.219,3.327C69.669,110.045,70.231,109.783,70.8,109.612ZM68.592,41.024a.176.176,0,0,1,.058-.057c-.083-.057-.2-.228-.474-.481a6.283,6.283,0,0,0-5.008-2.121H61.056c-.35,1.183-.75,2.341-1.045,3.532,1.485-.171,2.888-.612,4.4-.734C65.68,41.057,67.23,41.179,68.592,41.024ZM67.915,101.3c1.1-5.522,2.748-22.469-4.812-24.3-3.686-.889-7.5-2.259-11.247-2.805a36.286,36.286,0,0,0-6.85.041,1.33,1.33,0,0,1-.041.236A122.466,122.466,0,0,1,60.542,76.7c3.05.62,4.208,4.878,5.13,7.324,1.655,4.4.986,9.347.986,13.987a93.778,93.778,0,0,1-.986,14.517c-.383,2.479-.53,5.488-1.965,7.707C68.355,116.911,66.961,106.122,67.915,101.3Zm-1.027-39c-.368-4.853-.034-9.73-.343-14.59-1.076.293-1.957.726-2.1,1.394a42.032,42.032,0,0,0-.645,8.531,28.962,28.962,0,0,0,.645,4.649,1.164,1.164,0,0,1,.594.391c.352-.033.711-.073,1.069-.139A4.265,4.265,0,0,0,66.888,62.3ZM64.62,98.015c0-4.42.627-9.281-.913-13.481-.489-1.329-1.639-5.065-3.132-5.7a34.042,34.042,0,0,0-4.519-1.19c-6.051-1.607-12.576-1.762-18.781-1.762H25c-.816,0-3.955-.441-6.467-.539-.008.041-.016.082-.024.131-2.072,6.182-2.276,12.788-2.276,19.239,0,3.564-.278,7.25,0,10.8a25.643,25.643,0,0,0,1.183,5.578c.954,3.042,2.479,3.956,5.513,4.013.685-.71,1.411-1.395,2.144-2.063-1.916-.009-3.939-.164-5.283-1.5-2.13-2.129-1.8-4.624-1.8-7.381,0-8.172-.261-16.311.278-24.467a1,1,0,0,1,.36-.733c1.247-1.933,4.909-1.142,6.906-1.02,4.282.245,8.441.9,12.748,1.011,4.518.106,8.971.628,13.489.873,2.822.163,6.532-.31,8.767,1.917a5.294,5.294,0,0,1,1.435,3.351c.148,2.463,1.011,5.049,1.011,7.512a49.236,49.236,0,0,1-.17,6.663c-.245,1.753.212,4.151-.269,5.839-.889,3.091.251,7.169-1.354,10.023-1.338,2.39-3.385,1.688-5.758,1.607-1.412,1.656-2.774,3.352-4.3,5a5.167,5.167,0,0,1-.726.636h.138c3.458,0,9.363.726,11.321-2.927,1.688-3.149,2.039-7.463,2.478-10.945A84.44,84.44,0,0,0,64.62,98.015ZM61.765,55.361c.2-2.609.073-5.439,1.134-7.886-5.871-1.639-11.524-1.827-17.657-1.7-2.266.049-7.185-.09-7.853,2.919a21.181,21.181,0,0,0,.26,9.8c.71,2.838.677,2.382,4,2.822a56.609,56.609,0,0,0,7.79.775c3.563,0,9.688.073,12.738.114a5.211,5.211,0,0,1-.408-1.68C61.765,58.819,61.642,57.066,61.765,55.361ZM60,94.369c0-3.066.155-6.418-3.67-6.866-1.924-.229-3.84-.343-5.774-.547-1.142-.114-2.274-.22-3.4-.31a.971.971,0,0,1-.3.31c-6.769,4.649-3.842,16.956,3.564,19.206a1.316,1.316,0,0,1,.285.131,7.2,7.2,0,0,0,5.188-1.525c1.419-1.052,2.512-2.39,3.931-3.425C59.89,99.067,60,96.67,60,94.369Zm-.269,10.872c0-.408.008-.832.008-1.256-.513.448-1,.938-1.5,1.427a10.416,10.416,0,0,1-2.006,1.452c1.859-.114,3.278-.531,3.506-1.517C59.734,105.314,59.726,105.281,59.726,105.241Zm-1.1,9.631c.938-.073,1.116-1.476,1.173-2.642a34,34,0,0,0-2.674,2.6A8.391,8.391,0,0,0,58.626,114.872ZM60.2,86.834c-.334-2.194-1.084-4.192-3.393-4.665-3.131-.653-6.589-.343-9.786-.645-2.912-.269-5.806-.53-8.734-.538C36.72,80.978,26.672,79.7,22.3,79.8c.578.27,1.173.506,1.712.775a27.065,27.065,0,0,0,3.84,2.039,43.783,43.783,0,0,1,5.179,2.039,2.372,2.372,0,0,1,1.631-.473c3.385.18,6.786-.073,10.178.033,2.782.1,5.513.872,8.3.913C56.187,85.178,58.649,85.309,60.2,86.834ZM58.887,38.365H54.352c-2.878,0-3.173,1.664-4.486,3.817-.277.457-.513.93-.782,1.379a55.818,55.818,0,0,1,8.5.66c.1-1.281.4-2.536.628-3.809A11.552,11.552,0,0,1,58.887,38.365Zm-3.051,74.55c1.582-1.378,3.639-2.708,4.054-4.714-3.711,1.835-11.843-.089-14.444-.163-3.262-.1-8.343.962-11.271-1.109-.921.783-1.7,2.2-2.479,2.952s-1.68,1.419-2.446,2.194a41.373,41.373,0,0,1-4.551,4.38c-.065.04-.131.106-.2.155a.938.938,0,0,1-.562.473,11.484,11.484,0,0,0-1.216,1.247c0,.017,3.4,1.028,3.8,1.085,2.356.326,4.648,1.019,6.98,1.493a41.352,41.352,0,0,0,10.382.3,18.3,18.3,0,0,1,3.2-.114c2.072.237,2.945-1.411,4.054-2.879A34.676,34.676,0,0,1,55.836,112.915Zm-7.3-73.139-.76.1c-.236.025-.481.049-.725.09-.049.016-.106.025-.156.04a13.215,13.215,0,0,1,.507,2.627A9.143,9.143,0,0,0,48.538,39.776Zm-1.7-1.826c.775-.107,1.533-.221,2.348-.286-.872-2.251-3.628-4.159-5.839-4.967a9.593,9.593,0,0,0-3.482-.53,19.339,19.339,0,0,1,1.793.914A12.736,12.736,0,0,1,46.833,37.95Zm-.971,68.074a1.036,1.036,0,0,0,.164.016c-5.588-4.616-6.95-14.345-1.7-19.59-1.085-.057-2.17-.106-3.263-.13a1.092,1.092,0,0,1-.09.408c-2.6,5.847-3.368,14.142,1.427,19.092C43.579,105.869,44.745,105.926,45.862,106.024ZM45.4,42.9a10.692,10.692,0,0,0-.391-2.072c-.286-.8.082-.342-.775-.342a11.816,11.816,0,0,0-1.19.024c-1.093.147-2.284.261-3.369.482-.481.1-1,.081-1.509.138-.073.612-.162,1.582.058,1.574.334-.016.611-.033.946-.049.889.008,1.688-.008,2.577.074C42.756,42.818,44.28,42.875,45.4,42.9ZM41.23,38.757a18.091,18.091,0,0,1,3.523-.31,10.7,10.7,0,0,0-3.482-3.238c-1.51-.864-3.581-2.088-5.465-1.957-.032.277-.073.538-.1.766C38.359,34.548,39.411,36.163,41.23,38.757Zm2.389-25.046a1.441,1.441,0,0,1,.2.017,10.381,10.381,0,0,0-.073-1.134c.016.122-3.841-1.329-4.747-1.615a5.906,5.906,0,0,1,.073.759c0,.75-.024,1.516.018,2.267.008.09.008.171.008.253.146,0,.293.008.439.008C40.953,14.315,42.8,13.711,43.619,13.711Zm.091,2.031c-.034,0-.057.008-.091.008-.815,0-2.658.6-4.086.555-.13,0-.269,0-.415-.009a14.108,14.108,0,0,1-.18,1.8,1.146,1.146,0,0,1-.2,1.239l.049-.024a7.384,7.384,0,0,1,1.257-.269c.855-.073,2.29-.073,3.294-.057C43.431,17.92,43.6,16.826,43.71,15.742ZM42.8,22.291V21.019a18.179,18.179,0,0,0-2.317.032c-.708.057-1.435.522-2.12.563-1.712.114-1.68-1.843-1.573-3.05.073-.767.138-1.525.188-2.284-.3,0-.572.008-.8.008a6.334,6.334,0,0,1-1.477,4.274c-.162.163-1.965,1.174-1.932,1.362.1.53.2,1.1.252,1.663C36.313,23.359,39.549,22.756,42.8,22.291ZM42.756,8.475c0-.628.178-1.867-.434-2.242a1.724,1.724,0,0,0-1.15-.164V6.73c0,.9-.016,1.794.034,2.7a1.959,1.959,0,0,1-.008.22,7.783,7.783,0,0,0,1.467.652.051.051,0,0,1,.033.008C42.681,9.7,42.756,9.062,42.756,8.475Zm-2.6,65.742v-.171c-.252-.049-.5-.106-.75-.171-3.858-1.06-7.984-.783-11.956-.783-1.941,0-7.675-.718-10.431.464a19.425,19.425,0,0,1,2.683.221c5.782.758,11.736.4,17.576.4C38.245,74.176,39.207,74.193,40.153,74.217ZM39.076,8.891c-.048-.481-.113-.987-.162-1.484-1.958.147-3.932.171-5.9.171-.228,0-.465-.008-.693-.016.237.187.481.391.734.62,2.006,1.8,2.421,3.629,2.871,6.068h1.142c.016-.832.008-1.664-.05-2.512-.065-1-.4-2.178.719-2.716A2.125,2.125,0,0,1,39.076,8.891Zm-.113,77.4c-.221,0-.425-.008-.645-.008-1.7,0-4.216-.791-4.575,1.427a23.974,23.974,0,0,0-.18,5.709c.164,1.966.115,12.3,3.262,12.3.923,0,1.885.016,2.847.024C35.709,100.25,36.426,92.372,38.963,86.287ZM37.788,26.793c1.518-.416,1.753-.286.938-1.868v-.016a52.765,52.765,0,0,1-5.84.734c-.154.187-.228.342-.554.342-1.72.025-4.183-.04-6.451-.179-.016,1.672.653,1.957,2.373,1.957h.016c.564-.815,1.437-.244,1.966-.3a25.631,25.631,0,0,1,2.6-.293,23.548,23.548,0,0,1,3.833-.082C37.063,27.005,37.38,26.907,37.788,26.793Zm-.351,12.364a8.271,8.271,0,0,1,1.453-.18,10.114,10.114,0,0,0-1.558-1.868C37.38,37.876,37.455,38.5,37.437,39.157Zm-.8-8.792c-.009-.041-.017-.09-.025-.139-.074-.832-.147-1-.563-1.028-1.223.156-2.438.221-3.816.311-.75.049-1.835.2-2.969.293a2.294,2.294,0,0,1,.057.881,31.82,31.82,0,0,1,5.44.1,1.559,1.559,0,0,1,.309.1,1.008,1.008,0,0,1,.8-.456C36.125,30.406,36.378,30.389,36.639,30.365Zm-2.807,9.264c.8,0,1.77.1,1.542-.97a11.507,11.507,0,0,1-.122-2.585,7.392,7.392,0,0,0-1.558-.155H33.05a1.792,1.792,0,0,1,.171.962,3.237,3.237,0,0,1-2.144,2.855c-.034.024-.066.057-.107.081a3.852,3.852,0,0,0,.75.1C32.455,39.931,33.1,39.629,33.832,39.629ZM34.036,17a9.58,9.58,0,0,0-.513-4.885,1,1,0,0,1-.237.065,5.458,5.458,0,0,0-1.239.383,4.766,4.766,0,0,0-.865,2.577c.008,1.2,1.615,1.8,2.65,1.835A.786.786,0,0,1,34.036,17ZM33.67,33.823c.253-1.427.228-1.166-.905-1.166h-1.33c-1.027,0-2.055.032-3.074.048-.7.008-3.581.58-3.743-.309a3.758,3.758,0,0,1-.139,1.239c.994.041,1.974.188,2.96.188C29.519,33.823,31.59,33.8,33.67,33.823Zm-.9-14.4a2.484,2.484,0,0,0,.456-.465,6.917,6.917,0,0,1-.824-.155c-1.875,1.811-4.3,2.422-6.851,3.01-1.582.367-2.8-.718-3.767-1.982A3.723,3.723,0,0,1,20.7,20.986a3.084,3.084,0,0,0,.008.538c.042.571.107,1.142.164,1.721,3.368.082,6.753.579,10.137.644-.13-1.239-.579-1.973-.334-2.87C30.938,20.072,32.128,19.9,32.773,19.42ZM32.389,10.3a.008.008,0,0,1-.008-.008,13.43,13.43,0,0,0-2.227-1.672.943.943,0,0,1-.407.155c-1.689.277-2.683,1.754-3.613,3.059a12,12,0,0,0-1.55,2.079,2.223,2.223,0,0,0-.13,1.02c.367-.066.742-.123,1.118-.172a29.222,29.222,0,0,1,3.6-.106C29.315,12.651,30.358,10.784,32.389,10.3Zm-.783,96.1a14.171,14.171,0,0,0-1.574.693,15.987,15.987,0,0,1-2.847,1.534c-1.565.5-3.131,1.4-4.745,1.9a17.459,17.459,0,0,0,4.729.481c.066.008.115.016.172.024.155-.13.317-.269.474-.4C29.143,109.49,30.3,107.761,31.606,106.407ZM29.935,18.376a6.325,6.325,0,0,0,.562-.514,3.587,3.587,0,0,1-.978-1.158,32.933,32.933,0,0,0-4.9.269c-.735.115-1.4.237-2.073.335a13.725,13.725,0,0,0,1.485,1.925c1.019,1.068,2.193.187,3.213-.115C28,18.89,29.3,18.857,29.935,18.376ZM29.07,105.42c-.848-1.949-.448-5.333-.677-7.071a49.162,49.162,0,0,1-.2-13.228,1.811,1.811,0,0,1,.049-.2,6.275,6.275,0,0,1-1.851-.685c-.441-.285-.906-.538-1.379-.783-.978,3.736-.44,8.979-.073,12.788.253,2.7.025,7.984,1.4,10.554a5.258,5.258,0,0,0,1.239-.539A14.9,14.9,0,0,1,29.07,105.42ZM24.877,10.09A10.756,10.756,0,0,1,27.145,7.7a5.111,5.111,0,0,0-2.691.792,7.374,7.374,0,0,0-3.336,6.239,3.748,3.748,0,0,0,.057.685c.424-.033.848-.09,1.265-.155a3.629,3.629,0,0,1,.448-2.545C23.525,11.827,24.226,10.971,24.877,10.09Zm-.546,97.369c.017-.008.033-.008.049-.016a8.911,8.911,0,0,1-.538-2.749c-.269-2.813-.782-5.627-.946-8.449-.244-4.175-.937-9.37.164-13.432a1.624,1.624,0,0,1,.1-.237,23.5,23.5,0,0,1-2.92-1.533c-.3,5.342-.366,10.7-.269,16.042.057,3.3,0,6.614.065,9.925a4.411,4.411,0,0,0,.4,1.844c.024,0,.049-.009.081-.009C21.852,108.813,23.125,108,24.331,107.459ZM20.964,117.3c.065-.082.138-.163.2-.237-2.161-.228-4.323-.978-5.039-3.254a42.389,42.389,0,0,1-1.934-13.514c0-8.359-.375-16.841,2.2-24.907a4.35,4.35,0,0,0-.555.1,1.013,1.013,0,0,1-.391.335,1.763,1.763,0,0,0-.295.2,1.2,1.2,0,0,1-.464.425c-2,2.381-1.142,9.118-1.126,11.54.016,3.588-.807,7.1-.766,10.692.048,4.265-.946,10.21,1.7,13.945.783,1.1,2.5,2.716,1.8,4.266-1.012,2.226,3.842,3.507,7.659,4.159C21.387,120.19,19.618,118.991,20.964,117.3ZM20.71,20.953c.042-.073.016-.122,0,0Z"/><path d="M73.8,92.192v.816a1.224,1.224,0,0,1-2.447,0v-.816C71.348,91.376,73.8,91.376,73.8,92.192Z"/><path d="M73.151,87.976a1.03,1.03,0,0,1-.718,1.256,1.046,1.046,0,0,1-1.256-.71,2.9,2.9,0,0,1-.172-1.085,1.02,1.02,0,0,1,2.039,0A1.107,1.107,0,0,0,73.151,87.976Z"/><path d="M56.294,53.861a.982.982,0,0,1,1.255.954c-.016,1.6-.081,3.817-1.3,5.024-1.394,1.4-5.529.506-7.259.5-4.347-.04-8.815.465-9.81-4.428a1.02,1.02,0,0,1,.562-1.835c5.392-.024,11.214-.277,16.107-.277A1.78,1.78,0,0,1,56.294,53.861ZM55.1,57.775a11.6,11.6,0,0,0,.343-1.932c-4.347.008-9.33.2-14.134.253,1.142,3.2,5.986,2.169,8.866,2.218C50.911,58.33,54.817,58.8,55.1,57.775Z"/></g></svg>