<svg xmlns="http://www.w3.org/2000/svg" viewBox="0 0 128 160" x="0px" y="0px"><g><path d="M77.078,71.415c0,.018-.082.114-.095.184a2.289,2.289,0,0,0-.025.463v.025A24.555,24.555,0,0,1,82.8,75.608c1.916,1.37,4.168,1.8,5.875,3.508a.8.8,0,0,1-1.123,1.123c-1.637-1.643-4.187-2.411-6.123-3.7a36.2,36.2,0,0,0-3.971-2.506,17.69,17.69,0,0,0,1.275,1.491c2.842,2.925,4.822,6.972,6.89,10.417a.793.793,0,0,1-1.37.8c-.679-1.135-1.364-2.239-2.062-3.343a17.047,17.047,0,0,1,.184,3.2,22.109,22.109,0,0,1-1.32,5.557c-.311.971-1.84.559-1.535-.425a19.919,19.919,0,0,0,1.25-6.585,46.389,46.389,0,0,0-.616-4.923,17.654,17.654,0,0,0-2.081-3.1c-.437-.451-.907-.927-1.351-1.421-.019.793-.044,1.541-.095,2.341-.044.723-.082,1.548-.159,2.271-.076.774-.488,1.434-.57,2.22-.1,1.009-1.688.965-1.586-.05a47.7,47.7,0,0,0,.742-4.955c0-1.307.089-2.316.1-3.921-.812-1.25-1.624-2.525-2.322-3.838A8.187,8.187,0,0,0,69.91,66.72a9.069,9.069,0,0,1-2.538-2.715c-1.922,2.081-4.371,3.032-6.61,4.916a41.3,41.3,0,0,0-7.15,7.315,30.718,30.718,0,0,0,6.775,6.82c1.275.983,2.8,1.694,4.01,2.753,1.192,1.028,1.966,2.735,3.127,3.667,1.529,1.231,2.912,2.588,4.39,3.857a14.367,14.367,0,0,1,2.608,2.227,19.155,19.155,0,0,0,3.749,3.9c.165-.235.267-.508.432-.762.222-.323.431-.647.621-.989.4-.723.85-1.421,1.231-2.157.47-.907,1.84-.1,1.37.8a28.263,28.263,0,0,1-1.535,2.665c-.3.45-.52.977-.844,1.408.241.178.489.349.743.527,3.476-2.087,6.6-6.078,7.1-10.075A23.222,23.222,0,0,1,88.8,86.139c.343-.983,1.149-1.624,1.453-2.658.146-.476.165-1.4.368-1.9,1.485-3.623,1.789-7.911,2.779-11.7.355-1.364.374-3.185,1-4.447.349-.686.552-3.2.051-3.382a.913.913,0,0,1-.235-.133.791.791,0,0,1-.45-1.136,4.246,4.246,0,0,0,.609-3.514,29.446,29.446,0,0,0-1.11-3.6c-.184-.457-.248-3.737-.844-3.439-1.149.577-2.259,1.161-3.382,1.8a.794.794,0,0,1-.8-1.371,16.193,16.193,0,0,1,4.232-2.029c-1.1-2.043-3.585-3.249-5.253-4.727-1.085-.952-2.335-5.7-3.972-5.513a.625.625,0,0,1-.742-.539,3.309,3.309,0,0,0-1.8-.514c-.685-.006-1.237-.241-1.928-.279-1.288-.07-2.589-.146-3.883-.146-.013,0-.025-.006-.038-.006a.667.667,0,0,1-.755-.387,4.547,4.547,0,0,0-.755-1.244,1.662,1.662,0,0,0-.2-.07c-.018,0-.031,0-.038-.006a.687.687,0,0,1-.3.279,10.806,10.806,0,0,1,.838,2.544,27.737,27.737,0,0,1,.507,3.756,2.288,2.288,0,0,1,.362-.514,7.016,7.016,0,0,1,1.827-.971,31.815,31.815,0,0,1,4.257-1.478c1.269,0,1.269,1.586,0,1.586s-2.715.895-3.883,1.478c-.7.349-1.028.425-1.332,1.2-.044.114-.089.223-.14.33a.715.715,0,0,1-.215.673,1.141,1.141,0,0,0-.406.7,3.864,3.864,0,0,1-.381.8,36.663,36.663,0,0,1-.349,4.213c-.533,3.749-.71,4.447-3.889,6.357a.918.918,0,0,1-.139.063,8.317,8.317,0,0,1,1.706,1.548c.755,1.015,0,1.719-.412,2.709a35.85,35.85,0,0,0-1.212,3.667.852.852,0,0,1-.165.311c.825.7,1.815,1.212,2.652,1.9a53.073,53.073,0,0,1,1.491-8.71c.9-3.223,3.324-5.583,5.373-8.134.641-.8,1.758.337,1.123,1.123-2.525,3.141-4.529,5.437-5.3,9.485-.47,2.461-1.015,5.113-1.237,7.613a.83.83,0,0,1-.095.317c.577,1.008,1.129,2.017,1.706,3.013a1.767,1.767,0,0,1,.546-.844,10.9,10.9,0,0,1,.533-2.486.816.816,0,0,1-.153-.425,3.752,3.752,0,0,1,.273-1.986.674.674,0,0,1-.171-.552,8.77,8.77,0,0,1,.552-2.6c-1.079-2.151,1.522-4.8,2.518-6.363.844-1.326,1.491-3.191,2.754-4.187a59.551,59.551,0,0,1,5.253-3.287c.862-.552,1.655.825.8,1.371-1.319.837-2.671,1.643-4.022,2.43-1.4.824-1.84,2-2.671,3.311-.628.984-3.236,4.047-3.28,5.608a1.893,1.893,0,0,0,.476-.114c.761-.3,1.237-1.186,1.745-1.776a19.951,19.951,0,0,1,4.3-3.5c1.338-.92,2.537-2.176,4.111-2.652a.8.8,0,0,1,.425,1.535c-1.4.419-2.513,1.713-3.737,2.487A15.716,15.716,0,0,0,81.78,60.28c-.565.673-1.143,1.656-1.986,2-1,.406-1.358.787-1.542,1.637.533-.292,1.161-.565,1.878-.914,3.236-1.573,6.769-1.656,9.8-3.679.856-.565,1.649.8.8,1.37-2.443,1.63-4.727,1.916-7.48,2.829a20.191,20.191,0,0,0-3.635,1.669,19.831,19.831,0,0,1,2.049-.451c3.813-.672,7.436-.5,11.02-2.138.92-.425,1.725.946.8,1.371a15.789,15.789,0,0,1-6.268,1.745c-1.738.12-3.413.31-5.132.558-2.633.374-3.908.837-4.377,3.508.12,0,.241.006.361.006a.793.793,0,0,1,0,1.586A2.869,2.869,0,0,0,77.078,71.415ZM68.971,54.882a1.018,1.018,0,0,1,.349-.165c.939-.552,2.429-1.282,2.563-2.424a30.3,30.3,0,0,0,.526-3.806,45.549,45.549,0,0,0-.076-7.086c-.235-1.561.279-4.733-1.326-5.761-.349-.222-5.652-3.013-5.576-2.062a.984.984,0,0,1,0,.133c2.969,1.244,3.28,4.9,3.28,7.8a12.724,12.724,0,0,1-.216,3.261c-.279,1.1-1.085,2.043-1.37,3.172A10.437,10.437,0,0,1,65.082,51.6a14.654,14.654,0,0,1,3.178,3.154c.083.1.172.2.254.291.108-.038.216-.089.33-.12C68.907,54.9,69.015,54.837,68.971,54.882Zm54.908-6.611c.476,2.627-.558,4.359-1.269,6.833a33.148,33.148,0,0,0-1.243,9.04c0,6.166.938,13.2-1.193,19.128-1.263,3.508-.806,7.5-.926,11.184s-.267,7.347-.311,11.02a.986.986,0,0,1-.019.14,2.83,2.83,0,0,1,.6.152c.717.285,1.554,1.008,2.328,1.028a.793.793,0,0,1,0,1.586,2.769,2.769,0,0,1-1.833-.527,4.314,4.314,0,0,0-2.214-.945,1.907,1.907,0,0,1-.9-.114c-.73-.4-1.91-.235-2.715-.5-.406-.133-.774-.253-1.142-.412-2.208-.6-4.511-1.65-6.788-1.91a4.844,4.844,0,0,1-3.052,1.821,5.136,5.136,0,0,1-2.4,3.686.662.662,0,0,1-.33.273,11.9,11.9,0,0,1-4.5,1.034,18.826,18.826,0,0,1-4.79-.977.792.792,0,0,1-.85-.343c-1.941-2.867-2.17-6.388-2.138-9.922-.2-.057-.406-.114-.6-.177a4.512,4.512,0,0,0-.844-.292,8.816,8.816,0,0,1-1.268-.489,18.027,18.027,0,0,1-4.784,3.978.747.747,0,0,1-.729.019.8.8,0,0,1-.279-.121,22.272,22.272,0,0,1-5.571-4.8,14.165,14.165,0,0,0-1.979-2.068C67.962,98,63.2,99.341,58.719,101.054c-2.582.99-5.875,3.857-8.787,3.851a2.232,2.232,0,0,1-1.332.368c-4.378.019-8.653-2.316-12.758-3.534-5.107-1.516-10.461-1.808-15.556-3.362-2.258-.692-4.561-1.351-6.744-2.265-1.865-.78-3.717-1.891-5.8-1.808a.79.79,0,0,1-.768-.584A122.812,122.812,0,0,1,5.289,77.245C5.092,71.23,4.128,65.267,4,59.266c-.07-3.249,3.883-1.993,5.722-1.51,5.031,1.332,10.271,1.611,15.4,2.366,1.358.2,2.709.387,4.067.571a.819.819,0,0,1,.089-.444c1.059-2.125,3.242-3.9,3.184-6.452-.044-1.986.394-3.984.3-5.945a3.633,3.633,0,0,1,.425-1.668c.678-1.142.52-3.381.171-4.555a8.572,8.572,0,0,1,.07-4.352c.006-.019.012-.038.019-.064a3.444,3.444,0,0,1-1.459-2.55,4.157,4.157,0,0,1-.095-1.973,10.633,10.633,0,0,1,.437-1.491c.628-1.078,1.51-.431,2.348-.272-.013-.406-.013-.819-.013-1.225a.782.782,0,0,1-.1-.355c-.291-3.876,3.908-8.616,6.852-10.62,3.73-2.538,9.8-4.1,13.64-1.041a.346.346,0,0,1,.05.051c1.72-.152,3.376-.52,4.86.565a16.472,16.472,0,0,1,3.248,3.882c1.085,1.542.958,2.969.793,4.784a25.839,25.839,0,0,0,.508,4.9c1.167-.616,3.534.469,4.675.735a5.135,5.135,0,0,1,2.728,1.542,1.715,1.715,0,0,1,1.973-.374,3.069,3.069,0,0,1,1.4,1.567c1.827.038,3.61.311,5.424.412a5.085,5.085,0,0,1,3.065,1.066,2.46,2.46,0,0,1,1.37.736c2.423-1.364,5.722-.394,8.3-.051,4.289.577,8.488,1.345,12.739,2.132,2.284.431,4.517.875,6.82,1.2a8.154,8.154,0,0,1,2.918.926C118.9,42.682,123.308,45.163,123.879,48.271Zm-2.487,5.393c.6-2.36,2.068-4.822-.279-6.789-.736-.615-1.447-1.211-2.17-1.744a10.782,10.782,0,0,1,.914,6.737c-.457,2.259-1.2,4.574-1.688,6.871-.6,2.766-.507,5.557-.875,8.349-.362,2.734-.444,5.494-.762,8.222a.856.856,0,0,1-.1.806c-.051.38-.1.755-.165,1.129-.679,3.952-1.669,8.139-1.669,12.149,0,2.544.692,5.2.394,7.733a70.257,70.257,0,0,0-.711,7.289.84.84,0,0,1-.032.235,10.761,10.761,0,0,0,1.3.305,7.143,7.143,0,0,1,1.8.285c.051-3.6.2-7.188.311-10.785.082-2.76-.191-5.7.241-8.437.463-2.881,1.446-5.533,1.77-8.457a78.438,78.438,0,0,0,.108-8.717A59.749,59.749,0,0,1,121.392,53.664Zm-4.016,1.376c.343-2.29,1.409-4.574.819-6.9-.933-3.635-2.64-5.412-6.427-5.83-1.427-.159-2.772-.495-4.181-.787-3.87-.8-7.727-1.567-11.648-2.074-2.569-.33-7.321-2.005-9.839-.66.444.723.831,1.529,1.186,2.246C91.3,40.95,94.645,43.355,99,43.355c.634,0,.634,1.586,0,1.586a15.78,15.78,0,0,1-5.913-.9,23.224,23.224,0,0,0-4.809-1.37c1.954,2.366,5.145,3.159,6.1,6.445a.873.873,0,0,1,.019.356,3.458,3.458,0,0,1,.216,1.332c0,2.385.881,4.384,1.452,6.661a4.175,4.175,0,0,1-.564,3.458c.615.64.647,1.738.882,2.677a3.13,3.13,0,0,1-.064,1.719.851.851,0,0,1,.171.292c.527,1.522,1.364,2.791,1.6,4.422a28.261,28.261,0,0,0,.584,4.3c.685,2.246,2.087,3.464,1.459,5.7a12.292,12.292,0,0,0,1.51,1.015c.672.362,1.1.47,1.4,1.2a3.422,3.422,0,0,1-.083,1.929,5.9,5.9,0,0,1,1.644,1.409,1.744,1.744,0,0,1,.082,1.763c1.89,2.379,4.016,4.4,4.745,7.416.394,1.637,1.65,2.767,2.037,4.41a20.941,20.941,0,0,1,.856,4.815V104c0,.019.127.044.2.07a.54.54,0,0,1,.184-.044c.076-2.322.654-4.6.692-6.9.044-2.379-.394-4.713-.394-7.086a30.866,30.866,0,0,1,.362-4.429c-2.049-.177-4.035-.767-6.122-.8a.793.793,0,0,1,0-1.586,32.369,32.369,0,0,1,3.331.273c1.021.126,2.017.456,3.038.552.159-.92.324-1.847.476-2.779.279-1.669.5-3.337.7-5.012-3.121-.609-6.433-.387-9.446-1.313a.794.794,0,0,1,.425-1.529,27.125,27.125,0,0,0,5.786.66,23.25,23.25,0,0,1,3.406.564c.464-4.523.743-9.065,1.219-13.589-1.326-.234-2.475-.831-3.864-.8a20.658,20.658,0,0,1-4.327-.317c-1-.2-.577-1.726.419-1.536a37.477,37.477,0,0,0,5.132.3,24.215,24.215,0,0,1,2.855.793C116.678,58,117.154,56.544,117.376,55.04Zm-6.731,48.431c-.133-1.535-.368-3.965-1.117-5.1a9.221,9.221,0,0,1-1.643-3.178c-.494-2.373-2.715-4.694-4.3-6.674a7.4,7.4,0,0,1-3.1.622c-1.021.057-1.015-1.529,0-1.586-.013,0,3.635-.432,2.722-1.187a5.917,5.917,0,0,0-2.887-1.535,43.68,43.68,0,0,0-5.754-.133.793.793,0,0,1,0-1.586c2.233,0,4.745-.222,6.909.432a2.5,2.5,0,0,0,.018-.813,5.975,5.975,0,0,1-.919-.482c-.368-.279-.736-.571-1.117-.831a8.183,8.183,0,0,0-2.88-1.611c-1-.216-.578-1.745.419-1.529a5.328,5.328,0,0,1,1.738.742,4.977,4.977,0,0,0-.838-2.753,12.981,12.981,0,0,1-.989-2.62c-.527-1.339,0-2.728-.463-4.016-.254-.717-.571-1.4-.87-2.087a.837.837,0,0,0-.031.133c-.5,2.747-1.149,5.589-1.9,8.285-.5,1.77-.546,3.743-1.244,5.456-.387.958-.469,2.017-.767,3.014-.318,1.053-1.187,1.928-1.586,2.962a19.825,19.825,0,0,0-.793,2.76,7.092,7.092,0,0,1,3.21-.857c-.248-.488-.641-.907-.908-1.4-.475-.9.895-1.7,1.371-.8.241.451.621.825.85,1.269a4.67,4.67,0,0,0,.514.875c.456,0,.882.007,1.237.007,2.2-.013,6.337.222,7.562,2.436a.845.845,0,0,1,.6.571,9.949,9.949,0,0,1,.292,1.725c2.7-.621,3.451,2.792,3.559,5.342a8.124,8.124,0,0,1-.476,3.179A25.853,25.853,0,0,1,110.645,103.471Zm-7.213.673c2.043-.59,2.556-2.906,2.512-4.822-.025-.983-.133-4.257-1.935-3.686-.012.318-.025.641-.051.964.717.242,1.333.552,1.466,1.365a8.518,8.518,0,0,1,.152,2.341,2.777,2.777,0,0,1-2.081,2.474C103.489,103.217,103.47,103.68,103.432,104.144Zm.6-4.378a5.9,5.9,0,0,0-.082-1.059c-.038-.254-.057-.368-.133-.444-.1.932-.21,1.865-.267,2.772A1.636,1.636,0,0,0,104.028,99.766Zm-2,.248c0-2.011.577-4.39.311-6.478a18.954,18.954,0,0,1-12.035.121l-.514-.178a.631.631,0,0,1,.33.47v4.257c0,3.432-.463,6.984,1.351,10.036,2.716.685,5.19,1.294,7.9.254a.683.683,0,0,1,.291-.216C102.2,107.2,102.03,102.317,102.03,100.014Zm-7.493-7.1a19.906,19.906,0,0,0,6.877-.768c-1.3-1.142-4.745-1.345-5.893-1.313-.336.006-.888-.013-1.516-.013a.642.642,0,0,1-.223,0c-1.509.007-3.374.146-3.977,1.009.108.044.228.095.355.139A16.436,16.436,0,0,0,94.537,92.915ZM88.212,97.85c.032-1.3.064-2.582.032-3.825a14.042,14.042,0,0,1-1.783,3.292,1.586,1.586,0,0,0,.508.2A5.041,5.041,0,0,1,88.212,97.85ZM70.17,94.856c-.007-.057-.019-.114-.026-.165-.012-.108-.019-.209-.031-.317a1.083,1.083,0,0,1-.165-.057C66.725,92.8,62.005,92.68,58.535,92.1c-3.122-.526-6-1.319-9.015-2.112.012,1.148.044,2.3.089,3.445,1.681,1.047,3.787,1.2,5.671,1.611.85.184,2.684.152,2.684,1.415,0,1.04-1.84,1.948-2.627,2.163a40.939,40.939,0,0,0-4.935,1.834,9.609,9.609,0,0,1,.323,2.8c1.6-.393,3.451-1.979,4.631-2.595a34.61,34.61,0,0,1,3.877-1.516C62.874,97.743,66.693,96.645,70.17,94.856Zm-1.51-31.8c.577-1.446,1.827-4.225,1.078-4.682-2.233-1.37-3.533-3.819-5.57-5.449a3.391,3.391,0,0,1-.533,1.554,2.423,2.423,0,0,1,.21.431,10.424,10.424,0,0,0,.926,1.77,24.323,24.323,0,0,1,1.516,2.753c.051.013.1.013.152.026.971.273,1.333,1.453,1.625,2.455a.779.779,0,0,1,.3.425A3.865,3.865,0,0,0,68.66,63.053ZM67.125,42.568c0-2,.158-5.291-1.5-6.839a9.551,9.551,0,0,1-.894,5.532c-.685,1.244-2.963,1.491-3.984.723-.806-.609-.019-1.985.8-1.37.6.444,1.339.038,1.84-.273.273-.171.19-1.066.355-1.351a5.521,5.521,0,0,0,.292-3.09,5.1,5.1,0,0,0-.279-1.243.733.733,0,0,1-.083-.191.961.961,0,0,0-1.243-.615,3.964,3.964,0,0,0-1.5.787,10.243,10.243,0,0,0-1.637,2.3.751.751,0,0,1-.241.266c.1.577.19,1.161.247,1.764.178,1.941,1.015,3.717,1.466,5.589a2.729,2.729,0,0,1,.514-.381,3.627,3.627,0,0,1,1.668-.241h2.113c.469,0,.875.425,1.243.666a.753.753,0,0,1,.343.444.013.013,0,0,0,.012.013A9.451,9.451,0,0,0,67.125,42.568Zm.564,49.363A14.111,14.111,0,0,1,66.408,90.6a29.572,29.572,0,0,0-3.185-3.584,8.916,8.916,0,0,1-1.389,3.977A54.5,54.5,0,0,1,67.689,91.931ZM66.573,62.52c-.267-.882-.5-1.561-1.827-1.32a9.843,9.843,0,0,0-3.382,1.77,18.551,18.551,0,0,0-3.457,2.468c-1.035,1.117-.165,2.278.507,3.217,1.155-.895,2.3-1.84,3.5-2.671C63.654,64.791,65.215,64.258,66.573,62.52ZM65.2,46.5c.089-.057.07-.4.051-.666a1.322,1.322,0,0,0-.819-.248c-.494,0-.989-.006-1.478,0a1.724,1.724,0,0,0-1.4.4,3.833,3.833,0,0,1-.851.653.8.8,0,0,1-1.154-.52.887.887,0,0,1-.146-.374c-.305-2.462-1.383-4.828-1.77-7.3-.463-3.007-1.371-5.8-2.005-8.774a.36.36,0,0,1-.013-.12c-.85-.8-1.459-.679-1.814.412a14.243,14.243,0,0,0,.082,2.011c.191.882.464,1.675.6,2.563a38.992,38.992,0,0,1,.063,5.6c0,.97-.932,1.2-1.37.678a.748.748,0,0,1-.216-.279c-1-2.074-2.43-3.768-3.6-5.735-.679-1.142-1.408-2.264-2.093-3.4a1.654,1.654,0,0,0-1.872-.939,2.378,2.378,0,0,0-.025,1.852,17,17,0,0,0,2.62,5.907c1.173,1.58,1.979,2.341,2.214,4.244.082.622-.495.857-.971.711a.921.921,0,0,1-.241-.051c-1.947-.774-2.709-1.821-4.219-3.2-.926-.856-1.839-1.757-2.791-2.576a2.8,2.8,0,0,0-1.872-.958c-.767-.158-1.161.286-1.179,1.326,1.928,3.039,5.011,4.7,7.536,7.125.064.006.133.006.2.006a.8.8,0,0,1,.672,1.2A.788.788,0,0,1,46,46.616c-.057-.064-.127-.121-.191-.184a14.115,14.115,0,0,1-4.218-.248c-1.231-.4-3.407-.209-1.136.863a20.129,20.129,0,0,0,4.187,1.427c1.161.267,2.817.375,3.724,1.276,1.2,1.2,1.288,3.247,2.563,4.516,1.015,1.015,2.328,1.682,3.318,2.671a15.1,15.1,0,0,1,3.267,6.643,29.348,29.348,0,0,1,4.479-2.874,11.27,11.27,0,0,1,2.6-1.2c-.355-.7-.787-1.364-1.186-2.031a11.039,11.039,0,0,1-.812-1.421c-.153-.355-.2-.736-.521-.983a.619.619,0,0,1-.152-.882.683.683,0,0,1,.26-.475c.761-.629.362-2.005.571-2.849A18.829,18.829,0,0,0,63,47.745c0-.229.2-.374.47-.438a1.087,1.087,0,0,1,.241-.248,2.517,2.517,0,0,1,.824-.386A2.265,2.265,0,0,0,65.2,46.5Zm.279,1.554a3.25,3.25,0,0,0-.894.343c-.013.507-.045.945-.076,1.358A14.089,14.089,0,0,0,65.475,48.049Zm-3.07-15.79a2.516,2.516,0,0,1,.571-.026c-.121-2.271-.445-4.421-.413-6.7.032-2.1-1.51-3.775-2.874-5.24-1.319-1.422-2.778-1.155-4.333-.99a6.963,6.963,0,0,1-1.472,3.736c-.793,1.035-.507.686-.507,1.808a8.694,8.694,0,0,1-2.785,5.786c.152.229.273.463.571.54a4.269,4.269,0,0,0,1.047.133,6.932,6.932,0,0,1,.247-2.906c.3-.939,1.269-1.161,2.252-.99a.914.914,0,0,1,.311-.2,7.319,7.319,0,0,0,.787-1.009,6.652,6.652,0,0,0,.666-1.713,8.112,8.112,0,0,0,.393-3.07c-.069-1.022,1.523-1.015,1.586,0a13.254,13.254,0,0,1-.793,4.682,5.029,5.029,0,0,1-1.281,2,2.248,2.248,0,0,1,.7.736.749.749,0,0,1,.088.45c.426,1.961.99,3.839,1.447,5.755A5.716,5.716,0,0,1,62.405,32.259ZM60.412,90.25a7.79,7.79,0,0,0,1.32-4.333c-.812-.507-1.567-1.066-2.322-1.643a4.309,4.309,0,0,1-.609.527c-.076.057-.146.114-.216.171.013.063.032.127.051.2A15.5,15.5,0,0,0,60.412,90.25Zm-1.693.3a9.651,9.651,0,0,1-.6-1.237,3.3,3.3,0,0,1-1.243.362,3.989,3.989,0,0,0-1.091.273C56.752,90.168,57.729,90.371,58.719,90.548Zm-.8-7.061a2.734,2.734,0,0,0,.229-.2,27.091,27.091,0,0,1-6.141-6.591.689.689,0,0,1,.069-.882.751.751,0,0,1,.14-.343c.749-1.021,1.554-2.125,2.417-3.172-.964-4.181-1.833-8.374-2.43-12.631a3.064,3.064,0,0,1-2.886-.945A14.9,14.9,0,0,1,47.8,56.867a12.539,12.539,0,0,0-.66,4.264,31.926,31.926,0,0,0,.19,3.648,5.308,5.308,0,0,1,1.535,3.038A35.754,35.754,0,0,1,49.3,72.43a.745.745,0,0,1,.273.3,37.453,37.453,0,0,1,2.169,4.447A17.413,17.413,0,0,0,54,81.07a7.468,7.468,0,0,0,3.451,2.836c.025,0,.051-.057.076-.082A5.056,5.056,0,0,1,57.919,83.487Zm-.412,4.251a.558.558,0,0,1,.07-.1c-.184-.691-.337-1.383-.47-2.042-.051-.254-2.614-1.739-2.969-2.189-.628-.8-1.269-1.548-1.871-2.328a15.69,15.69,0,0,0-1.764.71,3.25,3.25,0,0,0-1.072.527c.051,2,.057,4.022.07,6.033,1.49.387,2.95.78,4.4,1.148a3.218,3.218,0,0,1,1.681-1.186C56.149,88.144,57.183,88.29,57.507,87.738ZM56.219,64.956c.032-.051.076-.095.114-.146a.658.658,0,0,1-.285-.463,14.778,14.778,0,0,0-2.208-5.291,1.419,1.419,0,0,0-.133.07c.527,3.933,1.338,7.841,2.22,11.711.406-.425.819-.831,1.244-1.2C56.073,68.014,54.938,66.777,56.219,64.956Zm-.406,31.759c-2.017-.514-4.187-.571-6.1-1.428.083,1.212.2,2.424.355,3.629C51.525,98.351,54.57,97.19,55.813,96.715ZM51.721,22.933A5.82,5.82,0,0,0,53.8,18.72c-3.686-2.772-9.738-.133-12.809,2.361-1.827,1.484-4.435,4.745-4.8,7.39a.862.862,0,0,1,.172.07,15.186,15.186,0,0,0,1.694.977c-.013-.146-.026-.292-.038-.444-.045-.539-.121-1.288.31-1.707a1.362,1.362,0,0,1,.889-.361,1.612,1.612,0,0,1,.494.025c.089.026.5.07.2.057a3.773,3.773,0,0,1,1.052.26.651.651,0,0,1,.229-.463,2.792,2.792,0,0,1,1.986-.653c1.268,0,1.268,1.586,0,1.586h-.184c-.064.006.038.006-.019.013a.685.685,0,0,0-.07.006,1.941,1.941,0,0,0-.2.051c-.026.672-.381,1.332-1.142,1.332-.654,0-1.206-.52-1.872-.558,0,0-.044-.007-.107-.013.006.14.006.286.019.425a9,9,0,0,0,.12.964c.673.343.241,1.58-.666,1.453a5.969,5.969,0,0,1-1.884-.622c-.33-.177-.654-.355-.971-.552a4.425,4.425,0,0,0,.133,1.149c.089.349-.076.609.235.869a2.447,2.447,0,0,0,1.11.66c1,.127,1.016,1.713,0,1.586a3.848,3.848,0,0,1-2.69-1.663,1.48,1.48,0,0,1-.146-.361c-.05-.007-.1-.013-.152-.025a3.878,3.878,0,0,1-.647-.21.333.333,0,0,1-.266-.108,2.231,2.231,0,0,1-.178.482,2.16,2.16,0,0,0-.095,1.358,2.68,2.68,0,0,0,3.6,2.411,2.6,2.6,0,0,1,.311-.857c.539-.938,1.751-1.053,2.9-.824a2.354,2.354,0,0,1,.812-.267,1.729,1.729,0,0,0,.9-.463c.54-.463,1.161-.863,1.739-1.294-.426-1.44-.622-3.007.691-3.724,1.586-.869,3.02.152,3.946,1.339,1.9-1.231,3.946-4.067,3.1-6.313A1.209,1.209,0,0,1,51.721,22.933Zm1.224,14.331a22.061,22.061,0,0,0-.456-4.32c-.007-.019-.007-.038-.013-.057a5.492,5.492,0,0,1-1.954-.267,2.893,2.893,0,0,1-.793-.488c-.044.038-.089.076-.14.114C50.668,33.946,51.873,35.564,52.945,37.264Zm-3.914,18.6a2.965,2.965,0,0,0,3.737,1.878c-1.079-1.028-2.531-1.8-3.489-3.014-1.523-1.935-1.485-3.895-4.2-4.523-.787-.178-1.542-.362-2.278-.571-.006.672-.019,1.573-.012,2.341.012,2.3,1.617.774,2.4.932A2.012,2.012,0,0,1,46.8,54.3C47.274,55.542,48.53,54.755,49.031,55.859ZM51.3,79.732c-.247-.381-.489-.781-.71-1.2-.445-.843-.831-1.719-1.225-2.594,0,1.541-.006,3.083.026,4.593.114-.045.228-.095.342-.14C50.268,80.2,50.77,79.935,51.3,79.732ZM47.306,103.6c2.8.413,1.63-2.632,1.313-3.794a.835.835,0,0,1-.045-.177c-.964-6.8-.6-13.78-.837-20.631-.108-2.956-.006-5.951-.2-8.9-.215-3.368-1.389-5.062-4.821-5.716-7.328-1.4-14.807-2.468-22.217-3.318a83.848,83.848,0,0,1-9.085-1.262c-1.592-.362-3.3-1.1-4.929-1.117s-.825,3.052-.724,4.067c.692,7.232.87,14.5,1.586,21.722.223,2.214.451,4.428.793,6.623.235,1.459-.088,1.4,1.174,1.713,2.094.52,3.921,1.618,5.957,2.284a73.492,73.492,0,0,0,9.878,2.842c2.975.533,6.008.9,8.933,1.662,3.375.882,6.559,2.373,9.947,3.191C45.1,103.053,46.214,103.439,47.306,103.6Zm-1.066-47.1c-.007-.007-.026-.013-.032-.019-.488-.52-.837-2.018-1.51-1.764-.171.064-.361.121-.558.178-.019.025-.038.057-.057.082A6.2,6.2,0,0,0,45.13,57.6c.552.863-.819,1.662-1.371.8a9.082,9.082,0,0,1-.958-1.96,5.316,5.316,0,0,1-2.049,1.142c-.349.108-.748,1.516-.932,1.9A16.191,16.191,0,0,0,38.7,62.05c1.491.242,2.969.508,4.447.806q.57.114,1.1.267c-.3-.432-.736-.793-1.015-1.237-.444-.692-.806-1.434-1.269-2.113-.577-.85.793-1.643,1.37-.8.641.945,1.142,1.916,1.865,2.8a5.352,5.352,0,0,1,.375.5c-.026-.787-.026-1.573-.019-2.379A9.708,9.708,0,0,1,46.24,56.506Zm1.751-15.683c-.628-1.1-1.574-2.188-2.119-3.146a14.929,14.929,0,0,1-1.453-2.938c-.032-.114-.076-.235-.12-.361-.115.095-.229.2-.349.292-.3.234-.66.386-.952.634a5.523,5.523,0,0,1-.526.387C44.47,37.163,45.954,39.434,47.991,40.823Zm-7.036,3.515a13.737,13.737,0,0,0,2.9.431A23.31,23.31,0,0,1,39.4,41.052a12.348,12.348,0,0,1-2.107-3.071c-.063.013-.12.019-.184.032.216,1.027.248,2.081.47,3.109.133.64.425,2.163,1.034,2.556a.785.785,0,0,1,.324.419A5.164,5.164,0,0,1,40.955,44.338Zm.108,4.758a.511.511,0,0,1,.089-.019c-.336-.133-.673-.273-1.015-.432-1.2-.57-2.95-1.5-2.925-2.727a7.1,7.1,0,0,0-1.319.171c-.47.114-.666.545-1.092.755a1.049,1.049,0,0,1-.126.044c-.343.964-.064,1.846-.356,2.868-.552,1.916.318,4.307-.5,6.109s-2.189,3.293-3.1,5.037c2.138.286,4.27.578,6.4.9.394-1.7,1.447-3.153,1.948-4.828.171-.583.761-.748,1.263-.926a4.411,4.411,0,0,0,1.922-1.3c-1.009-.705-1.186-2.608-1.161-4.029a3.8,3.8,0,0,1-1.827.007l-.076-.02c.057.686-.1,1.4-.083,2.119a2.928,2.928,0,0,1-.26,1.339c-.216.5-.831.723-1.123,1.167-.552.857-1.928.064-1.37-.8.4-.609,1.192-.926,1.167-1.707a12.431,12.431,0,0,0,.12-1.973,4.448,4.448,0,0,1-.355.413.794.794,0,0,1-1.122-1.123,5.073,5.073,0,0,0,.989-1.186.98.98,0,0,1,1.053-.5c.451.146.736.527,1.2.654A2.833,2.833,0,0,0,41.063,49.1ZM37.1,44.325a6.407,6.407,0,0,1-.863-1.947c-.367-1.371-.38-2.792-.7-4.149a.149.149,0,0,1-.006-.051h-.1a2.127,2.127,0,0,1-.527-.114c-.336,2.207.26,4.352.286,6.585a2.1,2.1,0,0,1,.285-.089A16.035,16.035,0,0,1,37.1,44.325Z"/><path d="M114.42,48.436c.85.559.057,1.929-.8,1.371-2.829-1.859-6.083-2.259-9.224-3.306-.964-.323-.552-1.852.425-1.529C108.088,46.064,111.476,46.5,114.42,48.436Z"/><path d="M84.463,88.03a.793.793,0,0,1,1.586,0,6.4,6.4,0,0,1-1.288,4.047c-.679.768-1.8-.355-1.123-1.116A4.811,4.811,0,0,0,84.463,88.03Z"/><path d="M83.016,45.264a.8.8,0,0,1,.286,1.085c-.222.3-.527.539-.742.844a.81.81,0,0,1-1.085.285.794.794,0,0,1-.286-1.085c.222-.311.527-.545.743-.85A.806.806,0,0,1,83.016,45.264Z"/><path d="M77.275,46.286a.794.794,0,0,1,1.371.8,17.315,17.315,0,0,1-2.24,2.8c-.673.767-1.789-.355-1.116-1.117A16.3,16.3,0,0,0,77.275,46.286Z"/><path d="M72.308,75.551c.127-1,1.719-1.009,1.586,0a22.275,22.275,0,0,1-1.593,5.9c-.412.932-1.776.127-1.37-.8a14.11,14.11,0,0,0,.742-2.519C71.876,77.276,72.187,76.433,72.308,75.551Z"/><path d="M63.528,83.481a.794.794,0,0,1-.793.793.722.722,0,0,1-.559-.248.8.8,0,0,1,.666-1.414A.909.909,0,0,1,63.528,83.481Z"/><path d="M61.459,81.02a1.345,1.345,0,0,1-.342,1.091,1.04,1.04,0,0,1-1.478-.077.691.691,0,0,1-.159-.869,1.253,1.253,0,0,1-.076-.431.981.981,0,0,1,1.269-.9A1.256,1.256,0,0,1,61.459,81.02Z"/><path d="M59.011,78.958a.979.979,0,0,1-.3,1.389c-.476.343-1.072-.019-1.358-.425a.744.744,0,0,1-.374-.672.954.954,0,0,1,1.155-.939A1.363,1.363,0,0,1,59.011,78.958Z"/></g><text x="0" y="143" fill="#000000" font-size="5px" font-weight="bold" font-family="'Helvetica Neue', Helvetica, Arial-Unicode, Arial, Sans-serif">Created by Hey Rabbit</text><text x="0" y="148" fill="#000000" font-size="5px" font-weight="bold" font-family="'Helvetica Neue', Helvetica, Arial-Unicode, Arial, Sans-serif">from the Noun Project</text></svg>