<svg xmlns="http://www.w3.org/2000/svg" viewBox="0 0 128 160" x="0px" y="0px"><g><path d="M49.875,46.108c-.007.013-.007.013,0,.02H49.9l.251.142c.128.088.25.183.379.278.244-.143.488-.285.732-.44a11.919,11.919,0,0,0,3.156-2.7l.061.048c-.068-1.213-.095-2.229-.108-3.082a3.834,3.834,0,0,1-.739.508l-.088.04c-.345.658-.765,1.491-1.416,2.527-.2.291-.392.6-.63.914-.257.312-.528.63-.806.976-.169.149-.331.3-.508.467C50.092,45.9,49.936,46.04,49.875,46.108Zm-5.412,46,.006.007v.007a.693.693,0,0,0-.094-.068l-.156-.122a2.244,2.244,0,0,1-.711-1.5,7.3,7.3,0,0,1,.4-2.29,2.047,2.047,0,0,0,.007-1.442,3,3,0,0,0-.176-.373l-.278-.474a3.946,3.946,0,0,1-.521-1.368,5.687,5.687,0,0,1-.021-.827,5.919,5.919,0,0,1,.163-.738c.074-.217.156-.454.224-.616l.115-.278.081-.237a2.385,2.385,0,0,0,.162-.806c-.006-.129-.04-.258-.047-.386-.034-.149-.095-.332-.142-.5-.048-.149-.109-.3-.169-.46-.041.115-.075.23-.116.345l-.244.542-.027.068-.02.034c0,.006-.047.1-.047.1a1.63,1.63,0,0,1-.353.414,2.169,2.169,0,0,1-.291.189l-.02.014c0,.02-.014-.007,0,.02l.068.081a2.538,2.538,0,0,1,.291.549,1.3,1.3,0,0,1,.088.6c-.007.108-.02.217-.034.318l-.041.231a3.615,3.615,0,0,1-.3.826,3.952,3.952,0,0,1-1.971,1.842c.007.149.014.3.007.468l-.014.332-.067.352a3.628,3.628,0,0,1-.583,1.4,5.287,5.287,0,0,1-1.056,1.071c-.773.6-1.572,1-2.222,1.53a4.009,4.009,0,0,0-.813.854,6.246,6.246,0,0,0-.515,1.178,27.218,27.218,0,0,1-.989,3.252l-.223.46-.285.441a5.233,5.233,0,0,1-.691.846c-.42.393-.813.712-1.111,1l.007.291a2.945,2.945,0,0,1-.068.569,2.308,2.308,0,0,1-.223.495,1.379,1.379,0,0,1-.623.487,1.96,1.96,0,0,1-.366.089c-.312.047-1.341,2.059-1.585,2.384a11.531,11.531,0,0,1-1.7,1.93c-.955.772-2.486.766-3.319,1.47-.508.427-.563,1.2-1.057,1.633a6.612,6.612,0,0,1-1.633.7c-1.029.468-2.018.976-1.652,2.3.494,1.8-2.032,2.263-3.2,2.52-2.4.535-5.006-1.863-6.713-3.2C7.675,109.15,5.508,106.677,5.86,104c.623-4.674,5.385-6.855,9.632-6.361.616-.6,1.395-.989,1.978-1.666,1.6-1.863,2.2-4.4,3.305-6.55C22.414,86.228,22.117,82.407,25,80c1.653-1.375,1.883-3.279,3.062-4.945.244-.345,1.449-1.321,1.233-1.849a1.8,1.8,0,0,1-.251-1.145A18.11,18.11,0,0,1,30.97,67.4c.711-1.376,1.016-1.626.108-2.642a1.827,1.827,0,0,1,0-2.012c1.213-1.883,1.47-4.2,2.262-6.279,1.077-2.825.732-6.591,2.872-8.921a23.247,23.247,0,0,1,9.125-5.825c1.916-.711,3.921-1.226,5.825-1.958,1.809-.691,2.621-2.052,3.685-3.448-.116-.237-.231-.467-.339-.7a18.171,18.171,0,0,1-1.1-3.062,1.1,1.1,0,0,1-.44-.129c-2.71-1.483-3.591-3.827-2.818-6.814a5.113,5.113,0,0,1,.528-1.334,7.148,7.148,0,0,1-.407-2.737c.007-.88.089-1.68.095-2.377a12.674,12.674,0,0,1,.014-2.317,1.709,1.709,0,0,1,.2-.657c.075-.163.149-.325.217-.488s.136-.291.2-.44a.007.007,0,0,1,.007-.007c.007-.007.007-.007.007-.013,0-.312-.285-.888-.427-1.606-.027-.183-.041-.372-.054-.555.013-.19.02-.386.047-.562.088-.3.17-.6.251-.888.752-1.686,1.016-3.061,2.445-4.3a6.861,6.861,0,0,1,3.59-1.4c.63-.088,1.26-.136,1.9-.163.3-.006.609-.02.921-.027.027-.006.067.007.081-.013s-.007-.027,0-.041-.034.061.081-.223a2.191,2.191,0,0,1,.861-.969A4.071,4.071,0,0,1,62.65,4a13.871,13.871,0,0,1,3.448.426,15.448,15.448,0,0,1,1.7.481c.291.1.589.21.887.312.292.122.583.3.881.447A8.141,8.141,0,0,1,72.431,8.52c.366.563.664,1.132.976,1.694.148.278.3.562.453.847a6.61,6.61,0,0,0,.454.657,7.479,7.479,0,0,1,1.267,1.916,12.534,12.534,0,0,1,.447,2.188c.047.353.115.63.169.935.081.353.163.7.244,1.05a19.1,19.1,0,0,1,.352,2.235,10.83,10.83,0,0,1-.2,3.733,4.085,4.085,0,0,0,.095,2.614c.44,2.073.325,4.891-2.019,5.717a.874.874,0,0,1-.582.027,27.025,27.025,0,0,1-1.531,5.115,1.244,1.244,0,0,1,.115.216c1.158,2.811,6.029,3.1,8.582,3.78,2.683.711,5.717,1.4,8.041,3.007a9.451,9.451,0,0,1,3.956,6.11,54.481,54.481,0,0,0,3.7,10.567c.67,1.4.474,2.743.528,4.24.081,2.371,1.632,4.173,2.52,6.259,1.294,3.035,1.558,6.442,4.077,8.772,1.2,1.111,1.348,2.276,1.863,3.787a19.686,19.686,0,0,0,2.805,4.938c2.106,3.034,3.095,6.807,6.164,9.042,2.323.19,6.15.976,7.132,3.211.9,2.039.644,4.45.183,6.6a7.884,7.884,0,0,1-3.576,5.575c-1.565.86-4.586,1.687-6.022.034a15.985,15.985,0,0,0-3.1-2.8,11.283,11.283,0,0,1-1.951-1.768,14.776,14.776,0,0,1-2.648-4.024c-.136,0-.264,0-.413-.013a3.384,3.384,0,0,1-.61-.183,2.275,2.275,0,0,1-.508-.352,2.361,2.361,0,0,1-.325-.366c-.169-.217-.251-.339-.366-.474l-.1-.116-.2-.243a1.515,1.515,0,0,1-.231-.563,2.378,2.378,0,0,1-.041-.311,1.878,1.878,0,0,1,0-.264l.014-.346c0-.731-.474-.609-1.07-.934a1.537,1.537,0,0,1-.237-.17l-.115-.095c-.014.007-.041-.007-.041-.007-.048-.033-.048-.02-.048-.013-.02.007.014.02-.033,0l-.21-.061-.461-.136a6.619,6.619,0,0,1-1.064-.372,2.447,2.447,0,0,1-.311-.169,2.862,2.862,0,0,1-.359-.271c-.136-.142-.223-.264-.339-.4-.217-.271-.427-.528-.63-.786-.183-.257-.365-.508-.542-.758l-.264-.373a4.706,4.706,0,0,1-.25-.42c-1.064-1.883-2.391-3.387-3.347-5.039-.27-.468-.4-1.138-.792-1.5-.3-.265-.914-.339-1.212-.59a4.1,4.1,0,0,1-.908-1.138c-.42-.826-.576-1.408-.881-1.883l-.04-.054-.007-.027a6.128,6.128,0,0,1-.291-1.578l-.028-.291-.013-.143-.02-.095c-.027-.135-.007-.088-.021-.108s-.2-.2-.325-.318l-.44-.42a6.765,6.765,0,0,1-.915-1.05,4.789,4.789,0,0,1-.325-.63l-.02-.041a11.357,11.357,0,0,0-.278,3.563,7.707,7.707,0,0,0,.359,1.917c.2.644.5,1.307.8,2.066a10.736,10.736,0,0,1,.407,1.233,4.86,4.86,0,0,1,.061,1.51c-.068.861-.237,1.721-.23,2.4.006.068,0,.17.006.217a.257.257,0,0,1,.027.122c.021.041.055.081.075.129a.405.405,0,0,0,.115.162,3.655,3.655,0,0,0,.359.4c.136.135.291.278.454.42a19.463,19.463,0,0,1,2.12,2.011,11.312,11.312,0,0,1,1.429,2.8,6.276,6.276,0,0,0,.271.63l.142.3.082.129.04.074.116.156.23.311.115.156.061.081.108.088.881.691c.535.427,1.077.854,1.619,1.287q-2.846.153-5.832.326c-1.213.081-2.452.162-3.719.25s-2.594.115-3.935.169c-.285.007-.583-.006-.874-.006a.31.31,0,0,1,.02.081c.318,3.353,2.147,6.029,3.028,9.192.481,1.72.217,4.091,1.3,5.554A.812.812,0,0,1,85.8,121.3a1,1,0,0,1-.9.678c-2.546.169-4.992.982-7.539,1.212-2.824.264-5.649.508-8.487.644a102.419,102.419,0,0,1-16.995-.414,1.04,1.04,0,0,1-.752-.46,1.007,1.007,0,0,1-.508-.813c-.129-1.422.068-2.994-.535-4.315-.853.075-1.687.17-2.54.3a62.453,62.453,0,0,1-10.039,1.05c-.846,0-1.463-.853-.786-1.449,0-1.924.034-4.125.156-6.09.1-1.707.183-3.414.285-5.121a6.7,6.7,0,0,1,1.524-4.233c.19-.271.379-.549.576-.827.189-.3.379-.6.568-.907.393-.617.806-1.267,1.233-1.951.447-.671.82-1.436,1.267-2.2.42-.78.928-1.565,1.307-2.452.21-.434.42-.881.637-1.335l.163-.345.04-.082c.007-.033.028-.061.021-.074A.058.058,0,0,1,44.463,92.107ZM120.1,107.984a15.582,15.582,0,0,0,.481-4.511c-.237-2.581-3.617-3.326-5.866-3.488a.717.717,0,0,1-.427-.027c-.034,0-.061.006-.095.006-1.917-.1-8.589-.027-7.5,3.462.907,2.919,2.838,4.511,5.249,6.082a6.1,6.1,0,0,1,1,.888c.088-.136.183-.291.3-.447a1.722,1.722,0,0,1-1.185-.84,2.642,2.642,0,0,1-.122-.251l-.027-.061c-.007-.02-.034-.081-.034-.081s-.014-.054-.014-.054l-.034-.2a1.927,1.927,0,0,1,.332-1.247,3.363,3.363,0,0,1-1.151-.6,8.019,8.019,0,0,1-1.768-1.964c-.8-1.226-1.118-2.059-1-2.14.143-.095.719.6,1.64,1.646a9.561,9.561,0,0,0,1.74,1.6,2.2,2.2,0,0,0,1.45.447,11.011,11.011,0,0,1,1.125-.853c.033-.027.074-.048.108-.075a.241.241,0,0,0,.007-.115c-.034-.2-.393-.542-.746-.806-.175-.142-.365-.291-.548-.447l-.156-.142-.115-.122c-.074-.082-.142-.149-.217-.244a7.918,7.918,0,0,1-.67-1.077,8.779,8.779,0,0,0-.82-1.395,2.541,2.541,0,0,0-.278-.325c-.067-.082-.1-.143-.088-.177s.075-.047.19-.027a1.107,1.107,0,0,1,.467.2,4.821,4.821,0,0,1,1.213,1.293c.21.291.447.6.657.84.061.068.155.142.23.217l.122.108.095.068c.169.115.339.237.508.359a.475.475,0,0,0,.325-.135,1.236,1.236,0,0,0,.257-.773l.149-1.462.617,1.388a3.056,3.056,0,0,0,.569.806,3.637,3.637,0,0,1,.84,1.206l.135.379-.393.217c-.46.251-.948.555-1.436.887a.423.423,0,0,1-.04.075l-.17.237a1.761,1.761,0,0,1-.149.156l-.067.074-.034.041c-.075.068-.048.033-.075.061l-.2.149c-.393.345-2.012.948-1.68,1.713.2.481,1.294.373,1.666.237a12.835,12.835,0,0,0,2.608-1.436c1.45-.989,2.351-1.645,2.459-1.517.088.109-.6.976-1.971,2.161a13.515,13.515,0,0,1-1.578,1.165l.447.02c.352.041.555-.007.792.014.237-.014.454-.047.65-.041.366-.074.671-.061.759.068s-.074.379-.467.691a4.128,4.128,0,0,1-.779.325,3.773,3.773,0,0,1-1.016.088,4.626,4.626,0,0,1-.969-.142,2.114,2.114,0,0,1-.474-.2l-.129-.088c-.034-.027-.061-.054-.094-.081-.095.034-.2.068-.3.1l.033.095a.516.516,0,0,0,.115.223,4.661,4.661,0,0,0,1.179.617c.4.189.643.426.583.569s-.319.21-.759.223a3.334,3.334,0,0,1-.8-.081,1.955,1.955,0,0,1-1.057-.569c-.007-.007-.007-.014-.013-.021-.048.034-.1.068-.136.1.7.7,1.436,1.334,2.222,1.233A5.279,5.279,0,0,0,120.1,107.984Zm-4.8-3.319c.149-.088.3-.162.461-.237-.17-.271-.414-.562-.624-.88a1.086,1.086,0,0,1-.325.311.831.831,0,0,1-.115.041l.115.095A2.109,2.109,0,0,1,115.308,104.665Zm-3.353-6.726a15.666,15.666,0,0,1-1.605-2.35c-.041.027-.075.061-.109.081a2.751,2.751,0,0,1-.975.284,9.31,9.31,0,0,1-1.619.034c-1-.061-1.856-.176-2.574-.257s-1.287-.136-1.673-.156-.6,0-.637-.074.163-.231.583-.346a7.515,7.515,0,0,1,1.761-.2c.738-.021,1.612.007,2.561.007a10.184,10.184,0,0,0,1.435-.095,1.959,1.959,0,0,0,.576-.176l.014-.014c-.115-.108-.23-.217-.352-.325-.813-.752-1.585-1.484-2.29-2.168a27.026,27.026,0,0,0-3.387-2.093c-.887-.474-1.4-.8-1.354-.914s.643,0,1.612.311a15.127,15.127,0,0,1,3.793,1.863l.054.047c.135.123.285.251.427.38-.027-.047-.054-.088-.082-.129a55.871,55.871,0,0,1-3.2-4.884c-.739-1.49-.969-4.1-2.27-5.127a6.867,6.867,0,0,1-.609-.556c-1.145.156-2.222.17-3.191.224a16.582,16.582,0,0,0-3.034.339,26.245,26.245,0,0,0-2.642.988c-.047-.054.095-.311.481-.677a5.536,5.536,0,0,1,1.937-1.09,13.251,13.251,0,0,1,3.184-.61c.772-.081,1.585-.122,2.411-.21-.162-.237-.318-.481-.46-.732a4.044,4.044,0,0,0-1.03-.216,18.144,18.144,0,0,0-2.98,0,14.653,14.653,0,0,1-2.1.013c-.5-.04-.765-.135-.765-.2,0-.088.277-.142.751-.23s1.172-.217,2.026-.373a13.573,13.573,0,0,1,3.163-.25c.115.006.23.02.345.033-.684-1.639-1.1-3.441-1.686-5.059-.691-1.911-2.209-3.651-2.689-5.616a33.25,33.25,0,0,1-.265-4.091c-.257-2.154-1.761-4.613-2.472-6.693-.65-1.9-1.212-3.786-1.734-5.73C90.117,46.521,87.11,45,82.971,43.825c-1.551-.441-3.462-.752-5.331-1.22.583.352,1.219.766,1.93,1.26.366.258.752.549,1.145.881.1.074.2.156.3.244.122.094.332.3.508.467.366.352.745.711,1.124,1.077.38.2-.04.345-.223.515-.224.162-.447.325-.67.494q-.549.407-1.118.833c-.149.095-.312.2-.468.3.522.3,1.037.57,1.558.813.251.129.508.21.759.319l.373.149a2.443,2.443,0,0,0,.325.1l.4.116c.515.155,1.084.284,1.538.467-.224.522-.447,1.05-.664,1.571-.257.59-.508,1.179-.759,1.762-.2.5-.352,1.016-.535,1.51-.359.989-.65,2-.941,2.974s-.583,1.937-.86,2.865-.543,1.89-.84,2.784c-.319.887-.624,1.761-.962,2.574-2.615,6.516-4.559,11.63-5.826,15.572a66.759,66.759,0,0,0-2.174,8.291c.047.481.1.962.156,1.45.1.711.19,1.415.305,2.147a61.913,61.913,0,0,1,.934,8.338c1.362-.094,2.716-.216,4.065-.393a.775.775,0,0,1,.907.522,1.072,1.072,0,0,1,.142.231,9.159,9.159,0,0,1,.332.927l.041-.582c1.355.02,2.682.081,3.983.074,1.314-.054,2.594-.088,3.854-.155s2.506-.156,3.719-.231c.305-.02.61-.02.907-.04l.183.013c.014,0,.041-.013.041-.02s-.007-.034-.02-.048l-.17-.284c-.067-.129-.115-.251-.176-.379-.122-.251-.223-.495-.311-.725a9.875,9.875,0,0,0-1.131-2.344,20.31,20.31,0,0,0-1.877-1.788c-.169-.149-.345-.319-.521-.495a5.63,5.63,0,0,1-.522-.589,3.437,3.437,0,0,1-.467-.833c-.041-.169-.082-.339-.109-.515a3.039,3.039,0,0,1-.02-.42c.014-1.043.2-1.829.271-2.594l.034-.528-.014-.217a.313.313,0,0,0-.02-.156,8.623,8.623,0,0,0-.318-1.023c-.258-.691-.576-1.416-.8-2.187a9.562,9.562,0,0,1-.393-2.324,12.948,12.948,0,0,1,.441-4.193c.311-1.246.65-2.364.874-3.407.094-.528.2-1.016.243-1.524s.088-1.009.129-1.484c.02-.155.027-.3.041-.453.02-.264.034-.529.047-.786.054-.942.1-1.842.156-2.716.013-.366.027-.718.04-1.05q.021-1.077.041-1.971c.068-2.92.691-5.839.982-8.738.163-1.355.224-2.5.3-3.461s.163-1.728.237-2.331c.156-1.2.3-1.727.434-1.727s.243.528.325,1.741q.061.9.095,2.357c.02.969.054,2.14-.014,3.509-.074,2.255-.217,5.087-.426,8.548a9.26,9.26,0,0,1,1.388-2.865,3.017,3.017,0,0,1,1.483-1.064c.4-.074.624-.047.651.021s-.176.2-.508.4a3.692,3.692,0,0,0-.962,1.1,10.173,10.173,0,0,0-.853,2.168c-.183.6-.353,1.246-.57,1.944a.144.144,0,0,0,.034-.027,8.266,8.266,0,0,1,1.917-.779c1.118-.3,1.815-.3,1.843-.176s-.6.393-1.585.86a8.466,8.466,0,0,0-3.035,2.208c-.027.691-.054,1.389-.075,2.121-.027.629-.054,1.273-.074,1.937-.027.8-.136,1.436-.2,2.12a5.422,5.422,0,0,0,.644,3.61,4.819,4.819,0,0,0,.63.7l.42.393a6.578,6.578,0,0,1,.528.535c.061.068.116.156.176.237a.6.6,0,0,1,.129.251c.041.183.1.379.115.5l.041.2.02.162a7.85,7.85,0,0,0,1.03,3.11,1.979,1.979,0,0,0,.366.481,4.046,4.046,0,0,1,.772-1.477,6.616,6.616,0,0,1,.846-.84c-.088.007-.162.02-.237.027-.528.115-.806.115-.853.02s.142-.284.657-.6a10.645,10.645,0,0,1,2.648-.819l2.568-.488-2.195,1.551a9.152,9.152,0,0,0-2.262,2.032,2.364,2.364,0,0,0-.468,1.511,4.418,4.418,0,0,0,.765,1.9c.874,1.4,2.283,2.9,3.516,4.958.081.136.163.285.19.319l.251.332c.169.223.338.454.508.684a3.618,3.618,0,0,0,2.18,1.4,6.538,6.538,0,0,1,2.676,1.389,1.48,1.48,0,0,1,.434.6,2.431,2.431,0,0,1,.142.57c.02.311.041.541.034.744l.061.272c0,.054.142.054.149.04l-.048.115a1.677,1.677,0,0,1,.231.454C104.992,99.151,108.724,98.115,111.955,97.939ZM83.628,120.082c-.569-1.564-.359-3.421-.942-4.985-1.09-2.933-2.459-5.656-2.96-8.731-.21,0-.413,0-.623.006.007.2.014.413.034.617a1.078,1.078,0,0,1-.007.216,15.777,15.777,0,0,0,1.653,5.88.922.922,0,0,1,.095.806,1.053,1.053,0,0,1-.976,1.063c-3.116.231-6.1,1.606-9.3,1.85-3.651.277-7.281.589-10.939.7-2.5.075-5,.061-7.5.183a16.313,16.313,0,0,1,.427,3.78,98.384,98.384,0,0,0,16.284.339q4.246-.244,8.487-.644C79.489,120.956,81.535,120.373,83.628,120.082Zm-1.47-68.177.122-.006c-.013-.007.013.006-.088-.034l-.44-.176c-.292-.122-.6-.224-.874-.366-1.924-.894-3.678-2.079-5.514-3.041.013.765.007,1.571-.034,2.424-.108,2.656-.569,5.67-1.043,9.077s-.975,7.289-1.551,11.631a139.039,139.039,0,0,0-1.26,14.048c.23-1.09.515-2.289.88-3.617,1.118-4.078,2.927-9.28,5.453-15.837.326-.813.589-1.652.894-2.513.278-.867.495-1.754.773-2.7s.535-1.91.819-2.905.542-2.012.915-3.056c.183-.521.271-1.056.481-1.584a3.641,3.641,0,0,0,.413-1.328Zm-2.4-5.384a.013.013,0,0,0,0-.021c-.007-.014.027.014-.041-.047-.094-.075-.182-.156-.27-.23-.339-.312-.678-.6-1.016-.861-1.328-1.063-2.439-1.856-3.259-2.513-.311-.244-.569-.46-.8-.663a17.57,17.57,0,0,1,.488,1.74,19.818,19.818,0,0,1,.339,2c1.07.5,2.052,1.056,2.993,1.605.441-.285.867-.542,1.281-.813l.271-.2.006.007ZM78.514,113.1a23.094,23.094,0,0,1-1.26-5.629,1.073,1.073,0,0,1-.149-.481c-.014-.177-.021-.352-.027-.529a13.584,13.584,0,0,0-.644-2.282c-6.516.8-13.195.521-19.751.481-3.692-.027-6.835.846-10.4,1.469-2.31.4-4.64.549-6.97.759a.06.06,0,0,0-.007.034c-.569,3.346-.169,6.882-.65,10.208,3.3-.122,6.509-.766,9.788-1.165,3.725-.454,7.471-.366,11.217-.5,3.658-.128,7.3-.406,10.939-.7C73.352,114.548,75.879,113.539,78.514,113.1ZM74.368,30c.644-.522.563-1.985.448-2.635a6.746,6.746,0,0,0-.285-1.125C74.511,27.52,74.456,28.78,74.368,30Zm.2-6.517a9.7,9.7,0,0,0,.2-3.251,19.981,19.981,0,0,0-.312-2c-.081-.339-.155-.671-.23-1-.075-.379-.156-.772-.2-1.1a11.974,11.974,0,0,0-.346-1.808,6.26,6.26,0,0,0-.948-1.355,8.76,8.76,0,0,1-.637-.955c-.149-.285-.305-.569-.454-.847-.3-.549-.589-1.1-.894-1.578a6.137,6.137,0,0,0-2.167-2.215c-.224-.115-.434-.251-.671-.352l-.731-.264A13.682,13.682,0,0,0,65.651,6.3a12.069,12.069,0,0,0-2.94-.407,2.323,2.323,0,0,0-1.03.2c-.081.055-.115.082-.135.122a3.663,3.663,0,0,0-.014.556l.041.8c-.569.014-1.206,0-1.8,0-.318,0-.63.007-.941.007a17.08,17.08,0,0,0-1.721.115A5.413,5.413,0,0,0,54.42,8.6a1.4,1.4,0,0,0-.481.8,1.053,1.053,0,0,0,.312.766,8.1,8.1,0,0,0,2.025,1.476,24.425,24.425,0,0,0,4.186,1.964c.1.034.2.055.3.082a14.73,14.73,0,0,0,1.544-.014,1.09,1.09,0,0,0,.1-.074.3.3,0,0,0,.041-.346,1.143,1.143,0,0,0-.278-.345,4.3,4.3,0,0,0-.5-.434c-.345-.271-.69-.5-1.009-.7-.636-.413-1.178-.718-1.6-.969-.847-.494-1.22-.745-1.179-.846s.488-.021,1.429.311a16.855,16.855,0,0,1,1.768.759,11.628,11.628,0,0,1,1.159.643,6.7,6.7,0,0,1,.629.461,2.714,2.714,0,0,1,.705.84,1.2,1.2,0,0,1,.135.515c.393-.075.793-.163,1.206-.271a2.932,2.932,0,0,0-.061-.332,4.379,4.379,0,0,0-.467-.969,8.143,8.143,0,0,0-.637-.765,4.835,4.835,0,0,0-2.7-1.254c-1.578-.223-2.242-.284-2.242-.447.007-.115.616-.318,2.323-.27a3.9,3.9,0,0,1,.7.081l.386.061c.135.041.271.088.413.128A4.725,4.725,0,0,1,64.4,10.465a8.754,8.754,0,0,1,.793.907,4.8,4.8,0,0,1,.609,1.213,2.516,2.516,0,0,1,.109.582l.122.061c.4-.047.833-.108,1.28-.162a1.486,1.486,0,0,0,.251-.746,2.33,2.33,0,0,0-.678-1.585,8.978,8.978,0,0,0-2.276-1.761c-1.293-.731-1.849-.887-1.815-1.05.014-.115.671-.2,2.141.4a8.05,8.05,0,0,1,2.648,1.781,3.237,3.237,0,0,1,.982,2.256,2.3,2.3,0,0,1-.108.6,11.744,11.744,0,0,1,1.463-.02c-.007-.1-.02-.21-.027-.319a3.668,3.668,0,0,0-.59-1.835,7.116,7.116,0,0,0-2.194-1.917c-1.328-.793-1.843-1.145-1.775-1.28.061-.109.657-.014,2.127.65a6.748,6.748,0,0,1,2.628,2.012,4.57,4.57,0,0,1,.82,2.289c.007.17.02.346.02.529a3.145,3.145,0,0,1,2.635,2.512,40.6,40.6,0,0,1,.942,7.885Zm-.671,27.129a26.48,26.48,0,0,0-.149-6.476A20.028,20.028,0,0,0,72.81,40.6c-.189-.135-.365-.277-.535-.426A14.785,14.785,0,0,1,69.6,46.751a5.994,5.994,0,0,1-2.811,2.5,3.083,3.083,0,0,0-2.439,1.944,11.737,11.737,0,0,0,2.94-1.056,11.853,11.853,0,0,1,2.255-1.2c1.43-.38,2.981,1.869,4.268,2.567C73.84,51.208,73.874,50.9,73.894,50.612Zm-1.28,8.927c.379-2.336.738-4.443,1-6.353-1.281-.495-3.434-2.852-4.457-2.229a24.175,24.175,0,0,1-2.8,1.49,8.631,8.631,0,0,1-2.527.509.239.239,0,0,1-.054.06c.271,4.566.846,9.131.894,13.7.04,4.119-.732,8.264-.441,12.376.3,4.383,1.382,8.48,1.233,12.9-.129,3.6.888,7.112.915,10.736q2.286-.019,4.558-.122a59.416,59.416,0,0,0-.907-8.162c-.115-.732-.2-1.477-.3-2.2s-.149-1.464-.217-2.182c-.027-.731-.054-1.456-.081-2.167.02-.7.034-1.389.047-2.073A129.631,129.631,0,0,1,70.88,71.156C71.523,66.821,72.1,62.96,72.614,59.539Zm-.251-30.447a77.59,77.59,0,0,0-.291-9.727c-.176-1.659.095-4.6-2.669-4.43-.1.014-.169.02-.169.02v-.013c-1.158.1-2.317.223-3.468.352a.883.883,0,0,1-.5-.074,15.247,15.247,0,0,1-7.654.121c-2.865-.65-1.951,6.442-2.167,7.675-1.118,6.238-.224,12.518,4.531,17.171,1.876,1.836,4.41,3.881,6.794,1.558a19.488,19.488,0,0,0,3.245-3.719A17.524,17.524,0,0,0,72.363,29.092ZM65.6,47.909c2.493-.738,4.227-3.929,4.871-6.807-2.012,2.858-4.762,4.673-8.19,3.407a12.591,12.591,0,0,1-5.48-4.85,9,9,0,0,0,4.3,7.465,6.386,6.386,0,0,1,2.113,2.641A3.567,3.567,0,0,1,65.6,47.909Zm-2.987,54.812c.711.007,1.423.014,2.134.014a57.178,57.178,0,0,0-.5-6.286C63.815,98.515,63.253,100.6,62.616,102.721Zm.413-12.05a6.106,6.106,0,0,0,0-1c-.013-.331-.027-.656-.034-.982-.081-.663-.21-1.341-.311-1.991-.054-.332-.109-.657-.156-.982-.074-.325-.149-.651-.217-.969-.142-.643-.284-1.273-.427-1.9-.325-1.247-.636-2.466-.975-3.651-.664-2.371-1.355-4.62-1.923-6.794-.15-.542-.292-1.077-.434-1.605-.122-.536-.244-1.057-.366-1.579s-.251-1.029-.345-1.544-.176-1.016-.264-1.517c-.373-2-.563-3.814-.854-5.555-.535-3.461-1.03-6.5-1.395-9.124-.3-2.032-.5-3.82-.644-5.392a17.354,17.354,0,0,1-2.343,1.755c-1.321.826-2.649,1.469-3.889,2.12l-.44.223a.085.085,0,0,1-.034.02l.129.19a7.806,7.806,0,0,1,.6.942,22.3,22.3,0,0,1,1.66,3.8,69.985,69.985,0,0,1,1.917,7.227c.264,1.138.5,2.242.772,3.306.25,1.077.508,2.154.718,3.183.44,2.066.84,3.99,1.28,5.785.251.888.44,1.761.732,2.574.128.406.257.813.386,1.206.149.392.3.765.453,1.145s.278.745.454,1.1.339.691.508,1.029c.319.678.678,1.315,1.037,1.938.718,1.239,1.422,2.4,2.032,3.515a29.277,29.277,0,0,1,2.269,4.992C62.968,91.633,63.009,91.145,63.029,90.671Zm-.44-12.66c.013-4.206.61-8.386.406-12.606s-.63-8.412-.867-12.626a18.544,18.544,0,0,1-1.863-1.124,2.153,2.153,0,0,0-3.21.284.82.82,0,0,1-.163.116c.441,2.418.942,5.161,1.5,8.264.319,1.72.555,3.63.942,5.527.094.474.183.961.277,1.449s.237.989.359,1.5.251,1.016.38,1.531.291,1.043.44,1.578C61.329,73.832,61.959,75.864,62.589,78.011Zm-.074,16.88c.006-.02.006-.034.013-.054a13.548,13.548,0,0,0-.393-1.4,28.373,28.373,0,0,0-2.729-5.582c-.637-1.063-1.369-2.181-2.134-3.427-.386-.617-.779-1.28-1.138-1.992-.19-.359-.373-.718-.569-1.084s-.332-.758-.5-1.151-.346-.786-.5-1.192-.291-.833-.44-1.26c-.318-.854-.535-1.748-.806-2.669-.481-1.836-.915-3.793-1.375-5.825-.231-1.03-.488-2.046-.745-3.123-.292-1.083-.542-2.208-.813-3.339a70.877,70.877,0,0,0-1.9-7.011,21.364,21.364,0,0,0-1.524-3.448,6.057,6.057,0,0,0-.5-.785,2.386,2.386,0,0,0-.155-.224l-.333-.42-.656-.793-.332-.4-.082-.095c-.041-.041.054-.047.075-.068l.216-.128.9-.488.9-.5.522-.271c.312-.17.63-.332.941-.495-.094-.047-.189-.1-.291-.149-.813-.359-1.6-.711-2.357-1.043.826-.548,1.626-1.07,2.384-1.571a8.271,8.271,0,0,0,.7-.549c.149-.122.291-.244.433-.366.251-.271.495-.535.725-.779.224-.264.427-.535.623-.779.136-.183.265-.352.393-.521-.623.2-1.246.4-1.876.616C45.391,43.8,39.552,45.552,37.4,49.338,36.382,51.126,36.66,53.1,36.023,55c-.684,2.039-1.355,3.99-1.91,6.056-.285,1.056-1.287,2.194-.806,2.784a1.906,1.906,0,0,1,.562,1.727c-.075,1.273-1.01,2.493-1.538,3.6-.447.935-1.429,2.418-1.07,3.495a1.988,1.988,0,0,1,.2,1.145c-.46,1.666-2.079,2.736-2.7,4.409A6.212,6.212,0,0,1,27.082,80.9c-2,1.673-2.324,3.3-3,5.656a39.149,39.149,0,0,1-2.073,4.924c-.142.318-3.123,6.9-4.592,7.241.724.84,2.845.894,3.657,1.3a6.472,6.472,0,0,1,2.595,2.614,5.071,5.071,0,0,1,.63,2.236,12.571,12.571,0,0,0,3.5-3.543c.331-.474.724-1.5,1.2-1.815.414-.285,1.118,0,1.45-.413.189-.245-.081-.976,0-1.3.251-.955,1.152-1.287,1.666-2.039l.156-.325c.42-.854.589-1.958.975-3.042a7.111,7.111,0,0,1,.766-1.612,5.926,5.926,0,0,1,1.226-1.246c.86-.637,1.7-1.029,2.3-1.477A.684.684,0,0,0,37.621,88a17.942,17.942,0,0,1-3.048.082l-3.19-.217c-1.781-.108-2.865.02-2.906-.149-.034-.115,1.057-.528,2.906-.623.921-.054,2.018-.034,3.217-.034a19.275,19.275,0,0,0,3.177-.23,1.377,1.377,0,0,0-.122-.21,4.343,4.343,0,0,0-1.585-1.145,14.862,14.862,0,0,0-1.876-.732c-1.24-.4-2.405-.677-3.38-.921-1.958-.461-3.191-.894-3.123-1.07a13.137,13.137,0,0,1,3.279.278,30.218,30.218,0,0,1,3.529.7,14.032,14.032,0,0,1,2.052.725,5.25,5.25,0,0,1,2.019,1.476c.047.061.088.129.135.2a3.827,3.827,0,0,0-.074-1.226,1.156,1.156,0,0,0-.339-.5,4.391,4.391,0,0,0-.616-.441,11.723,11.723,0,0,0-1.43-.6,20.217,20.217,0,0,1-2.54-.935,5.4,5.4,0,0,1-.914-.582,5.633,5.633,0,0,1-.61-.6,2.24,2.24,0,0,1-.366-.515,4.217,4.217,0,0,1-.2-.393c-.095-.2-.108-.318-.054-.352s.163.014.339.142a4.035,4.035,0,0,1,.311.265,2.648,2.648,0,0,0,.447.352,6.384,6.384,0,0,0,.61.406c.122.061.251.122.393.19a2.227,2.227,0,0,0,.447.176c.616.244,1.476.359,2.513.63a11.013,11.013,0,0,1,1.7.576,4.988,4.988,0,0,1,.928.576c.542.44,1.531.8,1.822-.095.339-1.043-1.165-1.03-1.226-1.978a1.832,1.832,0,0,1,.291-.975,2.18,2.18,0,0,1,.881-.6l.142-.055.122-.278c-.169.095-.352.183-.514.258-.258.115-.624.23-.922.339a4.186,4.186,0,0,1-.941.23c-.156.02-.312.047-.461.074s-.3.007-.454.014a10.2,10.2,0,0,1-3.061-.4c-1.64-.44-2.635-.765-2.608-.914s1.09-.115,2.763.122a12.6,12.6,0,0,0,2.838.142c.136-.013.265-.013.393-.034l.393-.081a3.517,3.517,0,0,0,.786-.217c.271-.108.5-.169.819-.318a5.518,5.518,0,0,0,.759-.413,4.412,4.412,0,0,0,.454-.326,2.188,2.188,0,0,0-.034-.27c-.074-.481-.23-.989-.325-1.565-.19.061-.373.122-.542.163a9.279,9.279,0,0,1-1.477.23c-.806.068-1.266.068-1.293-.034s.413-.3,1.185-.529c.379-.121.854-.243,1.348-.433a6.073,6.073,0,0,0,.684-.318,9.2,9.2,0,0,1,.061-1.037,9.416,9.416,0,0,1,.312-1.131c.108-.318.244-.657.332-.941.047-.177.1-.346.149-.515-.082.108-.17.217-.264.318a6.135,6.135,0,0,1-2.622,1.68c-.772.237-1.246.224-1.3.088-.061-.156.358-.427.955-.82a11,11,0,0,0,2.12-1.713,5.018,5.018,0,0,0,1.212-2.276c.02-.1.041-.2.061-.291a3.923,3.923,0,0,1-.447.514,5.189,5.189,0,0,1-1.714.962,13.839,13.839,0,0,1-3.028.542c-.859.068-1.53.1-2,.115s-.752-.007-.766-.081.224-.2.678-.359,1.144-.3,1.971-.474a19.948,19.948,0,0,0,2.791-.732,4.421,4.421,0,0,0,1.307-.792,2.849,2.849,0,0,0,.745-1.341c.027-.17.047-.353.061-.529-.034-.128-.068-.257-.108-.379a10.445,10.445,0,0,0-2.114.522c-.847.3-1.6.636-2.222.914-1.253.569-2.018.921-2.093.8s.556-.684,1.741-1.45A16.757,16.757,0,0,1,39.1,65.439a10.472,10.472,0,0,1,2.14-.67c-.142-.441-.291-.874-.426-1.294a32.636,32.636,0,0,1-1.443-4.911,32.859,32.859,0,0,1-.332-6.218c.061-1.28.169-1.829.312-1.829s.3.549.48,1.795c.041.311.082.664.136,1.07a13.083,13.083,0,0,0,.2,1.341c.081.5.169,1.043.27,1.64s.177,1.266.346,1.91A38.015,38.015,0,0,0,42.4,62.892c.345.894.711,1.863,1.036,2.94a13.755,13.755,0,0,1,.623,3.6A9.771,9.771,0,0,1,43.88,71.5c-.061.352-.183.691-.277,1.05-.109.338-.21.616-.319.941a7.755,7.755,0,0,0-.217.834c-.006.155-.027.311-.034.474a32.036,32.036,0,0,1,2.371,4.68c.061.23.136.434.19.678.034.27.088.535.095.806a4.47,4.47,0,0,1-.285,1.51c-.332.86-.569,1.355-.487,1.721a2.35,2.35,0,0,0,.284.691l.271.48a3.765,3.765,0,0,1,.284.6,4.1,4.1,0,0,1,.048,2.683,6.746,6.746,0,0,0-.366,1.639c.02.156.027.163.082.224l.033.027c.027.013-.02-.007.109.067a3.525,3.525,0,0,0,.508.183c.311.1.63.21.941.312-.637,1.287-1.246,2.513-1.829,3.7-.427.908-.955,1.707-1.415,2.493s-.888,1.544-1.369,2.222-.914,1.327-1.334,1.944c-.217.311-.42.609-.623.894s-.427.555-.63.819-.407.522-.6.773a2.266,2.266,0,0,1-.156.183l-.095.1c-.068.081-.135.156-.2.23.02.048.135.061.21.095a2.967,2.967,0,0,0,.779.122c.277.02.535.034.785.054a42.065,42.065,0,0,0,7.418-1.172,29.813,29.813,0,0,1,8.63-.927c1.266.02,2.54.047,3.813.067A75.156,75.156,0,0,0,62.515,94.891ZM59.642,49.5a11.7,11.7,0,0,1,2.175,1.24,7.159,7.159,0,0,0-2.757-2.967c-2.784-1.789-3.123-5.48-3.211-8.542a.784.784,0,0,0-.548.318c-1.314,1.7,1.077,9.531,1.273,10.676A3.168,3.168,0,0,1,59.642,49.5Zm-3.7-36.313c-.129-.068-.257-.129-.386-.2a8.942,8.942,0,0,1-2.527-1.761c-.06-.061-.122-.136-.182-.21a9,9,0,0,1-.386,1.172c-.041.2-.089.393-.136.6,0,.088,0,.162-.007.244.014.081.034.169.048.257a6.245,6.245,0,0,0,.237.691,4.364,4.364,0,0,1,.291,1.1c.007.1.007.3.013.447.028.176-.088.3-.135.447l-.183.447-.183.427c-.074.176-.108.223-.1.311a14.857,14.857,0,0,0,.062,2.012c0,.82-.068,1.606-.068,2.385a7.3,7.3,0,0,0,.135,1.524,1.545,1.545,0,0,1,.17.006,3.393,3.393,0,0,1,.616.122c.169-1.672.217-3.312.305-5.053.061-1.226.074-2.919.935-3.922A3.054,3.054,0,0,1,55.944,13.188ZM52.909,25.651a.769.769,0,0,1-.013-.108c-.061-1.165-.691.23-.7.291a6.345,6.345,0,0,0-.148.65,6.648,6.648,0,0,0-.143,1.754,2.55,2.55,0,0,0,1.009,1.734A16.8,16.8,0,0,1,52.909,25.651ZM18.384,107.923c1.822-.948,4.9-.745,3.746-3.691-1.165-2.967-4.8-2.31-6.333-4.261a1.026,1.026,0,0,1-.535-.332,6.911,6.911,0,0,0-6.008,1.809,1.04,1.04,0,0,0-.122.135v.088a3.6,3.6,0,0,0,.48,1.2c.143.231.285.468.441.711.135.265.27.57.379.841.237.548.467,1.131.745,1.679a4.771,4.771,0,0,0,.447.752.748.748,0,0,0,.2.2l.014.013.014.007.122.047c.108.048.081.007.108.021.088.013.2-.028.345-.2.027-.034.055-.088.088-.129a2.559,2.559,0,0,1,.15-.27c.033-.075.074-.156.108-.238a3.708,3.708,0,0,0,.183-.765c.013-.122.04-.251.04-.359l.007-.02L13,105.153l-.013-.027-.014-.108-.027-.217a9.141,9.141,0,0,0-.528-1.382,3.413,3.413,0,0,1-.278-1.632l.115-.969.6.711c.5.59,1.294.38,1.815.23s.847-.237.881-.155-.2.284-.7.582a2.943,2.943,0,0,1-1.036.4,1.7,1.7,0,0,1-.711-.027,4.388,4.388,0,0,0,.2.467A7.3,7.3,0,0,1,14,104.659l.034.21.02.108V105l.007.02c.23-.2.467-.379.677-.548a17.505,17.505,0,0,1,1.477-1.01c.352-.216.548-.331.61-.284s-.041.284-.319.616-.711.766-1.239,1.287a13.51,13.51,0,0,0-1.443,1.633,3.178,3.178,0,0,1-.407.8.377.377,0,0,0,.055.312,1.112,1.112,0,0,0,.406.291,3.125,3.125,0,0,0,.332.115l.176.054.02.007h.014l.007-.007a.022.022,0,0,1-.014-.007l.109.021c.9.2,1.7-.461,2.587-.976.115-.067.224-.128.339-.2l.183-.095.162-.074c.217-.095.427-.183.63-.271a7.254,7.254,0,0,0,1.03-.5A2,2,0,0,0,20.322,105c.067-.386.148-.623.223-.63s.156.224.217.678a1.575,1.575,0,0,1-.027.379,1.3,1.3,0,0,1-.108.461,2.612,2.612,0,0,1-.265.5,2.931,2.931,0,0,1-.426.447,5.973,5.973,0,0,1-1.1.7c-.183.1-.379.2-.569.312C18.3,107.869,18.344,107.9,18.384,107.923Zm-.948.793c-.1-.034-.21-.074-.325-.115-.136.095-.278.189-.434.278a2.1,2.1,0,0,1,.569.236A1.837,1.837,0,0,1,17.436,108.716Zm-3.021,2.818c-.068-.034,3.326.772,2.926-.115a3.223,3.223,0,0,1-.244-.955,1.42,1.42,0,0,0-.311-.292,5.146,5.146,0,0,0-1.233-.535c-.041-.014-.068-.02-.1-.034a.574.574,0,0,1,0,.244,1.109,1.109,0,0,1-.359.664,2.479,2.479,0,0,1-.257.2,1.028,1.028,0,0,1-.2.115l-.223.116c-.115.034-.23.067-.339.088a1.952,1.952,0,0,1-.528-.007A7.566,7.566,0,0,0,14.415,111.534Zm-1.26-1.518a1.147,1.147,0,0,0,.975-.7c-.047-.027-2.025-1-1.7-1.077a1.344,1.344,0,0,1-.467.034,1.909,1.909,0,0,1-.393-.088l-.027-.014a.259.259,0,0,1-.136-.027.481.481,0,0,1-.088-.068l-.067-.04a1.88,1.88,0,0,1-.529-.488,5.69,5.69,0,0,1-.555-.962c-.291-.623-.508-1.226-.711-1.782-.109-.291-.2-.528-.305-.772l-.007-.027c-.013-.02-.02-.027-.013-.027l-.007-.007c0-.006-.007-.006-.007-.006l-.047-.089-.1-.189c-.068-.129-.129-.251-.2-.379a5.444,5.444,0,0,1-.319-.834C6.971,105.065,9.938,110.369,13.155,110.016Z"/><path d="M84.475,90.989c.128.061-.068.949-.658,2.3a8.626,8.626,0,0,1-.541,1.1c-.238.38-.481.813-.779,1.213-.312.366-.637.745-.969,1.145a13.916,13.916,0,0,0-1,1.172,1.728,1.728,0,0,0-.278,1.2c.054.488.142.983.223,1.457l.136.778-.732-.148a4.859,4.859,0,0,1-1.917-.962c-.467-.352-.867-.657-1.2-.915-.617-.467-1.138-.664-1.084-.792.034-.088.528-.142,1.395.237.407.183.874.454,1.369.738.264.142.541.3.826.42-.048-.23-.088-.46-.122-.711a3.626,3.626,0,0,1,.027-.969L79.218,98l.1-.251a1.641,1.641,0,0,1,.257-.453,10.75,10.75,0,0,1,1.1-1.281c.359-.379.7-.751,1.023-1.1a17,17,0,0,0,1.4-1.991C83.851,91.7,84.319,90.915,84.475,90.989Z"/><path d="M82.781,63.333c.142.02.041,1.639-.555,4.172-.576,2.54-1.707,5.947-2.981,9.659-.63,1.863-1.2,3.638-1.673,5.257-.44,1.632-.826,3.1-1.043,4.355-.481,2.473-.562,4.1-.745,4.1-.129-.007-.345-1.592-.054-4.213a34.03,34.03,0,0,1,.826-4.511c.427-1.666.976-3.482,1.606-5.352,1.28-3.739,2.519-7.058,3.285-9.5C82.232,64.85,82.612,63.305,82.781,63.333Z"/><path d="M68.78,64.985a47.026,47.026,0,0,1-.149,6.334,18.714,18.714,0,0,1-.549,3.109,7.179,7.179,0,0,1-.589,1.47,3.03,3.03,0,0,1-.887,1.05,32,32,0,0,0,.636,6.868,17.367,17.367,0,0,1,.637,2.771,6.4,6.4,0,0,1-1.26-2.6,25.355,25.355,0,0,1-1.077-7.336l-.006-.332.311-.149a1.754,1.754,0,0,0,.684-.793A6.3,6.3,0,0,0,67,74.123a19.337,19.337,0,0,0,.5-2.919,85.985,85.985,0,0,0,.088-11.285,34.226,34.226,0,0,1-.163-4.715c.17-.034.63,1.741.962,4.647C68.557,61.307,68.706,63.048,68.78,64.985Z"/><path d="M66.355,29.3a1.238,1.238,0,0,1,.4,1.05l-.034.176-.047.122a.729.729,0,0,1-.21.332,2.1,2.1,0,0,1-.543.359,11,11,0,0,1-2.465.766l-.047.013-.014-.007c-.359-.074-.725-.156-1.09-.237-.339-.088-.691-.176-1.044-.271-.006,0-.108-.027-.108-.027l-.075-.074c-.108-.109-.21-.21-.311-.326a1.35,1.35,0,0,1-.325-.528.666.666,0,0,1,.1-.5c.068-.1.115-.142.156-.2a1.32,1.32,0,0,0,.176-.271,6.266,6.266,0,0,0,.258-.69c.081-.251.162-.488.243-.718a10.507,10.507,0,0,0,.57-2.486,2.856,2.856,0,0,0-.062-.928,1.511,1.511,0,0,0-.3-.583c-.061-.061-.116-.122-.17-.176a1.728,1.728,0,0,1-.176-.108c-.095-.068-.142-.115-.128-.136s.074-.034.189-.013a1.658,1.658,0,0,1,.2.04,1.862,1.862,0,0,1,.278.149,1.593,1.593,0,0,1,.535.678,3.127,3.127,0,0,1,.2,1.084,9.045,9.045,0,0,1-.434,2.689c-.075.243-.149.487-.224.745a7.75,7.75,0,0,1-.277.806,2.626,2.626,0,0,1-.264.413.852.852,0,0,1-.061.068.816.816,0,0,0,.108.128l.21.217c.3.081.616.17.914.244a4.818,4.818,0,0,0,3.028-.393,3.219,3.219,0,0,0,.522-.2c.027-.021.02-.021.034-.027s.033-.061.033-.061l.055-.115.013-.075a.7.7,0,0,0-.189-.61,3.4,3.4,0,0,1-.752-1.117c-.088-.332-.014-.515.02-.508.061,0,.081.169.224.406A4.669,4.669,0,0,0,66.355,29.3Z"/><path d="M57.6,95.792l-.231.826a4.32,4.32,0,0,1-.724,1.369c-.264.345-.5.609-.705.833-.393.433-.616.677-.7.636s.006-.386.284-.928c.143-.257.319-.575.515-.934.034-.061.061-.122.1-.19-1.158.555-2.506,1.165-3.956,1.788-4.477,1.931-8.21,3.258-8.338,2.974s3.4-2.093,7.877-4.024c1.884-.806,3.631-1.51,5.033-2.032Z"/><path d="M14.354,108.262l.027.014a.09.09,0,0,1-.047-.014Z"/></g></svg>