<svg xmlns="http://www.w3.org/2000/svg" viewBox="0 0 128 160" x="0px" y="0px"><g><path d="M83.28,59.879c-3.711,3.288-8.971,4.024-14.074,3.57a17.668,17.668,0,0,0,1.315,5.51,5.055,5.055,0,0,1,.743,1.425c.165.337.337.744.525,1.166.078.149.156.306.242.454.47.65,1.057,1.566,1.738,2.591a15.184,15.184,0,0,0,2.137,1.511c.932.47,1.479.838,1.417,1.01s-.72.109-1.738-.133c-.086-.032-.18-.063-.274-.1.806,1.229,1.331,2.129,1.127,2.286-.234.195-1.581-.877-2.99-2.724-2.81,1.941-6.113,2.833-9.1,4.477a53.865,53.865,0,0,0-8.533,5.886,2.065,2.065,0,0,1,.118.181c1.55,2.559,1.284,5.549,1.2,8.453a49.767,49.767,0,0,1,7.538-2.473,33.743,33.743,0,0,0,8.055-3.781,3.8,3.8,0,0,1-.47-.18,4.994,4.994,0,0,1-.618-.321,3.247,3.247,0,0,1-.4-.305c-.219-.18-.313-.321-.282-.4s.211-.1.493-.063a4.056,4.056,0,0,1,.486.094c.179.031.383.07.61.11a4.76,4.76,0,0,0,1.464.07,2.366,2.366,0,0,0,1.4-.752c.164-.164.305-.352.454-.532.1-.282.2-.563.321-.845,1.518-3.577,3.867-6.544,5.925-9.808.235-.368.47-.752.7-1.127,0-.016-.016-.024-.016-.047-1.111-4.767-.188-9.44.454-14.168C83.248,60.584,83.256,60.24,83.28,59.879Z"/><path d="M41.511,84.842c1.864-.032,3.679-.384,5.535-.493,2.144-.126,5.487-.063,7.569,1.307a47.616,47.616,0,0,1,8.9-6.161c2.865-1.448,5.988-2.434,8.681-4.187a37.449,37.449,0,0,1-2.184-3.593.813.813,0,0,1-.321.062C66.576,71.691,64,73.014,61.1,73.9c-2.513.759-5.049,1.456-7.577,2.176A62.232,62.232,0,0,0,38.521,82.1a1.326,1.326,0,0,1-.039.243A2.956,2.956,0,0,0,41.511,84.842Z"/><path d="M88.055,38.6a23.33,23.33,0,0,0,1.471,5.558A10.351,10.351,0,0,0,95.8,50a.924.924,0,0,1,.454.125,7.029,7.029,0,0,0,5.941-1.1,9.838,9.838,0,0,1,1.675-.955.783.783,0,0,1,.439-.314c3.929-1.213,6.332-6.5,6.356-10.356.007-1.87-.368-4.226-2.317-5.087a3.226,3.226,0,0,0-3.648.3,11.228,11.228,0,0,1-.642,1.018A20.921,20.921,0,0,0,102.277,37a17.193,17.193,0,0,0-.876,3.656c-.087,1-.157,1.667-.353,1.675-.164,0-.422-.595-.579-1.628a8.571,8.571,0,0,1,.008-1.738.138.138,0,0,1-.055.039c-.008.031-.023.055-.031.086a28.844,28.844,0,0,0-.955,3.366c-.18.916-.352,1.5-.54,1.487-.172-.007-.337-.587-.392-1.542a13.633,13.633,0,0,1,.345-2.865c-1.323-.328-1.863-1.667-2.114-3,.58.384,1.652,1.339,2.388,1.261.579-.063,1.581-1.652,1.824-2.184.07-.157.133-.3.188-.415.618-1.409,1.229-3.076,2.5-4.047a5.363,5.363,0,0,1,6.645.485,8.784,8.784,0,0,1-.055-1.322c.032-1.292.353-2.059.517-2.028.2.031.219.791.415,1.965a17.968,17.968,0,0,0,1.3,4.407,12.478,12.478,0,0,0,1.261,2.129,7.352,7.352,0,0,0,1.408,1.393c.862.65,1.7.869,1.629,1.065-.032.141-.807.329-2.1-.258a6.2,6.2,0,0,1-1.871-1.417c-.149-.165-.29-.345-.43-.525a14.218,14.218,0,0,1-4.032,10.059,13.021,13.021,0,0,1,8.305,2.747c8.071-7.522,5.2-21.745-1.917-28.97-3.468-3.53-8.36-5.886-13.276-3.859C96.9,18.886,93.3,23.05,90.5,27.4a9.474,9.474,0,0,1,1.229-.744c.438-.211.853-.368,1.229-.517A8.566,8.566,0,0,1,94.8,25.72c.438-.047.7-.032.72.062s-.18.235-.579.431c-.407.18-.963.469-1.62.79a9.712,9.712,0,0,0-4.141,3.758A11.523,11.523,0,0,0,88.039,36.3C88.055,37.414,88.109,38.228,88.055,38.6Z"/><path d="M56.282,32.177c-4.3-.219-9.589-.908-13.573,1.135a17.1,17.1,0,0,0-8.336,9.808,19.286,19.286,0,0,0-.838,10.012c1.3,6.881,4.947,15.209,12.376,17.15,7.96,2.083,13.651-1.119,15.451-9.236a.55.55,0,0,1,.047-.094,5.141,5.141,0,0,1-.461-.251,16.3,16.3,0,0,1-4.267-3.686c-.861-1.12-1.275-1.9-1.142-2.012s.814.446,1.839,1.393a29.777,29.777,0,0,0,4.227,3.163c.164.093.329.172.493.258a9.989,9.989,0,0,1-1.581-2.583c-.477-1.19-.571-1.973-.415-2.035.18-.071.587.594,1.245,1.6a12.291,12.291,0,0,0,3.029,3.343,10.178,10.178,0,0,0,3.3,1.487c5.918.853,12.5.274,16.047-4.65a11.5,11.5,0,0,1,1.628-3.444c.783-.955,1.354-1.448,1.5-1.33s-.164.8-.689,1.808c-.07.148-.141.328-.211.493a4.875,4.875,0,0,1,.579-.509,3.969,3.969,0,0,1,1.362-.72c.337-.094.54-.11.587-.031.126.172-.6.626-1.323,1.44a7.668,7.668,0,0,0-1.1,1.628,11.836,11.836,0,0,0-.814,2.309c-.063.282-.11.556-.165.838-.109.947-.25,1.894-.391,2.833-.031.329-.063.642-.1.916a11.327,11.327,0,0,1-.258,1.613,30.085,30.085,0,0,0-.227,8.258,25.95,25.95,0,0,1,2.512-3.366,9.057,9.057,0,0,1,6.372-3.28.835.835,0,0,1,.2-.368c3.358-3.624,1.941-9.933,1.823-14.583a10.486,10.486,0,0,1-2.841-1.15,9.329,9.329,0,0,1-2.646-2.458,15.835,15.835,0,0,0-7.3-1.088c0,.4-4.446.509-9.683,1.651a19.709,19.709,0,0,0-6.277,2.388c-1.409.877-2.067,1.863-2.239,1.73-.078-.047.016-.321.235-.783a2.993,2.993,0,0,1,.54-.783,5.187,5.187,0,0,1,.4-.469c.157-.141.329-.29.5-.447A11.151,11.151,0,0,1,68.6,48.318a46.756,46.756,0,0,1-15.428-2.153c.007,5.347-.595,10.4-3.257,15.186-.516.932-1.933.1-1.416-.83.156-.289.313-.579.454-.869-.055.047-.118.094-.18.141a5.953,5.953,0,0,1-1.871.893,4.141,4.141,0,0,1-1.354.156c-.321-.023-.5-.078-.517-.164s.133-.2.415-.337c.3-.125.681-.313,1.127-.532a7.56,7.56,0,0,0,2.849-2.583A16.3,16.3,0,0,0,50.7,54.784a38.975,38.975,0,0,0,.814-9.761.588.588,0,0,1,.024-.165c-.063-.031-.118-.062-.173-.094a14.3,14.3,0,0,1-3.632-3.389c-.735-1.018-1.08-1.722-.939-1.832.274-.227,1.613,1.347,3.726,2.99a5,5,0,0,1-.579-1.565c-.188-1.159.094-1.738.243-1.753.2-.024.289.7.657,1.495a6.116,6.116,0,0,0,.822,1.377A8.8,8.8,0,0,0,53.073,43.5a13.008,13.008,0,0,0,3.24,1.8c1.159.187,1.895.32,1.895.508a52.833,52.833,0,0,0,15.71.6,48.226,48.226,0,0,0,5.636-1.158c.055-.024.109-.039.164-.063a9.481,9.481,0,0,0,1.957-1.182,6.808,6.808,0,0,0,1.252-1.362c.6-.892.846-1.581,1.049-1.534.149.023.243.806-.227,1.98a5.654,5.654,0,0,1-1.127,1.675,10.917,10.917,0,0,1,1.6-.015,15.815,15.815,0,0,1,3.922.79c-1.683-3.64-2.106-8.258-2.1-12.062a1.227,1.227,0,0,1-.509-.157c-5.025-2.9-9.056-2.544-14.5-1.636a10.742,10.742,0,0,1-4.235.149A50.559,50.559,0,0,1,56.282,32.177Z"/><path d="M14.992,46.745c-4.619-2.795-2.944-8.454.8-11.444-.853.313-1.4.477-1.479.328s.454-.681,1.487-1.322a12.794,12.794,0,0,1,2.215-1.01c-.117-.016-.251-.016-.368-.031a11.7,11.7,0,0,1-2.638-.7c-1.487-.626-2.129-1.292-2.066-1.432.086-.188.986.219,2.348.54a16.345,16.345,0,0,0,2.5.383,30.894,30.894,0,0,0,3.123.039c2.231-.1,4.305-.289,5.816-.274H26.8a28.8,28.8,0,0,1,12.4,1.589l.063-.031v-.008c.031-.008-.07-.086.063-.086l-.016.071-.047.023.008.024.008.015.047-.008.094-.023c.07-.024.148-.047.219-.071a15.493,15.493,0,0,1,3.186-1.628c.712-.422,1.369-.814,1.949-1.119,1.252-.665,2.16-.869,2.215-.7.055.133-.337.438-1,.947,5.863-1.128,12.375.054,18.528-.4-.078-.086-.157-.172-.227-.266-3.053-3.835-5.683-6.129-10.654-7.115a106.911,106.911,0,0,0-14.629-1.839c-5.229-.282-10.5-.353-15.726-.447a15.227,15.227,0,0,0-13.949,8.3c-3.937,7.107-4.7,17.072,3.045,21.792A26.554,26.554,0,0,1,14.992,46.745Z"/><path d="M109.925,58.658a15.677,15.677,0,0,0-4.822-.54,10.432,10.432,0,0,0-5.464,1.8c-.211.148-.422.289-.626.446-.188.164-.376.336-.563.5a16.792,16.792,0,0,0-1.691,1.557,3.527,3.527,0,0,0-.689,1.934,6.3,6.3,0,0,1-1.252,2.286,8.68,8.68,0,0,1,3.733,2.16c.079.078.157.164.235.243,3.131-.4,3.773-4.235,6.967-4.454,1.464-.1,3.037,1.291,4.274,1.839a15.38,15.38,0,0,0,6.591,1.237c3.913-4.963,2.951-10.184.226-15.366a10.71,10.71,0,0,0-6.583-3.342,8.765,8.765,0,0,0-7.24,1.479A7.55,7.55,0,0,1,101,51.606a11.766,11.766,0,0,1-4.352.2c.055,1.652.219,3.437.29,5.221a.333.333,0,0,1,.016.086c.054.259.109.517.164.783.031.125.055.3.086.384.047.141.086.282.133.422.055.173.118.353.18.541a6.277,6.277,0,0,1,1.033-.713,12.468,12.468,0,0,1,2.443-.986,22.062,22.062,0,0,1,2.778-.634c.235-.039.423-.071.7-.1l.65-.047a13.216,13.216,0,0,1,1.354.016,33.912,33.912,0,0,0,4.274.321l.43-.024a3.118,3.118,0,0,0,.407-.062,3.323,3.323,0,0,0,.666-.188,2.6,2.6,0,0,0,.931-.619c.438-.461.571-.837.681-.806.063.008.117.446-.274,1.12a2.79,2.79,0,0,1-1.01.962,4.046,4.046,0,0,1-.814.353c-.148.039-.25.078-.446.117-.149.023-.3.047-.47.07,2.349.94,3.523,1.981,3.452,2.075C114.2,60.3,112.649,59.363,109.925,58.658Z"/><path d="M44.439,73.038c-.344.1-.783.281-1.307.493a7.259,7.259,0,0,0-3.3,2.763,9.272,9.272,0,0,0-1.2,3.859,69.655,69.655,0,0,1,15.694-6.012c4.752-1.323,9.926-3.976,14.92-4.007a19.718,19.718,0,0,1-1.7-6.873,40.66,40.66,0,0,1-4.8-.978c-1.808,6.888-6.583,11.076-14.059,10.254a17,17,0,0,1-12.242-7.593c.016.11.031.227.047.337.564,4.078.947,8.234,1.37,12.336a7.529,7.529,0,0,1,.853-2.02,6.788,6.788,0,0,1,2-2.051,6.5,6.5,0,0,1,2.129-.908,4.879,4.879,0,0,1,1.526-.109c.353.031.548.094.564.188S44.768,72.912,44.439,73.038Z"/><path d="M75.217,89.648c-.008,0-.015.008-.023.016-2.458,1.4-4.791,3.24-7.507,4.117-3.554,1.135-7.186,1.761-10.52,3.475.07,2.756-.118,4.9-.454,4.908-.282,0-.572-1.417-.752-3.436a10.648,10.648,0,0,1-1.1,2.528c-.634,1.01-1.221,1.394-1.354,1.3-.156-.11.18-.744.509-1.715a25.628,25.628,0,0,0,1.041-3.992c.219-1.19.376-2.317.509-3.256a17.451,17.451,0,0,0-.078-2.708c-.486-3.906-3.695-4.854-7.037-4.924-2.646-.055-5.386.916-8.016.438a4.2,4.2,0,0,1-2.724-1.722,7.816,7.816,0,0,1-.493,1.566c-.47,1.041-.978,1.448-1.127,1.378-.172-.094.07-.736.235-1.66a20.049,20.049,0,0,0,.321-3.608c-.689-2.466-.634-5.495-.861-7.554-.267-2.388-.494-9.182-1.934-14.622q-.528-1.291-.939-2.654c-.055-.2-.11-.4-.165-.6-1.393-3.178-3.491-5.127-6.716-3.9-5.2,1.973-8.156,7.421-11.96,11.2-.149.43-.29.861-.431,1.3a1.663,1.663,0,0,1-.211.7c-.008.008-.008.023-.016.031-.352,1.174-.665,2.364-.923,3.569A18.827,18.827,0,0,0,13.082,75a9.37,9.37,0,0,0,3.4,3.53,17.707,17.707,0,0,0,1.7.884c.423.2.65.36.627.447s-.3.1-.768.046a7.011,7.011,0,0,1-1.988-.547,12.683,12.683,0,0,1-1.417-.783c.055.086.1.18.165.266a12.979,12.979,0,0,0,1.871,2.231c1.189,1.135,2.16,1.745,2.043,1.918-.087.117-1.135-.126-2.646-1.2a10.887,10.887,0,0,1-2.262-2.247,12.533,12.533,0,0,1-1.8-3.491c-.062-.2-.109-.391-.156-.579-.047-.086-.094-.18-.133-.266a31.454,31.454,0,0,0-.071,3.538c.1,2.685.368,5.879,2.067,8.109a6.01,6.01,0,0,0,1.393,1.339c5.072.916,9.714-.634,9.886-6.575.149-4.8-1.777-8.157-5.714-10.223-.188-.071-.368-.133-.556-.219-.336-.149-.665-.306-.978-.47-.11-.047-.211-.094-.329-.133a.879.879,0,0,1-.4-.3,5.949,5.949,0,0,1-1.456-1.284,2.6,2.6,0,0,1-.548-1.12c-.031-.274-.008-.438.078-.477s.219.07.392.282a6.291,6.291,0,0,0,.743.657A6.617,6.617,0,0,0,17,68.85a6.642,6.642,0,0,1-.414-.814,5.632,5.632,0,0,1-.447-2.255,4.141,4.141,0,0,1,.267-1.487c.117-.329.234-.5.32-.485s.157.211.188.556a10.873,10.873,0,0,0,.157,1.346,6.564,6.564,0,0,0,.618,1.816,8.336,8.336,0,0,0,1.4,1.886c.079.071.157.134.227.2a15.862,15.862,0,0,1,2.31,1.362c.344.149.665.3.939.431a7.215,7.215,0,0,1,2.6,1.972A13.478,13.478,0,0,0,24.807,69c-.375-1.057-.861-2.419-1.369-3.961a17.443,17.443,0,0,1-.924-4.759,3.68,3.68,0,0,1,.047-.854c.031-.25.07-.469.109-.641.071-.345.157-.525.251-.517s.18.2.258.532c.039.165.079.368.118.595a4.82,4.82,0,0,0,.148.783,18.359,18.359,0,0,0,1.237,4.407,14.779,14.779,0,0,1,1.073-5.112c.493-1.213.908-1.91,1.08-1.863s.07.877-.188,2.145a44.512,44.512,0,0,0-.642,4.892c-.008.2-.016.4-.024.595a.864.864,0,0,1,.11.329,82.519,82.519,0,0,1,.744,11.71c-.055,3.9-.431,8.313.892,12.047,2.176,6.137,9.244,8.1,14.888,5.949a7.971,7.971,0,0,0,1.166-.916,30.9,30.9,0,0,0,2.576-3.006c.65-.814,1.127-1.291,1.284-1.19s-.032.736-.5,1.691a13.54,13.54,0,0,1-1.331,2.192,20.111,20.111,0,0,0,4.031-2.513c.955-.861,1.566-1.44,1.714-1.307.126.11-.2.861-1.009,1.918A12.627,12.627,0,0,1,46.263,95.3c-.125.047-.243.094-.368.149.329,3.468.517,7.092,2.708,9.949,3.977,2.231,9.769,1.526,13.871.525a32.908,32.908,0,0,0,8.759-3.249,16.143,16.143,0,0,0,3.726-2.982c.54-.587,1.346-1.01,1.777-1.691a.469.469,0,0,0,.062-.11c.5-.9-.031-1.229-.469-1.988A10.549,10.549,0,0,1,75.217,89.648Z"/><path d="M90.512,80.466l.267-.125.125-.055a8.4,8.4,0,0,1,.759-.446,5.127,5.127,0,0,1,1.707-.955c-.275-.18-.548-.368-.8-.564a5.235,5.235,0,0,1-1.558-1.949,1.453,1.453,0,0,1-.18-.493c-.031-.164-.062-.321-.093-.47a1.858,1.858,0,0,1-.016-.688c.039-.368.109-.58.195-.587s.2.18.314.532a4.364,4.364,0,0,0,.6,1.268A5.65,5.65,0,0,0,93.3,77.351c.665.438,1.464.869,2.348,1.33q.493.26.963.54a3.655,3.655,0,0,1,2.168,1.519,7.266,7.266,0,0,0,.5-8.571c-1.385-2.043-4.133-4.618-6.88-4.258-.086.039-.172.062-.266.1-.611.212-1.151.4-1.652.58-2.974,1.589-4.767,5.041-6.5,7.8-2.293,3.624-5.393,7.06-6.63,11.248-1.51,5.127.478,8.955,4.188,12.344a10.09,10.09,0,0,0,3.757.979c-.078-2.521-.3-5.1-.242-7.64a8.419,8.419,0,0,1-.822,1.339,4.635,4.635,0,0,1-1.4,1.275c-.384.173-.627.235-.673.165s.078-.282.375-.587a8.22,8.22,0,0,0,.916-1.362A34.985,34.985,0,0,0,85.338,88.8,11.324,11.324,0,0,1,85.98,87.1a14.764,14.764,0,0,1,2.8-4.931A4.349,4.349,0,0,1,90.512,80.466Z"/><path d="M110.614,86.313c.094.071.188.141.3.219a.571.571,0,0,1,.11.032,8.672,8.672,0,0,1,1.769.963,12.315,12.315,0,0,0,1.988.649,9.325,9.325,0,0,0,2.881.266,2.591,2.591,0,0,0,.258-.047c5.816-4.313,4.407-14.113-.916-18.668a1.083,1.083,0,0,1-.3-.376.028.028,0,0,1-.008-.016,13.693,13.693,0,0,1-5.08-.556c-1.55-.532-5.949-3.365-7.288-2-1.5,1.526-2.513,2.99-4.36,3.632a10.255,10.255,0,0,1,1.785,3.765c4.274-2.38,8.908-1.214,12.61,1.534.392.18.783.368,1.2.571a32.236,32.236,0,0,0,3.248,1.394,3.061,3.061,0,0,0,.595.187,3.185,3.185,0,0,1,.478.149c.258.094.4.188.391.282s-.157.164-.423.227a4.643,4.643,0,0,1-.493.078,2.027,2.027,0,0,1-.657,0,7.568,7.568,0,0,1-1.5-.282,18.864,18.864,0,0,1,2.129,2.889.825.825,0,0,1-1.425.83c-3.193-5.355-9.941-9.887-15.913-6.082a8.95,8.95,0,0,1-2.067,5.964c.008.666.024,1.55.079,2.63a24.331,24.331,0,0,0,2.152,9.01,16.5,16.5,0,0,0,2.889,4.125c.281.266.555.532.813.783.282.242.58.446.854.657a14.147,14.147,0,0,0,1.612,1.057,18.3,18.3,0,0,0,2.576,1.174c.641.251.986.431.97.517s-.415.078-1.1-.016a11.029,11.029,0,0,1-2.857-.837,12.073,12.073,0,0,1-1.823-.995c-.314-.211-.642-.414-.963-.657-.3-.266-.611-.54-.932-.814-.094-.086-.18-.2-.274-.29a.734.734,0,0,1-.555.016c1.534,2.677,3.084,5.331,3.577,8.407,8.195.235,15.608-7.922,8.36-14.787a1.2,1.2,0,0,1-.517-.923c-.657-.634-1.425-1.347-2.293-2.035-.212-.165-.415-.314-.627-.462a9.777,9.777,0,0,1-1.08-.658,5.725,5.725,0,0,0-1.965-.7h-.031a10.236,10.236,0,0,1-2.841.516c-1.065.031-1.691-.125-1.715-.3-.023-.407,2.513-.634,5.182-1.879a11.013,11.013,0,0,0,3.03-2.137c.673-.689,1.056-1.2,1.236-1.119.149.062.063.751-.5,1.691A7.441,7.441,0,0,1,110.614,86.313Z"/><path d="M98.27,87.949c.148-2.935-.22-7.5-3.335-7.35a4.106,4.106,0,0,1-.978.3c-.243.062-.533.125-.822.2-.243.11-.493.235-.76.384a11.112,11.112,0,0,0-1.9,1.393,4.651,4.651,0,0,0-.383,2.262,23.5,23.5,0,0,0,1.08,5.252,38.589,38.589,0,0,0,1.753,5.19A18.282,18.282,0,0,0,95.1,99.362a26.357,26.357,0,0,0,1.989,2.215c.547.509.814.846.735.979s-.508.047-1.2-.243a10.56,10.56,0,0,1-2.7-1.886c-.039-.04-.078-.094-.125-.134a3.973,3.973,0,0,1-.188.9c-.047.141-.086.274-.141.4s-.133.235-.195.344a1.662,1.662,0,0,1-.36.47c-.227.2-.392.3-.47.243-.18-.094.2-.752.25-1.652a6.851,6.851,0,0,0-.227-2.247,16.867,16.867,0,0,1-1.4-2.277,28.278,28.278,0,0,1-2.05-5.48c-.274-.994-.517-1.918-.721-2.919a13.658,13.658,0,0,1-.234-1.762c-1.965,4.446-1.214,10.255-1.1,15.241a.752.752,0,0,1,.117.3c1.221,8.125,13.159,14.356,18.2,5.785.039-.055.078-.1.117-.149a.189.189,0,0,1,.016-.063c-.572-5.244-4.7-8.641-6.231-13.62A16.766,16.766,0,0,1,98.27,87.949Z"/><path d="M27.884,93.131a14.629,14.629,0,0,1-2.458-6.763,7.613,7.613,0,0,1-6.129,3.64c.352.156.7.321,1.064.524a8.281,8.281,0,0,1,2.192,1.816,6.809,6.809,0,0,1,.556-1.933,4.774,4.774,0,0,1,.806-1.237c.227-.25.391-.368.47-.321s.07.243-.024.572c-.117.328-.235.775-.376,1.3a8.587,8.587,0,0,0-.07,3.726c.853,1.683,1.425,3.538,2.521,5.315,1.675,2.708,5.385,3.843,8.3,4.673,3.663,1.049,7.146,1.5,10.771.11.023-.008.047-.008.062-.016a1.436,1.436,0,0,1,.478-.29,24.532,24.532,0,0,1-1.707-7.913C39.007,98.908,31.547,98.2,27.884,93.131Z"/><path d="M13.34,61.617l.133.11a1.3,1.3,0,0,1,.532.156c3.468-3.96,7.076-9.862,12.258-10.63a6.349,6.349,0,0,1,5.722,1.934c-.9-6.568.517-13.589,5.589-18.262.086-.086.188-.164.282-.243a5.067,5.067,0,0,1-.548-.117,10.955,10.955,0,0,1-1.424-.446,28.973,28.973,0,0,0-11.852-.259c-2.771.525-5.98,1.292-8.062,3.343-2.685,2.63-3.248,6.779.712,8.579a.576.576,0,0,1,.227.18c.165-.1.345-.188.517-.282q.6-.481,1.292-.939a16.132,16.132,0,0,1,2.763-1.448,10.687,10.687,0,0,1,2.481-.658c1.5-.2,2.348.079,2.348.235.016.2-.9.282-2.152.681a15.878,15.878,0,0,0-2.192.853c-.149.071-.3.165-.454.243.266-.016.532-.016.79-.016a18.7,18.7,0,0,1,2.928.29c1.636.3,2.607.65,2.583.822-.031.188-1.057.172-2.677.1-.814-.008-1.769-.055-2.818.007a11.667,11.667,0,0,0-3.264.548,8.563,8.563,0,0,0-1.025.439,34.079,34.079,0,0,0-2.865,2.45,38.991,38.991,0,0,0-2.341,4.25C11.7,56.263,10.4,59.723,13.34,61.617Z"/></g></svg>