<svg xmlns="http://www.w3.org/2000/svg" viewBox="0 0 128 160" x="0px" y="0px"><g><path d="M83.28,59.879c-3.711,3.288-8.971,4.024-14.074,3.57a17.668,17.668,0,0,0,1.315,5.51,5.055,5.055,0,0,1,.743,1.425c.165.337.337.744.525,1.166.078.149.156.306.242.454.47.65,1.057,1.566,1.738,2.591a15.184,15.184,0,0,0,2.137,1.511c.932.47,1.479.838,1.417,1.01s-.72.109-1.738-.133c-.086-.032-.18-.063-.274-.1.806,1.229,1.331,2.129,1.127,2.286-.234.195-1.581-.877-2.99-2.724-2.81,1.941-6.113,2.833-9.1,4.477a53.865,53.865,0,0,0-8.533,5.886,2.065,2.065,0,0,1,.118.181c1.55,2.559,1.284,5.549,1.2,8.453a49.767,49.767,0,0,1,7.538-2.473,33.743,33.743,0,0,0,8.055-3.781,3.8,3.8,0,0,1-.47-.18,4.994,4.994,0,0,1-.618-.321,3.247,3.247,0,0,1-.4-.305c-.219-.18-.313-.321-.282-.4s.211-.1.493-.063a4.056,4.056,0,0,1,.486.094c.179.031.383.07.61.11a4.76,4.76,0,0,0,1.464.07,2.366,2.366,0,0,0,1.4-.752c.164-.164.305-.352.454-.532.1-.282.2-.563.321-.845,1.518-3.577,3.867-6.544,5.925-9.808.235-.368.47-.752.7-1.127,0-.016-.016-.024-.016-.047-1.111-4.767-.188-9.44.454-14.168C83.248,60.584,83.256,60.24,83.28,59.879Z"/><path d="M41.511,84.842c1.864-.032,3.679-.384,5.535-.493,2.144-.126,5.487-.063,7.569,1.307a47.616,47.616,0,0,1,8.9-6.161c2.865-1.448,5.988-2.434,8.681-4.187a37.449,37.449,0,0,1-2.184-3.593.813.813,0,0,1-.321.062C66.576,71.691,64,73.014,61.1,73.9c-2.513.759-5.049,1.456-7.577,2.176A62.232,62.232,0,0,0,38.521,82.1a1.326,1.326,0,0,1-.039.243A2.956,2.956,0,0,0,41.511,84.842Z"/></g></svg>