<svg xmlns="http://www.w3.org/2000/svg" viewBox="0 0 128 160" x="0px" y="0px"><g><path d="M122.239,14.864a1.193,1.193,0,0,1,1.462,1.822c-.383,3.816-.063,7.85-.079,11.673q-.058,12.724-.078,25.442-.034,12.63-.078,25.254c-.023,3.768.313,7.748-.117,11.493A1.274,1.274,0,0,1,122,91.666c-4.269,4.847-9.632,8.741-14.722,12.666-4.965,3.831-9.492,8.272-14.715,11.759a.979.979,0,0,1-1.259-.055c-5.832-.3-11.712-1.618-17.4-2.83-5.387-1.149-10.883-1.853-16.051-3.839a1.275,1.275,0,0,1-.3-2.189,1.456,1.456,0,0,1,.406-.446c.587-.414,1.173-.844,1.8-1.212.007-.43.007-.86.007-1.29-7.521-.07-15.418-2.58-22.775-3.753-5.137-.821-10.289-1.595-15.34-2.885-4.754-1.227-9.468-2.517-14.409-2.65a1.2,1.2,0,0,1-.829-2.017C5.8,83.66,5.586,74.356,5.2,65.091,4.8,55.716,3.631,45.982,4.116,36.6a1.146,1.146,0,0,1,.9-1.087c3.917-2.541,8.663-2.494,13-3.956,6.184-2.08,11.939-5.129,17.982-7.553a1.045,1.045,0,0,1,.712-.047c7.81.618,15.629,1.087,23.448,1.7a1.428,1.428,0,0,1,.422.109c3.4-2.5,7.623-3.573,11.54-5.082,6.419-2.47,12.564-5.864,18.85-8.678a1.174,1.174,0,0,1,.212-.071.967.967,0,0,1,.766-.218c9.835.938,19.812,3.1,29.671,3.487C121.824,15.091,122.027,14.982,122.239,14.864Zm-.962,12.9c.016-2.385-.117-4.848-.1-7.3-9.226,4.746-18.279,9.9-27.4,14.848-.125,3.346.055,6.763.008,10.047-.024,1.626-.039,3.244-.063,4.87,3.4-2.611,7.8-4.48,11.345-6.591,5.285-3.143,10.524-6.856,16.067-9.515a.338.338,0,0,1,.125-.031C121.269,31.987,121.269,29.876,121.277,27.765Zm-.063,21.423q.012-6.908.039-13.808c-5.363,2.635-10.453,6.224-15.59,9.281-3.745,2.228-8.545,4.2-11.954,7.1q-.117,8.714-.219,17.428c3.51-3.589,8.53-6.2,12.556-9.078C111.042,56.529,115.945,52.386,121.214,49.188ZM121.2,19.141c.008-.352.031-.711.047-1.063-4.16,2.322-8.132,4.855-12.526,6.857-5.082,2.33-10.156,4.628-14.753,7.857-.008.008-.016.008-.024.016-.031.375-.07.758-.094,1.134C102.942,29,111.988,23.856,121.2,19.141Zm0,33.878c0-.821.008-1.634.008-2.455-4.6,2.885-8.914,6.505-13.308,9.648C103.3,63.5,97.3,66.568,93.568,70.83a.806.806,0,0,1-.1.07c-.007.688-.015,1.368-.023,2.056L93.3,84.238c3.472-3.291,8.163-5.77,11.963-8.491,5.222-3.745,10.351-8.115,15.9-11.368Q121.179,58.691,121.2,53.019Zm-.071,36.137c.251-3.526-.023-7.2-.007-10.7q.022-6.355.039-12.7c-4.879,2.956-9.414,6.787-14.042,10.094C102.724,79,97.039,81.94,93.279,85.927q-.095,7.611-.188,15.215c-.055,3.878.2,7.936-.133,11.822,4.566-3.284,8.679-7.225,13.143-10.657,5.168-3.98,10.626-7.967,14.855-12.979A1.992,1.992,0,0,1,121.128,89.156ZM107.54,22.91c3.6-1.65,6.919-3.644,10.289-5.591-8.593-.688-17.216-2.423-25.778-3.252-5.786,2.6-11.5,5.332-17.24,8.037-3.682,1.744-7.92,2.534-11.438,4.605a132.187,132.187,0,0,1,14.081,1.924C80.621,29.2,83.8,29.782,87,30.079c2.049.2,4.082.11,6.091.477A95.141,95.141,0,0,1,107.54,22.91Zm-16.052,11.4c.032-.547.071-1.094.125-1.634-2.439-.352-5.019-.274-7.443-.594-2.463-.313-4.9-.751-7.341-1.181A109.847,109.847,0,0,0,61.2,28.946c0,.477.008.953.008,1.43C71.316,31,81.441,33.05,91.488,34.309ZM91.449,44.77c.039-3.041-.109-6.2-.015-9.3-10.016-1.259-20.149-3.3-30.219-3.917q.046,7.776.156,15.567c3.722.344,7.475,1.329,11.2,1.868,3.472.5,6.951.931,10.438,1.345,2.846.344,5.559.813,8.358,1.392C91.394,49.415,91.418,47.092,91.449,44.77Zm-.3,24.121q.094-7.988.2-15.966c-3.4-.719-6.717-1.2-10.172-1.634-2.682-.328-5.372-.657-8.053-1.048-3.832-.547-7.9-1.587-11.736-1.947q.105,8.022.219,16.052c3.643.36,7.318,1.313,10.961,1.845,3.472.5,6.951.931,10.438,1.345C85.781,67.874,88.423,68.328,91.152,68.891ZM91.1,72.956c.008-.962.024-1.915.039-2.877-3.33-.688-6.575-1.173-9.96-1.587-2.682-.329-5.372-.657-8.053-1.048-3.753-.539-7.725-1.548-11.5-1.923.008.914.024,1.829.032,2.744q.071,6.263.133,12.518c3.588.375,7.2,1.3,10.781,1.829,3.472.5,6.951.93,10.438,1.345,2.7.328,5.285.766,7.936,1.313Q91.023,79.114,91.1,72.956Zm-.344,27.592q.094-7.048.172-14.089c-3.252-.665-6.434-1.142-9.749-1.548-2.682-.329-5.372-.657-8.053-1.048-3.7-.532-7.608-1.517-11.33-1.908.047,4.48.1,8.96.141,13.44.039,4.246.352,8.624.055,12.862.8.227,1.6.446,2.4.633.024-5.746.18-11.485.188-17.232a1.085,1.085,0,0,1,.766-1.071,1.055,1.055,0,0,1,.8-.3c2.994.07,5.785.891,8.717,1.345,3.706.563,7.537.75,11.142,1.821a1.075,1.075,0,0,1,.281.125,1.052,1.052,0,0,1,.774,1.072c-.023,6.192-.328,12.384.071,18.569,0,.031-.008.054-.008.086q1.712.222,3.424.328C91,109.351,90.7,104.84,90.753,100.548Zm-6.075-3c.016-.664.024-1.337.024-2.009a86.953,86.953,0,0,0-9.023-1.423c-2.924-.446-5.8-1.251-8.764-1.438,0,.656-.008,1.313-.016,1.97C72.794,95.833,78.7,96.951,84.678,97.545Zm.086,15.419c-.266-4.355-.195-8.718-.117-13.073-1.243-.125-2.478-.266-3.714-.43-.039,4.292.516,8.553.11,12.83C82.278,112.534,83.521,112.76,84.764,112.964Zm-6.028-1.134c.336-4.23-.219-8.452-.148-12.7q-2.838-.423-5.653-.939c.094,4.16.586,8.312.188,12.471q.7.129,1.407.281C75.922,111.236,77.329,111.533,78.736,111.83Zm-7.92-1.619c.328-4.151-.172-8.3-.235-12.454-1.235-.235-2.47-.485-3.7-.735-.055,4.128-.133,8.256-.141,12.392C68.087,109.7,69.448,109.953,70.816,110.211Zm-11.071-8.334C59.7,99.7,59.6,97.538,59.589,95.4q-.07-7.728-.157-15.449c-3.346-.391-6.6-1.321-9.929-1.712.242,7.451,1.243,14.878,1.493,22.329A49.555,49.555,0,0,0,59.745,101.877Zm-.336-24.284c-.008-.462-.016-.931-.016-1.392-17.341-2.049-34.409-6.466-51.751-8.475.321,8.311.563,16.645,1.1,24.949.711.039,1.415.1,2.126.172-.2-7.115-1.079-14.222-1.266-21.345a1.234,1.234,0,0,1,1.337-1.759c4.488.954,9.014,1.7,13.565,2.3a1.322,1.322,0,0,1,.516.188,1.124,1.124,0,0,1,.985,1.118c.156,7.522,1.142,15.019,1.306,22.541a1.348,1.348,0,0,1-.039.32c1.125.266,2.251.524,3.369.767-.281-7.623-1.329-15.223-1.509-22.846a1.043,1.043,0,0,1,.423-.907,1.212,1.212,0,0,1,.813-.4C34.8,72.5,38.995,75.192,43.4,75.3a1.069,1.069,0,0,1,.321.054,1.116,1.116,0,0,1,1.047,1.118c.18,7.733,1.259,15.434,1.525,23.167.782.141,1.556.3,2.33.445-.281-7.615-1.329-15.207-1.509-22.83,0-.047.008-.086.008-.133a1.059,1.059,0,0,1,1.1-1.368C52.012,76.029,55.648,77.155,59.409,77.593Zm-.031-2.565c-.024-2.252-.04-4.511-.071-6.763-.023-2.283-.055-4.558-.086-6.841C41.645,59.407,24.366,54.888,6.8,52.863c.258,4.1.571,8.193.743,12.228.015.484.031.969.054,1.454C24.952,68.554,42.028,72.98,59.378,75.028Zm-.172-14.777q-.118-8.081-.219-16.161c-4.629-.422-9.25-.375-13.878-.993-4.418-.586-8.8-1.423-13.221-1.915-4.34-.477-8.585-.853-12.878-1.744A65.287,65.287,0,0,0,6.43,37.655c-.179,4.621,0,9.328.29,14.027C24.311,53.707,41.614,58.226,59.206,60.251Zm-.251-18.506Q58.874,34.872,58.846,28c0-.032.008-.055.008-.086v-.008c-7.389-.563-14.777-1.017-22.158-1.6a.578.578,0,0,1-.125-.024c-5.583,2.252-10.9,5.169-16.615,7.1-2.932.985-6.192,1.344-9.233,2.205,2.533.3,5.027.789,7.537,1.313,4.542.938,9.038,1.376,13.628,1.939,4.91.61,9.781,1.517,14.691,2.111C50.707,41.447,54.835,41.385,58.955,41.745ZM43.936,99.234c-.274-7.224-1.22-14.425-1.47-21.649-3.675-.376-7.287-2.283-10.946-2.424.25,7.435,1.251,14.847,1.493,22.291.579.1,1.158.211,1.744.305C37.814,98.249,40.879,98.718,43.936,99.234ZM24.96,95.653c-.172-7.13-1.055-14.245-1.266-21.376-3.925-.531-7.834-1.164-11.712-1.946.226,6.95,1.071,13.878,1.243,20.828C17.15,93.746,21.059,94.707,24.96,95.653Z"/><path d="M120.331,39.743a.538.538,0,0,1,.1.344c-.094,1.955-.188,3.9-.274,5.856a.6.6,0,0,1-.086.274.5.5,0,0,1-.266.477c-1.9,1.149-3.487,2.767-5.645,3.448a.531.531,0,0,1-.7-.454.708.708,0,0,1-.078-.266c-.094-1.814-.172-3.627-.109-5.449a.543.543,0,0,1,.156-.837c2.095-1.173,4.019-2.627,6.044-3.925A.57.57,0,0,1,120.331,39.743Zm-1.345,6.091q.129-2.534.242-5.051c-.172.109-.351.227-.523.344a.414.414,0,0,1,.023.1c-.078,1.665-.148,3.33-.313,4.98C118.6,46.076,118.8,45.951,118.986,45.834Zm-1.462-3.91c-.407.274-.805.54-1.212.806a.277.277,0,0,1,.016.117c-.078,1.673-.157,3.354-.235,5.027.352-.234.7-.484,1.048-.735C117.36,45.4,117.446,43.668,117.524,41.924Zm-2.635,6.654q.117-2.546.243-5.09c-.227.141-.462.274-.688.407-.055,1.626,0,3.244.078,4.863C114.647,48.7,114.764,48.64,114.889,48.578Z"/><path d="M119.666,23.465a.5.5,0,0,1,.1.336c-.078,1.947-.149,3.886-.227,5.825a.59.59,0,0,1-.07.266.535.535,0,0,1-.274.484c-1.9,1.111-3.5,2.7-5.637,3.339a.548.548,0,0,1-.711-.461.7.7,0,0,1-.079-.266c-.109-1.806-.2-3.605-.164-5.418a.539.539,0,0,1,.157-.837c2.095-1.134,4.018-2.549,6.043-3.8A.57.57,0,0,1,119.666,23.465Zm-1.29,6.044c.063-1.681.125-3.355.2-5.036-.18.11-.352.227-.532.337a.46.46,0,0,1,.023.1c-.062,1.666-.117,3.323-.273,4.973C117.985,29.751,118.181,29.626,118.376,29.509Zm-1.517-3.925c-.4.265-.8.523-1.211.781a.588.588,0,0,1,.023.118c-.063,1.673-.133,3.338-.2,5.011.359-.226.7-.469,1.055-.719C116.734,29.047,116.805,27.319,116.859,25.584Zm-2.58,6.583c.063-1.689.125-3.378.2-5.074-.235.14-.462.273-.7.406-.039,1.619.031,3.229.125,4.84A3.347,3.347,0,0,0,114.279,32.167Z"/><path d="M119.44,73.347V78.82a1.05,1.05,0,0,1-.032.235.587.587,0,0,1-.211.711c-1.861,1.306-3.393,3.057-5.52,3.956a.651.651,0,0,1-.891-.524.327.327,0,0,1-.039-.125c-.188-1.72-.352-3.432-.383-5.16a.588.588,0,0,1,.133-.868c2.111-1.4,4.026-3.041,6.059-4.55.446-.329.876.133.837.578A.727.727,0,0,1,119.44,73.347Zm-.782,5.387V73.887l-.86.648a.387.387,0,0,1,.031.133c0,1.58.016,3.151-.07,4.731.273-.227.555-.438.844-.649A.555.555,0,0,0,118.658,78.734Zm-2.143,1.681c.141-1.657.149-3.323.141-4.988-.383.3-.774.594-1.165.9a.456.456,0,0,1,.039.148v4.731C115.866,80.955,116.187,80.689,116.515,80.415Zm-2.674,1.931c.071-.039.141-.086.2-.125a.51.51,0,0,1-.078-.274v-4.5c-.149.1-.29.2-.438.3C113.552,79.281,113.685,80.814,113.841,82.346Z"/><path d="M119.44,54.583v5.473a1.033,1.033,0,0,1-.032.234A.588.588,0,0,1,119.2,61c-1.861,1.3-3.393,3.057-5.52,3.956a.652.652,0,0,1-.891-.524.327.327,0,0,1-.039-.125c-.188-1.72-.352-3.432-.383-5.16a.588.588,0,0,1,.133-.868c2.111-1.4,4.026-3.042,6.059-4.551.446-.328.876.133.837.579A.72.72,0,0,1,119.44,54.583Zm-.782,5.387V55.122l-.86.649a.381.381,0,0,1,.031.133c0,1.579.016,3.151-.07,4.73.273-.227.555-.438.844-.649C118.626,59.977,118.642,59.977,118.658,59.97Zm-2.143,1.681c.141-1.658.149-3.323.141-4.989-.383.3-.774.595-1.165.9a.455.455,0,0,1,.039.149v4.73C115.866,62.19,116.187,61.924,116.515,61.651Zm-2.674,1.931c.071-.039.141-.086.2-.125a.516.516,0,0,1-.078-.274v-4.5c-.149.1-.29.2-.438.3C113.552,60.517,113.685,62.049,113.841,63.582Z"/><path d="M111.715,45.92a.545.545,0,0,1,.1.344c-.093,1.954-.179,3.909-.273,5.856a.706.706,0,0,1-.078.273.544.544,0,0,1-.274.485c-1.9,1.142-3.487,2.76-5.645,3.44a.53.53,0,0,1-.7-.453.708.708,0,0,1-.078-.266c-.094-1.814-.172-3.628-.109-5.45a.538.538,0,0,1,.156-.828c2.095-1.181,4.019-2.635,6.052-3.933A.564.564,0,0,1,111.715,45.92Zm-1.345,6.09q.129-2.533.242-5.05c-.172.109-.344.226-.516.344,0,.031.016.062.016.109-.078,1.658-.149,3.323-.313,4.973C109.987,52.26,110.182,52.128,110.37,52.01ZM108.908,48.1c-.4.274-.805.539-1.212.8a.513.513,0,0,1,.024.118c-.086,1.681-.165,3.354-.243,5.035.352-.243.7-.493,1.048-.743C108.744,51.58,108.83,49.845,108.908,48.1Zm-2.635,6.654q.117-2.546.243-5.09c-.227.14-.462.273-.689.406-.054,1.627,0,3.245.079,4.863C106.031,54.88,106.148,54.817,106.273,54.755Z"/><path d="M111.168,29.806c-.079,1.939-.149,3.878-.227,5.824a.571.571,0,0,1-.071.266.543.543,0,0,1-.273.485c-1.9,1.11-3.495,2.69-5.645,3.331a.539.539,0,0,1-.7-.454.708.708,0,0,1-.078-.266c-.11-1.806-.2-3.612-.164-5.418a.532.532,0,0,1,.156-.836c2.095-1.142,4.019-2.549,6.044-3.808a.569.569,0,0,1,.852.539A.515.515,0,0,1,111.168,29.806Zm-1.392,5.7c.062-1.673.125-3.354.2-5.027-.18.109-.352.219-.531.336a.224.224,0,0,1,.015.1c-.054,1.657-.109,3.315-.266,4.965Zm-1.517-3.917c-.4.266-.805.524-1.212.782a.528.528,0,0,1,.024.11c-.071,1.673-.133,3.346-.2,5.019.36-.234.7-.477,1.056-.727C108.134,35.052,108.2,33.316,108.259,31.588Zm-2.58,6.583c.062-1.688.125-3.385.195-5.074-.234.141-.461.274-.695.407-.04,1.61.031,3.229.125,4.839C105.429,38.289,105.554,38.234,105.679,38.171Z"/><path d="M110.839,80.384v5.473a1.035,1.035,0,0,1-.031.234.588.588,0,0,1-.211.712c-1.861,1.305-3.393,3.057-5.52,3.956a.651.651,0,0,1-.891-.524.328.328,0,0,1-.04-.125c-.187-1.72-.351-3.432-.383-5.16a.589.589,0,0,1,.133-.868c2.111-1.4,4.027-3.041,6.06-4.55.445-.329.875.132.836.578A.7.7,0,0,1,110.839,80.384Zm-.782,5.387V80.923l-.86.649a.361.361,0,0,1,.032.133c0,1.579.015,3.151-.071,4.73.274-.226.555-.438.845-.649A.334.334,0,0,0,110.057,85.771Zm-2.142,1.681c.141-1.658.149-3.323.141-4.989-.383.305-.774.6-1.165.9a.475.475,0,0,1,.039.148v4.73C107.266,87.991,107.587,87.725,107.915,87.452Zm-2.674,1.931c.07-.039.141-.086.2-.125a.51.51,0,0,1-.078-.274v-4.5c-.148.1-.289.2-.438.305C104.952,86.318,105.085,87.85,105.241,89.383Z"/><path d="M110.839,61.619v5.473a1.052,1.052,0,0,1-.031.235.587.587,0,0,1-.211.711c-1.861,1.306-3.393,3.057-5.52,3.956a.651.651,0,0,1-.891-.523.334.334,0,0,1-.04-.125c-.187-1.721-.351-3.433-.383-5.161a.589.589,0,0,1,.133-.868c2.111-1.4,4.027-3.041,6.06-4.55.445-.328.875.133.836.579A.7.7,0,0,1,110.839,61.619Zm-.782,5.387V62.159l-.86.649a.361.361,0,0,1,.032.133c0,1.579.015,3.15-.071,4.73.274-.227.555-.438.845-.649A.461.461,0,0,0,110.057,67.006Zm-2.142,1.681c.141-1.657.149-3.323.141-4.988-.383.305-.774.594-1.165.9a.481.481,0,0,1,.039.149v4.73C107.266,69.227,107.587,68.961,107.915,68.687Zm-2.674,1.931c.07-.039.141-.086.2-.125a.509.509,0,0,1-.078-.273v-4.5c-.148.1-.289.2-.438.305C104.952,67.554,105.085,69.086,105.241,70.618Z"/><path d="M102.348,52a.506.506,0,0,1,.1.337c-.094,1.954-.18,3.909-.274,5.864a.708.708,0,0,1-.078.265.533.533,0,0,1-.274.485c-1.9,1.149-3.487,2.76-5.645,3.448a.533.533,0,0,1-.7-.453.7.7,0,0,1-.078-.274c-.094-1.814-.172-3.628-.11-5.442a.546.546,0,0,1,.156-.836c2.1-1.181,4.019-2.635,6.052-3.925A.561.561,0,0,1,102.348,52ZM101,58.085q.129-2.521.243-5.05c-.172.117-.344.226-.516.344,0,.039.015.07.015.109-.078,1.665-.148,3.323-.312,4.98C100.62,58.335,100.816,58.21,101,58.085Zm-1.462-3.9c-.4.273-.8.539-1.212.8a.516.516,0,0,1,.024.117c-.086,1.674-.164,3.347-.242,5.028.351-.235.7-.485,1.047-.743C99.377,57.663,99.463,55.92,99.541,54.184Zm-2.634,6.653c.078-1.7.156-3.4.242-5.1-.227.14-.461.281-.688.414-.055,1.619,0,3.237.078,4.855C96.664,60.955,96.781,60.9,96.907,60.837Z"/><path d="M101.7,35.357a.468.468,0,0,1,.11.336c-.078,1.939-.149,3.886-.227,5.825a.59.59,0,0,1-.07.266.535.535,0,0,1-.274.484c-1.9,1.111-3.5,2.69-5.645,3.339a.543.543,0,0,1-.7-.461.719.719,0,0,1-.078-.266c-.109-1.806-.2-3.605-.164-5.418a.533.533,0,0,1,.156-.837c2.1-1.134,4.019-2.549,6.044-3.8A.564.564,0,0,1,101.7,35.357ZM100.417,41.4c.063-1.681.125-3.355.2-5.036-.18.11-.352.219-.532.337a.222.222,0,0,1,.015.1c-.054,1.658-.109,3.315-.265,4.973C100.026,41.643,100.222,41.518,100.417,41.4ZM98.9,37.476c-.4.265-.805.523-1.212.781a.525.525,0,0,1,.024.118c-.063,1.665-.133,3.338-.2,5.011.36-.226.7-.476,1.056-.719C98.775,40.939,98.846,39.211,98.9,37.476Zm-2.58,6.583c.063-1.689.125-3.378.2-5.074-.235.14-.462.273-.7.406-.039,1.619.031,3.229.125,4.84C96.07,44.184,96.2,44.121,96.32,44.059Z"/><path d="M101.457,87.42v5.473a1.105,1.105,0,0,1-.031.235.588.588,0,0,1-.211.711C99.354,95.145,97.821,96.9,95.7,97.8a.653.653,0,0,1-.892-.524.345.345,0,0,1-.039-.125c-.187-1.72-.352-3.433-.383-5.161a.587.587,0,0,1,.133-.867c2.111-1.4,4.027-3.042,6.059-4.551.446-.328.876.133.837.579A.718.718,0,0,1,101.457,87.42Zm-.782,5.387V87.96l-.86.649a.36.36,0,0,1,.031.133c0,1.579.016,3.151-.07,4.73.274-.227.555-.438.844-.649A.485.485,0,0,0,100.675,92.807Zm-2.142,1.681c.141-1.657.148-3.322.141-4.988-.384.305-.775.594-1.165.9a.481.481,0,0,1,.039.149v4.73C97.884,95.028,98.2,94.762,98.533,94.488ZM95.859,96.42c.07-.039.141-.086.2-.126a.509.509,0,0,1-.078-.273v-4.5c-.149.1-.289.2-.438.305C95.57,93.355,95.7,94.887,95.859,96.42Z"/><path d="M101.457,68.656v5.473a1.1,1.1,0,0,1-.031.234.59.59,0,0,1-.211.712c-1.861,1.306-3.394,3.057-5.52,3.956a.652.652,0,0,1-.892-.524.345.345,0,0,1-.039-.125c-.187-1.72-.352-3.432-.383-5.16a.588.588,0,0,1,.133-.868c2.111-1.4,4.027-3.041,6.059-4.55.446-.329.876.133.837.578A.72.72,0,0,1,101.457,68.656Zm-.782,5.387V69.195l-.86.649a.365.365,0,0,1,.031.133c0,1.58.016,3.151-.07,4.731.274-.227.555-.438.844-.649A.485.485,0,0,0,100.675,74.043Zm-2.142,1.681c.141-1.658.148-3.323.141-4.988-.384.3-.775.594-1.165.9a.482.482,0,0,1,.039.148v4.731C97.884,76.263,98.2,76,98.533,75.724Zm-2.674,1.931c.07-.039.141-.086.2-.125a.51.51,0,0,1-.078-.274v-4.5c-.149.1-.289.2-.438.305C95.57,74.59,95.7,76.123,95.859,77.655Z"/><path d="M87.868,38.9a.559.559,0,0,1,.3.9v7.748h-.281a.589.589,0,0,1-.524.172c-7.506-1.126-15.105-3.167-22.65-3.753a.6.6,0,0,1-.555-.672c0-.008-.008-.016-.008-.024-.5-2.291-.18-4.613-.157-6.927a.547.547,0,0,1,.423-.54.486.486,0,0,1,.649-.289c2.142.774,4.261.461,6.466.782,1.477.227,2.955.477,4.433.657a.631.631,0,0,1,.688.078q.68.07,1.36.117A56.435,56.435,0,0,1,87.868,38.9Zm-.484,7.646V42.628a.518.518,0,0,1-.219.008c-.712-.094-1.416-.2-2.127-.321v3.667a.424.424,0,0,1-.047.172C85.789,46.287,86.586,46.42,87.384,46.545Zm0-5.051v-1.5c-3.527-.821-7.006-1.2-10.548-1.7.008.476.016.953.024,1.438C80.378,40.345,83.889,41.01,87.384,41.494Zm-3.91,4.387V42.065c-.868-.141-1.743-.289-2.619-.446-.031,1.251-.148,2.495-.117,3.746ZM79.69,41.416l-2.807-.492c.024,1.18.039,2.369.008,3.557a.736.736,0,0,1-.023.133c.9.172,1.8.344,2.7.524C79.557,43.9,79.674,42.659,79.69,41.416ZM75.718,44.4c.032-1.227.016-2.455-.015-3.683-.884-.148-1.767-.3-2.659-.437,0,1.2-.125,2.4-.172,3.6C73.826,44.043,74.772,44.215,75.718,44.4Zm-.031-4.863c-.016-.469-.016-.938-.023-1.407l-.47-.071c-3.252-.508-6.9-.289-10.039-1.29-.015.477-.031.946-.062,1.423A100.12,100.12,0,0,1,75.687,39.532Zm-3.98,4.152c.055-1.2.18-2.385.165-3.581q-1.514-.224-3.026-.4c.109,1.188.094,2.385.195,3.573C69.933,43.4,70.816,43.535,71.707,43.684Zm-3.854-.571c-.094-1.181-.071-2.369-.2-3.55-.867-.086-1.743-.156-2.611-.211a14.173,14.173,0,0,0,.211,3.5C66.125,42.917,66.985,43,67.853,43.113Z"/><path d="M87.868,56.1a.56.56,0,0,1,.3.9v7.748h-.281a.589.589,0,0,1-.524.172c-7.506-1.126-15.105-3.167-22.65-3.753a.6.6,0,0,1-.555-.673c0-.007-.008-.015-.008-.023-.5-2.291-.18-4.613-.157-6.927a.547.547,0,0,1,.423-.54.486.486,0,0,1,.649-.289c2.142.774,4.261.461,6.466.782,1.477.227,2.955.477,4.433.657a.631.631,0,0,1,.688.078q.68.07,1.36.117A56.433,56.433,0,0,1,87.868,56.1Zm-.484,7.647V59.829a.535.535,0,0,1-.219.008c-.712-.094-1.416-.2-2.127-.321v3.667a.424.424,0,0,1-.047.172C85.789,63.488,86.586,63.621,87.384,63.746Zm0-5.051v-1.5c-3.527-.821-7.006-1.2-10.548-1.7.008.477.016.954.024,1.439C80.378,57.546,83.889,58.21,87.384,58.7Zm-3.91,4.386V59.266c-.868-.141-1.743-.289-2.619-.446-.031,1.251-.148,2.494-.117,3.745ZM79.69,58.617l-2.807-.493c.024,1.181.039,2.369.008,3.558a.736.736,0,0,1-.023.133c.9.172,1.8.344,2.7.524C79.557,61.1,79.674,59.86,79.69,58.617ZM75.718,61.6c.032-1.228.016-2.455-.015-3.683-.884-.148-1.767-.3-2.659-.438,0,1.2-.125,2.4-.172,3.6C73.826,61.244,74.772,61.416,75.718,61.6Zm-.031-4.863c-.016-.469-.016-.939-.023-1.408l-.47-.07c-3.252-.508-6.9-.289-10.039-1.29-.015.477-.031.946-.062,1.423A100.12,100.12,0,0,1,75.687,56.733Zm-3.98,4.151c.055-1.2.18-2.384.165-3.581q-1.514-.222-3.026-.4c.109,1.188.094,2.384.195,3.573C69.933,60.6,70.816,60.736,71.707,60.884Zm-3.854-.57c-.094-1.181-.071-2.369-.2-3.55-.867-.086-1.743-.156-2.611-.211a14.173,14.173,0,0,0,.211,3.5C66.125,60.118,66.985,60.2,67.853,60.314Z"/><path d="M87.868,72.518a.559.559,0,0,1,.3.9v7.749h-.281a.589.589,0,0,1-.524.172c-7.506-1.126-15.105-3.167-22.65-3.753a.605.605,0,0,1-.555-.673c0-.007-.008-.015-.008-.023-.5-2.291-.18-4.613-.157-6.927a.547.547,0,0,1,.423-.54.486.486,0,0,1,.649-.289c2.142.774,4.261.461,6.466.782,1.477.226,2.955.477,4.433.656a.631.631,0,0,1,.688.079q.68.07,1.36.117A56.34,56.34,0,0,1,87.868,72.518Zm-.484,7.647V76.248a.535.535,0,0,1-.219.008c-.712-.094-1.416-.2-2.127-.321V79.6a.429.429,0,0,1-.047.172C85.789,79.907,86.586,80.04,87.384,80.165Zm0-5.051v-1.5c-3.527-.821-7.006-1.2-10.548-1.7.008.477.016.954.024,1.439C80.378,73.965,83.889,74.629,87.384,75.114ZM83.474,79.5V75.685c-.868-.141-1.743-.289-2.619-.446-.031,1.251-.148,2.494-.117,3.745ZM79.69,75.036l-2.807-.493c.024,1.181.039,2.369.008,3.558a.751.751,0,0,1-.023.133c.9.172,1.8.344,2.7.524C79.557,77.514,79.674,76.279,79.69,75.036Zm-3.972,2.979c.032-1.228.016-2.455-.015-3.683-.884-.148-1.767-.3-2.659-.438,0,1.2-.125,2.4-.172,3.6C73.826,77.663,74.772,77.835,75.718,78.015Zm-.031-4.863c-.016-.469-.016-.939-.023-1.408l-.47-.07c-3.252-.508-6.9-.289-10.039-1.29-.015.477-.031.946-.062,1.423A100.12,100.12,0,0,1,75.687,73.152ZM71.707,77.3c.055-1.2.18-2.384.165-3.581q-1.514-.222-3.026-.4c.109,1.188.094,2.384.195,3.573C69.933,77.022,70.816,77.155,71.707,77.3Zm-3.854-.57c-.094-1.181-.071-2.37-.2-3.55-.867-.086-1.743-.156-2.611-.211a14.173,14.173,0,0,0,.211,3.5C66.125,76.537,66.985,76.623,67.853,76.733Z"/><path d="M57.931,63.769c.047,1.955-.117,3.91-.125,5.864a.555.555,0,0,1-.2.43.578.578,0,0,1-.454.29c-1.9.172-3.51-.634-5.332-1.009-1.884-.375-3.8-.414-5.668-.876a.512.512,0,0,1-.337-.242.52.52,0,0,1-.289-.485c-.008-1.822-.461-3.917.024-5.692,0-.015.015-.031.015-.047a.609.609,0,0,1,.547-.516,22.176,22.176,0,0,1,5.106.618c2.08.313,4.12.782,6.192,1.1a.105.105,0,0,1,.047.016A.546.546,0,0,1,57.931,63.769Zm-1.173,1.416c.008-.3.008-.6,0-.907-1.954-.313-3.885-.751-5.856-1.04a29.045,29.045,0,0,0-4.277-.6,6.316,6.316,0,0,0-.054,1.493c1.407.1,2.775.461,4.175.68,2.009.305,3.94.227,5.95.36C56.719,65.169,56.735,65.185,56.758,65.185Zm-.031,1.157H56.7c-.79-.055-1.58-.047-2.369-.047a13.991,13.991,0,0,1,.008,2.556,8.764,8.764,0,0,0,2.306.344C56.657,68.242,56.7,67.288,56.727,66.342Zm-3.534,2.181a12.845,12.845,0,0,0-.039-2.26,12.142,12.142,0,0,1-1.314-.117c-.539-.078-1.079-.18-1.626-.281.071.672.117,1.345.125,2.017a13.95,13.95,0,0,1,1.791.336C52.489,68.312,52.841,68.421,53.193,68.523Zm-4.034-.774a17.716,17.716,0,0,0-.125-2.119,23.139,23.139,0,0,0-2.393-.336c.031.7.039,1.4.047,2.095A21.822,21.822,0,0,0,49.159,67.749Z"/><path d="M57.149,48.914c.047,1.955-.117,3.909-.125,5.864a.555.555,0,0,1-.2.43.575.575,0,0,1-.454.289c-1.9.172-3.51-.633-5.332-1.008-1.884-.376-3.8-.415-5.668-.876a.51.51,0,0,1-.336-.242.52.52,0,0,1-.29-.485c-.008-1.822-.461-3.917.024-5.692,0-.016.015-.031.015-.047a.608.608,0,0,1,.548-.516,22.174,22.174,0,0,1,5.1.618c2.08.313,4.12.782,6.192,1.1a.105.105,0,0,1,.047.016A.545.545,0,0,1,57.149,48.914Zm-1.173,1.415c.008-.3.008-.6,0-.907-1.954-.312-3.885-.75-5.856-1.04a29.3,29.3,0,0,0-4.276-.6,6.378,6.378,0,0,0-.055,1.494c1.407.1,2.775.461,4.175.68,2.009.3,3.941.227,5.95.36C55.937,50.314,55.953,50.329,55.976,50.329Zm-.031,1.157h-.031c-.79-.054-1.579-.046-2.369-.046A13.991,13.991,0,0,1,53.553,54a8.812,8.812,0,0,0,2.306.344C55.875,53.386,55.914,52.432,55.945,51.486Zm-3.534,2.182a12.845,12.845,0,0,0-.039-2.26,12.1,12.1,0,0,1-1.313-.117c-.54-.078-1.079-.18-1.627-.281.071.672.118,1.344.125,2.017a13.95,13.95,0,0,1,1.791.336C51.708,53.457,52.059,53.566,52.411,53.668Zm-4.034-.774a17.511,17.511,0,0,0-.125-2.119,22.608,22.608,0,0,0-2.393-.336c.032.7.039,1.4.047,2.095A21.822,21.822,0,0,0,48.377,52.894Z"/><path d="M41.512,61.424c.047,1.954-.117,3.909-.125,5.864a.556.556,0,0,1-.2.43.577.577,0,0,1-.454.289c-1.9.172-3.51-.633-5.332-1.009-1.884-.375-3.8-.414-5.668-.875a.51.51,0,0,1-.337-.243A.519.519,0,0,1,29.1,65.4c-.008-1.822-.461-3.917.024-5.692,0-.016.015-.032.015-.047a.608.608,0,0,1,.548-.516,22.119,22.119,0,0,1,5.105.617c2.08.313,4.12.782,6.192,1.1a.105.105,0,0,1,.047.016A.545.545,0,0,1,41.512,61.424Zm-1.173,1.415c.008-.3.008-.6,0-.907-1.954-.313-3.885-.751-5.856-1.04a29.166,29.166,0,0,0-4.276-.6,6.371,6.371,0,0,0-.055,1.493c1.407.1,2.775.462,4.175.681,2.009.3,3.94.226,5.95.359C40.3,62.823,40.316,62.839,40.339,62.839ZM40.308,64h-.031c-.79-.055-1.58-.047-2.369-.047a14,14,0,0,1,.008,2.557,8.806,8.806,0,0,0,2.306.344C40.238,65.9,40.277,64.942,40.308,64Zm-3.534,2.181a12.835,12.835,0,0,0-.039-2.259,12.626,12.626,0,0,1-1.313-.117c-.54-.079-1.079-.18-1.627-.282.071.673.118,1.345.125,2.017a13.953,13.953,0,0,1,1.791.337C36.07,65.966,36.422,66.076,36.774,66.177ZM32.74,65.4a17.7,17.7,0,0,0-.125-2.118,22.875,22.875,0,0,0-2.393-.337c.031.7.039,1.4.047,2.1A21.82,21.82,0,0,0,32.74,65.4Z"/><path d="M40.73,46.569c.047,1.954-.117,3.909-.125,5.863a.557.557,0,0,1-.2.431.58.58,0,0,1-.454.289c-1.9.172-3.51-.634-5.332-1.009-1.884-.375-3.8-.414-5.668-.875a.511.511,0,0,1-.336-.243.519.519,0,0,1-.29-.485c-.008-1.821-.461-3.917.024-5.691,0-.016.015-.032.015-.047a.607.607,0,0,1,.548-.516,22.119,22.119,0,0,1,5.105.617c2.08.313,4.121.782,6.192,1.1a.1.1,0,0,1,.047.015A.546.546,0,0,1,40.73,46.569Zm-1.172,1.415c.007-.3.007-.6,0-.907-1.955-.313-3.886-.751-5.857-1.04a29.166,29.166,0,0,0-4.276-.6,6.369,6.369,0,0,0-.055,1.493c1.407.1,2.776.462,4.175.68,2.009.3,3.941.227,5.95.36C39.518,47.968,39.534,47.984,39.558,47.984Zm-.032,1.157h-.031c-.79-.055-1.579-.047-2.369-.047a14,14,0,0,1,.008,2.557A8.812,8.812,0,0,0,39.44,52C39.456,51.041,39.495,50.087,39.526,49.141Zm-3.534,2.181a12.832,12.832,0,0,0-.039-2.259,12.384,12.384,0,0,1-1.313-.118c-.54-.078-1.079-.179-1.627-.281.071.672.118,1.345.126,2.017a13.9,13.9,0,0,1,1.79.336C35.289,51.111,35.64,51.221,35.992,51.322Zm-4.034-.774a17.523,17.523,0,0,0-.125-2.119,23.139,23.139,0,0,0-2.393-.336c.032.7.039,1.4.047,2.1A22.048,22.048,0,0,0,31.958,50.548Z"/><path d="M23.53,59.078c.046,1.955-.118,3.91-.126,5.864a.551.551,0,0,1-.2.43.573.573,0,0,1-.453.289c-1.9.172-3.511-.633-5.333-1.008-1.884-.375-3.8-.415-5.668-.876a.51.51,0,0,1-.336-.242.522.522,0,0,1-.29-.485c-.007-1.822-.461-3.917.024-5.692,0-.015.016-.031.016-.047a.608.608,0,0,1,.547-.516,22.168,22.168,0,0,1,5.1.618c2.08.313,4.121.782,6.193,1.1a.114.114,0,0,1,.047.016A.546.546,0,0,1,23.53,59.078Zm-1.173,1.415c.008-.3.008-.6,0-.907-1.955-.312-3.886-.75-5.856-1.039a29.064,29.064,0,0,0-4.277-.6,6.369,6.369,0,0,0-.055,1.493c1.408.1,2.776.461,4.175.68,2.01.3,3.941.227,5.95.36C22.318,60.478,22.333,60.493,22.357,60.493Zm-.032,1.158h-.031c-.789-.055-1.579-.047-2.369-.047a13.991,13.991,0,0,1,.008,2.556,8.777,8.777,0,0,0,2.306.344C22.255,63.55,22.294,62.6,22.325,61.651Zm-3.534,2.181a12.749,12.749,0,0,0-.039-2.26,12.146,12.146,0,0,1-1.313-.117c-.54-.078-1.079-.18-1.626-.281.07.672.117,1.344.125,2.017a13.9,13.9,0,0,1,1.79.336C18.088,63.621,18.44,63.73,18.791,63.832Zm-4.034-.774a17.511,17.511,0,0,0-.125-2.119A22.852,22.852,0,0,0,12.24,60.6c.031.7.039,1.4.046,2.095A21.855,21.855,0,0,0,14.757,63.058Z"/><path d="M22.748,44.223c.047,1.955-.118,3.909-.125,5.864a.554.554,0,0,1-.2.43.575.575,0,0,1-.453.289c-1.9.172-3.511-.633-5.332-1.008-1.885-.376-3.8-.415-5.669-.876a.51.51,0,0,1-.336-.242.521.521,0,0,1-.289-.485c-.008-1.822-.462-3.917.023-5.692,0-.016.016-.031.016-.047a.607.607,0,0,1,.547-.516,22.074,22.074,0,0,1,5.106.618c2.079.312,4.12.782,6.192,1.1a.114.114,0,0,1,.047.016A.546.546,0,0,1,22.748,44.223Zm-1.173,1.415c.008-.3.008-.6,0-.907-1.955-.313-3.886-.75-5.856-1.04a29.334,29.334,0,0,0-4.277-.6,6.378,6.378,0,0,0-.055,1.494c1.408.1,2.776.461,4.175.68,2.01.3,3.941.227,5.95.36C21.536,45.623,21.551,45.638,21.575,45.638ZM21.544,46.8h-.032c-.789-.054-1.579-.047-2.369-.047a13.914,13.914,0,0,1,.008,2.557,8.82,8.82,0,0,0,2.307.344C21.473,48.7,21.512,47.741,21.544,46.8ZM18.01,48.977a12.942,12.942,0,0,0-.039-2.26,12.669,12.669,0,0,1-1.314-.117c-.539-.078-1.079-.18-1.626-.282.07.673.117,1.345.125,2.018a13.734,13.734,0,0,1,1.79.336C17.306,48.766,17.658,48.875,18.01,48.977ZM13.975,48.2a17.511,17.511,0,0,0-.125-2.119,22.59,22.59,0,0,0-2.392-.336c.031.7.039,1.4.047,2.1A21.8,21.8,0,0,0,13.975,48.2Z"/></g></svg>