<svg xmlns="http://www.w3.org/2000/svg" viewBox="0 0 128 160" x="0px" y="0px"><g><path d="M99.391,82.181c-.047.048-.094.095-.141.135,2.895,2.828,6.013,5.313,7.366,9.32a1.365,1.365,0,0,1,.048.262c.188.061.377.121.565.2,1.818-.586,2.882-2.5,4.4-3.63a.918.918,0,0,1,.822-.438c1.077.014,2.141.128,3.212.223,2.451-5.414,7.124-10.532,6.255-16.788a1.109,1.109,0,0,1-.006-.141,1.089,1.089,0,0,1-.115-.377c-.2-1.8-.64-3.563-.673-5.387a1.054,1.054,0,0,1,.06-.371c-.363-6.188-.08-12.5-1.151-18.619-.633-3.636-1.63-8.383-3.8-11.952a15.887,15.887,0,0,1,.391,1.946,27.463,27.463,0,0,1-.054,6.619,36.215,36.215,0,0,1-1.2,5.838,19.861,19.861,0,0,1-.976,2.653,14.844,14.844,0,0,1-1.475,2.3c-1.057,1.374-2.175,2.492-3.145,3.563a17.414,17.414,0,0,0-2.4,3.178c-.3.545-.593,1.077-.875,1.589-.256.539-.465,1.071-.694,1.583-.451,1.01-.788,2.026-1.151,2.929-.384.929-.681,1.757-1.071,2.559a6.687,6.687,0,0,1-.613,1.117,8.049,8.049,0,0,1-.68.93c-.9,1.111-1.677,1.858-2.135,2.545a11.822,11.822,0,0,0-.646,1.051c-.081.188-.168.37-.263.545a1.676,1.676,0,0,1-.242.4,5.492,5.492,0,0,1-.775.97A7.749,7.749,0,0,1,95.351,78.7a12.875,12.875,0,0,1-1.387.438,13.08,13.08,0,0,1-1.3.2,22.9,22.9,0,0,0-3.212.417c-.041.041-.088.068-.128.108-.142.135-.283.276-.424.417s-.256.3-.384.458l-.236.344c-.114.155-.215.377-.323.565-.222.283-.438.539-.667.815l-.04.054-.061-.04-.121-.081-.249-.155c-.162-.1-.33-.209-.478-.323a3.094,3.094,0,0,1-.855-.849,5.027,5.027,0,0,1-.3-.579,2.822,2.822,0,0,1-.128-.572,3.278,3.278,0,0,1,.04-1,5.752,5.752,0,0,1,.754-1.811,10.977,10.977,0,0,1-1.562,1.232,11.765,11.765,0,0,1-2.135,1.132c-.707.276-1.387.444-1.993.619-.633.1-1.205.182-1.7.243a7.757,7.757,0,0,1-1.246.006c-.687-.033-1.071-.114-1.084-.249s.336-.3,1-.491c.317-.108.748-.182,1.185-.33s.93-.324,1.475-.492c2.566-.8,5.057-2.929,6.976-4.768,3.394-3.245,2.209-6.605,2.189-10.686a8.9,8.9,0,0,1,1.091-4.357,12.677,12.677,0,0,1,2.976-3.488,43.148,43.148,0,0,1,4.747-3.367.215.215,0,0,1-.013-.067,3.422,3.422,0,0,1,.343-1.8c.047-.108.115-.222.169-.337a32.786,32.786,0,0,1-7.5,6.04c-.485.418-.99.856-1.515,1.307q-.484.4-.99.828c-.357.249-.72.5-1.091.761a24.1,24.1,0,0,1-4.457,2.35,39.539,39.539,0,0,1-3.819,1.333c-2.168.647-3.562.983-3.663.728s1.1-1.017,3.172-2a68.918,68.918,0,0,0,6.761-3.414,14.525,14.525,0,0,1-1.96.141.937.937,0,0,1-.135-.013c-3.016,1.063-6.922,1.441-9.683-.539-2.693-1.94-3.676-4.822-3.656-8.034-.027-.033-.054-.067-.081-.107a15.443,15.443,0,0,1-1.535-3.563c-.021.155-.048.3-.068.458-.283,2.095-.444,4.094-.518,5.913-.014.9-.041,1.771,0,2.572.007.815.074,1.562.121,2.249.215,2.714.586,4.478.29,4.545-.223.048-1.044-1.488-1.644-4.35a21.293,21.293,0,0,1-.363-2.33c-.115-.841-.148-1.744-.182-2.7a42.263,42.263,0,0,1,.384-6.155c.323-2.3.761-4.43,1.219-6.343a30.229,30.229,0,0,1,1.185-7.616c-2.424.236-4.471,1.933-6.485,3.206a.923.923,0,0,1-.741.127c-3.279.889-6.343,2.364-9.589,3.334-.033.033-.067.067-.107.1s-.068.047-.1.067c2.794,1.246,3.5,6.357,3.831,8.916.97,7.474-1.663,14.531-3.353,21.716.431-.5.882-1.03,1.32-1.549a23.825,23.825,0,0,0,2.929-4.733,35.745,35.745,0,0,0,2.815-9.832c.4-2.626.511-4.316.8-4.316.242-.014.613,1.656.559,4.431A26.621,26.621,0,0,1,57.978,63.98a21.1,21.1,0,0,1-3.313,5.05c-.653.7-1.226,1.293-1.812,1.852s-1.131,1.05-1.575,1.515a10.167,10.167,0,0,0-1.024,1.2,10.1,10.1,0,0,1,8.882-1.785c.916.31,1.28.633,2.222.5.822-.108,1.691-.384,2.526-.519.74-.121,1.427-.357,2.087-.525.646-.222,1.259-.4,1.811-.613,2.2-.8,3.61-1.367,3.738-1.111.114.222-1.024,1.192-3.185,2.357-.532.31-1.159.565-1.819.868a17.291,17.291,0,0,1-2.228.748,8.124,8.124,0,0,1-1.26.276,9.869,9.869,0,0,1-1.353.162c-2.02-.027-4.061-.586-6.047-.532A9.2,9.2,0,0,0,50.6,75.07a5.941,5.941,0,0,0-1.165,1.064,3.514,3.514,0,0,0,.344,1.2c.013.027.013.054.027.081.067-.034.121-.074.188-.108.014,0,.021-.007.034-.013a.928.928,0,0,1,.646-.2c1.751.053,2.479,1.42,2.647,2.936,2.8.148,5.636-.317,8.4.134,3.252.525,5.986,2.115,8.882,3.576,4.727.007,9.481.155,14.181-.3,4.283-.411,8.33-2.162,12.6-2.3a.438.438,0,0,1,.135.007.276.276,0,0,1,.074-.014,7.144,7.144,0,0,1,1.555-1.2c.007-.007.021-.007.027-.014a.965.965,0,0,1,.647-.282c.5-.91,1.01-1.906,1.6-2.822.289-.478.585-.963.882-1.454.276-.479.559-.957.841-1.442.431-.76.782-1.616,1.165-2.39.169-.391.324-.781.485-1.158.169-.411.344-.8.519-1.172.7-1.515,1.326-2.889,1.8-4.134l.013-.061a6.118,6.118,0,0,0,.148-1.468,3.8,3.8,0,0,1,.229-.97,4.414,4.414,0,0,1,.391-.774,7.361,7.361,0,0,1,1.946-1.865,14.029,14.029,0,0,1,1.38-.849c.33-.182.539-.249.593-.188s-.041.255-.276.558-.626.7-1.105,1.186a8.446,8.446,0,0,0-1.414,1.825,3.416,3.416,0,0,0-.215.592,2.727,2.727,0,0,0-.067.586c0,.222.026.465.033.788a3.177,3.177,0,0,1-.134,1.145,39.2,39.2,0,0,1-1.63,4.363c-.162.384-.323.768-.465,1.152-.161.41-.323.821-.491,1.239-.377.794-.7,1.609-1.158,2.437-.317.539-.633,1.071-.943,1.589a.033.033,0,0,1-.014.027c.054-.013.1-.033.155-.047.2-.054.377-.087.539-.121s.283-.054.417-.088c.707-.316,1.347-.592,1.9-.848,1.771-.768,2.7-1.387,2.849-1.232.114.114-.4.794-1.529,1.636a7.218,7.218,0,0,0,.721-.148c1.71-.451,2.585-1.374,2.828-1.152.1.088-.02.391-.364.883a5.2,5.2,0,0,1-2.006,1.555,17.864,17.864,0,0,1-3.428.943c-.289.054-.626.161-.956.249-.148.04-.3.081-.465.128-.141.04-.289.094-.444.148-.034.013-.068.034-.1.047a12.84,12.84,0,0,0-2,1.5l.06.04a3.865,3.865,0,0,0,.687.263,14.13,14.13,0,0,0,1.529.357c1.01.188,1.939.309,2.72.417,1.563.216,2.472.323,2.519.539.054.249-.943.586-2.552.7a18.861,18.861,0,0,1-2.9-.007,11.4,11.4,0,0,1-1.784-.262c-.175-.041-.364-.094-.552-.155a.823.823,0,0,1-.216.007,13.418,13.418,0,0,0-1.353-.081c-.014.007-.02.02-.034.027-.148.094-.3.188-.451.289-.094.061-.182.122-.263.182a.318.318,0,0,0-.047.034C99.4,82.175,99.4,82.181,99.391,82.181Zm24.477-11.252c1,7.2-3.979,12.3-6.565,18.545a1.042,1.042,0,0,1-.465.532.86.86,0,0,1-.761.3c-1.07-.08-2.134-.2-3.212-.235-1.946,1.286-2.976,3.535-5.441,4.074a.989.989,0,0,1-.666-.081.085.085,0,0,1-.041-.007,4.417,4.417,0,0,0-1-.3.959.959,0,0,1-.478-.135c-2.707,1.239-5.731,1.394-8.694,1.489-4.229.128-8.444.68-12.679.639-5.212-.047-10.418-.5-15.636-.545-3.7-.027-7.495.209-11.219.054,2.391,2.06,4.869,4.04,7.286,5.973,3.01,2.41,7.589,3.818,8.868,7.777a.87.87,0,0,1-.4,1.078,5.345,5.345,0,0,1-.161,2.6.969.969,0,0,1-.95.707,1.2,1.2,0,0,1-.209.114c-2.047.849-4.033.654-6.168,1.118-2.539.552-5.084,1.078-7.636,1.556-4.653.875-9.326,1.67-13.993,2.485a115.252,115.252,0,0,1-13.138,1.757c-4.417.263-8.552,2.007-12.976,2.094a.905.905,0,0,1-.963-.808,1.033,1.033,0,0,1-.161-.539,6.1,6.1,0,0,0-.458-2.127h-.552a.962.962,0,0,1-.963-.849,1.185,1.185,0,0,1-.121-.229,205.422,205.422,0,0,0-10.115-23c-.006-.013-.013-.033-.02-.054a1.08,1.08,0,0,1,.781-1.69c4.222-.33,8.438-.64,12.673-.667a9.067,9.067,0,0,1,2.027-2.08,26.2,26.2,0,0,1,1.724-9.077,1,1,0,0,1,.471-.566c-1.07-1.7-5.7-7.623-3.919-9.421,2.027-2.04,4.054.047,4.983,1.913.371.74.755,1.488,1.159,2.249a1.255,1.255,0,0,1-.007-.162.93.93,0,0,1,.135-.532,1.021,1.021,0,0,1,.168-.4,14.756,14.756,0,0,0,1.663-3.2,1.165,1.165,0,0,1,.209-.35.841.841,0,0,1,.667-.526A2.536,2.536,0,0,0,29.245,68.4c.013-.061.033-.108.047-.162-.02-2.471-.216-5.138,1-7.393a36.8,36.8,0,0,1,5.361-7.455,1.14,1.14,0,0,1,.1-.087c.027-.027.04-.054.067-.081a20.582,20.582,0,0,0,3.212-4.175,1.422,1.422,0,0,1,.148-.189.851.851,0,0,1,.189-.484c1.488-1.96,3.144-3.8,4.457-5.893.034-.047.068-.08.1-.121a.924.924,0,0,1,.31-.586,73.048,73.048,0,0,1,6.35-4.787.848.848,0,0,1,.1-.061,1.11,1.11,0,0,1,.4-.209c3.28-.969,6.371-2.471,9.677-3.367a1.042,1.042,0,0,1,.424-.027c2.472-1.575,4.936-3.467,7.993-3.407.3-.828.62-1.623.963-2.384a1.128,1.128,0,0,1-.074-.309A4.3,4.3,0,0,1,71.3,23.86c.128-4.734,2.411-10.182,7.32-11.5C81.412,5.975,89.182,2.8,95.263,6.83a1,1,0,0,1,.216.188,5.4,5.4,0,0,1,3.373.93,1.153,1.153,0,0,1,.229.222.57.57,0,0,1,.162-.02c9.67-.074,16.094,11.743,14.39,20.9,4.747,2.915,6.882,9.568,7.932,14.754,1.462,7.2,1.192,14.545,1.664,21.844a.859.859,0,0,1-.061.424c.094,1.542.431,3.051.613,4.579A.827.827,0,0,1,123.868,70.929ZM114.6,42.95a25.8,25.8,0,0,0,.033-6.121,11.287,11.287,0,0,0-.808-3,6,6,0,0,0-.794-1.239,4.83,4.83,0,0,0-.384-.364,12.084,12.084,0,0,1-1.28,2.2A17.24,17.24,0,0,1,113.2,42.4a18.5,18.5,0,0,1-1.851,7.461,28.63,28.63,0,0,1-3.758,5.751c-1.36,1.649-2.653,3.144-3.764,4.626a22.582,22.582,0,0,0-1.475,2.215,9.32,9.32,0,0,0-.606,1.1l-.491,1.1a12.781,12.781,0,0,0-.856,4.4c-.074,1.159-.094,2.3-.235,3.421.363-.525.794-1.091,1.232-1.73a7.143,7.143,0,0,0,.552-.876,6.338,6.338,0,0,0,.471-1.01c.3-.714.573-1.616.9-2.518.323-.936.613-1.946,1.05-3.031.216-.538.418-1.111.667-1.683.289-.566.593-1.145.9-1.751a18.479,18.479,0,0,1,2.518-3.515c.983-1.131,2.054-2.249,2.99-3.508a13.258,13.258,0,0,0,1.239-1.987,18,18,0,0,0,.848-2.39A35.167,35.167,0,0,0,114.6,42.95Zm-2.66-16.127c-.074.087-.148.168-.216.242a9.777,9.777,0,0,1-2.02,1.65,14.948,14.948,0,0,1-3.266,1.562c-1.737.566-2.484.438-2.484.317-.014-.155.632-.283,2.222-.984a20.138,20.138,0,0,0,3.016-1.67,9.988,9.988,0,0,0,1.792-1.535,3.944,3.944,0,0,0,.922-1.6c-.565-7.144-5.744-14.686-12.666-14.632h-.027a40.791,40.791,0,0,1-.9,4.107,5.532,5.532,0,0,0,1.6-.444c.236-.108.4-.189.519-.242a.3.3,0,0,1,.269,0c.054.047.067.128.02.262a1.243,1.243,0,0,1-.4.566,3.9,3.9,0,0,1-2.3.889c-.215.713-.451,1.414-.714,2.114a7.2,7.2,0,0,0,3.118-.889c.4-.2.842-.363,1.044-.437s.309-.088.35-.034-.02.162-.148.337a3.84,3.84,0,0,1-.781.74,6.524,6.524,0,0,1-1.832.93,8.175,8.175,0,0,1-2.155.377c-.262.66-.552,1.313-.862,1.952.492.081.95.189,1.381.29.754.182,1.414.37,2.006.5a7.99,7.99,0,0,0,2.788.256,4.884,4.884,0,0,0,1.414-.39c.29-.128.445-.162.492-.108s-.027.188-.269.438a3.264,3.264,0,0,1-1.509.767,7.322,7.322,0,0,1-3.1-.047c-.626-.114-1.307-.283-2.047-.451-.519-.114-1.064-.229-1.637-.3-.181.343-.356.687-.552,1.024a8.33,8.33,0,0,1-.815,1.164,19.788,19.788,0,0,1,5.388.344,13.882,13.882,0,0,1,2.3.646c.647.229,1.206.431,1.691.579,1.932.62,2.693.3,2.74.5.021.067-.155.161-.626.3a5.8,5.8,0,0,1-2.3-.108c-.519-.114-1.111-.276-1.771-.478A14.81,14.81,0,0,0,99.4,24.8a21.257,21.257,0,0,0-6.269-.148q-.353.333-.727.646a11.685,11.685,0,0,1,1.569.074,16.605,16.605,0,0,1,3.091.714c1.784.586,3.1,1.124,4.134,1.468,2.054.693,2.882.8,2.869.969-.007.108-.9.25-3.071-.282-1.084-.263-2.457-.741-4.208-1.26A12.289,12.289,0,0,0,91,26.459c-.377.3-.741.613-1.1.936a16.464,16.464,0,0,1,4.512,1.219,23.7,23.7,0,0,1,3.34,1.73c1.6.99,2.114,1.489,2.047,1.6-.074.135-.734-.155-2.391-.969-.828-.411-1.912-.936-3.34-1.5a17.3,17.3,0,0,0-5.1-1.152,7.883,7.883,0,0,0-1.158,1.61c5.1.8,9.683,2.033,11.676,7.434,2.438.7,3.63,2.592,4.2,4.875,2.5-.923,3.361-3,3.307-5.7,0-.04.006-.074.006-.108a15.116,15.116,0,0,1-2.8.2,9.367,9.367,0,0,1-3.1-.525,4.186,4.186,0,0,1-1.475-.855c-.242-.263-.31-.4-.263-.458.122-.141.532.29,1.946.626a11.244,11.244,0,0,0,2.889.276,16.033,16.033,0,0,0,3.509-.451,9.533,9.533,0,0,0,3.488-4.585l-.081.1a10.484,10.484,0,0,1-2.3,1.818,9.25,9.25,0,0,1-3.926,1.279,5.785,5.785,0,0,1-2.195-.2c-.438-.148-.606-.249-.586-.316s.222-.095.653-.068a9.867,9.867,0,0,0,2.04-.128,9.584,9.584,0,0,0,3.529-1.367,9.812,9.812,0,0,0,2.054-1.7,8.363,8.363,0,0,0,1.468-2.2C111.9,27.536,111.923,27.179,111.943,26.823Zm-.761,15.528a15.222,15.222,0,0,0-1.286-6.3c-.283.263-.579.5-.889.741a9.64,9.64,0,0,1-.552,3.34c.094.276.188.565.276.835.1.5.182,1,.262,1.474.007.492.027.97.014,1.441-.074.458-.128.916-.222,1.354a10.633,10.633,0,0,1-2.189,4.2,20.519,20.519,0,0,1-2.613,2.666c-.821.728-1.575,1.307-2.222,1.8-2.633,1.946-3.663,2.613-3.75,2.512s.8-1,3.3-3.071c.62-.525,1.333-1.124,2.108-1.858a21.947,21.947,0,0,0,2.444-2.626A9.95,9.95,0,0,0,107.822,45a7.709,7.709,0,0,0-.014-3.549,6.476,6.476,0,0,1-1.138,1.34,8.088,8.088,0,0,1-.04,2.7,7.189,7.189,0,0,1-1.111,2.68,14.659,14.659,0,0,1-3.744,3.67c-2.68,1.919-5.367,3.346-7.475,5.144a10.765,10.765,0,0,0-2.545,2.93,6.9,6.9,0,0,0-.869,3.407,20.687,20.687,0,0,0,.465,3.643,14.526,14.526,0,0,1,.262,3.865l-.033.478c-.02.169-.061.33-.088.5l-.1.491c-.04.162-.108.323-.161.478s-.108.323-.175.472l-.229.444a5.79,5.79,0,0,1-.519.808c-.741.99-1.522,1.758-2.2,2.519a5.708,5.708,0,0,0-1.32,2.242,1.934,1.934,0,0,0-.034.465.939.939,0,0,0,.041.195.354.354,0,0,0,.168.161l.061-.1.188-.262.5-.559c.175-.168.35-.337.525-.5a20.436,20.436,0,0,1,2.107-1.569,7.606,7.606,0,0,0,2.876-2.943,6.359,6.359,0,0,0,.323-.862c.067-.3.155-.6.209-.9a12.277,12.277,0,0,0,.148-1.75,29.766,29.766,0,0,0-.209-3.212,19.643,19.643,0,0,1-.094-2.761,7.95,7.95,0,0,1,.458-2.2,6.741,6.741,0,0,1,1.461-2.383c.424-.425.64-.586.694-.539s-.068.3-.371.781a8.617,8.617,0,0,0-1.03,2.377,7.523,7.523,0,0,0-.242,1.987,19.7,19.7,0,0,0,.249,2.6,29.92,29.92,0,0,1,.377,3.326,9.874,9.874,0,0,1-.667,4.115,6.6,6.6,0,0,1-1.367,2.027,11.567,11.567,0,0,1-1.145,1.016A6.3,6.3,0,0,0,94.98,75.7a8.434,8.434,0,0,0,1.374-4.2c.148-1.381.168-2.64.242-3.765a23.249,23.249,0,0,1,.351-2.956,9.187,9.187,0,0,1,1.319-3.427c.431-.627.707-.829.755-.8.067.054-.1.33-.411.99a11.5,11.5,0,0,0-.956,3.347,27.049,27.049,0,0,0-.216,2.882c-.04,1.111-.027,2.37-.155,3.811a9.188,9.188,0,0,1-1.508,4.694,6.4,6.4,0,0,1-1.508,1.468c.2-.081.4-.162.6-.25A6.444,6.444,0,0,0,97.2,75.946a5.257,5.257,0,0,0,1.287-2.889,35,35,0,0,0,.229-4.087,14.356,14.356,0,0,1,.868-4.95c.169-.411.35-.828.526-1.259a13.276,13.276,0,0,1,.653-1.226,26.913,26.913,0,0,1,1.548-2.41c2.276-3.158,5.347-6.074,7.233-10.108A16.62,16.62,0,0,0,111.182,42.351Zm-7.36,4.713a5.264,5.264,0,0,0,.922-3.077,7.63,7.63,0,0,1-.848.3.843.843,0,0,1-.121.148l-.175.175A5.5,5.5,0,0,1,102.744,47a12.549,12.549,0,0,1-1.454,1.8,27.154,27.154,0,0,0-1.953,2.155c-.067.087-.121.168-.182.249.485-.323.963-.646,1.435-.99A12.725,12.725,0,0,0,103.822,47.064Zm.68,44.673c-1.407-3.616-4.6-5.9-7.273-8.579-4.188.182-8.195,1.973-12.437,2.3-4.714.364-9.441.31-14.168.3a1.288,1.288,0,0,1-.242-.027,1.037,1.037,0,0,1-.519-.108c-3.037-1.521-6.047-3.5-9.555-3.569-1.906-.04-3.8.088-5.69.054-.155.02-.31.047-.478.068-.223.054-.452.107-.687.168-.142.047-.283.094-.418.141l-.215.074-.041.014-.074.04a5.908,5.908,0,0,0-.7.4,8.1,8.1,0,0,0-1.36,1.07,3.248,3.248,0,0,0-.465.566c-.108.168-.1.31-.114.263,0-.027-.047-.081-.054-.061l.1.182.027.027c.02.013.027.047.054.067a1.409,1.409,0,0,0,.484.229,5.141,5.141,0,0,0,1.394.182c.478.007.943-.007,1.374-.027.862-.034,1.589-.074,2.108-.034.538.034.8.155.815.283s-.263.269-.7.458a14.312,14.312,0,0,1-2.027.646,11.3,11.3,0,0,1-1.495.27,5.91,5.91,0,0,1-1.9-.047,3.181,3.181,0,0,1-1.152-.479,3.045,3.045,0,0,1-.283-.242l-.134-.135-.027-.033-.021-.02-.006-.007-.074-.108-.034-.047-.121-.2a2.1,2.1,0,0,1-.182-.512A2.347,2.347,0,0,1,48.5,83.71a4.471,4.471,0,0,1,.768-.99,8.422,8.422,0,0,1,1.751-1.326c.135-.081.276-.155.417-.229-.006-.034-.02-.068-.027-.1a1.19,1.19,0,0,1-.06-.357,3.312,3.312,0,0,0-.182-1.266.434.434,0,0,0-.3-.3c-3.374,1.791-4.855,6.04-3.98,9.669.95-.1,1.9-.168,2.855-.188a.908.908,0,0,1,.909.606c1.239,1.327,2.559,2.606,3.919,3.858a1.07,1.07,0,0,1,.142-.006c4.444.431,9.043.054,13.515.1,4.356.054,8.693.336,13.043.491,4.491.155,8.9-.37,13.38-.525C97.95,93.03,101.478,93.178,104.5,91.737Zm-2.613-48.275c-.316-2.067-1.138-3.778-3.367-4.263a.856.856,0,0,1-.72-.8,1.178,1.178,0,0,1-.209-.35c-1.845-5.192-6.875-5.67-11.636-6.364a.79.79,0,0,1-.727-.888.918.918,0,0,1-.095-.27c-.612-3.448-4.605-6.363-8.053-4.781a1.03,1.03,0,0,1-.7.067c-.969,1.8-3.01,2.182-4.686,3.192a30.652,30.652,0,0,0-1.6,4.876c-.061.471-.141.983-.229,1.542-.114.74-.262,1.569-.417,2.444a17.3,17.3,0,0,0,1.9,10.323.9.9,0,0,1,.4.815c-.088,2.835.653,5.926,3.515,7.171a9.881,9.881,0,0,0,7.326-.181.884.884,0,0,1,.559-.027c.013,0,.027-.007.047-.007a14.412,14.412,0,0,0,8.054-2.633c.417-.31.821-.6,1.2-.862a51.854,51.854,0,0,0,6.862-6.646.777.777,0,0,1,.081-.074.738.738,0,0,1,.141-.149A27.044,27.044,0,0,0,101.889,43.462ZM96.6,12.783c.283-1.112.519-2.243.7-3.4a3.992,3.992,0,0,0-2.1-.337.833.833,0,0,1-.842-.411.9.9,0,0,1-.115-.06,9.258,9.258,0,0,0-12.424,2.249,7.69,7.69,0,0,0,.553,2.922,9.416,9.416,0,0,0,1.34,2.324c.222.256.377.505.552.68s.3.323.39.444c.2.243.263.384.223.438s-.189.027-.472-.135c-.141-.074-.316-.188-.532-.33a8.428,8.428,0,0,1-.7-.626A7.975,7.975,0,0,1,81.513,14.1a7.506,7.506,0,0,1-.586-1.946c-.081.155-.148.324-.222.478a6.237,6.237,0,0,0,.222,2,13.146,13.146,0,0,0,1.124,2.748c.721,1.333,1.044,1.838.916,1.932-.094.081-.613-.262-1.528-1.562a10.362,10.362,0,0,1-1.408-2.869c-.06-.181-.108-.37-.155-.572a14.313,14.313,0,0,0,.047,2.189,6.748,6.748,0,0,0,.674,2.356,8.33,8.33,0,0,0,.727,1.112c.175.222.229.356.189.417s-.182.027-.451-.121a3.486,3.486,0,0,1-1.071-1.037,6.039,6.039,0,0,1-.99-2.6,11.789,11.789,0,0,1-.121-2.25c-.222.075-.438.169-.647.263-.047.088-.1.182-.148.276a7.361,7.361,0,0,0-.592,1.865A8.534,8.534,0,0,0,77.4,19.6c.189,1.408.566,1.859.411,1.966-.061.041-.188-.04-.424-.309a4.037,4.037,0,0,1-.694-1.522,7.779,7.779,0,0,1-.121-3.1,7.234,7.234,0,0,1,.242-1.112A10.688,10.688,0,0,0,73.425,22.5l.182-.06a1,1,0,0,1,.5-.02,1.138,1.138,0,0,1,.815.282,8.734,8.734,0,0,0,1.717,1.078,8.194,8.194,0,0,1,9.872,4.4,7.349,7.349,0,0,1,.518-.674c-.451-.888-.828-1.663-1.131-2.309-.39-.754-.7-1.334-.909-1.8-.431-.916-.518-1.32-.4-1.394s.417.2,1.01,1.03c.3.424.673.977,1.118,1.717.3.566.653,1.219,1.05,1.987.269-.256.546-.5.828-.741a5.674,5.674,0,0,0-.552-3.6,8.007,8.007,0,0,0-1.515-2.006c-.451-.472-.808-.748-1.017-.956s-.283-.337-.249-.4.175-.047.458.061a5,5,0,0,1,1.279.747,7.1,7.1,0,0,1,1.866,2.108,6.138,6.138,0,0,1,.815,3.172c.377-.3.754-.606,1.117-.916a9.8,9.8,0,0,0-2.437-5.785,21.935,21.935,0,0,1-3.051-3.737,3.765,3.765,0,0,1-.5-2.626c.128-.545.3-.734.344-.714.08.027.047.263.047.754a4.021,4.021,0,0,0,.727,2.223A11.267,11.267,0,0,0,87.2,15.873c.525.566,1.172,1.172,1.872,1.94a11.525,11.525,0,0,1,1.912,2.9,9.36,9.36,0,0,1,.775,2.626,8.963,8.963,0,0,0,1.326-1.677,17.749,17.749,0,0,0-.067-1.865,12.64,12.64,0,0,0-.222-1.333,9.641,9.641,0,0,0-.371-1.111,22.575,22.575,0,0,0-1.784-3.145c-1.01-1.582-1.212-2.3-1.1-2.357.141-.067.545.5,1.69,1.96a16.369,16.369,0,0,1,2.054,3.192,9.533,9.533,0,0,1,.444,1.239A10.145,10.145,0,0,1,94,19.691c.007.054.014.115.02.176.31-.647.593-1.3.869-1.953a13.343,13.343,0,0,0-.424-3.334,8.56,8.56,0,0,0-.283-.882c-.047-.141-.094-.276-.135-.4-.06-.128-.121-.249-.175-.363-.114-.236-.215-.458-.31-.667s-.222-.384-.323-.559c-.377-.7-.714-1.145-.889-1.461s-.229-.478-.175-.525.2.033.478.276a7.131,7.131,0,0,1,1.186,1.32c.128.175.269.35.4.558s.249.445.39.687c.068.122.135.249.209.384s.115.283.175.431a8.822,8.822,0,0,1,.35.95,9.6,9.6,0,0,1,.337,1.468c.162-.465.317-.93.458-1.4-.162-.478-.31-.916-.431-1.3-.236-.619-.431-1.1-.545-1.481-.25-.761-.263-1.1-.142-1.158s.364.155.788.855a15.764,15.764,0,0,1,.768,1.441C96.6,12.762,96.6,12.769,96.6,12.783ZM74.59,24.93c-.222-.148-.444-.3-.653-.464a2.783,2.783,0,0,0-1.818,2.087c.242-.108.478-.215.72-.33C73.432,25.934,74.294,25.577,74.59,24.93ZM70.8,111.6a3.377,3.377,0,0,0,.047-.977c-2.229.4-4.37,1.563-6.592,2.02a61.854,61.854,0,0,1-6.3,1c-5.091.525-10.377.364-15.42,1.259-4.553.808-8.9,2.485-13.475,3.219a75.709,75.709,0,0,1-10.963.916,7.729,7.729,0,0,1,.3,1.414c4.087-.269,8.02-1.744,12.127-2.047,5.105-.384,10.115-1.253,15.145-2.128,4.673-.808,9.346-1.6,13.993-2.532C63.123,113.043,67.533,112.908,70.8,111.6Zm-.007-2.983c-1.023-1.724-3.03-2.559-4.713-3.6a39.947,39.947,0,0,1-4.916-3.784c-4.013-3.448-8.3-6.7-11.926-10.566-3.205.121-6.37.781-9.568.876v.006c.687,2.088.761,5.064-.748,6.849a3.38,3.38,0,0,1-1.03,4.148,1.5,1.5,0,0,1,.121.155,1.609,1.609,0,0,1,.269,1.07l-.02.175v.014l-.013.067-.014.047-.027.081-.06.162a1.928,1.928,0,0,1-.357.5,3.274,3.274,0,0,1-.828.613,8.6,8.6,0,0,1-1.812.686,5.914,5.914,0,0,1-2.067.149,1.728,1.728,0,0,1-.653.868,3.112,3.112,0,0,1-.95.438,9.326,9.326,0,0,1-1.777.289,13.453,13.453,0,0,0-1.63.223,6.774,6.774,0,0,1-2.027.114,2.8,2.8,0,0,1-.579-.135,5.509,5.509,0,0,1-.593-.262c-.033-.02-.06-.041-.087-.061a1.184,1.184,0,0,1-.29.074,5.885,5.885,0,0,1-4.754-1.979.563.563,0,0,1-.06-.075.882.882,0,0,1-.546-.464,10.491,10.491,0,0,1-1.367-4.687,1.015,1.015,0,0,1-.209-.256,7.842,7.842,0,0,1-.484-5.764c-3.509.04-7.017.269-10.519.532a216.259,216.259,0,0,1,9.556,21.9A61.1,61.1,0,0,0,30.847,115.7c4.169-.99,8.29-2.545,12.572-2.956,4.835-.458,9.711-.559,14.532-1.131a42.867,42.867,0,0,0,8.141-1.522A36.156,36.156,0,0,1,70.792,108.612ZM49.783,70c1.38-6.276,4.209-12.882,3.818-19.394-.1-1.636-.7-10.518-3.5-10.087a1.053,1.053,0,0,1-.673-.114,7.484,7.484,0,0,0-1.5,1.367,18.784,18.784,0,0,0-2.5,3.8,15.122,15.122,0,0,0-1.037,2.438,14.9,14.9,0,0,0-.566,2.781,36.405,36.405,0,0,0-.02,5.677c.108,1.777.216,3.414.222,4.794a18.993,18.993,0,0,1-.222,3.3c-.161.747-.323,1.158-.451,1.158s-.229-.438-.3-1.2c-.1-.748-.2-1.819-.384-3.159s-.424-2.929-.633-4.74a28.608,28.608,0,0,1-.128-6.034,15.57,15.57,0,0,1,.633-3c-.478.6-.963,1.2-1.427,1.818a1.025,1.025,0,0,1-.189.189.934.934,0,0,1-.148.484,22.807,22.807,0,0,1-3.522,4.579.919.919,0,0,1-.1.081c-.027.027-.04.061-.067.088a35.813,35.813,0,0,0-3.791,4.761.369.369,0,0,1-.027.087c-.128.465-.33.956-.438,1.488-.061.263-.135.539-.2.822-.034.276-.074.566-.115.862a4.917,4.917,0,0,0-.033.9c0,.155,0,.31-.007.465.013.148.047.29.067.438l.061.444a1.9,1.9,0,0,0,.087.478c.1.357.209.714.317,1.078l.027.1c.007,0,.027.054.027.054l.1.215a2.445,2.445,0,0,0,.222.424,8.833,8.833,0,0,0,.519.822c.383.525.808,1.023,1.232,1.515a16.225,16.225,0,0,1,2.155,2.889,4.926,4.926,0,0,1,.653,2.5c-.047.593-.2.875-.317.889-.141.02-.249-.317-.431-.815a7.008,7.008,0,0,0-1.05-1.832,27.967,27.967,0,0,0-2.317-2.417,10.9,10.9,0,0,1-2.525-3.441c.007.29.007.586.007.875a.92.92,0,0,1-.114.485v.034a3.935,3.935,0,0,1-1.287,2.229,7.013,7.013,0,0,1,1.96.606c1.879.9,3.434,2.256,3.636,4.377a36.75,36.75,0,0,0-4.464-2.633,3.859,3.859,0,0,0-2.755-.586.543.543,0,0,1-.114.034.708.708,0,0,0-.094.067c-.074.014-.148.128-.229.2a11.075,11.075,0,0,1-.876,1.071,1.732,1.732,0,0,1-.229.2c-.2.337-.4.667-.619,1l-.027.027a7.224,7.224,0,0,0,.364,2.08c7.171-.458,13.09,4.115,12.848,11.636,3.064-.761,3.272-4.114,3.286-6.76a1.018,1.018,0,0,1,.094-.445.912.912,0,0,1,.485-.767c1.616-.923,1.576-2.916,1.859-4.566a.8.8,0,0,1,.3-.916,13.9,13.9,0,0,0,4.431-5.474A1.219,1.219,0,0,1,49.783,70Zm-1.616,8.559a1.51,1.51,0,0,1-.135-.2,6.252,6.252,0,0,1-.539-1.771c-.155.141-.309.269-.471.4v.027c-.431,2.188-.519,4.383-2.411,5.73-.033,2.323-.384,4.808-1.737,6.525.667-.074,1.333-.155,2-.236A11.078,11.078,0,0,1,48.167,78.559ZM37.554,96.807a5.459,5.459,0,0,0,.061-4.929c-.505-.8-3.421-2.64-4.377-2.249a.63.63,0,0,0-.222.141c-.566.539-.048,1.98.155,2.606.053.155.141.3.215.465s.141.317.222.471.189.29.283.438a7.765,7.765,0,0,0,.734.97,3.832,3.832,0,0,0,.835.687A17.317,17.317,0,0,1,37.554,96.807ZM37.285,89c.074-6.37-4.875-9.784-10.929-9.367a50.964,50.964,0,0,0,5.818,8.047.007.007,0,0,1,.007-.007.8.8,0,0,1,.889-.134C34.383,88.04,35.965,88.35,37.285,89Zm-.862,12.1c.835-.243.619-1.872.33-2.371a7.949,7.949,0,0,0-2.31-1.858,5.091,5.091,0,0,1-1.171-1.125,7.834,7.834,0,0,1-.728-1.124c-.794-1.657-1.5-3.906-3.138-4.95-1.777-1.138-4.33.357-6.04,1.058-.788.316-4.155,1.784-4.034,2.922a1.067,1.067,0,0,1-.033.4c-.492,1.724-.923,3.623.013,5.279a1.153,1.153,0,0,1,.135.445.957.957,0,0,1,.337.741,8.167,8.167,0,0,0,1.05,3.663,1,1,0,0,1,.337.222,5.112,5.112,0,0,0,1.7,1.172c-.162-.27-.317-.532-.451-.775-.748-1.447-1-2.41-.782-2.545.236-.148.923.6,1.913,1.778a15.171,15.171,0,0,0,1.784,1.851l.128.108.014.014.054.033c.114.068.229.135.343.209.088.02.121.007.175.034.034.027.168.013.243.033a6.2,6.2,0,0,0,1.454-.141,12.334,12.334,0,0,1,1.838-.209,10.805,10.805,0,0,0,1.462-.121,2.266,2.266,0,0,0,.33-.088c-.25-.107-.492-.228-.721-.35-.619-.343-1.225-.673-1.811-1s-1.165-.653-1.7-1a13.359,13.359,0,0,1-2.694-2.128,5.188,5.188,0,0,1-1.265-2.047,1.539,1.539,0,0,1-.081-.646c.013-.155.047-.243.107-.263s.149.02.256.128.229.3.4.451a8.848,8.848,0,0,0,1.5,1.36,20.238,20.238,0,0,0,2.667,1.6c1.044.552,2.31,1.145,3.535,1.832.869.464,4.539,1.825,5.071.06.222-.734-3.569-1.9-4.384-2.35a26.587,26.587,0,0,1-2.343-1.374,18.069,18.069,0,0,1-1.852-1.5C25.959,96.545,25,95.07,25.171,94.9c.2-.2,1.542.956,3.744,2.579.559.4,1.171.814,1.852,1.205s1.42.707,2.3,1.138a21.22,21.22,0,0,0,2.511,1.158,3,3,0,0,0,.559.128A.382.382,0,0,0,36.423,101.1Zm-5.2-11.057a7.39,7.39,0,0,1,.223-1.078,50.269,50.269,0,0,1-5.556-7.831c-1-1.623-2.06-3.219-3.017-4.869-.047-.08-.161-.323-.336-.646-.539.323-1.071.673-1.63.976,2.135,3.764,4.768,7.253,6.586,11.2C29.137,87.663,30.268,88.787,31.224,90.04ZM25.885,87.7c-.842-1.71-1.819-3.34-2.822-4.956a25.11,25.11,0,0,0-1.347,6.539C23.023,88.666,24.437,88.215,25.885,87.7ZM20.228,75.353c.552-.3,1.084-.653,1.623-.976C21.285,73.434,20.06,71,18.9,72.518A30.711,30.711,0,0,0,20.228,75.353Z"/><path d="M84.974,44.849c.027.081-.344.222-.956.505a2.991,2.991,0,0,0-.95.647,11.955,11.955,0,0,0-.909,1.306c-.161.256-.337.518-.478.794-.081.142-.128.277-.195.418a1.787,1.787,0,0,0-.1.411,1.476,1.476,0,0,0,.2.821,4.452,4.452,0,0,1,.235.62,1.417,1.417,0,0,1,.068.424v.256a1.034,1.034,0,0,1-.034.155l-.027.148-.034.1v.007l-.006.013-.014.02-.027.047-.054.1a1.178,1.178,0,0,1-.262.357,1.311,1.311,0,0,1-.364.283,1.415,1.415,0,0,1-.411.175,4.1,4.1,0,0,1-1.5.061c-.855-.108-1.764-.067-2.775-.222a5.877,5.877,0,0,1-.767-.175,2.467,2.467,0,0,1-.4-.155,1.985,1.985,0,0,1-.431-.276l-.068-.061-.027-.027-.067-.067-.128-.175A3.762,3.762,0,0,1,74.254,51,3.315,3.315,0,0,1,74,50.216a4.287,4.287,0,0,1,.478-2.842,12.045,12.045,0,0,1,1.5-1.905c.485-.539.922-1.037,1.279-1.516A8.253,8.253,0,0,0,78.1,42.62a2.86,2.86,0,0,0,.269-1.1,1.747,1.747,0,0,0-.034-.4,1.025,1.025,0,0,0-.087-.316c-.068-.175-.081-.276-.047-.3s.114.041.242.182a.8.8,0,0,1,.2.29,1.457,1.457,0,0,1,.169.491,2.819,2.819,0,0,1-.115,1.367,7.36,7.36,0,0,1-.781,1.569c-.343.539-.761,1.091-1.212,1.664a12.411,12.411,0,0,0-1.3,1.791,3.334,3.334,0,0,0-.309,2.121,1.907,1.907,0,0,0,.161.492,2.112,2.112,0,0,0,.142.2l.06.1.034.027.06.054a.643.643,0,0,0,.162.087,1.044,1.044,0,0,0,.249.094,3.732,3.732,0,0,0,.6.135c.855.135,1.8.115,2.707.243a3.5,3.5,0,0,0,1.1,0,.831.831,0,0,0,.182-.068.738.738,0,0,0,.236-.236l.027-.033.013-.02.02-.074a1.354,1.354,0,0,0,.027-.149.114.114,0,0,1-.013-.047.532.532,0,0,0-.027-.168,3.351,3.351,0,0,0-.162-.485,4.227,4.227,0,0,1-.2-.619,1.6,1.6,0,0,1-.047-.371.88.88,0,0,1,.007-.229l.026-.134a2.828,2.828,0,0,1,.2-.62,4.9,4.9,0,0,1,.269-.5,14.939,14.939,0,0,1,1.724-2.142,3.081,3.081,0,0,1,1.226-.585C84.57,44.768,84.954,44.782,84.974,44.849Z"/><path d="M81.957,72.007c.175.168-.512,1.239-2.128,2.451-.2.148-.417.3-.64.464-.235.135-.478.283-.733.438a17,17,0,0,1-1.677.855A19.573,19.573,0,0,1,68.355,77.8a15.823,15.823,0,0,1-1.872-.182c-.29-.047-.573-.088-.842-.135-.269-.067-.525-.128-.768-.188-1.979-.532-2.963-1.239-2.888-1.468.08-.276,1.306-.014,3.124.121.229.02.471.034.727.054l.788.02c.539.04,1.125-.007,1.731,0a30.736,30.736,0,0,0,3.939-.445,31.059,31.059,0,0,0,3.832-1.016c.565-.223,1.124-.4,1.609-.633.249-.108.492-.209.727-.31s.445-.216.653-.323C80.772,72.471,81.762,71.8,81.957,72.007Z"/></g></svg>