<svg xmlns="http://www.w3.org/2000/svg" viewBox="0 0 128 160" x="0px" y="0px"><g><path d="M9.552,37.455a.728.728,0,0,1,0,.165c11.7-.386,23.372-1.485,35.055-2.142-.05-.146-.107-.285-.158-.424q-6.748.456-13.484.885c-7.1.461-14.292.638-21.382,1.371C9.571,37.361,9.558,37.418,9.552,37.455Zm110.279-7.784a.93.93,0,0,1,.019.834v.057c-1,6.23-3.672,12.113-3.918,18.463a.954.954,0,0,1-.246.613,1.036,1.036,0,0,1-.19.221c-2.009,1.712-3.955,3.5-6.116,5.023.613,1.232,1.194,2.483,1.7,3.766a.8.8,0,0,1,.032.575,1.288,1.288,0,0,1,.006.152c-.429,5.061-.771,10.223-2.565,15.019a.972.972,0,0,1-.392.493,1.075,1.075,0,0,1-.278.316c-2.963,2.2-6.54,3.361-9.478,5.605a.743.743,0,0,1-.8.113,44.269,44.269,0,0,1-6.755-1.655c-.095,1.965-.474,4.012-.644,5.876q-.693,7.743-1.46,15.481c-.733,7.532-.872,15.48-2.382,22.905a.587.587,0,0,1-.847.417,2.067,2.067,0,0,1-1.58-.329A.587.587,0,0,1,83.4,123c.43-14.861,3.811-29.622,4.379-44.477-.189-.038-.379-.082-.568-.113-4.133-.658-8.3-1.024-12.41-1.789-.626,1.037-1.213,2.1-1.89,3.1a.641.641,0,0,1-.492.29,45.324,45.324,0,0,0-2.679,5.82q-2.655,5.876-5.3,11.772c-2.547,5.686-4.98,11.449-7.646,17.079a.561.561,0,0,1-.272.271.762.762,0,0,1-.41.165,3.1,3.1,0,0,1-2.016-.569.779.779,0,0,1-.31-.461.6.6,0,0,1-.038-.708c3.2-5.251,5.314-11.506,7.854-17.092,2.6-5.718,5.6-11.582,7.848-17.351a.674.674,0,0,1-.17-.922.707.707,0,0,1,.056-.127c.588-1,1.188-2.009,1.706-3.052-4.669,3.04-11.063.285-14.829-3.039-4.209-3.709-7.608-8.985-7.26-14.792,0-.019.006-.038.006-.057A28.252,28.252,0,0,0,45,53.637a.821.821,0,0,1-.461-.777c-1.144.4-2.212.973-3.355,1.365a.622.622,0,0,1-.43-.006C35,56.531,29.3,58.977,23.623,61.466c-4.631,2.029-9.6,3.355-14.034,5.8a.63.63,0,0,1-.606.019.842.842,0,0,1-.461-.31,2.7,2.7,0,0,1-.462-1.6.6.6,0,0,1,.323-.549.566.566,0,0,1,.322-.392C18.8,59.5,28.988,54.68,39.6,50.971a.593.593,0,0,1,.278-.278,28.164,28.164,0,0,1,4.859-2.022c.3-2.831.847-5.643,1.055-8.492a.973.973,0,0,1,.234-.569c-.284-.954-.607-1.895-.941-2.837-11.69.645-23.367,1.75-35.069,2.155a.582.582,0,0,1-.36.1,1.386,1.386,0,0,1-1.377-.948,2.171,2.171,0,0,1,.075-1.27.714.714,0,0,1,.632-.765c7.279-.789,14.672-.96,21.976-1.434q6.483-.417,12.966-.847c-.2-.492-.4-.985-.613-1.478a.948.948,0,0,1-.075-.5.882.882,0,0,1-.019-.468c.821-4.1,3.14-7.791,3.519-11.993a1.015,1.015,0,0,1,.164-.461.775.775,0,0,1,.462-.91c3.74-1.775,7.759-2.951,11.3-5.131a.926.926,0,0,1,.348-.132.936.936,0,0,1,.764.05c3.033,1.542,6.344,1.927,9.6,2.7a1.3,1.3,0,0,1,.19-.17A34.073,34.073,0,0,0,76.276,8.7.815.815,0,0,1,76.9,8.15c4.878-1.214,9.674-2.736,14.533-4.032a.114.114,0,0,0,.044-.006.858.858,0,0,1,.7-.069c3.6,1.029,7.058,2.489,10.742,3.235a1.117,1.117,0,0,1,.29.113,1.03,1.03,0,0,1,.367.209c3.627,3.235,7.791,5.813,10.653,9.832v.006a1.049,1.049,0,0,1,.253.379A115.2,115.2,0,0,0,119.831,29.671Zm-1.839.55c-.139-.272-.272-.544-.411-.815a11.788,11.788,0,0,0-.884.966c.3.7.587,1.39.865,2.079C117.727,31.712,117.866,30.973,117.992,30.221Zm-1.049,4.795c.082-.309.158-.625.24-.935-.922-2.306-2.129-4.53-3.1-6.811-.917-2.167-1.744-4.448-2.875-6.515-2.111-3.841-6.06-5.756-9.447-8.3-.2.126-.4.24-.6.354a38.807,38.807,0,0,1,11.525,13.231C114.435,28.818,115.572,32.04,116.943,35.016Zm-.663-5.6a8.927,8.927,0,0,1,.865-.9c-1.447-2.92-2.8-5.877-3.987-8.91a10.326,10.326,0,0,0-.922,1.1h-.007C113.588,23.561,114.991,26.474,116.28,29.412Zm.17,7.456c.044-.146.082-.291.12-.442-.815-1.662-1.523-3.432-2.287-5.188a1.93,1.93,0,0,1-1.182.809,1.337,1.337,0,0,1-1.409-.664,1.981,1.981,0,0,1-.025-1.769,2.516,2.516,0,0,1,1.156-1.15c-.3-.67-.632-1.333-.979-1.978a15.588,15.588,0,0,0-2.174-2.729c-.3.29-.6.581-.91.859.575,1.232,1,2.521,1.523,3.779a.369.369,0,0,1-.158.486.431.431,0,0,1-.126.234c-3.128,3.165-6.812,5.712-9.984,8.833.879,1.927,1.871,3.791,2.92,5.63,2.925-2.7,6.122-5.055,9.282-7.462a.4.4,0,0,1,.638.215.6.6,0,0,1,.114.107c.543.733,1.03,1.5,1.56,2.243A20.69,20.69,0,0,0,116.45,36.868Zm-.493,1.807a12.348,12.348,0,0,1-1.156.992.364.364,0,0,1-.259.082c-.133,1.017-.265,2.028-.4,3.039a.5.5,0,0,1-.2.342.525.525,0,0,1-.145.17c-2.591,1.965-4.682,4.474-7.185,6.54.285.487.569.973.841,1.46,2.54-1.719,4.612-3.994,6.957-5.94A65.925,65.925,0,0,1,115.957,38.675Zm-1.895,9.92c.038-.613.088-1.226.158-1.826a64.353,64.353,0,0,1-6.294,5.358c.2.354.392.7.582,1.062C110.466,51.786,112.236,50.156,114.062,48.6Zm-.234-18.381c-.152-.328-.3-.651-.455-.966a1.691,1.691,0,0,0-.866.8.972.972,0,0,0-.094.455.935.935,0,0,0,.082.372c.088.158.082.165.215.228.012.006.012.013.012.013a.118.118,0,0,1,.038.006.166.166,0,0,0,.057.006h.057c.019,0,.05-.006.057-.006a1.144,1.144,0,0,0,.448-.291A3.548,3.548,0,0,0,113.828,30.214Zm-.607,12.353q.228-1.725.462-3.45c-.455-.632-.885-1.282-1.34-1.921-3.046,2.326-6.116,4.613-8.922,7.223.891,1.535,1.814,3.064,2.717,4.593C108.59,46.959,110.681,44.513,113.221,42.567Zm-.448-23.935c-.007-.019-.019-.044-.026-.069a1.222,1.222,0,0,1-.164-.177c-.189-.266-.4-.518-.606-.771-.342.3-.7.588-1.062.872a9.769,9.769,0,0,1,.847,1.3A14.614,14.614,0,0,1,112.773,18.632Zm-2.458-.872c.366-.284.72-.575,1.068-.878a56.438,56.438,0,0,0-7.248-6.338,18.309,18.309,0,0,1-1.561,1.34C105.115,13.729,108.179,15.378,110.315,17.76Zm-1.093,41.615a.334.334,0,0,1,.012-.076c-.025,0-.038.006-.063.006a28.161,28.161,0,0,0-3.083-.341c-.1,4.2-.1,8.4-1.106,12.5a.448.448,0,0,1,.069.082A23.906,23.906,0,0,1,107,73.08C108.489,68.669,108.83,63.994,109.222,59.375Zm.082-30.9c-.278-.689-.537-1.39-.809-2.079-3.425,3.3-7.02,6.653-11.317,8.77a20.3,20.3,0,0,0,1.934,1.668.79.79,0,0,1,.107.095.687.687,0,0,1,.323.164C102.657,34.062,106.239,31.566,109.3,28.477Zm-1.959-3.867q.815-.7,1.58-1.454c-1.713-1.162-3.337-2.432-4.941-3.74a2.128,2.128,0,0,1-1.327.834,1.878,1.878,0,0,1-1.536-.43,1.478,1.478,0,0,1-.486-1.4,1.9,1.9,0,0,1,.789-1.125c-.511-.423-1.029-.853-1.541-1.27-4.025,3.273-8.057,6.533-11.949,9.964.727.556,1.447,1.125,2.142,1.719a33.212,33.212,0,0,1,3.317,3.362,95.274,95.274,0,0,1,10.5-8.385.375.375,0,0,1,.512.019.369.369,0,0,1,.076.031A29.169,29.169,0,0,0,107.345,24.61Zm.758.846c-.025-.063-.057-.12-.082-.183-.063.051-.12.108-.177.158a.488.488,0,0,1-.284.108.451.451,0,0,1-.449.018,23.6,23.6,0,0,1-2.951-1.889,89.69,89.69,0,0,0-10.135,8.113c.8.91,1.593,1.814,2.433,2.679C100.913,32.325,104.584,28.856,108.1,25.456ZM105.879,58.01a22.234,22.234,0,0,1,3.027.3c-2.869-6.78-7.444-12.656-10.5-19.347a17.6,17.6,0,0,1-2.034.752C99.82,45.537,103.6,51.622,105.879,58.01Zm.594,15.86c-.594-.48-1.163-.992-1.788-1.435-2.565,1.662-5.251,3.128-7.728,4.916.31.5.651.986.973,1.479C100.622,76.915,103.762,75.759,106.473,73.87Zm-2.23-2.566A94.17,94.17,0,0,0,105.26,59.04a37.089,37.089,0,0,0-9.889,3.045c.013,3.425.19,6.844.272,10.268,2.875.082,5.44-.707,8.6-1.042ZM103.4,9.938c-.329-.272-.651-.55-.973-.828h-.013c-.177-.038-.354-.082-.531-.12a21.159,21.159,0,0,0-2.009,2.041,7.927,7.927,0,0,1,.777.986A13.986,13.986,0,0,0,103.4,9.938Zm-.133,8.884c-.366-.3-.726-.594-1.08-.9a1.171,1.171,0,0,0-.638.751.582.582,0,0,0,.24.468A1.077,1.077,0,0,0,103.263,18.822Zm5.946,3.387a38.589,38.589,0,0,0-8.265-8.373c-.385.354-.752.721-1.106,1.1.013.012.026.019.038.031a.441.441,0,0,1,.329.108C103.175,17.5,106.056,20.035,109.209,22.209Zm-4.3,35.915c-2.268-6.281-6.021-12.3-9.414-18.021-2.7,2.338-5.845,4.038-8.726,6.123,2.622,5.029,5.383,9.977,8.214,14.886a.723.723,0,0,1,.069.064A37.939,37.939,0,0,1,104.912,58.124ZM99.042,14.4c.379-.417.784-.815,1.195-1.2-1.27-2.432-4.7-4.954-7.065-2.679.291.12.575.24.866.367a.513.513,0,0,1,.335.549,10.822,10.822,0,0,0,.935,1,.461.461,0,0,1,.07-.051.491.491,0,0,1,.246-.1.5.5,0,0,1,.246-.094,2.543,2.543,0,0,1,2.654,1.845C98.7,14.159,98.872,14.279,99.042,14.4Zm.152-4.025a17.64,17.64,0,0,1,1.573-1.649c-2.331-.607-4.6-1.422-6.893-2.174a17.051,17.051,0,0,0-1.668,1.365c.72.259,1.44.518,2.161.771a.413.413,0,0,1,.113.069A5.772,5.772,0,0,1,99.194,10.374Zm-2.3,6.868c.708-.575,1.409-1.15,2.117-1.719-.316-.221-.632-.436-.948-.657-.664.544-1.3,1.119-1.927,1.7C96.4,16.787,96.654,17.008,96.894,17.242Zm-.518,59.364c2.11-1.536,4.379-2.825,6.59-4.2a40.087,40.087,0,0,1-7.544.9,1.705,1.705,0,0,1-.146.171c-1.206,1.188-2.514,2.268-3.81,3.361,1.536-.025,3.071-.069,4.6-.189A.469.469,0,0,1,96.376,76.606Zm.474,2.306c-.3-.43-.582-.866-.847-1.314-1.3.094-2.6.145-3.911.17A40.059,40.059,0,0,0,96.85,78.912Zm.682-64.835a1.6,1.6,0,0,0-1.592-.936c-.809.626-1.611,1.251-2.414,1.877a.452.452,0,0,1-.057.095.426.426,0,0,1-.208.114c-1.782,1.377-3.577,2.729-5.428,4.006a2.183,2.183,0,0,1,.739.454,2.127,2.127,0,0,1,.759,1.694.382.382,0,0,0-.013.088C92.294,19.3,94.657,16.4,97.532,14.077ZM95.656,38.915a9.764,9.764,0,0,0,2.161-.72c-3.147-2.477-5.27-5.889-8.3-8.48-3.2-2.736-6.793-4.979-9.876-7.86a12.518,12.518,0,0,1-1.068,1.883c2.2,3.247,5.845,5.143,8.9,7.481C90.455,33.494,92.648,36.716,95.656,38.915Zm.492-21.066c-.227-.221-.461-.424-.7-.626a41.533,41.533,0,0,1-7.007,5.965c.2.2.391.4.587.6C91.372,21.773,93.754,19.8,96.148,17.849Zm-3.045-3.7c.486-.372.973-.752,1.453-1.124a11.006,11.006,0,0,1-.866-.942c-.581.386-1.156.79-1.725,1.2C92.351,13.565,92.73,13.855,93.1,14.152Zm.55,58.239c-.038-1.731-.095-3.462-.139-5.2a16.874,16.874,0,0,1-1.757,1.024,45.01,45.01,0,0,1-.2,6.059C92.275,73.668,92.976,73.042,93.653,72.391Zm-.165-6.274c-.025-1.1-.044-2.205-.057-3.305-1.668.973-3.184,2.2-4.9,3.1.095.436.2.878.31,1.32a.271.271,0,0,1,.095-.05,4.513,4.513,0,0,1,2.173.082.746.746,0,0,1,.215.107A23.039,23.039,0,0,0,93.488,66.117Zm-.537-54.675c-.568-.234-1.137-.474-1.706-.708a3.172,3.172,0,0,1-3.008,1.188,1.168,1.168,0,0,1-.928-1.017,2.148,2.148,0,0,1,.568-1.435,32.186,32.186,0,0,0-3.538-.992,25.853,25.853,0,0,1-2.54,1.915,6.338,6.338,0,0,1,2.357.657.329.329,0,0,1,.088.069.454.454,0,0,1,.019.8c-2.913,1.51-4.783,4.366-7.247,6.464a27.143,27.143,0,0,0,2.755,1.055.917.917,0,0,1,.581.5.816.816,0,0,1,.076.063c.29.285.594.563.9.834A140.49,140.49,0,0,1,92.951,11.442ZM92.774,6.2c-.278-.089-.556-.171-.84-.253-1,.265-2.009.549-3.014.834.777.253,1.542.518,2.313.79a.459.459,0,0,1,.088-.139A14.922,14.922,0,0,1,92.774,6.2Zm-.5,3.867a4.275,4.275,0,0,1,.922-.8c-1.971-.707-3.943-1.421-5.952-2.015-.587.17-1.175.335-1.756.5a49.543,49.543,0,0,1,6.754,2.363C92.25,10.108,92.256,10.089,92.269,10.071Zm.954,51.768c-.885-1.523-1.75-3.058-2.616-4.587a7.53,7.53,0,0,1-.809.5c.164.265.329.531.48.8a.505.505,0,0,1,.057.24.482.482,0,0,1-.177.569c-.884.645-1.769,1.283-2.641,1.953.266,1.213.531,2.426.8,3.633C90.013,64.013,91.529,62.787,93.223,61.839Zm-.885-47.093c-.335-.265-.676-.524-1.023-.771a.4.4,0,0,1-.114-.126c-2.546,1.915-4.948,4-7.361,6.079a6.883,6.883,0,0,1,.714.316A90.584,90.584,0,0,0,92.338,14.746ZM86.43,45.31c2.774-1.991,5.788-3.627,8.379-5.864-3.494-2.654-6.136-6.306-9.794-8.859-2.509-1.75-5.131-3.475-6.957-5.952a49.523,49.523,0,0,1-5.3,9.566A145.024,145.024,0,0,0,86.241,45.126,1,1,0,0,1,86.43,45.31Zm4.019,24.3c-.006-.379-.006-.765-.013-1.144a2.918,2.918,0,0,0-.739-.05c-.069.335-.133.676-.189,1.011C89.823,69.478,90.133,69.541,90.449,69.611Zm-.31-13.193c-.259-.468-.518-.929-.777-1.4a7.984,7.984,0,0,0-.878.777c.272.38.543.765.8,1.15A5.273,5.273,0,0,0,90.139,56.418Zm-.12,19.164a26.326,26.326,0,0,0,.424-4.613c-.379-.088-.759-.164-1.138-.233-.227,1.7-.36,3.412-.48,5.13a1.177,1.177,0,0,0,.708.007.6.6,0,0,1,.151-.007C89.792,75.772,89.906,75.677,90.019,75.582Zm.291-65.221c-.493-.2-.986-.379-1.485-.562-.278.328-1.005,1.219-.17,1.232A2.469,2.469,0,0,0,90.31,10.361Zm-.79,68.545c-.139-.038-.284-.07-.43-.108-.593,14.622-3.873,29.148-4.347,43.769a.733.733,0,0,0,.43.089c1.434-7.361,1.58-15.228,2.306-22.671q.748-7.668,1.441-15.336C89.084,82.823,89.463,80.82,89.52,78.906ZM88.9,54.187c-.07-.126-.133-.253-.209-.379-.366.246-.733.506-1.093.771.114.152.221.3.329.449A9.27,9.27,0,0,1,88.9,54.187ZM87.163,25.412c.379-.335.765-.67,1.144-1a13.2,13.2,0,0,0-5.2-3.76.345.345,0,0,1-.07-.038c-.328.285-.663.569-1,.847C83.682,22.866,85.432,24.117,87.163,25.412Zm.133,34.9c.67-.512,1.346-1.011,2.028-1.5a34.99,34.99,0,0,0-2.35-3.475c-.733.531-1.529.979-2.25,1.535l-.006.007a5.774,5.774,0,0,1,.019,2.375c.79-.031,1.813-.031,1.813-.031a.44.44,0,0,1,.392.208.414.414,0,0,1,.221.3Zm.619,10.862c.108-.847.234-1.687.392-2.528a52.409,52.409,0,0,1-12.024,1.769C76.447,73.516,85.843,71.254,87.915,71.172Zm-.253-48.73c.689-.524,1.068-1.522.209-2.11a1.325,1.325,0,0,0-2.041.644A16.207,16.207,0,0,1,87.662,22.442Zm-.176,53.589c.094-1.3.189-2.61.322-3.905-.676.044-1.814.24-3.134.448a38.443,38.443,0,0,1,2.363,3.589C87.189,76.125,87.34,76.081,87.486,76.031ZM86.525,54.2q.843-.636,1.706-1.226-1.716-3.136-3.368-6.312a1.072,1.072,0,0,1-.088-.259c-2.534-1.782-4.973-3.7-7.349-5.674a3.714,3.714,0,0,1-.581.745,47.439,47.439,0,0,1,4.638,5.605.44.44,0,0,1,.076.265.43.43,0,0,1,.05.234C83.416,49.657,84.9,51.976,86.525,54.2Zm1.466,13.547c-.436-1.8-.821-3.614-1.219-5.421-.285.056-.575.12-.86.189,0,.006.007.013.007.019v5.725C86.614,68.107,87.3,67.937,87.991,67.747ZM86.569,61.4c-.088-.411-.183-.828-.278-1.238-.543,0-1.207.006-1.826.044a5.2,5.2,0,0,1-1.472,2.129,7.223,7.223,0,0,1-1.182.809c.032.341.051.676.07,1.017a.517.517,0,0,1,.019.24c.076,1.517.095,3.033.259,4.544.834-.121,1.668-.253,2.5-.411v-6a.437.437,0,0,1,.082-.24.459.459,0,0,1,.316-.531A11.59,11.59,0,0,1,86.569,61.4Zm-2.154-5.466c.486-.347.992-.657,1.491-.992-1.656-2.23-3.134-4.587-4.96-6.691a8.853,8.853,0,0,1-2.13,1.137c.127,1.239.411,2.458.506,3.709a5.213,5.213,0,0,1,4.524,1.871A4.788,4.788,0,0,1,84.415,55.937Zm1.579,20.372a16.484,16.484,0,0,0-2.483-3.564,24.481,24.481,0,0,1-4.4.3,27.156,27.156,0,0,1-2.717,1.94C79.581,75.519,82.8,75.829,85.994,76.309Zm-3.355-14.95c1.371-1.561,1.87-4.322.322-5.99-1.642-1.763-4.694-1.687-6.64-.436-2.534,1.63-2.882,4.284-.967,6.584A4.964,4.964,0,0,0,82.639,61.359Zm.329-49.778a7.625,7.625,0,0,0-2.6-.285c-2.123,1.94-4.4,3.7-6.482,5.687.726.322,1.447.651,2.167.979C78.532,16.029,80.32,13.28,82.968,11.581ZM81.217,69.074c-.151-1.4-.176-2.818-.24-4.227a72.068,72.068,0,0,1-7.222,1.27,11.7,11.7,0,0,1,.108,3.412A63.206,63.206,0,0,0,81.217,69.074Zm-.334-5.169c-.019-.107-.038-.208-.057-.309a5.671,5.671,0,0,1-6.142-1.409,5.435,5.435,0,0,1-1.062-5.776.325.325,0,0,1-.17-.094A6.989,6.989,0,0,1,69.926,58.2a18.315,18.315,0,0,1,3.64,7.026.459.459,0,0,1,.189-.057C76.163,64.935,78.513,64.373,80.883,63.905ZM80.1,10.311a20.127,20.127,0,0,0,2.673-1.776C81.1,9,79.429,9.464,77.749,9.887c-.007,0-.007,0-.007.007a41.035,41.035,0,0,1-6.1,6.2c.436.152.86.316,1.283.487,2.186-2.13,4.625-3.975,6.868-6.035a.544.544,0,0,1,.146-.088A.412.412,0,0,1,80.1,10.311Zm-4.353,38.84a9.528,9.528,0,0,0,4.8-1.769,46.479,46.479,0,0,0-4.195-5.055c-.872.386-1.769.7-2.616,1.131-.013.013-.032.006-.044.013a6.532,6.532,0,0,1-.36.954A7.922,7.922,0,0,1,75.746,49.151Zm1.9-25.742a12.267,12.267,0,0,0,1.277-2.256C75.392,19.978,72.283,18,68.587,17.211a50.03,50.03,0,0,1-8.208-2.136,5.619,5.619,0,0,1,1.453,2.742C66.754,20.635,72.447,21.292,77.647,23.409Zm.733,29.805c-.069-1.188-.328-2.35-.473-3.532a14.832,14.832,0,0,1-2.086.411,8.6,8.6,0,0,1-1.485,5.175l.032.031a5.481,5.481,0,0,1,1.131-.966A7.98,7.98,0,0,1,78.38,53.214ZM77.768,72.89a4.06,4.06,0,0,1-1.473-.549,10.448,10.448,0,0,1-2,1.4,6.456,6.456,0,0,1,.626.746.809.809,0,0,1,.3.044A16.419,16.419,0,0,0,77.768,72.89ZM75.651,41.209a2.978,2.978,0,0,0,1.042-1.093c-1.244-1.056-2.483-2.117-3.7-3.2a3.808,3.808,0,0,1-1.637,1.826A29.784,29.784,0,0,0,75.651,41.209ZM71.961,33.7A46.972,46.972,0,0,0,77.2,24.243c-5.131-2.047-10.71-2.767-15.582-5.459-.821,3.235-1.352,6.6-2.919,9.585C63.153,30.069,67.576,31.832,71.961,33.7Zm3.664,37.969a2.2,2.2,0,0,1-.3-1.214c-.544.019-1.087.026-1.631.032a10.439,10.439,0,0,1-.979,2.685c.133.038.265.083.4.133A11.445,11.445,0,0,0,75.625,71.665ZM74.6,52.62c.486-2.331.347-5.522-1.605-7.241-4.771-4.2-11.184,1.175-11.039,6.5a18.194,18.194,0,0,1,1.731.909,4.684,4.684,0,0,1,.9-5.029c1.712-1.889,5.13-2.825,7.032-.676,2.78,3.159.051,8.947-3.924,8.719a22.115,22.115,0,0,1,1.561,1.6.39.39,0,0,1,.164-.063A6.005,6.005,0,0,0,74.6,52.62ZM73.471,42.542c.474-.234.967-.436,1.459-.638a34.138,34.138,0,0,1-5.471-3.343c-.007,0-.007-.012-.013-.019-1.39-.91-1.226-2.742-.531-4.082q-1.2-.5-2.407-.992a2.526,2.526,0,0,1,.151,1.289,2.627,2.627,0,0,1-1.207,1.89,1.779,1.779,0,0,1-.473.145c2.786,1.978,5.648,3.842,8.492,5.744Zm.177,33.419a4.764,4.764,0,0,0-.556-.733,1.4,1.4,0,0,1-.449-.107c-.076-.032-.152-.057-.227-.082-.5,1.074-1.093,2.091-1.694,3.108a7.828,7.828,0,0,0,1.289.512C72.58,77.775,73.1,76.858,73.648,75.961ZM72.555,43.825a5.135,5.135,0,0,0,.221-.613c-3.286-2.2-6.609-4.347-9.8-6.685-.013,0-.026.012-.045.012a65.307,65.307,0,0,1-9.509.12c-.247.582-.48,1.157-.676,1.719,5.036.114,10.609,1.466,14.343,4.973.013.012.019.025.032.038A6.837,6.837,0,0,1,72.555,43.825Zm.1,24.3a5.879,5.879,0,0,1-1.744,4.758,6.188,6.188,0,0,1,.846.07c3.722-6.578-1.01-13.99-6.7-17.926-4.746-3.286-11.86-6.262-14.931.455a.845.845,0,0,0,.095.069,1.163,1.163,0,0,1,.252.284c1.883-5.686,11.127-2.982,15.19.657C68.8,59.312,72.479,63.7,72.656,68.126Zm-.405-31.858c-.309-.272-.625-.544-.928-.822a.824.824,0,0,1-.177-.05c-.449-.2-.9-.38-1.353-.569-.5.916-.865,2.369.228,2.97S71.879,37.215,72.251,36.268ZM71.443,70.5a7.506,7.506,0,0,0-.354-4.91A21.913,21.913,0,0,0,65,57.17c-3.981-3.343-13.971-6.8-13.914,1.137,1.738-1.946,2.894-3.058,5.939-1.9A22.659,22.659,0,0,1,65.149,62c1.763,1.927,4.663,5.169,3.975,8.075-.417,1.757-2.086,3.046-3.8,3.842C67.917,73.908,70.678,73.219,71.443,70.5ZM66.59,54.579c3.608,1.409,6.4-3.286,4.644-6.369-1.118-1.959-3.974-1.732-5.485-.3C63.563,49.992,63.848,53.183,66.59,54.579Zm4.448,25.148c-.139-.05-.278-.1-.417-.158-2.243,5.7-5.074,11.235-7.607,16.808-2.56,5.623-4.708,11.9-7.874,17.243a1.872,1.872,0,0,0,.613.165c2.717-5.75,5.2-11.627,7.8-17.434q2.607-5.818,5.232-11.632A52.305,52.305,0,0,1,71.038,79.727Zm-4.53-7.671a3.812,3.812,0,0,0,1.068-5.086A19.145,19.145,0,0,0,63,61.239a25,25,0,0,0-5.624-3.633c-2.679-1.214-4.037-.272-5.566,1.339,3.216-.076,9.048,4.221,10.2,5.245,1.852,1.642,4.726,4.29,4.613,7.064A4.386,4.386,0,0,1,66.508,72.056ZM65.332,44.084c.241-.12.5-.234.765-.342a18.55,18.55,0,0,0-9.143-4.018,10.3,10.3,0,0,0-.221,1.162c1.415.121,2.8.411,4.2.658a.382.382,0,0,1,.342.366.525.525,0,0,1,.044.265c-.335,2.389-.992,4.7-1.479,7.058a.873.873,0,0,1-.79.329c-1.592-.4-3.07-1.131-4.688-1.422a.409.409,0,0,1-.24-.132.273.273,0,0,1-.057-.032c-.474.088-.941.19-1.409.3a16.516,16.516,0,0,0,1.137,2.376.581.581,0,0,1,.063.215,10.836,10.836,0,0,1,7.141.594A8.261,8.261,0,0,1,65.332,44.084Zm.3,27.119a3.96,3.96,0,0,0-.663-2.186,17.852,17.852,0,0,0-4.36-4.777c-.847-.676-6.129-4.372-8.644-4.328a15.693,15.693,0,0,0,5.087,7.5C58.881,68.916,63.064,72.252,65.629,71.2ZM64.877,35.44A1.3,1.3,0,0,0,64.46,33.2a.733.733,0,0,0-.53.24,1.189,1.189,0,0,0-.139,1.062C63.9,34.852,64.378,35.813,64.877,35.44Zm.386,36.85c-2.768.474-6.123-2.079-8.082-3.551a17.117,17.117,0,0,1-6.072-8.4,18.039,18.039,0,0,0,5.8,9.547A20.509,20.509,0,0,0,62.375,73.4,3.329,3.329,0,0,0,65.263,72.29ZM62.691,32.647a2.482,2.482,0,0,1,.537-.493q-2.6-1.034-5.213-2.028c-4.043,1.289-8.29,1.687-12.352,2.887.082.209.164.417.246.62a68.482,68.482,0,0,0,6.856-.487.655.655,0,0,1,.221,0,.644.644,0,0,1,.2-.063C56.335,32.666,59.519,32.843,62.691,32.647Zm-.284,2.622a5.426,5.426,0,0,0-.19-1.27c-2.748.139-5.5.044-8.233.322a3.942,3.942,0,0,1,.038,1.024A64.986,64.986,0,0,0,62.407,35.269ZM60.865,17.735a7.256,7.256,0,0,0-1.9-2.894c-3.146,1.807-6.609,2.932-9.907,4.423a14.829,14.829,0,0,0,1.036,1.656A39.127,39.127,0,0,1,60.865,17.735ZM57.731,28.18c1.611-2.913,2.13-6.249,2.926-9.447A36.773,36.773,0,0,0,50.5,21.773c-.493,2.805-.923,5.617-1.34,8.429A82.269,82.269,0,0,0,57.5,28.3.762.762,0,0,1,57.731,28.18Zm1.422,19.777c.373-1.668.777-3.324,1.074-5.011A5.348,5.348,0,0,0,59.153,47.957Zm-.866.392c-.834-1.984-.057-4.442,1.283-6.1a28.374,28.374,0,0,0-3.09-.442,19.32,19.32,0,0,0-1.636,5.466A33.257,33.257,0,0,1,58.287,48.349Zm-2.54-7.191a11.113,11.113,0,0,1,.272-1.579,29,29,0,0,0-3.577-.26,13.366,13.366,0,0,0-.1,8.063c.525-.126,1.056-.246,1.586-.341a20.718,20.718,0,0,1,1.782-5.807c.006-.025.025-.038.038-.057Zm-2.73,10.028c-.019-.019-.037-.025-.05-.051a14.978,14.978,0,0,1-2.129-6.729.321.321,0,0,1-.076-.006,60.876,60.876,0,0,1-.354,8.858A7.127,7.127,0,0,1,53.017,51.186ZM52.7,35.1a2.482,2.482,0,0,0-.037-.607,62.4,62.4,0,0,1-6.243.43c.057.145.114.291.164.436C48.626,35.263,50.667,35.168,52.7,35.1Zm-1.623,5.813a22.3,22.3,0,0,1,1.421-4.48c-1.813.057-3.627.139-5.446.228.3.846.587,1.693.84,2.552a.886.886,0,0,1,.038.329c.208.227.423.455.619.7a.422.422,0,0,1,.051.088,17.834,17.834,0,0,1,2.072.158.353.353,0,0,1,.322.424C51.021,40.912,51.046,40.918,51.078,40.918Zm-1.953,13.7c1.207-4.3.392-8.84.9-13.257-.827-.075-1.965-.094-2.432-.094-.367,3.677-1.176,7.31-1.157,11.026A21.333,21.333,0,0,1,49.125,54.617Zm.424-32.857a.607.607,0,0,1-.108-.107c-.316-.468-.625-.936-.916-1.416-.569,3.8-2.445,7.2-3.33,10.938q1.479-.436,2.982-.759C48.607,27.523,49.043,24.635,49.549,21.76Zm-5,29.7c.013-.449.032-.9.064-1.353a26.089,26.089,0,0,0-3.7,1.555,8.459,8.459,0,0,0,.4,1.105C42.4,52.348,43.432,51.8,44.55,51.458ZM40,53.1c-.1-.252-.2-.505-.284-.764A283.916,283.916,0,0,0,9.4,65.567c.013.1.025.19.044.284,4.986-2.647,10.546-4.22,15.7-6.495Q32.52,56.1,40,53.1Z"/><path d="M82.544,58.124a3.779,3.779,0,0,1-4.05,3.671,3.7,3.7,0,0,1-3.425-3.21A3.3,3.3,0,0,1,78.1,55.021C79.96,54.844,82.462,55.969,82.544,58.124Zm-4.05,2.723c1.4.063,3.583-1.169,3.071-2.888a3.1,3.1,0,0,0-3.608-1.965C75.05,56.746,75.7,60.55,78.494,60.847Z"/><path d="M80.579,58.187c.076,1.731-2.837,2.717-3.6,1.005-.007-.019-.007-.032-.013-.051s-.025-.038-.032-.063a1.757,1.757,0,0,1,1.536-2.218C79.353,56.734,80.529,57.125,80.579,58.187Zm-.954.126c.152-.79-2.129-.72-1.794.449a.694.694,0,0,0,.935.328A1.247,1.247,0,0,0,79.625,58.313Z"/><path d="M65.49,50.952c-.486-3.747,5.675-3.279,5.226-.025a2.8,2.8,0,0,1-2.565,2.091,2.334,2.334,0,0,1-2.648-1.94.313.313,0,0,0,0-.075C65.5,50.984,65.49,50.971,65.49,50.952Zm4.272-.063c.411-1.851-3.577-2.54-3.33-.013a1.412,1.412,0,0,0,1.712,1.194C68.77,51.95,69.61,51.584,69.762,50.889Z"/></g></svg>