<svg xmlns="http://www.w3.org/2000/svg" viewBox="0 0 128 160" x="0px" y="0px"><g><path d="M111.613,93.187c3.034,1.86,2.472,7.2.007,9.325a1.686,1.686,0,0,1-.147.239c-5.014,6.074-15.386,6.509-19.7-.766a20.657,20.657,0,0,1-1.938-4.522,1.091,1.091,0,0,1-.442.063c-6.257-.344-12.514-.47-18.777-.5a9.133,9.133,0,0,1-.527,2.3,14.075,14.075,0,0,0-.618,1.987,12.374,12.374,0,0,1,6.39,2.964,9.126,9.126,0,0,1,2.655,6.79c4.747,2.907,10.034,6.671,10.224,12.324.028.815-1.236.815-1.264,0-.183-5.33-4.473-8.23-9.045-10.786-.007.035-.007.07-.014.112a1.064,1.064,0,0,1-.372.71,1.079,1.079,0,0,1-.323.372c-7.521,5.582-20.624,5.99-29.072,2.479a1.093,1.093,0,0,1-.639-.7,1.035,1.035,0,0,1-.4-.758,16.321,16.321,0,0,1,.035-3.272c-.246.133-.5.266-.752.386a.418.418,0,0,1-.042.077,6.8,6.8,0,0,1-3.883,2.577c-1.973,5.492-11.523.492-13.44-3.209-6.047-1.376-16.636-8.061-15.056-15.287a16.264,16.264,0,0,1,3.083-6.11,39.715,39.715,0,0,0,4.157-7.4,91.971,91.971,0,0,0,5.8-17.794.936.936,0,0,1-.267-.71c.049-3.307.372-6.825,2.2-9.69,2.044-3.195,5.962-5.414,7.655-8.694a8.538,8.538,0,0,0,.821-2.45c.056-.6.1-1.145.155-1.644.056-3.462-1.405-7.008-1.447-10.526a27.668,27.668,0,0,1,2.725-11.79,4.854,4.854,0,0,1,2.949-4.6c1-10.245,16.467-13.1,24.093-8.658a1.154,1.154,0,0,1,.3.26c3.35.891,4.782,4.978,4.951,8.23,4.361.561,6.713,7.366,6.271,11.235-.309,2.718-1.974,5.246-2.865,7.823-.092.59-.2,1.187-.359,1.8a.833.833,0,0,1-.147.316c-.021.2-.042.414-.049.625a13.632,13.632,0,0,1-.513,4.7c4.909,1.714,9.937,3.132,14.726,5.169,3.778,1.608,5.519,4.361,6.3,8.356,1.025,5.26,1.369,10.576,2.781,15.779a77.069,77.069,0,0,0,6.516,16.432.934.934,0,0,1,.2.014c1.833.288,3.778.857,4.5,2.648A3.948,3.948,0,0,1,111.613,93.187Zm-1.172,7.513c1.13-1.341,1.678-4,.5-5.351a7.71,7.71,0,0,1-1.425,4.263A2.316,2.316,0,0,0,110.441,100.7Zm-.941-6.945a2.113,2.113,0,0,0-1-2.289c.007,1.615-.161,3.5-1.285,4.487a3.505,3.505,0,0,1-.751.506,8.205,8.205,0,0,0,1.011,2.24c.723,1,1.376-.056,1.636-.878a13.041,13.041,0,0,0,.576-3.392A.861.861,0,0,1,109.5,93.755Zm.119,7.914a3.345,3.345,0,0,1-1.089-1.229c-1.636.654-2.829-2.338-3.314-3.728a1.4,1.4,0,0,1-.913-.513c-1.215-1.489-1.173-3.4-1.292-5.253a10.485,10.485,0,0,1-.646,1.51c-.091.162-.183.309-.267.464a2.309,2.309,0,0,1,.527.786,3.237,3.237,0,0,1,.225,1.257,4.62,4.62,0,0,1-.422,1.938,2.931,2.931,0,0,1-.758,1.082c-.239.2-.4.231-.457.189s.035-.217.141-.463a5.509,5.509,0,0,0,.344-1.061,5.105,5.105,0,0,0,.119-1.643,1.632,1.632,0,0,0-.73-1.4l-.583-.246.323-.583c.162-.288.33-.576.485-.878a7.663,7.663,0,0,0,.962-2.7,2.63,2.63,0,0,0-.148-1.2c-.014,0-.021-.007-.042-.007a1.372,1.372,0,0,0-.47.035A3.407,3.407,0,0,0,101,88.3c-.429.246-.829.527-1.159.744-.449.562-.885,1.131-1.292,1.721-.744,1.081-1.44,2.2-2.2,3.272-3.013,4.319-.049,9.052,4.087,11.1A9.861,9.861,0,0,0,109.619,101.669Zm-3.006-7.008a8.414,8.414,0,0,0,.6-3.981.9.9,0,0,1-.056-.162c-.316-1.376-1.966-1.524-3.153-1.713.379,1.7.183,3.581.653,5.259C104.949,95.1,105.8,96.3,106.613,94.661Zm-5.449-8.651a2.623,2.623,0,0,1,.309-.155A80.052,80.052,0,0,1,93.636,59.8,29.336,29.336,0,0,0,92.2,52.338c-1.208-2.949-3.315-3.89-6.166-4.894-3.609-1.278-7.247-2.5-10.856-3.771a6.582,6.582,0,0,1-1.236,3.462c5.035-.52,9.585,3.118,11.179,8.012.892,2.732,1.173,5.948-.21,8.581-1.608,3.055-3.989,4-7.247,4.431a5.122,5.122,0,0,1-.709.99,8.752,8.752,0,0,1-4.572,2.5,1.259,1.259,0,0,1,.07.337,56.246,56.246,0,0,1-.414,11.089c-.225,1.587-.456,4.178-2.022,5.041.2,2.086.625,4.5.681,6.8,4.466.028,8.925.1,13.384.267.653-4.382.527-8.855,1.749-13.132a23.705,23.705,0,0,0-.4-2.647,46.361,46.361,0,0,0-1.509-4.916c-.485-1.264-.731-2.092-.548-2.184.168-.084.723.569,1.446,1.735.253.442.527.969.8,1.552a44.576,44.576,0,0,1,.955-7.725c.4-1.966.667-3.181.892-3.167.2.014.316,1.285.189,3.3-.1,1.945-.435,4.571-.491,7.422.449-2.668.843-4.438,1.123-4.4.38.043.366,4.136-.344,9.326a1.033,1.033,0,0,1,.274.4c2.177,5.4,1.952,11.39,3.855,16.86a12.019,12.019,0,0,0,3.512,5.211,9.114,9.114,0,0,1-1.145-2.043c-1.271-3.266-.428-5.464,1.4-8.238C97.281,90.335,98.833,87.393,101.164,86.01ZM86.179,95.272c1.039.049,2.078.084,3.118.141-.8-3.448-1.138-7.037-1.974-10.485C86.691,88.334,86.649,91.838,86.179,95.272ZM82.324,55.561c1.355,4.305-.33,7.964-4.094,10.127.007.084.021.168.021.252,10.287-2.219,4.41-18.665-4.993-16.558.014.049.028.091.042.147.077.33.133.668.2,1A7.365,7.365,0,0,1,82.324,55.561ZM78.005,64.6c3.019-1.9,4.719-5.133,3.307-8.757-1.3-3.321-4.185-5.056-7.612-4.276a57.529,57.529,0,0,1,.464,9.789A5.1,5.1,0,0,1,78.005,64.6Zm-1.636,47.576c.021-.232.035-.457.042-.689-1.039-.568-2.058-1.137-3.02-1.72-2.387,1.777-6.13,2.352-8.841,2.507-4.066.232-10.828.484-14.472-2.2a12.915,12.915,0,0,0-.387,4.347C57.584,117.5,69.354,117.153,76.369,112.175Zm-.815-2.908c.253.162.52.316.787.478a6.693,6.693,0,0,0-.913-2.725,5.157,5.157,0,0,1-.892,1.651C74.873,108.867,75.217,109.064,75.554,109.267Zm-.33-80.9a9.451,9.451,0,0,0-.035-6.657c-.758-1.9-1.369-4.676-3.638-5.07A35.194,35.194,0,0,1,75.224,28.364Zm-.927,40.3c1.362-.906,3.736-4.515-.161-5.218-.007.506-.007,1.019-.014,1.531a1.019,1.019,0,0,1-.021.822c1.467,3.715-8.3,3.371-10.126,3.272-1.468-.077-4.4.534-5.33-1.053-1.012-1.728.526-3.4,1.931-4.256,0-.028-.007-.063-.007-.1-1.84.2-5.7,1.833-3.834,4.41a5.05,5.05,0,0,0,3.764,1.65c.435.042.87.063,1.306.092a7.387,7.387,0,0,1,3.04.147c.141,0,.281.007.422.014a25.432,25.432,0,0,0,6.109-.3A8.413,8.413,0,0,0,74.3,68.665Zm.1,37.119-.021-.021a11.21,11.21,0,0,0-5.056-2.352A4.95,4.95,0,0,0,71.9,107.1c.512.33,1.032.632,1.559.933A4.067,4.067,0,0,0,74.4,105.784Zm-.863-73.438c.583-5.126-.969-9.761-3.28-14.55C67.9,12.923,63.834,13.428,59.277,13c-.8,3.553-4.74,5.421-7.8,6.931a7.586,7.586,0,0,1-.14,2.781c4.894,2.752,8.307,10.821,6.228,15.336,4.284,2.409,9.508,4.508,14.312,2.556.976-1.475.231-3.729.625-5.337A19.9,19.9,0,0,1,73.532,32.346Zm-.014,10.737c-.45-.162-.9-.316-1.349-.478a1.276,1.276,0,0,1-.344-.2c-5.112,1.8-10.673-.4-15.2-2.956a4.983,4.983,0,0,1-1.46,1.067c-.19.091-.387.168-.583.246a7.482,7.482,0,0,1,.428,3.3,15.838,15.838,0,0,0,6.447,3.069,7.868,7.868,0,0,1,3.9-1.566c2.654-.407,5.056-.351,6.58,1.25.021-.014.035-.035.063-.056A4.559,4.559,0,0,0,73.518,43.083ZM72.036,61.762a84.152,84.152,0,0,0-.267-8.56c-.119-1.285-.316-5.379-2.057-5.744a10.289,10.289,0,0,0-4.5.175c2.4-.252,5.021-.119,5.773,2.1a15.251,15.251,0,0,1,.428,5.779c-.133,2.17-.035,4.305-.091,6.461C71.559,61.9,71.8,61.839,72.036,61.762Zm-.021,2.949c.007-.618.007-1.235.014-1.846a15.811,15.811,0,0,1-9.543.035,19.431,19.431,0,0,1,.309,2.514C65.828,65.505,69.213,65.989,72.015,64.711Zm-1.749-7.836a30.3,30.3,0,0,0,.113-4.79c-.239-2.591-1.679-3.574-4.284-3.412-1.236.07-2.451.252-3.679.4-2.353,2.626-1,8.181-.148,12.633a14.593,14.593,0,0,0,7.991.513C70.309,60.435,70.154,58.679,70.266,56.875Zm.12,19.683c.049-1.517.056-3.041-.035-4.565a26.475,26.475,0,0,1-2.886.141c.084,1.6.126,3.2.147,4.8A5.165,5.165,0,0,0,70.386,76.558Zm-.127,2.991c.028-.6.064-1.207.092-1.811a7.647,7.647,0,0,1-2.725.252c.007,1.054.007,2.107,0,3.167.077.155.155.309.232.471a3.5,3.5,0,0,0,2.289-.288C70.21,80.469,70.245,79.767,70.259,79.549Zm2.03,29.508a16.963,16.963,0,0,1-2.521-2.009,6.329,6.329,0,0,1-2.037-3.925c-.154-.021-.309-.049-.456-.07-.014,0-.028-.007-.042-.007.021.217.042.442.056.66.049.892.19,2.331-.506,3.047-1.5,1.559-4.452,1.019-6.348.689a.614.614,0,0,1-.442-.443,47.878,47.878,0,0,1-.59-5.575,46.994,46.994,0,0,0-5.288,2.808,1.656,1.656,0,0,1-.168.085,1.119,1.119,0,0,1-.569.309c-.014.035-.014.077-.042.1a.748.748,0,0,1-.358.414c.1.113.2.218.288.337a3.051,3.051,0,0,1,.231.352,2.055,2.055,0,0,1,.2.4l.091.21.063.274c.022.092.043.19.057.274l.007.183a2.491,2.491,0,0,1-.155,1.011,2.056,2.056,0,0,1-.716.9,2.526,2.526,0,0,1-1.587.4c3.167,1.826,8.539,1.713,11.713,1.587C65.632,110.981,69.775,110.714,72.289,109.057Zm-2.711-23.5a18.411,18.411,0,0,0,.471-2.991,4.861,4.861,0,0,1-1.693.14C68.792,83.643,69.2,84.591,69.578,85.553Zm-.428,9.354c.021-2.156-.218-4.333-.386-6.538a.859.859,0,0,1-.646-.786,1.677,1.677,0,0,1-.106-.225c-.14-.407-.3-.815-.463-1.222-.063,2.921-.148,5.843-.211,8.764C67.942,94.9,68.546,94.9,69.15,94.907Zm-.52-81.9a6.012,6.012,0,0,1,.815.576,7.434,7.434,0,0,0-2.03-4.551.637.637,0,0,1-.245-.049C60.618,6.42,47.732,7.242,46.953,16.448l.126.063a6.9,6.9,0,0,1,.246-.7,12.063,12.063,0,0,1,2.521-3.75c.814-.787,1.39-1.187,1.51-1.082s-.239.717-.878,1.63a22.264,22.264,0,0,0-2.058,3.637,11.678,11.678,0,0,0-.667,2.549,3.5,3.5,0,0,1-.091.6c-.035.316-.07.618-.091.885-.007.126-.007.239-.014.351a5.28,5.28,0,0,1,.4,1.145,6.086,6.086,0,0,1,1.8.259c0-.007.007-.007.007-.014-.155-.091-.078-.786-.225-1.945a8.5,8.5,0,0,1-.021-2.268,3.2,3.2,0,0,1,.154-.653c.035-.112.049-.176.106-.33l.147-.323c.1-.218.2-.45.33-.66s.267-.407.407-.618a12.179,12.179,0,0,1,3.666-3.294c1.131-.639,1.861-.786,1.938-.66.1.148-.569.6-1.46,1.349a18.678,18.678,0,0,0-3.175,3.293c-.126.183-.245.358-.365.534s-.189.358-.281.533l-.14.26c-.021.049-.07.19-.1.274l-.113.295c-.028.1-.035.169-.056.253-.035.154-.063.316-.084.477,2.6-1.271,6.9-3.012,7.212-6.278a1.092,1.092,0,0,1,.077-.28c-.323-.316-.744-.717-1.2-1.159-.505-.449-.983-.906-1.278-1.159-.133-.161-.337-.274-.428-.386-.106-.112-.155-.211-.127-.288s.12-.126.267-.154a1.262,1.262,0,0,1,.618.056c.141.042.288.1.443.161s.28.148.435.239a5.391,5.391,0,0,1,.885.674,5.3,5.3,0,0,1,1,1.285.75.75,0,0,1,.218-.007c2.212.26,4.726.2,6.987.646L65.33,11.7a15.622,15.622,0,0,0-5.014-2.135c-1.355-.316-2.3-.393-2.289-.576.014-.14.884-.365,2.422-.253a11.814,11.814,0,0,1,2.6.541,13.431,13.431,0,0,1,2.935,1.433A13.908,13.908,0,0,1,68.63,13.007Zm.4,84.007c-.576-.007-1.152-.007-1.728-.007-.021,1.3-.028,2.6-.028,3.911a1.575,1.575,0,0,1,.168.056c.2.028.408.056.618.091v-.014A14.979,14.979,0,0,0,69.031,97.014Zm4.03-30.47c-3.356,1.587-7.261,1-10.877.962a.96.96,0,0,1-.934-.632.9.9,0,0,1-.555-.906c0-.238,0-.484-.007-.737-.632,1.081-.456,2.76.941,2.746.435-.007.878-.007,1.313,0,.99.035,1.973.112,2.957.147C66.629,68.152,72.6,68.18,73.061,66.544Zm-7.1,39.03a7.647,7.647,0,0,0,.091-2,1.574,1.574,0,0,1-1.376.92,12.644,12.644,0,0,1-3.778-.147c.077.646.168,1.3.26,1.945C62.549,106.529,65.688,106.985,65.962,105.574Zm-.436-26.853c0-1.04-.014-2.072-.035-3.1a15.423,15.423,0,0,0-4.3-.007c-.007.92.007,1.84.014,2.767A20.213,20.213,0,0,1,65.526,78.721Zm-.007,2.9c-.014-.021-.021-.042-.035-.063a1.07,1.07,0,0,1-.084-.738.238.238,0,0,0-.07-.007,17.534,17.534,0,0,0-3.518-.344,145.087,145.087,0,0,1,.021,18.813.756.756,0,0,1-.021.133c0,.014.007.028.007.042a11.9,11.9,0,0,0,3.356-.07C65.2,93.474,65.463,87.541,65.519,81.621Zm-.105-8.1c-.014-.407-.028-.814-.049-1.222-.218-.084-.442-.161-.667-.224-.871-.014-1.924-.007-3.027-.056-.063.021-.126.035-.189.056-.085.484-.148.962-.19,1.439A19.787,19.787,0,0,1,65.414,73.517Zm-1.369,29.789c.821-.078,1.067-.338,1.025-1.2a9.6,9.6,0,0,1,0-1.419,16.718,16.718,0,0,1-4.108-.049l-.084.042c-.007.8-.007,1.6.035,2.4A12.434,12.434,0,0,0,64.045,103.306ZM59.923,94.7c.119-3.37.147-6.741.021-10.105a38.829,38.829,0,0,0-2.107,3.877,12.3,12.3,0,0,0-1.011,5.954c.934.057,1.875.12,2.816.2A1.192,1.192,0,0,1,59.923,94.7ZM59.747,98.9c.035-.724.07-1.447.1-2.17a.983.983,0,0,1-.2,0q-1.254-.105-2.507-.19a19.284,19.284,0,0,0,1.018,3.16C58.687,99.443,59.22,99.176,59.747,98.9Zm.084-16.664c-.042-.611-.084-1.222-.133-1.84a1.088,1.088,0,0,1-.576-1.088.954.954,0,0,0-.014-.134,47.116,47.116,0,0,1,.3-7.38c-1.987-.316-3.778-1.025-4.487-2.662-1.714-3.918,1.51-7.268,5.358-7.57-.562-3.433-1.419-7.239-.962-10.3a6.445,6.445,0,0,1-2.1-.759c-.6-.386-.885-.716-.821-.849s.505-.049,1.165.133a15.413,15.413,0,0,0,1.987.351,6.709,6.709,0,0,1,.668-1.573,17.254,17.254,0,0,1-5.3-2.514A27.647,27.647,0,0,1,54.9,49a16.528,16.528,0,0,1-.541,3.384,9,9,0,0,1-1.18,2.613c-.119.168-.231.323-.337.477-.14.141-.267.267-.379.393-.056.05-.1.092-.147.141a5.172,5.172,0,0,1-1.131,1.187,10.219,10.219,0,0,1-.3,2.528,32.559,32.559,0,0,1-1.945,5.175,16.167,16.167,0,0,1-.871,1.763c.007.323.014.646,0,.955a7.3,7.3,0,0,1-.548,2.542,3.442,3.442,0,0,1-1.664,1.79l-.807.358V71.5c0-1.25-.064-2.2-.12-2.9-.028-.12-.056-.232-.091-.358A12.754,12.754,0,0,0,44.34,66.8c-.021.126-.035.239-.049.344-.077.414-.168.625-.281.625-.245-.014-.309-.878-.884-2.008A9.289,9.289,0,0,0,41.855,63.9c-.562-.667-1.243-1.384-1.96-2.177a15.154,15.154,0,0,1-1.882-2.465,6.707,6.707,0,0,1-.674-1.524c-.091.232-.2.464-.316.7-.14.231-.281.463-.421.7a8.318,8.318,0,0,1-.555.7,4.41,4.41,0,0,1-.6.6l-.309.274-.077.07-.063.056-.028.014-.042.035-.2.127a11.585,11.585,0,0,1-3.006,1.376c-.323.112-.61.218-.884.33a4.111,4.111,0,0,1-.5,1.25,4.329,4.329,0,0,1-.688.9C27.691,74.4,24.341,83.784,18.815,91.831c-3.16,4.6-2.62,8.4,1.545,12.015a24.014,24.014,0,0,0,9.283,5.379,11.058,11.058,0,0,1,.491-1.5,5.439,5.439,0,0,1,2.353-7.865,8.213,8.213,0,0,1,3.553-3.849c-.611-.66-1.222-1.313-1.8-1.994a3.678,3.678,0,0,1-.463-.337.949.949,0,0,1-.478-.267c-.589-.316-1.13-.6-1.573-.849a21.526,21.526,0,0,0-2.513-.3c-4-.225-7.3.245-7.4-.183C21.687,91.7,25,90.49,29.3,90.729c.358.021.709.063,1.053.105a.1.1,0,0,1-.028-.021,36.382,36.382,0,0,0-3.75-1.791c-1-.393-1.643-.7-1.608-.92.035-.2.751-.273,1.9-.126a12.631,12.631,0,0,1,4.242,1.51l.07.049c-.148-.386-.274-.744-.365-1.053-.225-.71-.3-1.208-.106-1.314s.583.2,1.061.787a15.793,15.793,0,0,1,1.509,2.507l.021.042c.92-4.838,3.989-8.806,5.492-13.532a1,1,0,0,1,.358-.526c-.056-.155-.1-.323-.169-.471a9.873,9.873,0,0,0-.814-1.559c-.52-.807-1.061-1.355-.906-1.524.119-.14.793-.014,1.727.815a4.044,4.044,0,0,1,.471.5c-.077-.393-.169-.786-.281-1.179a11.5,11.5,0,0,0-2.949-4.937c-.541-.513-.99-.955-1.342-1.25-.337-.316-.491-.527-.435-.618s.316-.049.744.106a7.786,7.786,0,0,1,1.735.926,9.558,9.558,0,0,1,2.114,2.072,10.207,10.207,0,0,1,.835,1.348.341.341,0,0,1-.007-.084c-.154-1.257-.26-2.086-.035-2.149.19-.049.646.625,1.082,1.868a16.781,16.781,0,0,1,.751,5.147,21.2,21.2,0,0,1-.337,3.476,13.8,13.8,0,0,1,.007,3.188,6.029,6.029,0,0,1-.33,1.5,59.115,59.115,0,0,1-.745,10.07c5.056.435,10.134.414,15.2.66a10.617,10.617,0,0,1,.5-4.557C56.924,87.105,58.546,84.76,59.831,82.239ZM57.956,6.125C51.6,6.083,44.621,9,44.361,15.275a1,1,0,0,1-.449.829.949.949,0,0,1,.014.14v.267a8.138,8.138,0,0,1,1.355-.211C45.906,9.742,51.791,6.673,57.956,6.125Zm-.933,94.126a23.066,23.066,0,0,1-1.229-3.778c-2.634-.134-5.267-.2-7.907-.281,2.935.765,6.214,2.851,6.8,5.239C55.457,101.016,56.236,100.63,57.023,100.251Zm-2.7-61.185c5.751-3.736-1.664-18.384-8.251-15.161-.12.12-.239.239-.351.365,4.059.1,6.165,3.252,7.752,6.959.113.26.225.541.33.822a.58.58,0,0,1,.169.45c.8,2.261,1.292,4.971.007,6.755C54.094,39.193,54.207,39.137,54.319,39.066Zm-.864,7.388c.007-.534.021-1.04.028-1.524a.592.592,0,0,1-.084-.3.84.84,0,0,1-.077-.358,5.633,5.633,0,0,0-.4-3.069A9.751,9.751,0,0,1,42.88,35.836,11.567,11.567,0,0,1,43.9,23.821a.274.274,0,0,0-.056-.07,3.727,3.727,0,0,1-.66-1.671,3.252,3.252,0,0,1-1.777-2.226.64.64,0,0,1-.063.119.446.446,0,0,1-.014.049,24.79,24.79,0,0,0-1.84,16.025c.6,3.09,1.433,6.839-.1,9.81-.092.182-.2.344-.309.512-.049.415-.106.836-.176,1.264a12.4,12.4,0,0,1-2.437,5.927,4.407,4.407,0,0,1-1.622,1.229c-.449.183-.7.155-.751.077-.063-.1.154-.288.442-.59a7.244,7.244,0,0,0,1.054-1.362,13.9,13.9,0,0,0,1.46-3.89c-1.531,1.622-3.286,3.061-4.655,4.824a13.251,13.251,0,0,0-1.9,3.371,6.424,6.424,0,0,1,.779-.674c.892-.646,1.587-.8,1.685-.625.113.2-.33.653-.934,1.418a17.043,17.043,0,0,0-1.594,2.381c1.152-.927,2.177-1.6,2.894-2.184.786-.618,1.292-1.047,1.474-.913.162.112-.035.786-.7,1.671a17.762,17.762,0,0,1-2.935,2.8c.014,0,.021-.007.035-.014a15.517,15.517,0,0,0,2.654-1.32l.155-.106.042-.028.007-.007.056-.049.316-.274a3.877,3.877,0,0,0,.541-.512c.14-.176.3-.316.435-.5s.26-.365.386-.541A11.542,11.542,0,0,0,36.8,55.561c.47-1.341.758-2.226.983-2.183.182.028.274.842.105,2.176.07.3.161.611.281.977a6.869,6.869,0,0,0,.421.948c.091.161.169.33.274.505s.232.337.351.513a25.36,25.36,0,0,0,1.826,2.2c.267.3.527.583.779.878-.119-.253-.238-.513-.358-.773-.309-.772-.66-1.489-.885-2.254-.126-.372-.245-.737-.365-1.1-.1-.365-.168-.737-.252-1.088s-.169-.7-.211-1.039-.07-.681-.1-1-.071-.632-.078-.934.014-.59.021-.864a11.534,11.534,0,0,1,.3-2.549c.127-.576.253-.9.358-.9s.19.344.239.941.056,1.475.2,2.479c.028.26.049.519.077.8s.1.562.155.857.112.6.168.92.176.625.26.955.168.66.288,1,.246.674.372,1.025c.225.7.583,1.405.871,2.135.667,1.475,1.306,2.872,1.882,4.143a16.726,16.726,0,0,1,.744,1.924,10.1,10.1,0,0,1,.407,1.777A6.7,6.7,0,0,1,45.92,69.9c.028.133.05.267.078.414a5.241,5.241,0,0,0,.639-2.753,14.613,14.613,0,0,0-.2-2.464,25.227,25.227,0,0,0-.6-2.662c-.477-1.9-.927-3.7-1.341-5.344s-.7-3.174-.941-4.431c-.358-2.577-.443-4.171-.232-4.2s.674,1.5,1.3,3.961c.379,1.221.766,2.682,1.243,4.311s.99,3.427,1.468,5.33c.084.3.154.618.232.927.014-.267.028-.541.035-.822a28.905,28.905,0,0,0-.218-3.792,34.023,34.023,0,0,0-.737-3.742c-.316-1.131-.632-2.149-.948-2.985-.6-1.664-1.089-2.732-.885-2.837.168-.1.962.723,1.875,2.388a18.928,18.928,0,0,1,1.313,3.026,23,23,0,0,1,.913,3.947,21.472,21.472,0,0,1,.147,2.373c.12-.386.232-.786.33-1.187a11.076,11.076,0,0,0,.344-2.752,7.243,7.243,0,0,0-.393-2.177q-.157-.4-.3-.737c-.442-.71-.983-1.419-1.552-2.191a44.54,44.54,0,0,1-3.651-6.061c-.45-1-.892-1.938-1.208-2.858-.358-.905-.6-1.776-.829-2.57a26.219,26.219,0,0,1-.765-3.806c-.1-.906-.105-1.418-.007-1.439.239-.071.73,1.924,1.812,4.915.288.745.575,1.573.976,2.423.351.864.821,1.748,1.285,2.689a55.562,55.562,0,0,0,3.644,5.815A26.954,26.954,0,0,1,50.52,53.2c.154.274.295.569.428.857a7.393,7.393,0,0,0,.021-2.332,26.294,26.294,0,0,0-.814-3.6c-.59-2.029-.78-3.315-.611-3.35s.625,1.1,1.46,3.062a20,20,0,0,1,1.18,3.7c.063.323.113.674.148,1.032a14.192,14.192,0,0,0,.267-2.107,13.593,13.593,0,0,0-.176-2.682,11.1,11.1,0,0,0-.611-2.114c-.442-1.137-.969-1.889-.779-2.029.147-.106.9.274,1.741,1.517A6.807,6.807,0,0,1,53.455,46.454ZM51.742,39.67c2.661-.983,2.282-3.96,1.383-6.537-.737.245-1.474.512-2.212.786a5.2,5.2,0,0,1-1.285,5.555,6.318,6.318,0,0,0,1.889.365A.5.5,0,0,1,51.742,39.67Zm.716,68a1.217,1.217,0,0,0,.07-.442,3.1,3.1,0,0,0-1.186-1.861c-.618-.569-1.3-1.06-1.939-1.559-.161-.126-.316-.253-.477-.386l-.119-.105-.029-.022-.049-.049-.007-.014-.049-.049-.19-.2c-.252-.273-.491-.54-.723-.793-.878-1.032-1.594-1.861-2.085-2.444-.5-.555-.759-.906-.7-.983s.436.127,1.068.583a26.125,26.125,0,0,1,2.429,2.135c.246.231.506.47.78.723l.2.19.042.042h.007l.028.021.105.077c.141.105.295.218.457.323.105.07.21.148.316.218a1.364,1.364,0,0,1,.175-.014c.323-.035.73-.021,1.138-.021.224-.007.421-.028.6-.042,1.643-2.627-5.407-5.562-7.423-4.888a.906.906,0,0,1-1.187-.527,5.915,5.915,0,0,0-.737-.435,7.287,7.287,0,0,0-8.743,3.9.843.843,0,0,1-.646.541,1.076,1.076,0,0,1-.393.232c-2.071.751-2.212,3.567-1.067,5.126a.833.833,0,0,1,.119.9,1.372,1.372,0,0,1-.119.513,5.771,5.771,0,0,0-.555,2.289c1.791,2.324,8.532,6.446,9.48,3.026a1.364,1.364,0,0,1,.091-.379,8.733,8.733,0,0,1-1.292-.421,17.749,17.749,0,0,1-4.656-2.985c-1.046-.913-1.629-1.545-1.516-1.706s.913.19,2.1.892a40.791,40.791,0,0,0,4.607,2.486,7.656,7.656,0,0,0,2.6.632,3.967,3.967,0,0,0,.506-.021,3.534,3.534,0,0,0,1.4-1.047,1.013,1.013,0,0,1,.414-.709c-.294-.14-.561-.281-.772-.407-.084-.056-.154-.106-.225-.162a11.413,11.413,0,0,1-2.352-.955,23.356,23.356,0,0,1-4.7-3.532c-1.074-1.011-1.7-1.706-1.58-1.861s.955.253,2.2,1.075c1.25.8,2.865,2.036,4.761,3.068a12.688,12.688,0,0,0,2.753,1.11,7.388,7.388,0,0,0,2.359.168c.07,0,.141,0,.211-.007.14-.1.274-.2.414-.3a1.538,1.538,0,0,1,.1-.126c-.147-.07-.294-.141-.435-.218-.435-.26-.857-.526-1.271-.779s-.772-.562-1.145-.829c-1.46-1.1-2.661-2.2-3.679-3.09-1.987-1.8-3.336-2.823-3.223-3,.1-.155,1.636.569,3.855,2.219,1.1.8,2.373,1.8,3.813,2.809.365.239.73.5,1.123.751.387.225.787.464,1.194.695s.85.394,1.278.6a4.243,4.243,0,0,0,1.285.4,1.455,1.455,0,0,0,.983-.127A.575.575,0,0,0,52.458,107.666Zm.3-75.517c-.211-.512-.428-1-.625-1.418-2.8.962-5.5,2.163-8.265,3.209a9.852,9.852,0,0,0,.47,1.039c.043.078.1.162.141.239C47.255,34.235,49.965,33.1,52.753,32.149Zm-1.095-2.366c0-.014-.007-.021-.015-.035-1.446-2.872-3.5-4.628-6.741-4.41a11.615,11.615,0,0,0-.653,1.159,5.318,5.318,0,0,1,5.892,3.841C50.646,30.148,51.152,29.958,51.658,29.783Zm-3.16,9.2a4,4,0,0,0,1.425-4.691c-1.615.618-3.216,1.243-4.838,1.819A10.547,10.547,0,0,0,48.5,38.982ZM46.3,22.023a3.5,3.5,0,0,0-.309-.765,5.885,5.885,0,0,1-1.166.421v.007a1.855,1.855,0,0,0,.239.829l.021-.021a.8.8,0,0,1,.54-.232A5.338,5.338,0,0,1,46.3,22.023Zm-.59-2.549a1.418,1.418,0,0,0,.274-1.516,5.555,5.555,0,0,0-2.058.316v.077c0,.288-.358.456-.772.505a1.474,1.474,0,0,0,.259,1.412A4.446,4.446,0,0,0,45.71,19.474Zm3.441,11.243a4.3,4.3,0,0,0-5.372-3.062,9.386,9.386,0,0,0-.232,5.281C45.429,32.227,47.283,31.454,49.151,30.717ZM38.084,94a57.337,57.337,0,0,0,.807-11.938c-1.594,3.209-3.356,6.348-3.687,9.958a.933.933,0,0,1,.253.2c.674.822,1.412,1.587,2.135,2.367.133-.035.274-.07.414-.1a.925.925,0,0,1,.064-.351C38.077,94.085,38.077,94.043,38.084,94Z"/><path d="M90.624,52.177c.189.049.2.7.042,1.706a37.939,37.939,0,0,1-.913,3.848c-.393,1.461-.7,2.767-.913,3.736-.189.962-.351,1.587-.555,1.594-.189,0-.386-.632-.449-1.678a14.505,14.505,0,0,1,.541-4.024,29.069,29.069,0,0,1,1.32-3.743C90.1,52.682,90.434,52.121,90.624,52.177Z"/><path d="M70.934,27.079a2.414,2.414,0,0,1-.022,1.243,2.607,2.607,0,0,1-.182.344,1.719,1.719,0,0,1-.267.288,1.688,1.688,0,0,1-.611.316,5.968,5.968,0,0,1-1.517.183c-.217.014-.407.021-.6.042l-.014.007.085.042v.007l-.211.007.007.028h-.049a.9.9,0,0,0-.323.056,5.416,5.416,0,0,0-.5.267,1.925,1.925,0,0,1-.772.309,1.216,1.216,0,0,1-.934-.281c-.028-.021-.042-.049-.07-.07a10.762,10.762,0,0,1-.808.8c-.372.337-.681.611-.913.856-.463.485-.639.85-.751.815-.084-.021-.084-.485.3-1.152s1.165-1.4,1.748-2.338l.365-.583.436.555c.2.253.463.393.477.337a10.215,10.215,0,0,0,.927-.555,3.04,3.04,0,0,1,.4-.168l.162-.042.084-.022h.021l.049-.007.092-.014c.246-.035.477-.049.709-.063a6.054,6.054,0,0,0,1.243-.147c.218-.078.274-.127.316-.218a1.677,1.677,0,0,0,.007-.569c-.035-.14-.07-.288-.105-.428-.028-.014-.035-.1-.12-.2a5.813,5.813,0,0,0-.484-.6c-.176-.21-.358-.414-.527-.618a4.5,4.5,0,0,1-.491-.674,6.654,6.654,0,0,1-.576-1.348,4.272,4.272,0,0,1-.155-2.1c.1-.5.267-.7.33-.7.1.007.077.3.127.737a5.665,5.665,0,0,0,.484,1.77,7.27,7.27,0,0,0,.611,1.1,3.99,3.99,0,0,0,.45.519c.175.183.365.372.554.569a5.581,5.581,0,0,1,.6.7,1.909,1.909,0,0,1,.309.562C70.856,26.784,70.9,26.932,70.934,27.079Z"/></g></svg>